G04 #@! TF.GenerationSoftware,KiCad,Pcbnew,5.1.5-52549c5~84~ubuntu19.10.1*
G04 #@! TF.CreationDate,2020-02-17T22:34:59+13:00*
G04 #@! TF.ProjectId,Snepper-1,536e6570-7065-4722-9d31-2e6b69636164,rev?*
G04 #@! TF.SameCoordinates,Original*
G04 #@! TF.FileFunction,Copper,L2,Bot*
G04 #@! TF.FilePolarity,Positive*
%FSLAX46Y46*%
G04 Gerber Fmt 4.6, Leading zero omitted, Abs format (unit mm)*
G04 Created by KiCad (PCBNEW 5.1.5-52549c5~84~ubuntu19.10.1) date 2020-02-17 22:34:59*
%MOMM*%
%LPD*%
G04 APERTURE LIST*
%ADD10C,4.400000*%
%ADD11C,2.200000*%
%ADD12R,2.200000X2.200000*%
%ADD13C,1.450000*%
%ADD14O,1.900000X1.200000*%
%ADD15R,1.700000X1.700000*%
%ADD16O,1.700000X1.700000*%
%ADD17C,1.600000*%
%ADD18C,0.800000*%
%ADD19C,0.250000*%
%ADD20C,0.254000*%
G04 APERTURE END LIST*
D10*
X173000000Y-102000000D03*
X127000000Y-102000000D03*
D11*
X162741250Y-135100000D03*
X169241250Y-135100000D03*
X169241250Y-130600000D03*
D12*
X162741250Y-130600000D03*
X148527500Y-130600000D03*
D11*
X155027500Y-130600000D03*
X155027500Y-135100000D03*
X148527500Y-135100000D03*
D13*
X119800000Y-90900000D03*
X119800000Y-95900000D03*
D14*
X117100000Y-89900000D03*
X117100000Y-96900000D03*
D15*
X170120000Y-109100000D03*
D16*
X170120000Y-111640000D03*
X167580000Y-109100000D03*
X167580000Y-111640000D03*
X165040000Y-109100000D03*
X165040000Y-111640000D03*
X162500000Y-109100000D03*
X162500000Y-111640000D03*
X159960000Y-109100000D03*
X159960000Y-111640000D03*
X157420000Y-109100000D03*
X157420000Y-111640000D03*
X154880000Y-109100000D03*
X154880000Y-111640000D03*
X152340000Y-109100000D03*
X152340000Y-111640000D03*
X149800000Y-109100000D03*
X149800000Y-111640000D03*
X147260000Y-109100000D03*
X147260000Y-111640000D03*
X144720000Y-109100000D03*
X144720000Y-111640000D03*
X142180000Y-109100000D03*
X142180000Y-111640000D03*
X139640000Y-109100000D03*
X139640000Y-111640000D03*
X137100000Y-109100000D03*
X137100000Y-111640000D03*
X134560000Y-109100000D03*
X134560000Y-111640000D03*
X132020000Y-109100000D03*
X132020000Y-111640000D03*
X129480000Y-109100000D03*
X129480000Y-111640000D03*
D15*
X142380000Y-64200000D03*
D16*
X144920000Y-64200000D03*
X147460000Y-64200000D03*
X150000000Y-64200000D03*
X152540000Y-64200000D03*
X155080000Y-64200000D03*
X157620000Y-64200000D03*
D17*
X131063750Y-132850000D03*
X135763750Y-132850000D03*
X140463750Y-132850000D03*
D18*
X141800000Y-97700000D03*
X143300000Y-75500000D03*
X143600000Y-118400000D03*
X156200000Y-85300000D03*
X161300000Y-85300000D03*
X162500000Y-85300000D03*
X152500000Y-67100000D03*
X148300000Y-67000000D03*
X133700000Y-85300000D03*
X141300000Y-85300000D03*
X136200000Y-85300000D03*
X142500000Y-85300000D03*
X157400000Y-85300000D03*
X138700000Y-85300000D03*
X143600000Y-80800000D03*
X164800000Y-118300000D03*
X143600000Y-114200000D03*
X161300000Y-105600000D03*
X155200000Y-90900000D03*
X157400000Y-79600000D03*
X130200000Y-81700000D03*
X147800000Y-97700000D03*
X166400000Y-90800000D03*
X158100000Y-130600000D03*
X140000000Y-118300000D03*
X176600000Y-92500000D03*
X142200000Y-87000000D03*
X163700000Y-105600000D03*
X166600000Y-105600000D03*
X159200000Y-106000000D03*
X157100000Y-105600000D03*
X154500000Y-105600000D03*
X150300000Y-77600000D03*
X145100000Y-118800000D03*
X134200000Y-105600000D03*
X136800000Y-105600000D03*
X139700000Y-87000000D03*
X144700000Y-87000000D03*
X139200000Y-105700000D03*
X144150000Y-105700000D03*
X148300000Y-77600000D03*
X152500000Y-74000000D03*
X142500000Y-67000000D03*
X146000000Y-132800000D03*
X133700000Y-134800000D03*
X140000000Y-85300000D03*
X140000000Y-72000000D03*
X156200000Y-72000000D03*
X156200000Y-110400000D03*
X136200000Y-117600000D03*
X138700000Y-117600000D03*
X141300000Y-117600000D03*
X162500000Y-74000000D03*
X161300000Y-74000000D03*
X144200000Y-85300000D03*
D19*
X143600000Y-81365685D02*
X143400000Y-81565685D01*
X143600000Y-80800000D02*
X143600000Y-81365685D01*
X143400000Y-117534315D02*
X143600000Y-117734315D01*
X143400000Y-115200000D02*
X143400000Y-117534315D01*
X143600000Y-114200000D02*
X143400000Y-114200000D01*
X143400000Y-81565685D02*
X143400000Y-114200000D01*
X143400000Y-114200000D02*
X143400000Y-115200000D01*
X143600000Y-118400000D02*
X143600000Y-117734315D01*
X148300000Y-69100000D02*
X148300000Y-67000000D01*
X148300000Y-77600000D02*
X148300000Y-69100000D01*
X152500000Y-68300000D02*
X152500000Y-74000000D01*
X152500000Y-68300000D02*
X152500000Y-67100000D01*
X143573002Y-74700000D02*
X142500000Y-74700000D01*
X146000000Y-77126998D02*
X143573002Y-74700000D01*
X146000000Y-132800000D02*
X146000000Y-77126998D01*
X142500000Y-69100000D02*
X142500000Y-74700000D01*
X142500000Y-74700000D02*
X142500000Y-85300000D01*
X142500000Y-69100000D02*
X142500000Y-67000000D01*
X133300001Y-85699999D02*
X133700000Y-85300000D01*
X133300001Y-134400001D02*
X133300001Y-85699999D01*
X133700000Y-134800000D02*
X133300001Y-134400001D01*
X140000000Y-84734315D02*
X140000000Y-72000000D01*
X140000000Y-85300000D02*
X140000000Y-84734315D01*
X156200000Y-72565685D02*
X156200000Y-85300000D01*
X156200000Y-72000000D02*
X156200000Y-72565685D01*
X156100000Y-110300000D02*
X156200000Y-110400000D01*
X157400000Y-85300000D02*
X156100000Y-86600000D01*
X156100000Y-86600000D02*
X156100000Y-110300000D01*
X135800001Y-85699999D02*
X136200000Y-85300000D01*
X135800001Y-117200001D02*
X135800001Y-85699999D01*
X136200000Y-117600000D02*
X135800001Y-117200001D01*
X138300001Y-85699999D02*
X138700000Y-85300000D01*
X138300001Y-117200001D02*
X138300001Y-85699999D01*
X138700000Y-117600000D02*
X138300001Y-117200001D01*
X140900001Y-85699999D02*
X141300000Y-85300000D01*
X140900001Y-117200001D02*
X140900001Y-85699999D01*
X141300000Y-117600000D02*
X140900001Y-117200001D01*
X162500000Y-84734315D02*
X162500000Y-74000000D01*
X162500000Y-85300000D02*
X162500000Y-84734315D01*
X161300000Y-85300000D02*
X161300000Y-74000000D01*
X143699999Y-75899999D02*
X143300000Y-75500000D01*
X144599999Y-84900001D02*
X144599999Y-76799999D01*
X144599999Y-76799999D02*
X143699999Y-75899999D01*
X144200000Y-85300000D02*
X144599999Y-84900001D01*
D20*
G36*
X183259659Y-60688625D02*
G01*
X183509429Y-60764035D01*
X183739792Y-60886522D01*
X183941980Y-61051422D01*
X184108286Y-61252450D01*
X184232378Y-61481954D01*
X184309531Y-61731195D01*
X184340000Y-62021088D01*
X184340001Y-137967711D01*
X184311375Y-138259660D01*
X184235965Y-138509429D01*
X184113477Y-138739794D01*
X183948579Y-138941979D01*
X183747546Y-139108288D01*
X183518046Y-139232378D01*
X183268805Y-139309531D01*
X182978911Y-139340000D01*
X117032279Y-139340000D01*
X116740340Y-139311375D01*
X116490571Y-139235965D01*
X116260206Y-139113477D01*
X116058021Y-138948579D01*
X115891712Y-138747546D01*
X115767622Y-138518046D01*
X115690469Y-138268805D01*
X115660000Y-137978911D01*
X115660000Y-133842702D01*
X130250653Y-133842702D01*
X130322236Y-134086671D01*
X130577746Y-134207571D01*
X130851934Y-134276300D01*
X131134262Y-134290217D01*
X131413880Y-134248787D01*
X131680042Y-134153603D01*
X131805264Y-134086671D01*
X131876847Y-133842702D01*
X131063750Y-133029605D01*
X130250653Y-133842702D01*
X115660000Y-133842702D01*
X115660000Y-132920512D01*
X129623533Y-132920512D01*
X129664963Y-133200130D01*
X129760147Y-133466292D01*
X129827079Y-133591514D01*
X130071048Y-133663097D01*
X130884145Y-132850000D01*
X131243355Y-132850000D01*
X132056452Y-133663097D01*
X132300421Y-133591514D01*
X132421321Y-133336004D01*
X132490050Y-133061816D01*
X132503967Y-132779488D01*
X132462537Y-132499870D01*
X132367353Y-132233708D01*
X132300421Y-132108486D01*
X132056452Y-132036903D01*
X131243355Y-132850000D01*
X130884145Y-132850000D01*
X130071048Y-132036903D01*
X129827079Y-132108486D01*
X129706179Y-132363996D01*
X129637450Y-132638184D01*
X129623533Y-132920512D01*
X115660000Y-132920512D01*
X115660000Y-131857298D01*
X130250653Y-131857298D01*
X131063750Y-132670395D01*
X131876847Y-131857298D01*
X131805264Y-131613329D01*
X131549754Y-131492429D01*
X131275566Y-131423700D01*
X130993238Y-131409783D01*
X130713620Y-131451213D01*
X130447458Y-131546397D01*
X130322236Y-131613329D01*
X130250653Y-131857298D01*
X115660000Y-131857298D01*
X115660000Y-108953740D01*
X127995000Y-108953740D01*
X127995000Y-109246260D01*
X128052068Y-109533158D01*
X128164010Y-109803411D01*
X128326525Y-110046632D01*
X128533368Y-110253475D01*
X128707760Y-110370000D01*
X128533368Y-110486525D01*
X128326525Y-110693368D01*
X128164010Y-110936589D01*
X128052068Y-111206842D01*
X127995000Y-111493740D01*
X127995000Y-111786260D01*
X128052068Y-112073158D01*
X128164010Y-112343411D01*
X128326525Y-112586632D01*
X128533368Y-112793475D01*
X128776589Y-112955990D01*
X129046842Y-113067932D01*
X129333740Y-113125000D01*
X129626260Y-113125000D01*
X129913158Y-113067932D01*
X130183411Y-112955990D01*
X130426632Y-112793475D01*
X130633475Y-112586632D01*
X130750000Y-112412240D01*
X130866525Y-112586632D01*
X131073368Y-112793475D01*
X131316589Y-112955990D01*
X131586842Y-113067932D01*
X131873740Y-113125000D01*
X132166260Y-113125000D01*
X132453158Y-113067932D01*
X132540001Y-113031960D01*
X132540001Y-134362679D01*
X132536325Y-134400001D01*
X132540001Y-134437323D01*
X132540001Y-134437333D01*
X132550998Y-134548986D01*
X132594455Y-134692247D01*
X132665000Y-134824226D01*
X132665000Y-134901939D01*
X132704774Y-135101898D01*
X132782795Y-135290256D01*
X132896063Y-135459774D01*
X133040226Y-135603937D01*
X133209744Y-135717205D01*
X133398102Y-135795226D01*
X133598061Y-135835000D01*
X133801939Y-135835000D01*
X134001898Y-135795226D01*
X134190256Y-135717205D01*
X134359774Y-135603937D01*
X134503937Y-135459774D01*
X134617205Y-135290256D01*
X134695226Y-135101898D01*
X134729594Y-134929117D01*
X146792500Y-134929117D01*
X146792500Y-135270883D01*
X146859175Y-135606081D01*
X146989963Y-135921831D01*
X147179837Y-136205998D01*
X147421502Y-136447663D01*
X147705669Y-136637537D01*
X148021419Y-136768325D01*
X148356617Y-136835000D01*
X148698383Y-136835000D01*
X149033581Y-136768325D01*
X149349331Y-136637537D01*
X149633498Y-136447663D01*
X149875163Y-136205998D01*
X150065037Y-135921831D01*
X150195825Y-135606081D01*
X150262500Y-135270883D01*
X150262500Y-134929117D01*
X153292500Y-134929117D01*
X153292500Y-135270883D01*
X153359175Y-135606081D01*
X153489963Y-135921831D01*
X153679837Y-136205998D01*
X153921502Y-136447663D01*
X154205669Y-136637537D01*
X154521419Y-136768325D01*
X154856617Y-136835000D01*
X155198383Y-136835000D01*
X155533581Y-136768325D01*
X155849331Y-136637537D01*
X156133498Y-136447663D01*
X156375163Y-136205998D01*
X156565037Y-135921831D01*
X156695825Y-135606081D01*
X156762500Y-135270883D01*
X156762500Y-134929117D01*
X161006250Y-134929117D01*
X161006250Y-135270883D01*
X161072925Y-135606081D01*
X161203713Y-135921831D01*
X161393587Y-136205998D01*
X161635252Y-136447663D01*
X161919419Y-136637537D01*
X162235169Y-136768325D01*
X162570367Y-136835000D01*
X162912133Y-136835000D01*
X163247331Y-136768325D01*
X163563081Y-136637537D01*
X163847248Y-136447663D01*
X164088913Y-136205998D01*
X164278787Y-135921831D01*
X164409575Y-135606081D01*
X164476250Y-135270883D01*
X164476250Y-134929117D01*
X167506250Y-134929117D01*
X167506250Y-135270883D01*
X167572925Y-135606081D01*
X167703713Y-135921831D01*
X167893587Y-136205998D01*
X168135252Y-136447663D01*
X168419419Y-136637537D01*
X168735169Y-136768325D01*
X169070367Y-136835000D01*
X169412133Y-136835000D01*
X169747331Y-136768325D01*
X170063081Y-136637537D01*
X170347248Y-136447663D01*
X170588913Y-136205998D01*
X170778787Y-135921831D01*
X170909575Y-135606081D01*
X170976250Y-135270883D01*
X170976250Y-134929117D01*
X170909575Y-134593919D01*
X170778787Y-134278169D01*
X170588913Y-133994002D01*
X170347248Y-133752337D01*
X170063081Y-133562463D01*
X169747331Y-133431675D01*
X169412133Y-133365000D01*
X169070367Y-133365000D01*
X168735169Y-133431675D01*
X168419419Y-133562463D01*
X168135252Y-133752337D01*
X167893587Y-133994002D01*
X167703713Y-134278169D01*
X167572925Y-134593919D01*
X167506250Y-134929117D01*
X164476250Y-134929117D01*
X164409575Y-134593919D01*
X164278787Y-134278169D01*
X164088913Y-133994002D01*
X163847248Y-133752337D01*
X163563081Y-133562463D01*
X163247331Y-133431675D01*
X162912133Y-133365000D01*
X162570367Y-133365000D01*
X162235169Y-133431675D01*
X161919419Y-133562463D01*
X161635252Y-133752337D01*
X161393587Y-133994002D01*
X161203713Y-134278169D01*
X161072925Y-134593919D01*
X161006250Y-134929117D01*
X156762500Y-134929117D01*
X156695825Y-134593919D01*
X156565037Y-134278169D01*
X156375163Y-133994002D01*
X156133498Y-133752337D01*
X155849331Y-133562463D01*
X155533581Y-133431675D01*
X155198383Y-133365000D01*
X154856617Y-133365000D01*
X154521419Y-133431675D01*
X154205669Y-133562463D01*
X153921502Y-133752337D01*
X153679837Y-133994002D01*
X153489963Y-134278169D01*
X153359175Y-134593919D01*
X153292500Y-134929117D01*
X150262500Y-134929117D01*
X150195825Y-134593919D01*
X150065037Y-134278169D01*
X149875163Y-133994002D01*
X149633498Y-133752337D01*
X149349331Y-133562463D01*
X149033581Y-133431675D01*
X148698383Y-133365000D01*
X148356617Y-133365000D01*
X148021419Y-133431675D01*
X147705669Y-133562463D01*
X147421502Y-133752337D01*
X147179837Y-133994002D01*
X146989963Y-134278169D01*
X146859175Y-134593919D01*
X146792500Y-134929117D01*
X134729594Y-134929117D01*
X134735000Y-134901939D01*
X134735000Y-134698061D01*
X134695226Y-134498102D01*
X134617205Y-134309744D01*
X134503937Y-134140226D01*
X134359774Y-133996063D01*
X134190256Y-133882795D01*
X134060001Y-133828841D01*
X134060001Y-132708665D01*
X134328750Y-132708665D01*
X134328750Y-132991335D01*
X134383897Y-133268574D01*
X134492070Y-133529727D01*
X134649113Y-133764759D01*
X134848991Y-133964637D01*
X135084023Y-134121680D01*
X135345176Y-134229853D01*
X135622415Y-134285000D01*
X135905085Y-134285000D01*
X136182324Y-134229853D01*
X136443477Y-134121680D01*
X136678509Y-133964637D01*
X136878387Y-133764759D01*
X137035430Y-133529727D01*
X137143603Y-133268574D01*
X137198750Y-132991335D01*
X137198750Y-132708665D01*
X139028750Y-132708665D01*
X139028750Y-132991335D01*
X139083897Y-133268574D01*
X139192070Y-133529727D01*
X139349113Y-133764759D01*
X139548991Y-133964637D01*
X139784023Y-134121680D01*
X140045176Y-134229853D01*
X140322415Y-134285000D01*
X140605085Y-134285000D01*
X140882324Y-134229853D01*
X141143477Y-134121680D01*
X141378509Y-133964637D01*
X141578387Y-133764759D01*
X141735430Y-133529727D01*
X141843603Y-133268574D01*
X141898750Y-132991335D01*
X141898750Y-132708665D01*
X141843603Y-132431426D01*
X141735430Y-132170273D01*
X141578387Y-131935241D01*
X141378509Y-131735363D01*
X141143477Y-131578320D01*
X140882324Y-131470147D01*
X140605085Y-131415000D01*
X140322415Y-131415000D01*
X140045176Y-131470147D01*
X139784023Y-131578320D01*
X139548991Y-131735363D01*
X139349113Y-131935241D01*
X139192070Y-132170273D01*
X139083897Y-132431426D01*
X139028750Y-132708665D01*
X137198750Y-132708665D01*
X137143603Y-132431426D01*
X137035430Y-132170273D01*
X136878387Y-131935241D01*
X136678509Y-131735363D01*
X136443477Y-131578320D01*
X136182324Y-131470147D01*
X135905085Y-131415000D01*
X135622415Y-131415000D01*
X135345176Y-131470147D01*
X135084023Y-131578320D01*
X134848991Y-131735363D01*
X134649113Y-131935241D01*
X134492070Y-132170273D01*
X134383897Y-132431426D01*
X134328750Y-132708665D01*
X134060001Y-132708665D01*
X134060001Y-113040246D01*
X134126842Y-113067932D01*
X134413740Y-113125000D01*
X134706260Y-113125000D01*
X134993158Y-113067932D01*
X135040001Y-113048529D01*
X135040001Y-117162679D01*
X135036325Y-117200001D01*
X135040001Y-117237323D01*
X135040001Y-117237333D01*
X135050998Y-117348986D01*
X135091588Y-117482795D01*
X135094455Y-117492247D01*
X135165000Y-117624226D01*
X135165000Y-117701939D01*
X135204774Y-117901898D01*
X135282795Y-118090256D01*
X135396063Y-118259774D01*
X135540226Y-118403937D01*
X135709744Y-118517205D01*
X135898102Y-118595226D01*
X136098061Y-118635000D01*
X136301939Y-118635000D01*
X136501898Y-118595226D01*
X136690256Y-118517205D01*
X136859774Y-118403937D01*
X137003937Y-118259774D01*
X137117205Y-118090256D01*
X137195226Y-117901898D01*
X137235000Y-117701939D01*
X137235000Y-117498061D01*
X137195226Y-117298102D01*
X137117205Y-117109744D01*
X137003937Y-116940226D01*
X136859774Y-116796063D01*
X136690256Y-116682795D01*
X136560001Y-116628841D01*
X136560001Y-113023677D01*
X136666842Y-113067932D01*
X136953740Y-113125000D01*
X137246260Y-113125000D01*
X137533158Y-113067932D01*
X137540001Y-113065097D01*
X137540001Y-117162679D01*
X137536325Y-117200001D01*
X137540001Y-117237323D01*
X137540001Y-117237333D01*
X137550998Y-117348986D01*
X137591588Y-117482795D01*
X137594455Y-117492247D01*
X137665000Y-117624226D01*
X137665000Y-117701939D01*
X137704774Y-117901898D01*
X137782795Y-118090256D01*
X137896063Y-118259774D01*
X138040226Y-118403937D01*
X138209744Y-118517205D01*
X138398102Y-118595226D01*
X138598061Y-118635000D01*
X138801939Y-118635000D01*
X139001898Y-118595226D01*
X139190256Y-118517205D01*
X139359774Y-118403937D01*
X139503937Y-118259774D01*
X139617205Y-118090256D01*
X139695226Y-117901898D01*
X139735000Y-117701939D01*
X139735000Y-117498061D01*
X139695226Y-117298102D01*
X139617205Y-117109744D01*
X139503937Y-116940226D01*
X139359774Y-116796063D01*
X139190256Y-116682795D01*
X139060001Y-116628841D01*
X139060001Y-113007109D01*
X139206842Y-113067932D01*
X139493740Y-113125000D01*
X139786260Y-113125000D01*
X140073158Y-113067932D01*
X140140001Y-113040245D01*
X140140001Y-117162679D01*
X140136325Y-117200001D01*
X140140001Y-117237323D01*
X140140001Y-117237333D01*
X140150998Y-117348986D01*
X140191588Y-117482795D01*
X140194455Y-117492247D01*
X140265000Y-117624226D01*
X140265000Y-117701939D01*
X140304774Y-117901898D01*
X140382795Y-118090256D01*
X140496063Y-118259774D01*
X140640226Y-118403937D01*
X140809744Y-118517205D01*
X140998102Y-118595226D01*
X141198061Y-118635000D01*
X141401939Y-118635000D01*
X141601898Y-118595226D01*
X141790256Y-118517205D01*
X141959774Y-118403937D01*
X142103937Y-118259774D01*
X142217205Y-118090256D01*
X142295226Y-117901898D01*
X142335000Y-117701939D01*
X142335000Y-117498061D01*
X142295226Y-117298102D01*
X142217205Y-117109744D01*
X142103937Y-116940226D01*
X141959774Y-116796063D01*
X141790256Y-116682795D01*
X141660001Y-116628841D01*
X141660001Y-113031961D01*
X141746842Y-113067932D01*
X142033740Y-113125000D01*
X142326260Y-113125000D01*
X142613158Y-113067932D01*
X142640001Y-113056813D01*
X142640001Y-113813057D01*
X142604774Y-113898102D01*
X142565000Y-114098061D01*
X142565000Y-114301939D01*
X142604774Y-114501898D01*
X142640000Y-114586941D01*
X142640001Y-115162659D01*
X142640000Y-115162668D01*
X142640001Y-117496983D01*
X142636324Y-117534315D01*
X142640001Y-117571648D01*
X142646756Y-117640226D01*
X142650998Y-117683300D01*
X142694454Y-117826561D01*
X142713974Y-117863081D01*
X142682795Y-117909744D01*
X142604774Y-118098102D01*
X142565000Y-118298061D01*
X142565000Y-118501939D01*
X142604774Y-118701898D01*
X142682795Y-118890256D01*
X142796063Y-119059774D01*
X142940226Y-119203937D01*
X143109744Y-119317205D01*
X143298102Y-119395226D01*
X143498061Y-119435000D01*
X143701939Y-119435000D01*
X143901898Y-119395226D01*
X144090256Y-119317205D01*
X144259774Y-119203937D01*
X144403937Y-119059774D01*
X144517205Y-118890256D01*
X144595226Y-118701898D01*
X144635000Y-118501939D01*
X144635000Y-118298061D01*
X144595226Y-118098102D01*
X144517205Y-117909744D01*
X144403937Y-117740226D01*
X144359924Y-117696213D01*
X144349003Y-117585329D01*
X144305546Y-117442068D01*
X144234974Y-117310039D01*
X144160000Y-117218683D01*
X144160000Y-115070604D01*
X144259774Y-115003937D01*
X144403937Y-114859774D01*
X144517205Y-114690256D01*
X144595226Y-114501898D01*
X144635000Y-114301939D01*
X144635000Y-114098061D01*
X144595226Y-113898102D01*
X144517205Y-113709744D01*
X144403937Y-113540226D01*
X144259774Y-113396063D01*
X144160000Y-113329396D01*
X144160000Y-113015393D01*
X144286842Y-113067932D01*
X144573740Y-113125000D01*
X144866260Y-113125000D01*
X145153158Y-113067932D01*
X145240000Y-113031961D01*
X145240000Y-132096289D01*
X145196063Y-132140226D01*
X145082795Y-132309744D01*
X145004774Y-132498102D01*
X144965000Y-132698061D01*
X144965000Y-132901939D01*
X145004774Y-133101898D01*
X145082795Y-133290256D01*
X145196063Y-133459774D01*
X145340226Y-133603937D01*
X145509744Y-133717205D01*
X145698102Y-133795226D01*
X145898061Y-133835000D01*
X146101939Y-133835000D01*
X146301898Y-133795226D01*
X146490256Y-133717205D01*
X146659774Y-133603937D01*
X146803937Y-133459774D01*
X146917205Y-133290256D01*
X146995226Y-133101898D01*
X147035000Y-132901939D01*
X147035000Y-132698061D01*
X146995226Y-132498102D01*
X146917205Y-132309744D01*
X146803937Y-132140226D01*
X146760000Y-132096289D01*
X146760000Y-131700000D01*
X146789428Y-131700000D01*
X146801688Y-131824482D01*
X146837998Y-131944180D01*
X146896963Y-132054494D01*
X146976315Y-132151185D01*
X147073006Y-132230537D01*
X147183320Y-132289502D01*
X147303018Y-132325812D01*
X147427500Y-132338072D01*
X148241750Y-132335000D01*
X148400500Y-132176250D01*
X148400500Y-130727000D01*
X148654500Y-130727000D01*
X148654500Y-132176250D01*
X148813250Y-132335000D01*
X149627500Y-132338072D01*
X149751982Y-132325812D01*
X149871680Y-132289502D01*
X149981994Y-132230537D01*
X150078685Y-132151185D01*
X150158037Y-132054494D01*
X150217002Y-131944180D01*
X150253312Y-131824482D01*
X150265572Y-131700000D01*
X150262500Y-130885750D01*
X150103750Y-130727000D01*
X148654500Y-130727000D01*
X148400500Y-130727000D01*
X146951250Y-130727000D01*
X146792500Y-130885750D01*
X146789428Y-131700000D01*
X146760000Y-131700000D01*
X146760000Y-129500000D01*
X146789428Y-129500000D01*
X146792500Y-130314250D01*
X146951250Y-130473000D01*
X148400500Y-130473000D01*
X148400500Y-129023750D01*
X148654500Y-129023750D01*
X148654500Y-130473000D01*
X150103750Y-130473000D01*
X150147633Y-130429117D01*
X153292500Y-130429117D01*
X153292500Y-130770883D01*
X153359175Y-131106081D01*
X153489963Y-131421831D01*
X153679837Y-131705998D01*
X153921502Y-131947663D01*
X154205669Y-132137537D01*
X154521419Y-132268325D01*
X154856617Y-132335000D01*
X155198383Y-132335000D01*
X155533581Y-132268325D01*
X155849331Y-132137537D01*
X156133498Y-131947663D01*
X156375163Y-131705998D01*
X156565037Y-131421831D01*
X156695825Y-131106081D01*
X156762500Y-130770883D01*
X156762500Y-130429117D01*
X156695825Y-130093919D01*
X156565037Y-129778169D01*
X156379171Y-129500000D01*
X161003178Y-129500000D01*
X161003178Y-131700000D01*
X161015438Y-131824482D01*
X161051748Y-131944180D01*
X161110713Y-132054494D01*
X161190065Y-132151185D01*
X161286756Y-132230537D01*
X161397070Y-132289502D01*
X161516768Y-132325812D01*
X161641250Y-132338072D01*
X163841250Y-132338072D01*
X163965732Y-132325812D01*
X164085430Y-132289502D01*
X164195744Y-132230537D01*
X164292435Y-132151185D01*
X164371787Y-132054494D01*
X164430752Y-131944180D01*
X164467062Y-131824482D01*
X164479322Y-131700000D01*
X164479322Y-130429117D01*
X167506250Y-130429117D01*
X167506250Y-130770883D01*
X167572925Y-131106081D01*
X167703713Y-131421831D01*
X167893587Y-131705998D01*
X168135252Y-131947663D01*
X168419419Y-132137537D01*
X168735169Y-132268325D01*
X169070367Y-132335000D01*
X169412133Y-132335000D01*
X169747331Y-132268325D01*
X170063081Y-132137537D01*
X170347248Y-131947663D01*
X170588913Y-131705998D01*
X170778787Y-131421831D01*
X170909575Y-131106081D01*
X170976250Y-130770883D01*
X170976250Y-130429117D01*
X170909575Y-130093919D01*
X170778787Y-129778169D01*
X170588913Y-129494002D01*
X170347248Y-129252337D01*
X170063081Y-129062463D01*
X169747331Y-128931675D01*
X169412133Y-128865000D01*
X169070367Y-128865000D01*
X168735169Y-128931675D01*
X168419419Y-129062463D01*
X168135252Y-129252337D01*
X167893587Y-129494002D01*
X167703713Y-129778169D01*
X167572925Y-130093919D01*
X167506250Y-130429117D01*
X164479322Y-130429117D01*
X164479322Y-129500000D01*
X164467062Y-129375518D01*
X164430752Y-129255820D01*
X164371787Y-129145506D01*
X164292435Y-129048815D01*
X164195744Y-128969463D01*
X164085430Y-128910498D01*
X163965732Y-128874188D01*
X163841250Y-128861928D01*
X161641250Y-128861928D01*
X161516768Y-128874188D01*
X161397070Y-128910498D01*
X161286756Y-128969463D01*
X161190065Y-129048815D01*
X161110713Y-129145506D01*
X161051748Y-129255820D01*
X161015438Y-129375518D01*
X161003178Y-129500000D01*
X156379171Y-129500000D01*
X156375163Y-129494002D01*
X156133498Y-129252337D01*
X155849331Y-129062463D01*
X155533581Y-128931675D01*
X155198383Y-128865000D01*
X154856617Y-128865000D01*
X154521419Y-128931675D01*
X154205669Y-129062463D01*
X153921502Y-129252337D01*
X153679837Y-129494002D01*
X153489963Y-129778169D01*
X153359175Y-130093919D01*
X153292500Y-130429117D01*
X150147633Y-130429117D01*
X150262500Y-130314250D01*
X150265572Y-129500000D01*
X150253312Y-129375518D01*
X150217002Y-129255820D01*
X150158037Y-129145506D01*
X150078685Y-129048815D01*
X149981994Y-128969463D01*
X149871680Y-128910498D01*
X149751982Y-128874188D01*
X149627500Y-128861928D01*
X148813250Y-128865000D01*
X148654500Y-129023750D01*
X148400500Y-129023750D01*
X148241750Y-128865000D01*
X147427500Y-128861928D01*
X147303018Y-128874188D01*
X147183320Y-128910498D01*
X147073006Y-128969463D01*
X146976315Y-129048815D01*
X146896963Y-129145506D01*
X146837998Y-129255820D01*
X146801688Y-129375518D01*
X146789428Y-129500000D01*
X146760000Y-129500000D01*
X146760000Y-118198061D01*
X163765000Y-118198061D01*
X163765000Y-118401939D01*
X163804774Y-118601898D01*
X163882795Y-118790256D01*
X163996063Y-118959774D01*
X164140226Y-119103937D01*
X164309744Y-119217205D01*
X164498102Y-119295226D01*
X164698061Y-119335000D01*
X164901939Y-119335000D01*
X165101898Y-119295226D01*
X165290256Y-119217205D01*
X165459774Y-119103937D01*
X165603937Y-118959774D01*
X165717205Y-118790256D01*
X165795226Y-118601898D01*
X165835000Y-118401939D01*
X165835000Y-118198061D01*
X165795226Y-117998102D01*
X165717205Y-117809744D01*
X165603937Y-117640226D01*
X165459774Y-117496063D01*
X165290256Y-117382795D01*
X165101898Y-117304774D01*
X164901939Y-117265000D01*
X164698061Y-117265000D01*
X164498102Y-117304774D01*
X164309744Y-117382795D01*
X164140226Y-117496063D01*
X163996063Y-117640226D01*
X163882795Y-117809744D01*
X163804774Y-117998102D01*
X163765000Y-118198061D01*
X146760000Y-118198061D01*
X146760000Y-113040245D01*
X146826842Y-113067932D01*
X147113740Y-113125000D01*
X147406260Y-113125000D01*
X147693158Y-113067932D01*
X147963411Y-112955990D01*
X148206632Y-112793475D01*
X148413475Y-112586632D01*
X148530000Y-112412240D01*
X148646525Y-112586632D01*
X148853368Y-112793475D01*
X149096589Y-112955990D01*
X149366842Y-113067932D01*
X149653740Y-113125000D01*
X149946260Y-113125000D01*
X150233158Y-113067932D01*
X150503411Y-112955990D01*
X150746632Y-112793475D01*
X150953475Y-112586632D01*
X151070000Y-112412240D01*
X151186525Y-112586632D01*
X151393368Y-112793475D01*
X151636589Y-112955990D01*
X151906842Y-113067932D01*
X152193740Y-113125000D01*
X152486260Y-113125000D01*
X152773158Y-113067932D01*
X153043411Y-112955990D01*
X153286632Y-112793475D01*
X153493475Y-112586632D01*
X153610000Y-112412240D01*
X153726525Y-112586632D01*
X153933368Y-112793475D01*
X154176589Y-112955990D01*
X154446842Y-113067932D01*
X154733740Y-113125000D01*
X155026260Y-113125000D01*
X155313158Y-113067932D01*
X155583411Y-112955990D01*
X155826632Y-112793475D01*
X156033475Y-112586632D01*
X156150000Y-112412240D01*
X156266525Y-112586632D01*
X156473368Y-112793475D01*
X156716589Y-112955990D01*
X156986842Y-113067932D01*
X157273740Y-113125000D01*
X157566260Y-113125000D01*
X157853158Y-113067932D01*
X158123411Y-112955990D01*
X158366632Y-112793475D01*
X158573475Y-112586632D01*
X158690000Y-112412240D01*
X158806525Y-112586632D01*
X159013368Y-112793475D01*
X159256589Y-112955990D01*
X159526842Y-113067932D01*
X159813740Y-113125000D01*
X160106260Y-113125000D01*
X160393158Y-113067932D01*
X160663411Y-112955990D01*
X160906632Y-112793475D01*
X161113475Y-112586632D01*
X161230000Y-112412240D01*
X161346525Y-112586632D01*
X161553368Y-112793475D01*
X161796589Y-112955990D01*
X162066842Y-113067932D01*
X162353740Y-113125000D01*
X162646260Y-113125000D01*
X162933158Y-113067932D01*
X163203411Y-112955990D01*
X163446632Y-112793475D01*
X163653475Y-112586632D01*
X163770000Y-112412240D01*
X163886525Y-112586632D01*
X164093368Y-112793475D01*
X164336589Y-112955990D01*
X164606842Y-113067932D01*
X164893740Y-113125000D01*
X165186260Y-113125000D01*
X165473158Y-113067932D01*
X165743411Y-112955990D01*
X165986632Y-112793475D01*
X166193475Y-112586632D01*
X166310000Y-112412240D01*
X166426525Y-112586632D01*
X166633368Y-112793475D01*
X166876589Y-112955990D01*
X167146842Y-113067932D01*
X167433740Y-113125000D01*
X167726260Y-113125000D01*
X168013158Y-113067932D01*
X168283411Y-112955990D01*
X168526632Y-112793475D01*
X168733475Y-112586632D01*
X168850000Y-112412240D01*
X168966525Y-112586632D01*
X169173368Y-112793475D01*
X169416589Y-112955990D01*
X169686842Y-113067932D01*
X169973740Y-113125000D01*
X170266260Y-113125000D01*
X170553158Y-113067932D01*
X170823411Y-112955990D01*
X171066632Y-112793475D01*
X171273475Y-112586632D01*
X171435990Y-112343411D01*
X171547932Y-112073158D01*
X171605000Y-111786260D01*
X171605000Y-111493740D01*
X171547932Y-111206842D01*
X171435990Y-110936589D01*
X171273475Y-110693368D01*
X171141620Y-110561513D01*
X171214180Y-110539502D01*
X171324494Y-110480537D01*
X171421185Y-110401185D01*
X171500537Y-110304494D01*
X171559502Y-110194180D01*
X171595812Y-110074482D01*
X171608072Y-109950000D01*
X171608072Y-108250000D01*
X171595812Y-108125518D01*
X171559502Y-108005820D01*
X171500537Y-107895506D01*
X171421185Y-107798815D01*
X171324494Y-107719463D01*
X171214180Y-107660498D01*
X171094482Y-107624188D01*
X170970000Y-107611928D01*
X169270000Y-107611928D01*
X169145518Y-107624188D01*
X169025820Y-107660498D01*
X168915506Y-107719463D01*
X168818815Y-107798815D01*
X168739463Y-107895506D01*
X168680498Y-108005820D01*
X168658487Y-108078380D01*
X168526632Y-107946525D01*
X168283411Y-107784010D01*
X168013158Y-107672068D01*
X167726260Y-107615000D01*
X167433740Y-107615000D01*
X167146842Y-107672068D01*
X166876589Y-107784010D01*
X166633368Y-107946525D01*
X166426525Y-108153368D01*
X166310000Y-108327760D01*
X166193475Y-108153368D01*
X165986632Y-107946525D01*
X165743411Y-107784010D01*
X165473158Y-107672068D01*
X165186260Y-107615000D01*
X164893740Y-107615000D01*
X164606842Y-107672068D01*
X164336589Y-107784010D01*
X164093368Y-107946525D01*
X163886525Y-108153368D01*
X163770000Y-108327760D01*
X163653475Y-108153368D01*
X163446632Y-107946525D01*
X163203411Y-107784010D01*
X162933158Y-107672068D01*
X162646260Y-107615000D01*
X162353740Y-107615000D01*
X162066842Y-107672068D01*
X161796589Y-107784010D01*
X161553368Y-107946525D01*
X161346525Y-108153368D01*
X161230000Y-108327760D01*
X161113475Y-108153368D01*
X160906632Y-107946525D01*
X160663411Y-107784010D01*
X160393158Y-107672068D01*
X160106260Y-107615000D01*
X159813740Y-107615000D01*
X159526842Y-107672068D01*
X159256589Y-107784010D01*
X159013368Y-107946525D01*
X158806525Y-108153368D01*
X158690000Y-108327760D01*
X158573475Y-108153368D01*
X158366632Y-107946525D01*
X158123411Y-107784010D01*
X157853158Y-107672068D01*
X157566260Y-107615000D01*
X157273740Y-107615000D01*
X156986842Y-107672068D01*
X156860000Y-107724607D01*
X156860000Y-103989775D01*
X171189830Y-103989775D01*
X171429976Y-104377018D01*
X171923877Y-104637641D01*
X172459133Y-104796901D01*
X173015174Y-104848678D01*
X173570632Y-104790981D01*
X174104161Y-104626028D01*
X174570024Y-104377018D01*
X174810170Y-103989775D01*
X173000000Y-102179605D01*
X171189830Y-103989775D01*
X156860000Y-103989775D01*
X156860000Y-102015174D01*
X170151322Y-102015174D01*
X170209019Y-102570632D01*
X170373972Y-103104161D01*
X170622982Y-103570024D01*
X171010225Y-103810170D01*
X172820395Y-102000000D01*
X173179605Y-102000000D01*
X174989775Y-103810170D01*
X175377018Y-103570024D01*
X175637641Y-103076123D01*
X175796901Y-102540867D01*
X175848678Y-101984826D01*
X175790981Y-101429368D01*
X175626028Y-100895839D01*
X175377018Y-100429976D01*
X174989775Y-100189830D01*
X173179605Y-102000000D01*
X172820395Y-102000000D01*
X171010225Y-100189830D01*
X170622982Y-100429976D01*
X170362359Y-100923877D01*
X170203099Y-101459133D01*
X170151322Y-102015174D01*
X156860000Y-102015174D01*
X156860000Y-100010225D01*
X171189830Y-100010225D01*
X173000000Y-101820395D01*
X174810170Y-100010225D01*
X174570024Y-99622982D01*
X174076123Y-99362359D01*
X173540867Y-99203099D01*
X172984826Y-99151322D01*
X172429368Y-99209019D01*
X171895839Y-99373972D01*
X171429976Y-99622982D01*
X171189830Y-100010225D01*
X156860000Y-100010225D01*
X156860000Y-86914801D01*
X157439802Y-86335000D01*
X157501939Y-86335000D01*
X157701898Y-86295226D01*
X157890256Y-86217205D01*
X158059774Y-86103937D01*
X158203937Y-85959774D01*
X158317205Y-85790256D01*
X158395226Y-85601898D01*
X158435000Y-85401939D01*
X158435000Y-85198061D01*
X158395226Y-84998102D01*
X158317205Y-84809744D01*
X158203937Y-84640226D01*
X158059774Y-84496063D01*
X157890256Y-84382795D01*
X157701898Y-84304774D01*
X157501939Y-84265000D01*
X157298061Y-84265000D01*
X157098102Y-84304774D01*
X156960000Y-84361978D01*
X156960000Y-73898061D01*
X160265000Y-73898061D01*
X160265000Y-74101939D01*
X160304774Y-74301898D01*
X160382795Y-74490256D01*
X160496063Y-74659774D01*
X160540001Y-74703712D01*
X160540000Y-84596289D01*
X160496063Y-84640226D01*
X160382795Y-84809744D01*
X160304774Y-84998102D01*
X160265000Y-85198061D01*
X160265000Y-85401939D01*
X160304774Y-85601898D01*
X160382795Y-85790256D01*
X160496063Y-85959774D01*
X160640226Y-86103937D01*
X160809744Y-86217205D01*
X160998102Y-86295226D01*
X161198061Y-86335000D01*
X161401939Y-86335000D01*
X161601898Y-86295226D01*
X161790256Y-86217205D01*
X161900000Y-86143877D01*
X162009744Y-86217205D01*
X162198102Y-86295226D01*
X162398061Y-86335000D01*
X162601939Y-86335000D01*
X162801898Y-86295226D01*
X162990256Y-86217205D01*
X163159774Y-86103937D01*
X163303937Y-85959774D01*
X163417205Y-85790256D01*
X163495226Y-85601898D01*
X163535000Y-85401939D01*
X163535000Y-85198061D01*
X163495226Y-84998102D01*
X163417205Y-84809744D01*
X163303937Y-84640226D01*
X163260000Y-84596289D01*
X163260000Y-74703711D01*
X163303937Y-74659774D01*
X163417205Y-74490256D01*
X163495226Y-74301898D01*
X163535000Y-74101939D01*
X163535000Y-73898061D01*
X163495226Y-73698102D01*
X163417205Y-73509744D01*
X163303937Y-73340226D01*
X163159774Y-73196063D01*
X162990256Y-73082795D01*
X162801898Y-73004774D01*
X162601939Y-72965000D01*
X162398061Y-72965000D01*
X162198102Y-73004774D01*
X162009744Y-73082795D01*
X161900000Y-73156123D01*
X161790256Y-73082795D01*
X161601898Y-73004774D01*
X161401939Y-72965000D01*
X161198061Y-72965000D01*
X160998102Y-73004774D01*
X160809744Y-73082795D01*
X160640226Y-73196063D01*
X160496063Y-73340226D01*
X160382795Y-73509744D01*
X160304774Y-73698102D01*
X160265000Y-73898061D01*
X156960000Y-73898061D01*
X156960000Y-72703711D01*
X157003937Y-72659774D01*
X157117205Y-72490256D01*
X157195226Y-72301898D01*
X157235000Y-72101939D01*
X157235000Y-71898061D01*
X157195226Y-71698102D01*
X157117205Y-71509744D01*
X157003937Y-71340226D01*
X156859774Y-71196063D01*
X156690256Y-71082795D01*
X156501898Y-71004774D01*
X156301939Y-70965000D01*
X156098061Y-70965000D01*
X155898102Y-71004774D01*
X155709744Y-71082795D01*
X155540226Y-71196063D01*
X155396063Y-71340226D01*
X155282795Y-71509744D01*
X155204774Y-71698102D01*
X155165000Y-71898061D01*
X155165000Y-72101939D01*
X155204774Y-72301898D01*
X155282795Y-72490256D01*
X155396063Y-72659774D01*
X155440000Y-72703711D01*
X155440001Y-84596288D01*
X155396063Y-84640226D01*
X155282795Y-84809744D01*
X155204774Y-84998102D01*
X155165000Y-85198061D01*
X155165000Y-85401939D01*
X155204774Y-85601898D01*
X155282795Y-85790256D01*
X155396063Y-85959774D01*
X155531281Y-86094992D01*
X155507250Y-86124275D01*
X155465026Y-86175724D01*
X155442854Y-86217205D01*
X155394454Y-86307754D01*
X155350997Y-86451015D01*
X155340000Y-86562668D01*
X155340000Y-86562678D01*
X155336324Y-86600000D01*
X155340000Y-86637322D01*
X155340001Y-107683187D01*
X155313158Y-107672068D01*
X155026260Y-107615000D01*
X154733740Y-107615000D01*
X154446842Y-107672068D01*
X154176589Y-107784010D01*
X153933368Y-107946525D01*
X153726525Y-108153368D01*
X153610000Y-108327760D01*
X153493475Y-108153368D01*
X153286632Y-107946525D01*
X153043411Y-107784010D01*
X152773158Y-107672068D01*
X152486260Y-107615000D01*
X152193740Y-107615000D01*
X151906842Y-107672068D01*
X151636589Y-107784010D01*
X151393368Y-107946525D01*
X151186525Y-108153368D01*
X151070000Y-108327760D01*
X150953475Y-108153368D01*
X150746632Y-107946525D01*
X150503411Y-107784010D01*
X150233158Y-107672068D01*
X149946260Y-107615000D01*
X149653740Y-107615000D01*
X149366842Y-107672068D01*
X149096589Y-107784010D01*
X148853368Y-107946525D01*
X148646525Y-108153368D01*
X148530000Y-108327760D01*
X148413475Y-108153368D01*
X148206632Y-107946525D01*
X147963411Y-107784010D01*
X147693158Y-107672068D01*
X147406260Y-107615000D01*
X147113740Y-107615000D01*
X146826842Y-107672068D01*
X146760000Y-107699755D01*
X146760000Y-77164320D01*
X146763676Y-77126997D01*
X146760000Y-77089674D01*
X146760000Y-77089665D01*
X146749003Y-76978012D01*
X146705546Y-76834751D01*
X146634974Y-76702722D01*
X146592537Y-76651012D01*
X146563799Y-76615994D01*
X146563795Y-76615990D01*
X146540001Y-76586997D01*
X146511008Y-76563203D01*
X144136806Y-74189003D01*
X144113003Y-74159999D01*
X143997278Y-74065026D01*
X143865249Y-73994454D01*
X143721988Y-73950997D01*
X143610335Y-73940000D01*
X143610324Y-73940000D01*
X143573002Y-73936324D01*
X143535680Y-73940000D01*
X143260000Y-73940000D01*
X143260000Y-67703711D01*
X143303937Y-67659774D01*
X143417205Y-67490256D01*
X143495226Y-67301898D01*
X143535000Y-67101939D01*
X143535000Y-66898061D01*
X147265000Y-66898061D01*
X147265000Y-67101939D01*
X147304774Y-67301898D01*
X147382795Y-67490256D01*
X147496063Y-67659774D01*
X147540001Y-67703712D01*
X147540000Y-69137332D01*
X147540001Y-69137342D01*
X147540000Y-76896289D01*
X147496063Y-76940226D01*
X147382795Y-77109744D01*
X147304774Y-77298102D01*
X147265000Y-77498061D01*
X147265000Y-77701939D01*
X147304774Y-77901898D01*
X147382795Y-78090256D01*
X147496063Y-78259774D01*
X147640226Y-78403937D01*
X147809744Y-78517205D01*
X147998102Y-78595226D01*
X148198061Y-78635000D01*
X148401939Y-78635000D01*
X148601898Y-78595226D01*
X148790256Y-78517205D01*
X148959774Y-78403937D01*
X149103937Y-78259774D01*
X149217205Y-78090256D01*
X149295226Y-77901898D01*
X149335000Y-77701939D01*
X149335000Y-77498061D01*
X149295226Y-77298102D01*
X149217205Y-77109744D01*
X149103937Y-76940226D01*
X149060000Y-76896289D01*
X149060000Y-67703711D01*
X149103937Y-67659774D01*
X149217205Y-67490256D01*
X149295226Y-67301898D01*
X149335000Y-67101939D01*
X149335000Y-66998061D01*
X151465000Y-66998061D01*
X151465000Y-67201939D01*
X151504774Y-67401898D01*
X151582795Y-67590256D01*
X151696063Y-67759774D01*
X151740000Y-67803711D01*
X151740000Y-68262668D01*
X151740001Y-73296288D01*
X151696063Y-73340226D01*
X151582795Y-73509744D01*
X151504774Y-73698102D01*
X151465000Y-73898061D01*
X151465000Y-74101939D01*
X151504774Y-74301898D01*
X151582795Y-74490256D01*
X151696063Y-74659774D01*
X151840226Y-74803937D01*
X152009744Y-74917205D01*
X152198102Y-74995226D01*
X152398061Y-75035000D01*
X152601939Y-75035000D01*
X152801898Y-74995226D01*
X152990256Y-74917205D01*
X153159774Y-74803937D01*
X153303937Y-74659774D01*
X153417205Y-74490256D01*
X153495226Y-74301898D01*
X153535000Y-74101939D01*
X153535000Y-73898061D01*
X153495226Y-73698102D01*
X153417205Y-73509744D01*
X153303937Y-73340226D01*
X153260000Y-73296289D01*
X153260000Y-67803711D01*
X153303937Y-67759774D01*
X153417205Y-67590256D01*
X153495226Y-67401898D01*
X153535000Y-67201939D01*
X153535000Y-66998061D01*
X153495226Y-66798102D01*
X153417205Y-66609744D01*
X153303937Y-66440226D01*
X153159774Y-66296063D01*
X152990256Y-66182795D01*
X152801898Y-66104774D01*
X152601939Y-66065000D01*
X152398061Y-66065000D01*
X152198102Y-66104774D01*
X152009744Y-66182795D01*
X151840226Y-66296063D01*
X151696063Y-66440226D01*
X151582795Y-66609744D01*
X151504774Y-66798102D01*
X151465000Y-66998061D01*
X149335000Y-66998061D01*
X149335000Y-66898061D01*
X149295226Y-66698102D01*
X149217205Y-66509744D01*
X149103937Y-66340226D01*
X148959774Y-66196063D01*
X148790256Y-66082795D01*
X148601898Y-66004774D01*
X148401939Y-65965000D01*
X148198061Y-65965000D01*
X147998102Y-66004774D01*
X147809744Y-66082795D01*
X147640226Y-66196063D01*
X147496063Y-66340226D01*
X147382795Y-66509744D01*
X147304774Y-66698102D01*
X147265000Y-66898061D01*
X143535000Y-66898061D01*
X143495226Y-66698102D01*
X143417205Y-66509744D01*
X143303937Y-66340226D01*
X143159774Y-66196063D01*
X142990256Y-66082795D01*
X142801898Y-66004774D01*
X142601939Y-65965000D01*
X142398061Y-65965000D01*
X142198102Y-66004774D01*
X142009744Y-66082795D01*
X141840226Y-66196063D01*
X141696063Y-66340226D01*
X141582795Y-66509744D01*
X141504774Y-66698102D01*
X141465000Y-66898061D01*
X141465000Y-67101939D01*
X141504774Y-67301898D01*
X141582795Y-67490256D01*
X141696063Y-67659774D01*
X141740001Y-67703712D01*
X141740000Y-69062667D01*
X141740000Y-69062668D01*
X141740001Y-74662657D01*
X141736323Y-74700000D01*
X141740000Y-74737333D01*
X141740001Y-84361979D01*
X141601898Y-84304774D01*
X141401939Y-84265000D01*
X141198061Y-84265000D01*
X140998102Y-84304774D01*
X140809744Y-84382795D01*
X140760000Y-84416033D01*
X140760000Y-72703711D01*
X140803937Y-72659774D01*
X140917205Y-72490256D01*
X140995226Y-72301898D01*
X141035000Y-72101939D01*
X141035000Y-71898061D01*
X140995226Y-71698102D01*
X140917205Y-71509744D01*
X140803937Y-71340226D01*
X140659774Y-71196063D01*
X140490256Y-71082795D01*
X140301898Y-71004774D01*
X140101939Y-70965000D01*
X139898061Y-70965000D01*
X139698102Y-71004774D01*
X139509744Y-71082795D01*
X139340226Y-71196063D01*
X139196063Y-71340226D01*
X139082795Y-71509744D01*
X139004774Y-71698102D01*
X138965000Y-71898061D01*
X138965000Y-72101939D01*
X139004774Y-72301898D01*
X139082795Y-72490256D01*
X139196063Y-72659774D01*
X139240001Y-72703712D01*
X139240000Y-84416033D01*
X139190256Y-84382795D01*
X139001898Y-84304774D01*
X138801939Y-84265000D01*
X138598061Y-84265000D01*
X138398102Y-84304774D01*
X138209744Y-84382795D01*
X138040226Y-84496063D01*
X137896063Y-84640226D01*
X137782795Y-84809744D01*
X137704774Y-84998102D01*
X137665000Y-85198061D01*
X137665000Y-85275774D01*
X137594455Y-85407753D01*
X137550999Y-85551014D01*
X137536325Y-85699999D01*
X137540002Y-85737332D01*
X137540001Y-107674903D01*
X137533158Y-107672068D01*
X137246260Y-107615000D01*
X136953740Y-107615000D01*
X136666842Y-107672068D01*
X136560001Y-107716323D01*
X136560001Y-86271159D01*
X136690256Y-86217205D01*
X136859774Y-86103937D01*
X137003937Y-85959774D01*
X137117205Y-85790256D01*
X137195226Y-85601898D01*
X137235000Y-85401939D01*
X137235000Y-85198061D01*
X137195226Y-84998102D01*
X137117205Y-84809744D01*
X137003937Y-84640226D01*
X136859774Y-84496063D01*
X136690256Y-84382795D01*
X136501898Y-84304774D01*
X136301939Y-84265000D01*
X136098061Y-84265000D01*
X135898102Y-84304774D01*
X135709744Y-84382795D01*
X135540226Y-84496063D01*
X135396063Y-84640226D01*
X135282795Y-84809744D01*
X135204774Y-84998102D01*
X135165000Y-85198061D01*
X135165000Y-85275774D01*
X135094455Y-85407753D01*
X135050999Y-85551014D01*
X135036325Y-85699999D01*
X135040002Y-85737332D01*
X135040001Y-107691471D01*
X134993158Y-107672068D01*
X134706260Y-107615000D01*
X134413740Y-107615000D01*
X134126842Y-107672068D01*
X134060001Y-107699754D01*
X134060001Y-86271159D01*
X134190256Y-86217205D01*
X134359774Y-86103937D01*
X134503937Y-85959774D01*
X134617205Y-85790256D01*
X134695226Y-85601898D01*
X134735000Y-85401939D01*
X134735000Y-85198061D01*
X134695226Y-84998102D01*
X134617205Y-84809744D01*
X134503937Y-84640226D01*
X134359774Y-84496063D01*
X134190256Y-84382795D01*
X134001898Y-84304774D01*
X133801939Y-84265000D01*
X133598061Y-84265000D01*
X133398102Y-84304774D01*
X133209744Y-84382795D01*
X133040226Y-84496063D01*
X132896063Y-84640226D01*
X132782795Y-84809744D01*
X132704774Y-84998102D01*
X132665000Y-85198061D01*
X132665000Y-85275774D01*
X132594455Y-85407753D01*
X132550999Y-85551014D01*
X132536325Y-85699999D01*
X132540002Y-85737332D01*
X132540002Y-107708040D01*
X132453158Y-107672068D01*
X132166260Y-107615000D01*
X131873740Y-107615000D01*
X131586842Y-107672068D01*
X131316589Y-107784010D01*
X131073368Y-107946525D01*
X130866525Y-108153368D01*
X130750000Y-108327760D01*
X130633475Y-108153368D01*
X130426632Y-107946525D01*
X130183411Y-107784010D01*
X129913158Y-107672068D01*
X129626260Y-107615000D01*
X129333740Y-107615000D01*
X129046842Y-107672068D01*
X128776589Y-107784010D01*
X128533368Y-107946525D01*
X128326525Y-108153368D01*
X128164010Y-108396589D01*
X128052068Y-108666842D01*
X127995000Y-108953740D01*
X115660000Y-108953740D01*
X115660000Y-103989775D01*
X125189830Y-103989775D01*
X125429976Y-104377018D01*
X125923877Y-104637641D01*
X126459133Y-104796901D01*
X127015174Y-104848678D01*
X127570632Y-104790981D01*
X128104161Y-104626028D01*
X128570024Y-104377018D01*
X128810170Y-103989775D01*
X127000000Y-102179605D01*
X125189830Y-103989775D01*
X115660000Y-103989775D01*
X115660000Y-102015174D01*
X124151322Y-102015174D01*
X124209019Y-102570632D01*
X124373972Y-103104161D01*
X124622982Y-103570024D01*
X125010225Y-103810170D01*
X126820395Y-102000000D01*
X127179605Y-102000000D01*
X128989775Y-103810170D01*
X129377018Y-103570024D01*
X129637641Y-103076123D01*
X129796901Y-102540867D01*
X129848678Y-101984826D01*
X129790981Y-101429368D01*
X129626028Y-100895839D01*
X129377018Y-100429976D01*
X128989775Y-100189830D01*
X127179605Y-102000000D01*
X126820395Y-102000000D01*
X125010225Y-100189830D01*
X124622982Y-100429976D01*
X124362359Y-100923877D01*
X124203099Y-101459133D01*
X124151322Y-102015174D01*
X115660000Y-102015174D01*
X115660000Y-100010225D01*
X125189830Y-100010225D01*
X127000000Y-101820395D01*
X128810170Y-100010225D01*
X128570024Y-99622982D01*
X128076123Y-99362359D01*
X127540867Y-99203099D01*
X126984826Y-99151322D01*
X126429368Y-99209019D01*
X125895839Y-99373972D01*
X125429976Y-99622982D01*
X125189830Y-100010225D01*
X115660000Y-100010225D01*
X115660000Y-97491743D01*
X115786922Y-97683474D01*
X115958275Y-97856307D01*
X116160054Y-97992390D01*
X116384504Y-98086493D01*
X116623000Y-98135000D01*
X116973000Y-98135000D01*
X116973000Y-97027000D01*
X117227000Y-97027000D01*
X117227000Y-98135000D01*
X117577000Y-98135000D01*
X117815496Y-98086493D01*
X118039946Y-97992390D01*
X118241725Y-97856307D01*
X118413078Y-97683474D01*
X118547421Y-97480533D01*
X118639591Y-97255282D01*
X118643462Y-97217609D01*
X118518731Y-97027000D01*
X117227000Y-97027000D01*
X116973000Y-97027000D01*
X116953000Y-97027000D01*
X116953000Y-96839133D01*
X119040472Y-96839133D01*
X119102965Y-97075450D01*
X119345678Y-97188850D01*
X119605849Y-97252719D01*
X119873482Y-97264604D01*
X120138291Y-97224048D01*
X120390100Y-97132609D01*
X120497035Y-97075450D01*
X120559528Y-96839133D01*
X119800000Y-96079605D01*
X119040472Y-96839133D01*
X116953000Y-96839133D01*
X116953000Y-96773000D01*
X116973000Y-96773000D01*
X116973000Y-95665000D01*
X117227000Y-95665000D01*
X117227000Y-96773000D01*
X118518731Y-96773000D01*
X118632503Y-96599138D01*
X118860867Y-96659528D01*
X119620395Y-95900000D01*
X119979605Y-95900000D01*
X120739133Y-96659528D01*
X120975450Y-96597035D01*
X121088850Y-96354322D01*
X121152719Y-96094151D01*
X121164604Y-95826518D01*
X121124048Y-95561709D01*
X121032609Y-95309900D01*
X120975450Y-95202965D01*
X120739133Y-95140472D01*
X119979605Y-95900000D01*
X119620395Y-95900000D01*
X118860867Y-95140472D01*
X118624550Y-95202965D01*
X118511150Y-95445678D01*
X118447281Y-95705849D01*
X118435396Y-95973482D01*
X118470615Y-96203442D01*
X118413078Y-96116526D01*
X118241725Y-95943693D01*
X118039946Y-95807610D01*
X117815496Y-95713507D01*
X117577000Y-95665000D01*
X117227000Y-95665000D01*
X116973000Y-95665000D01*
X116623000Y-95665000D01*
X116384504Y-95713507D01*
X116160054Y-95807610D01*
X115958275Y-95943693D01*
X115786922Y-96116526D01*
X115660000Y-96308257D01*
X115660000Y-94960867D01*
X119040472Y-94960867D01*
X119800000Y-95720395D01*
X120559528Y-94960867D01*
X120497035Y-94724550D01*
X120254322Y-94611150D01*
X119994151Y-94547281D01*
X119726518Y-94535396D01*
X119461709Y-94575952D01*
X119209900Y-94667391D01*
X119102965Y-94724550D01*
X119040472Y-94960867D01*
X115660000Y-94960867D01*
X115660000Y-91839133D01*
X119040472Y-91839133D01*
X119102965Y-92075450D01*
X119345678Y-92188850D01*
X119605849Y-92252719D01*
X119873482Y-92264604D01*
X120138291Y-92224048D01*
X120390100Y-92132609D01*
X120497035Y-92075450D01*
X120559528Y-91839133D01*
X119800000Y-91079605D01*
X119040472Y-91839133D01*
X115660000Y-91839133D01*
X115660000Y-90491743D01*
X115786922Y-90683474D01*
X115958275Y-90856307D01*
X116160054Y-90992390D01*
X116384504Y-91086493D01*
X116623000Y-91135000D01*
X116973000Y-91135000D01*
X116973000Y-90027000D01*
X117227000Y-90027000D01*
X117227000Y-91135000D01*
X117577000Y-91135000D01*
X117815496Y-91086493D01*
X118039946Y-90992390D01*
X118241725Y-90856307D01*
X118413078Y-90683474D01*
X118476171Y-90588164D01*
X118447281Y-90705849D01*
X118435396Y-90973482D01*
X118475952Y-91238291D01*
X118567391Y-91490100D01*
X118624550Y-91597035D01*
X118860867Y-91659528D01*
X119620395Y-90900000D01*
X119979605Y-90900000D01*
X120739133Y-91659528D01*
X120975450Y-91597035D01*
X121088850Y-91354322D01*
X121152719Y-91094151D01*
X121164604Y-90826518D01*
X121124048Y-90561709D01*
X121032609Y-90309900D01*
X120975450Y-90202965D01*
X120739133Y-90140472D01*
X119979605Y-90900000D01*
X119620395Y-90900000D01*
X118860867Y-90140472D01*
X118632503Y-90200862D01*
X118518731Y-90027000D01*
X117227000Y-90027000D01*
X116973000Y-90027000D01*
X116953000Y-90027000D01*
X116953000Y-89960867D01*
X119040472Y-89960867D01*
X119800000Y-90720395D01*
X120559528Y-89960867D01*
X120497035Y-89724550D01*
X120254322Y-89611150D01*
X119994151Y-89547281D01*
X119726518Y-89535396D01*
X119461709Y-89575952D01*
X119209900Y-89667391D01*
X119102965Y-89724550D01*
X119040472Y-89960867D01*
X116953000Y-89960867D01*
X116953000Y-89773000D01*
X116973000Y-89773000D01*
X116973000Y-88665000D01*
X117227000Y-88665000D01*
X117227000Y-89773000D01*
X118518731Y-89773000D01*
X118643462Y-89582391D01*
X118639591Y-89544718D01*
X118547421Y-89319467D01*
X118413078Y-89116526D01*
X118241725Y-88943693D01*
X118039946Y-88807610D01*
X117815496Y-88713507D01*
X117577000Y-88665000D01*
X117227000Y-88665000D01*
X116973000Y-88665000D01*
X116623000Y-88665000D01*
X116384504Y-88713507D01*
X116160054Y-88807610D01*
X115958275Y-88943693D01*
X115786922Y-89116526D01*
X115660000Y-89308257D01*
X115660000Y-65050000D01*
X140891928Y-65050000D01*
X140904188Y-65174482D01*
X140940498Y-65294180D01*
X140999463Y-65404494D01*
X141078815Y-65501185D01*
X141175506Y-65580537D01*
X141285820Y-65639502D01*
X141405518Y-65675812D01*
X141530000Y-65688072D01*
X142094250Y-65685000D01*
X142253000Y-65526250D01*
X142253000Y-64327000D01*
X142507000Y-64327000D01*
X142507000Y-65526250D01*
X142665750Y-65685000D01*
X143230000Y-65688072D01*
X143354482Y-65675812D01*
X143474180Y-65639502D01*
X143584494Y-65580537D01*
X143681185Y-65501185D01*
X143760537Y-65404494D01*
X143819502Y-65294180D01*
X143843966Y-65213534D01*
X143919731Y-65297588D01*
X144153080Y-65471641D01*
X144415901Y-65596825D01*
X144563110Y-65641476D01*
X144793000Y-65520155D01*
X144793000Y-64327000D01*
X142507000Y-64327000D01*
X142253000Y-64327000D01*
X141053750Y-64327000D01*
X140895000Y-64485750D01*
X140891928Y-65050000D01*
X115660000Y-65050000D01*
X115660000Y-63350000D01*
X140891928Y-63350000D01*
X140895000Y-63914250D01*
X141053750Y-64073000D01*
X142253000Y-64073000D01*
X142253000Y-62873750D01*
X142507000Y-62873750D01*
X142507000Y-64073000D01*
X144793000Y-64073000D01*
X144793000Y-62879845D01*
X145047000Y-62879845D01*
X145047000Y-64073000D01*
X145067000Y-64073000D01*
X145067000Y-64327000D01*
X145047000Y-64327000D01*
X145047000Y-65520155D01*
X145276890Y-65641476D01*
X145424099Y-65596825D01*
X145686920Y-65471641D01*
X145920269Y-65297588D01*
X146115178Y-65081355D01*
X146184805Y-64964466D01*
X146306525Y-65146632D01*
X146513368Y-65353475D01*
X146756589Y-65515990D01*
X147026842Y-65627932D01*
X147313740Y-65685000D01*
X147606260Y-65685000D01*
X147893158Y-65627932D01*
X148163411Y-65515990D01*
X148406632Y-65353475D01*
X148613475Y-65146632D01*
X148730000Y-64972240D01*
X148846525Y-65146632D01*
X149053368Y-65353475D01*
X149296589Y-65515990D01*
X149566842Y-65627932D01*
X149853740Y-65685000D01*
X150146260Y-65685000D01*
X150433158Y-65627932D01*
X150703411Y-65515990D01*
X150946632Y-65353475D01*
X151153475Y-65146632D01*
X151270000Y-64972240D01*
X151386525Y-65146632D01*
X151593368Y-65353475D01*
X151836589Y-65515990D01*
X152106842Y-65627932D01*
X152393740Y-65685000D01*
X152686260Y-65685000D01*
X152973158Y-65627932D01*
X153243411Y-65515990D01*
X153486632Y-65353475D01*
X153693475Y-65146632D01*
X153810000Y-64972240D01*
X153926525Y-65146632D01*
X154133368Y-65353475D01*
X154376589Y-65515990D01*
X154646842Y-65627932D01*
X154933740Y-65685000D01*
X155226260Y-65685000D01*
X155513158Y-65627932D01*
X155783411Y-65515990D01*
X156026632Y-65353475D01*
X156233475Y-65146632D01*
X156350000Y-64972240D01*
X156466525Y-65146632D01*
X156673368Y-65353475D01*
X156916589Y-65515990D01*
X157186842Y-65627932D01*
X157473740Y-65685000D01*
X157766260Y-65685000D01*
X158053158Y-65627932D01*
X158323411Y-65515990D01*
X158566632Y-65353475D01*
X158773475Y-65146632D01*
X158935990Y-64903411D01*
X159047932Y-64633158D01*
X159105000Y-64346260D01*
X159105000Y-64053740D01*
X159047932Y-63766842D01*
X158935990Y-63496589D01*
X158773475Y-63253368D01*
X158566632Y-63046525D01*
X158323411Y-62884010D01*
X158053158Y-62772068D01*
X157766260Y-62715000D01*
X157473740Y-62715000D01*
X157186842Y-62772068D01*
X156916589Y-62884010D01*
X156673368Y-63046525D01*
X156466525Y-63253368D01*
X156350000Y-63427760D01*
X156233475Y-63253368D01*
X156026632Y-63046525D01*
X155783411Y-62884010D01*
X155513158Y-62772068D01*
X155226260Y-62715000D01*
X154933740Y-62715000D01*
X154646842Y-62772068D01*
X154376589Y-62884010D01*
X154133368Y-63046525D01*
X153926525Y-63253368D01*
X153810000Y-63427760D01*
X153693475Y-63253368D01*
X153486632Y-63046525D01*
X153243411Y-62884010D01*
X152973158Y-62772068D01*
X152686260Y-62715000D01*
X152393740Y-62715000D01*
X152106842Y-62772068D01*
X151836589Y-62884010D01*
X151593368Y-63046525D01*
X151386525Y-63253368D01*
X151270000Y-63427760D01*
X151153475Y-63253368D01*
X150946632Y-63046525D01*
X150703411Y-62884010D01*
X150433158Y-62772068D01*
X150146260Y-62715000D01*
X149853740Y-62715000D01*
X149566842Y-62772068D01*
X149296589Y-62884010D01*
X149053368Y-63046525D01*
X148846525Y-63253368D01*
X148730000Y-63427760D01*
X148613475Y-63253368D01*
X148406632Y-63046525D01*
X148163411Y-62884010D01*
X147893158Y-62772068D01*
X147606260Y-62715000D01*
X147313740Y-62715000D01*
X147026842Y-62772068D01*
X146756589Y-62884010D01*
X146513368Y-63046525D01*
X146306525Y-63253368D01*
X146184805Y-63435534D01*
X146115178Y-63318645D01*
X145920269Y-63102412D01*
X145686920Y-62928359D01*
X145424099Y-62803175D01*
X145276890Y-62758524D01*
X145047000Y-62879845D01*
X144793000Y-62879845D01*
X144563110Y-62758524D01*
X144415901Y-62803175D01*
X144153080Y-62928359D01*
X143919731Y-63102412D01*
X143843966Y-63186466D01*
X143819502Y-63105820D01*
X143760537Y-62995506D01*
X143681185Y-62898815D01*
X143584494Y-62819463D01*
X143474180Y-62760498D01*
X143354482Y-62724188D01*
X143230000Y-62711928D01*
X142665750Y-62715000D01*
X142507000Y-62873750D01*
X142253000Y-62873750D01*
X142094250Y-62715000D01*
X141530000Y-62711928D01*
X141405518Y-62724188D01*
X141285820Y-62760498D01*
X141175506Y-62819463D01*
X141078815Y-62898815D01*
X140999463Y-62995506D01*
X140940498Y-63105820D01*
X140904188Y-63225518D01*
X140891928Y-63350000D01*
X115660000Y-63350000D01*
X115660000Y-62032279D01*
X115688625Y-61740341D01*
X115764035Y-61490571D01*
X115886522Y-61260208D01*
X116051422Y-61058020D01*
X116252450Y-60891714D01*
X116481954Y-60767622D01*
X116731195Y-60690469D01*
X117021088Y-60660000D01*
X182967721Y-60660000D01*
X183259659Y-60688625D01*
G37*
X183259659Y-60688625D02*
X183509429Y-60764035D01*
X183739792Y-60886522D01*
X183941980Y-61051422D01*
X184108286Y-61252450D01*
X184232378Y-61481954D01*
X184309531Y-61731195D01*
X184340000Y-62021088D01*
X184340001Y-137967711D01*
X184311375Y-138259660D01*
X184235965Y-138509429D01*
X184113477Y-138739794D01*
X183948579Y-138941979D01*
X183747546Y-139108288D01*
X183518046Y-139232378D01*
X183268805Y-139309531D01*
X182978911Y-139340000D01*
X117032279Y-139340000D01*
X116740340Y-139311375D01*
X116490571Y-139235965D01*
X116260206Y-139113477D01*
X116058021Y-138948579D01*
X115891712Y-138747546D01*
X115767622Y-138518046D01*
X115690469Y-138268805D01*
X115660000Y-137978911D01*
X115660000Y-133842702D01*
X130250653Y-133842702D01*
X130322236Y-134086671D01*
X130577746Y-134207571D01*
X130851934Y-134276300D01*
X131134262Y-134290217D01*
X131413880Y-134248787D01*
X131680042Y-134153603D01*
X131805264Y-134086671D01*
X131876847Y-133842702D01*
X131063750Y-133029605D01*
X130250653Y-133842702D01*
X115660000Y-133842702D01*
X115660000Y-132920512D01*
X129623533Y-132920512D01*
X129664963Y-133200130D01*
X129760147Y-133466292D01*
X129827079Y-133591514D01*
X130071048Y-133663097D01*
X130884145Y-132850000D01*
X131243355Y-132850000D01*
X132056452Y-133663097D01*
X132300421Y-133591514D01*
X132421321Y-133336004D01*
X132490050Y-133061816D01*
X132503967Y-132779488D01*
X132462537Y-132499870D01*
X132367353Y-132233708D01*
X132300421Y-132108486D01*
X132056452Y-132036903D01*
X131243355Y-132850000D01*
X130884145Y-132850000D01*
X130071048Y-132036903D01*
X129827079Y-132108486D01*
X129706179Y-132363996D01*
X129637450Y-132638184D01*
X129623533Y-132920512D01*
X115660000Y-132920512D01*
X115660000Y-131857298D01*
X130250653Y-131857298D01*
X131063750Y-132670395D01*
X131876847Y-131857298D01*
X131805264Y-131613329D01*
X131549754Y-131492429D01*
X131275566Y-131423700D01*
X130993238Y-131409783D01*
X130713620Y-131451213D01*
X130447458Y-131546397D01*
X130322236Y-131613329D01*
X130250653Y-131857298D01*
X115660000Y-131857298D01*
X115660000Y-108953740D01*
X127995000Y-108953740D01*
X127995000Y-109246260D01*
X128052068Y-109533158D01*
X128164010Y-109803411D01*
X128326525Y-110046632D01*
X128533368Y-110253475D01*
X128707760Y-110370000D01*
X128533368Y-110486525D01*
X128326525Y-110693368D01*
X128164010Y-110936589D01*
X128052068Y-111206842D01*
X127995000Y-111493740D01*
X127995000Y-111786260D01*
X128052068Y-112073158D01*
X128164010Y-112343411D01*
X128326525Y-112586632D01*
X128533368Y-112793475D01*
X128776589Y-112955990D01*
X129046842Y-113067932D01*
X129333740Y-113125000D01*
X129626260Y-113125000D01*
X129913158Y-113067932D01*
X130183411Y-112955990D01*
X130426632Y-112793475D01*
X130633475Y-112586632D01*
X130750000Y-112412240D01*
X130866525Y-112586632D01*
X131073368Y-112793475D01*
X131316589Y-112955990D01*
X131586842Y-113067932D01*
X131873740Y-113125000D01*
X132166260Y-113125000D01*
X132453158Y-113067932D01*
X132540001Y-113031960D01*
X132540001Y-134362679D01*
X132536325Y-134400001D01*
X132540001Y-134437323D01*
X132540001Y-134437333D01*
X132550998Y-134548986D01*
X132594455Y-134692247D01*
X132665000Y-134824226D01*
X132665000Y-134901939D01*
X132704774Y-135101898D01*
X132782795Y-135290256D01*
X132896063Y-135459774D01*
X133040226Y-135603937D01*
X133209744Y-135717205D01*
X133398102Y-135795226D01*
X133598061Y-135835000D01*
X133801939Y-135835000D01*
X134001898Y-135795226D01*
X134190256Y-135717205D01*
X134359774Y-135603937D01*
X134503937Y-135459774D01*
X134617205Y-135290256D01*
X134695226Y-135101898D01*
X134729594Y-134929117D01*
X146792500Y-134929117D01*
X146792500Y-135270883D01*
X146859175Y-135606081D01*
X146989963Y-135921831D01*
X147179837Y-136205998D01*
X147421502Y-136447663D01*
X147705669Y-136637537D01*
X148021419Y-136768325D01*
X148356617Y-136835000D01*
X148698383Y-136835000D01*
X149033581Y-136768325D01*
X149349331Y-136637537D01*
X149633498Y-136447663D01*
X149875163Y-136205998D01*
X150065037Y-135921831D01*
X150195825Y-135606081D01*
X150262500Y-135270883D01*
X150262500Y-134929117D01*
X153292500Y-134929117D01*
X153292500Y-135270883D01*
X153359175Y-135606081D01*
X153489963Y-135921831D01*
X153679837Y-136205998D01*
X153921502Y-136447663D01*
X154205669Y-136637537D01*
X154521419Y-136768325D01*
X154856617Y-136835000D01*
X155198383Y-136835000D01*
X155533581Y-136768325D01*
X155849331Y-136637537D01*
X156133498Y-136447663D01*
X156375163Y-136205998D01*
X156565037Y-135921831D01*
X156695825Y-135606081D01*
X156762500Y-135270883D01*
X156762500Y-134929117D01*
X161006250Y-134929117D01*
X161006250Y-135270883D01*
X161072925Y-135606081D01*
X161203713Y-135921831D01*
X161393587Y-136205998D01*
X161635252Y-136447663D01*
X161919419Y-136637537D01*
X162235169Y-136768325D01*
X162570367Y-136835000D01*
X162912133Y-136835000D01*
X163247331Y-136768325D01*
X163563081Y-136637537D01*
X163847248Y-136447663D01*
X164088913Y-136205998D01*
X164278787Y-135921831D01*
X164409575Y-135606081D01*
X164476250Y-135270883D01*
X164476250Y-134929117D01*
X167506250Y-134929117D01*
X167506250Y-135270883D01*
X167572925Y-135606081D01*
X167703713Y-135921831D01*
X167893587Y-136205998D01*
X168135252Y-136447663D01*
X168419419Y-136637537D01*
X168735169Y-136768325D01*
X169070367Y-136835000D01*
X169412133Y-136835000D01*
X169747331Y-136768325D01*
X170063081Y-136637537D01*
X170347248Y-136447663D01*
X170588913Y-136205998D01*
X170778787Y-135921831D01*
X170909575Y-135606081D01*
X170976250Y-135270883D01*
X170976250Y-134929117D01*
X170909575Y-134593919D01*
X170778787Y-134278169D01*
X170588913Y-133994002D01*
X170347248Y-133752337D01*
X170063081Y-133562463D01*
X169747331Y-133431675D01*
X169412133Y-133365000D01*
X169070367Y-133365000D01*
X168735169Y-133431675D01*
X168419419Y-133562463D01*
X168135252Y-133752337D01*
X167893587Y-133994002D01*
X167703713Y-134278169D01*
X167572925Y-134593919D01*
X167506250Y-134929117D01*
X164476250Y-134929117D01*
X164409575Y-134593919D01*
X164278787Y-134278169D01*
X164088913Y-133994002D01*
X163847248Y-133752337D01*
X163563081Y-133562463D01*
X163247331Y-133431675D01*
X162912133Y-133365000D01*
X162570367Y-133365000D01*
X162235169Y-133431675D01*
X161919419Y-133562463D01*
X161635252Y-133752337D01*
X161393587Y-133994002D01*
X161203713Y-134278169D01*
X161072925Y-134593919D01*
X161006250Y-134929117D01*
X156762500Y-134929117D01*
X156695825Y-134593919D01*
X156565037Y-134278169D01*
X156375163Y-133994002D01*
X156133498Y-133752337D01*
X155849331Y-133562463D01*
X155533581Y-133431675D01*
X155198383Y-133365000D01*
X154856617Y-133365000D01*
X154521419Y-133431675D01*
X154205669Y-133562463D01*
X153921502Y-133752337D01*
X153679837Y-133994002D01*
X153489963Y-134278169D01*
X153359175Y-134593919D01*
X153292500Y-134929117D01*
X150262500Y-134929117D01*
X150195825Y-134593919D01*
X150065037Y-134278169D01*
X149875163Y-133994002D01*
X149633498Y-133752337D01*
X149349331Y-133562463D01*
X149033581Y-133431675D01*
X148698383Y-133365000D01*
X148356617Y-133365000D01*
X148021419Y-133431675D01*
X147705669Y-133562463D01*
X147421502Y-133752337D01*
X147179837Y-133994002D01*
X146989963Y-134278169D01*
X146859175Y-134593919D01*
X146792500Y-134929117D01*
X134729594Y-134929117D01*
X134735000Y-134901939D01*
X134735000Y-134698061D01*
X134695226Y-134498102D01*
X134617205Y-134309744D01*
X134503937Y-134140226D01*
X134359774Y-133996063D01*
X134190256Y-133882795D01*
X134060001Y-133828841D01*
X134060001Y-132708665D01*
X134328750Y-132708665D01*
X134328750Y-132991335D01*
X134383897Y-133268574D01*
X134492070Y-133529727D01*
X134649113Y-133764759D01*
X134848991Y-133964637D01*
X135084023Y-134121680D01*
X135345176Y-134229853D01*
X135622415Y-134285000D01*
X135905085Y-134285000D01*
X136182324Y-134229853D01*
X136443477Y-134121680D01*
X136678509Y-133964637D01*
X136878387Y-133764759D01*
X137035430Y-133529727D01*
X137143603Y-133268574D01*
X137198750Y-132991335D01*
X137198750Y-132708665D01*
X139028750Y-132708665D01*
X139028750Y-132991335D01*
X139083897Y-133268574D01*
X139192070Y-133529727D01*
X139349113Y-133764759D01*
X139548991Y-133964637D01*
X139784023Y-134121680D01*
X140045176Y-134229853D01*
X140322415Y-134285000D01*
X140605085Y-134285000D01*
X140882324Y-134229853D01*
X141143477Y-134121680D01*
X141378509Y-133964637D01*
X141578387Y-133764759D01*
X141735430Y-133529727D01*
X141843603Y-133268574D01*
X141898750Y-132991335D01*
X141898750Y-132708665D01*
X141843603Y-132431426D01*
X141735430Y-132170273D01*
X141578387Y-131935241D01*
X141378509Y-131735363D01*
X141143477Y-131578320D01*
X140882324Y-131470147D01*
X140605085Y-131415000D01*
X140322415Y-131415000D01*
X140045176Y-131470147D01*
X139784023Y-131578320D01*
X139548991Y-131735363D01*
X139349113Y-131935241D01*
X139192070Y-132170273D01*
X139083897Y-132431426D01*
X139028750Y-132708665D01*
X137198750Y-132708665D01*
X137143603Y-132431426D01*
X137035430Y-132170273D01*
X136878387Y-131935241D01*
X136678509Y-131735363D01*
X136443477Y-131578320D01*
X136182324Y-131470147D01*
X135905085Y-131415000D01*
X135622415Y-131415000D01*
X135345176Y-131470147D01*
X135084023Y-131578320D01*
X134848991Y-131735363D01*
X134649113Y-131935241D01*
X134492070Y-132170273D01*
X134383897Y-132431426D01*
X134328750Y-132708665D01*
X134060001Y-132708665D01*
X134060001Y-113040246D01*
X134126842Y-113067932D01*
X134413740Y-113125000D01*
X134706260Y-113125000D01*
X134993158Y-113067932D01*
X135040001Y-113048529D01*
X135040001Y-117162679D01*
X135036325Y-117200001D01*
X135040001Y-117237323D01*
X135040001Y-117237333D01*
X135050998Y-117348986D01*
X135091588Y-117482795D01*
X135094455Y-117492247D01*
X135165000Y-117624226D01*
X135165000Y-117701939D01*
X135204774Y-117901898D01*
X135282795Y-118090256D01*
X135396063Y-118259774D01*
X135540226Y-118403937D01*
X135709744Y-118517205D01*
X135898102Y-118595226D01*
X136098061Y-118635000D01*
X136301939Y-118635000D01*
X136501898Y-118595226D01*
X136690256Y-118517205D01*
X136859774Y-118403937D01*
X137003937Y-118259774D01*
X137117205Y-118090256D01*
X137195226Y-117901898D01*
X137235000Y-117701939D01*
X137235000Y-117498061D01*
X137195226Y-117298102D01*
X137117205Y-117109744D01*
X137003937Y-116940226D01*
X136859774Y-116796063D01*
X136690256Y-116682795D01*
X136560001Y-116628841D01*
X136560001Y-113023677D01*
X136666842Y-113067932D01*
X136953740Y-113125000D01*
X137246260Y-113125000D01*
X137533158Y-113067932D01*
X137540001Y-113065097D01*
X137540001Y-117162679D01*
X137536325Y-117200001D01*
X137540001Y-117237323D01*
X137540001Y-117237333D01*
X137550998Y-117348986D01*
X137591588Y-117482795D01*
X137594455Y-117492247D01*
X137665000Y-117624226D01*
X137665000Y-117701939D01*
X137704774Y-117901898D01*
X137782795Y-118090256D01*
X137896063Y-118259774D01*
X138040226Y-118403937D01*
X138209744Y-118517205D01*
X138398102Y-118595226D01*
X138598061Y-118635000D01*
X138801939Y-118635000D01*
X139001898Y-118595226D01*
X139190256Y-118517205D01*
X139359774Y-118403937D01*
X139503937Y-118259774D01*
X139617205Y-118090256D01*
X139695226Y-117901898D01*
X139735000Y-117701939D01*
X139735000Y-117498061D01*
X139695226Y-117298102D01*
X139617205Y-117109744D01*
X139503937Y-116940226D01*
X139359774Y-116796063D01*
X139190256Y-116682795D01*
X139060001Y-116628841D01*
X139060001Y-113007109D01*
X139206842Y-113067932D01*
X139493740Y-113125000D01*
X139786260Y-113125000D01*
X140073158Y-113067932D01*
X140140001Y-113040245D01*
X140140001Y-117162679D01*
X140136325Y-117200001D01*
X140140001Y-117237323D01*
X140140001Y-117237333D01*
X140150998Y-117348986D01*
X140191588Y-117482795D01*
X140194455Y-117492247D01*
X140265000Y-117624226D01*
X140265000Y-117701939D01*
X140304774Y-117901898D01*
X140382795Y-118090256D01*
X140496063Y-118259774D01*
X140640226Y-118403937D01*
X140809744Y-118517205D01*
X140998102Y-118595226D01*
X141198061Y-118635000D01*
X141401939Y-118635000D01*
X141601898Y-118595226D01*
X141790256Y-118517205D01*
X141959774Y-118403937D01*
X142103937Y-118259774D01*
X142217205Y-118090256D01*
X142295226Y-117901898D01*
X142335000Y-117701939D01*
X142335000Y-117498061D01*
X142295226Y-117298102D01*
X142217205Y-117109744D01*
X142103937Y-116940226D01*
X141959774Y-116796063D01*
X141790256Y-116682795D01*
X141660001Y-116628841D01*
X141660001Y-113031961D01*
X141746842Y-113067932D01*
X142033740Y-113125000D01*
X142326260Y-113125000D01*
X142613158Y-113067932D01*
X142640001Y-113056813D01*
X142640001Y-113813057D01*
X142604774Y-113898102D01*
X142565000Y-114098061D01*
X142565000Y-114301939D01*
X142604774Y-114501898D01*
X142640000Y-114586941D01*
X142640001Y-115162659D01*
X142640000Y-115162668D01*
X142640001Y-117496983D01*
X142636324Y-117534315D01*
X142640001Y-117571648D01*
X142646756Y-117640226D01*
X142650998Y-117683300D01*
X142694454Y-117826561D01*
X142713974Y-117863081D01*
X142682795Y-117909744D01*
X142604774Y-118098102D01*
X142565000Y-118298061D01*
X142565000Y-118501939D01*
X142604774Y-118701898D01*
X142682795Y-118890256D01*
X142796063Y-119059774D01*
X142940226Y-119203937D01*
X143109744Y-119317205D01*
X143298102Y-119395226D01*
X143498061Y-119435000D01*
X143701939Y-119435000D01*
X143901898Y-119395226D01*
X144090256Y-119317205D01*
X144259774Y-119203937D01*
X144403937Y-119059774D01*
X144517205Y-118890256D01*
X144595226Y-118701898D01*
X144635000Y-118501939D01*
X144635000Y-118298061D01*
X144595226Y-118098102D01*
X144517205Y-117909744D01*
X144403937Y-117740226D01*
X144359924Y-117696213D01*
X144349003Y-117585329D01*
X144305546Y-117442068D01*
X144234974Y-117310039D01*
X144160000Y-117218683D01*
X144160000Y-115070604D01*
X144259774Y-115003937D01*
X144403937Y-114859774D01*
X144517205Y-114690256D01*
X144595226Y-114501898D01*
X144635000Y-114301939D01*
X144635000Y-114098061D01*
X144595226Y-113898102D01*
X144517205Y-113709744D01*
X144403937Y-113540226D01*
X144259774Y-113396063D01*
X144160000Y-113329396D01*
X144160000Y-113015393D01*
X144286842Y-113067932D01*
X144573740Y-113125000D01*
X144866260Y-113125000D01*
X145153158Y-113067932D01*
X145240000Y-113031961D01*
X145240000Y-132096289D01*
X145196063Y-132140226D01*
X145082795Y-132309744D01*
X145004774Y-132498102D01*
X144965000Y-132698061D01*
X144965000Y-132901939D01*
X145004774Y-133101898D01*
X145082795Y-133290256D01*
X145196063Y-133459774D01*
X145340226Y-133603937D01*
X145509744Y-133717205D01*
X145698102Y-133795226D01*
X145898061Y-133835000D01*
X146101939Y-133835000D01*
X146301898Y-133795226D01*
X146490256Y-133717205D01*
X146659774Y-133603937D01*
X146803937Y-133459774D01*
X146917205Y-133290256D01*
X146995226Y-133101898D01*
X147035000Y-132901939D01*
X147035000Y-132698061D01*
X146995226Y-132498102D01*
X146917205Y-132309744D01*
X146803937Y-132140226D01*
X146760000Y-132096289D01*
X146760000Y-131700000D01*
X146789428Y-131700000D01*
X146801688Y-131824482D01*
X146837998Y-131944180D01*
X146896963Y-132054494D01*
X146976315Y-132151185D01*
X147073006Y-132230537D01*
X147183320Y-132289502D01*
X147303018Y-132325812D01*
X147427500Y-132338072D01*
X148241750Y-132335000D01*
X148400500Y-132176250D01*
X148400500Y-130727000D01*
X148654500Y-130727000D01*
X148654500Y-132176250D01*
X148813250Y-132335000D01*
X149627500Y-132338072D01*
X149751982Y-132325812D01*
X149871680Y-132289502D01*
X149981994Y-132230537D01*
X150078685Y-132151185D01*
X150158037Y-132054494D01*
X150217002Y-131944180D01*
X150253312Y-131824482D01*
X150265572Y-131700000D01*
X150262500Y-130885750D01*
X150103750Y-130727000D01*
X148654500Y-130727000D01*
X148400500Y-130727000D01*
X146951250Y-130727000D01*
X146792500Y-130885750D01*
X146789428Y-131700000D01*
X146760000Y-131700000D01*
X146760000Y-129500000D01*
X146789428Y-129500000D01*
X146792500Y-130314250D01*
X146951250Y-130473000D01*
X148400500Y-130473000D01*
X148400500Y-129023750D01*
X148654500Y-129023750D01*
X148654500Y-130473000D01*
X150103750Y-130473000D01*
X150147633Y-130429117D01*
X153292500Y-130429117D01*
X153292500Y-130770883D01*
X153359175Y-131106081D01*
X153489963Y-131421831D01*
X153679837Y-131705998D01*
X153921502Y-131947663D01*
X154205669Y-132137537D01*
X154521419Y-132268325D01*
X154856617Y-132335000D01*
X155198383Y-132335000D01*
X155533581Y-132268325D01*
X155849331Y-132137537D01*
X156133498Y-131947663D01*
X156375163Y-131705998D01*
X156565037Y-131421831D01*
X156695825Y-131106081D01*
X156762500Y-130770883D01*
X156762500Y-130429117D01*
X156695825Y-130093919D01*
X156565037Y-129778169D01*
X156379171Y-129500000D01*
X161003178Y-129500000D01*
X161003178Y-131700000D01*
X161015438Y-131824482D01*
X161051748Y-131944180D01*
X161110713Y-132054494D01*
X161190065Y-132151185D01*
X161286756Y-132230537D01*
X161397070Y-132289502D01*
X161516768Y-132325812D01*
X161641250Y-132338072D01*
X163841250Y-132338072D01*
X163965732Y-132325812D01*
X164085430Y-132289502D01*
X164195744Y-132230537D01*
X164292435Y-132151185D01*
X164371787Y-132054494D01*
X164430752Y-131944180D01*
X164467062Y-131824482D01*
X164479322Y-131700000D01*
X164479322Y-130429117D01*
X167506250Y-130429117D01*
X167506250Y-130770883D01*
X167572925Y-131106081D01*
X167703713Y-131421831D01*
X167893587Y-131705998D01*
X168135252Y-131947663D01*
X168419419Y-132137537D01*
X168735169Y-132268325D01*
X169070367Y-132335000D01*
X169412133Y-132335000D01*
X169747331Y-132268325D01*
X170063081Y-132137537D01*
X170347248Y-131947663D01*
X170588913Y-131705998D01*
X170778787Y-131421831D01*
X170909575Y-131106081D01*
X170976250Y-130770883D01*
X170976250Y-130429117D01*
X170909575Y-130093919D01*
X170778787Y-129778169D01*
X170588913Y-129494002D01*
X170347248Y-129252337D01*
X170063081Y-129062463D01*
X169747331Y-128931675D01*
X169412133Y-128865000D01*
X169070367Y-128865000D01*
X168735169Y-128931675D01*
X168419419Y-129062463D01*
X168135252Y-129252337D01*
X167893587Y-129494002D01*
X167703713Y-129778169D01*
X167572925Y-130093919D01*
X167506250Y-130429117D01*
X164479322Y-130429117D01*
X164479322Y-129500000D01*
X164467062Y-129375518D01*
X164430752Y-129255820D01*
X164371787Y-129145506D01*
X164292435Y-129048815D01*
X164195744Y-128969463D01*
X164085430Y-128910498D01*
X163965732Y-128874188D01*
X163841250Y-128861928D01*
X161641250Y-128861928D01*
X161516768Y-128874188D01*
X161397070Y-128910498D01*
X161286756Y-128969463D01*
X161190065Y-129048815D01*
X161110713Y-129145506D01*
X161051748Y-129255820D01*
X161015438Y-129375518D01*
X161003178Y-129500000D01*
X156379171Y-129500000D01*
X156375163Y-129494002D01*
X156133498Y-129252337D01*
X155849331Y-129062463D01*
X155533581Y-128931675D01*
X155198383Y-128865000D01*
X154856617Y-128865000D01*
X154521419Y-128931675D01*
X154205669Y-129062463D01*
X153921502Y-129252337D01*
X153679837Y-129494002D01*
X153489963Y-129778169D01*
X153359175Y-130093919D01*
X153292500Y-130429117D01*
X150147633Y-130429117D01*
X150262500Y-130314250D01*
X150265572Y-129500000D01*
X150253312Y-129375518D01*
X150217002Y-129255820D01*
X150158037Y-129145506D01*
X150078685Y-129048815D01*
X149981994Y-128969463D01*
X149871680Y-128910498D01*
X149751982Y-128874188D01*
X149627500Y-128861928D01*
X148813250Y-128865000D01*
X148654500Y-129023750D01*
X148400500Y-129023750D01*
X148241750Y-128865000D01*
X147427500Y-128861928D01*
X147303018Y-128874188D01*
X147183320Y-128910498D01*
X147073006Y-128969463D01*
X146976315Y-129048815D01*
X146896963Y-129145506D01*
X146837998Y-129255820D01*
X146801688Y-129375518D01*
X146789428Y-129500000D01*
X146760000Y-129500000D01*
X146760000Y-118198061D01*
X163765000Y-118198061D01*
X163765000Y-118401939D01*
X163804774Y-118601898D01*
X163882795Y-118790256D01*
X163996063Y-118959774D01*
X164140226Y-119103937D01*
X164309744Y-119217205D01*
X164498102Y-119295226D01*
X164698061Y-119335000D01*
X164901939Y-119335000D01*
X165101898Y-119295226D01*
X165290256Y-119217205D01*
X165459774Y-119103937D01*
X165603937Y-118959774D01*
X165717205Y-118790256D01*
X165795226Y-118601898D01*
X165835000Y-118401939D01*
X165835000Y-118198061D01*
X165795226Y-117998102D01*
X165717205Y-117809744D01*
X165603937Y-117640226D01*
X165459774Y-117496063D01*
X165290256Y-117382795D01*
X165101898Y-117304774D01*
X164901939Y-117265000D01*
X164698061Y-117265000D01*
X164498102Y-117304774D01*
X164309744Y-117382795D01*
X164140226Y-117496063D01*
X163996063Y-117640226D01*
X163882795Y-117809744D01*
X163804774Y-117998102D01*
X163765000Y-118198061D01*
X146760000Y-118198061D01*
X146760000Y-113040245D01*
X146826842Y-113067932D01*
X147113740Y-113125000D01*
X147406260Y-113125000D01*
X147693158Y-113067932D01*
X147963411Y-112955990D01*
X148206632Y-112793475D01*
X148413475Y-112586632D01*
X148530000Y-112412240D01*
X148646525Y-112586632D01*
X148853368Y-112793475D01*
X149096589Y-112955990D01*
X149366842Y-113067932D01*
X149653740Y-113125000D01*
X149946260Y-113125000D01*
X150233158Y-113067932D01*
X150503411Y-112955990D01*
X150746632Y-112793475D01*
X150953475Y-112586632D01*
X151070000Y-112412240D01*
X151186525Y-112586632D01*
X151393368Y-112793475D01*
X151636589Y-112955990D01*
X151906842Y-113067932D01*
X152193740Y-113125000D01*
X152486260Y-113125000D01*
X152773158Y-113067932D01*
X153043411Y-112955990D01*
X153286632Y-112793475D01*
X153493475Y-112586632D01*
X153610000Y-112412240D01*
X153726525Y-112586632D01*
X153933368Y-112793475D01*
X154176589Y-112955990D01*
X154446842Y-113067932D01*
X154733740Y-113125000D01*
X155026260Y-113125000D01*
X155313158Y-113067932D01*
X155583411Y-112955990D01*
X155826632Y-112793475D01*
X156033475Y-112586632D01*
X156150000Y-112412240D01*
X156266525Y-112586632D01*
X156473368Y-112793475D01*
X156716589Y-112955990D01*
X156986842Y-113067932D01*
X157273740Y-113125000D01*
X157566260Y-113125000D01*
X157853158Y-113067932D01*
X158123411Y-112955990D01*
X158366632Y-112793475D01*
X158573475Y-112586632D01*
X158690000Y-112412240D01*
X158806525Y-112586632D01*
X159013368Y-112793475D01*
X159256589Y-112955990D01*
X159526842Y-113067932D01*
X159813740Y-113125000D01*
X160106260Y-113125000D01*
X160393158Y-113067932D01*
X160663411Y-112955990D01*
X160906632Y-112793475D01*
X161113475Y-112586632D01*
X161230000Y-112412240D01*
X161346525Y-112586632D01*
X161553368Y-112793475D01*
X161796589Y-112955990D01*
X162066842Y-113067932D01*
X162353740Y-113125000D01*
X162646260Y-113125000D01*
X162933158Y-113067932D01*
X163203411Y-112955990D01*
X163446632Y-112793475D01*
X163653475Y-112586632D01*
X163770000Y-112412240D01*
X163886525Y-112586632D01*
X164093368Y-112793475D01*
X164336589Y-112955990D01*
X164606842Y-113067932D01*
X164893740Y-113125000D01*
X165186260Y-113125000D01*
X165473158Y-113067932D01*
X165743411Y-112955990D01*
X165986632Y-112793475D01*
X166193475Y-112586632D01*
X166310000Y-112412240D01*
X166426525Y-112586632D01*
X166633368Y-112793475D01*
X166876589Y-112955990D01*
X167146842Y-113067932D01*
X167433740Y-113125000D01*
X167726260Y-113125000D01*
X168013158Y-113067932D01*
X168283411Y-112955990D01*
X168526632Y-112793475D01*
X168733475Y-112586632D01*
X168850000Y-112412240D01*
X168966525Y-112586632D01*
X169173368Y-112793475D01*
X169416589Y-112955990D01*
X169686842Y-113067932D01*
X169973740Y-113125000D01*
X170266260Y-113125000D01*
X170553158Y-113067932D01*
X170823411Y-112955990D01*
X171066632Y-112793475D01*
X171273475Y-112586632D01*
X171435990Y-112343411D01*
X171547932Y-112073158D01*
X171605000Y-111786260D01*
X171605000Y-111493740D01*
X171547932Y-111206842D01*
X171435990Y-110936589D01*
X171273475Y-110693368D01*
X171141620Y-110561513D01*
X171214180Y-110539502D01*
X171324494Y-110480537D01*
X171421185Y-110401185D01*
X171500537Y-110304494D01*
X171559502Y-110194180D01*
X171595812Y-110074482D01*
X171608072Y-109950000D01*
X171608072Y-108250000D01*
X171595812Y-108125518D01*
X171559502Y-108005820D01*
X171500537Y-107895506D01*
X171421185Y-107798815D01*
X171324494Y-107719463D01*
X171214180Y-107660498D01*
X171094482Y-107624188D01*
X170970000Y-107611928D01*
X169270000Y-107611928D01*
X169145518Y-107624188D01*
X169025820Y-107660498D01*
X168915506Y-107719463D01*
X168818815Y-107798815D01*
X168739463Y-107895506D01*
X168680498Y-108005820D01*
X168658487Y-108078380D01*
X168526632Y-107946525D01*
X168283411Y-107784010D01*
X168013158Y-107672068D01*
X167726260Y-107615000D01*
X167433740Y-107615000D01*
X167146842Y-107672068D01*
X166876589Y-107784010D01*
X166633368Y-107946525D01*
X166426525Y-108153368D01*
X166310000Y-108327760D01*
X166193475Y-108153368D01*
X165986632Y-107946525D01*
X165743411Y-107784010D01*
X165473158Y-107672068D01*
X165186260Y-107615000D01*
X164893740Y-107615000D01*
X164606842Y-107672068D01*
X164336589Y-107784010D01*
X164093368Y-107946525D01*
X163886525Y-108153368D01*
X163770000Y-108327760D01*
X163653475Y-108153368D01*
X163446632Y-107946525D01*
X163203411Y-107784010D01*
X162933158Y-107672068D01*
X162646260Y-107615000D01*
X162353740Y-107615000D01*
X162066842Y-107672068D01*
X161796589Y-107784010D01*
X161553368Y-107946525D01*
X161346525Y-108153368D01*
X161230000Y-108327760D01*
X161113475Y-108153368D01*
X160906632Y-107946525D01*
X160663411Y-107784010D01*
X160393158Y-107672068D01*
X160106260Y-107615000D01*
X159813740Y-107615000D01*
X159526842Y-107672068D01*
X159256589Y-107784010D01*
X159013368Y-107946525D01*
X158806525Y-108153368D01*
X158690000Y-108327760D01*
X158573475Y-108153368D01*
X158366632Y-107946525D01*
X158123411Y-107784010D01*
X157853158Y-107672068D01*
X157566260Y-107615000D01*
X157273740Y-107615000D01*
X156986842Y-107672068D01*
X156860000Y-107724607D01*
X156860000Y-103989775D01*
X171189830Y-103989775D01*
X171429976Y-104377018D01*
X171923877Y-104637641D01*
X172459133Y-104796901D01*
X173015174Y-104848678D01*
X173570632Y-104790981D01*
X174104161Y-104626028D01*
X174570024Y-104377018D01*
X174810170Y-103989775D01*
X173000000Y-102179605D01*
X171189830Y-103989775D01*
X156860000Y-103989775D01*
X156860000Y-102015174D01*
X170151322Y-102015174D01*
X170209019Y-102570632D01*
X170373972Y-103104161D01*
X170622982Y-103570024D01*
X171010225Y-103810170D01*
X172820395Y-102000000D01*
X173179605Y-102000000D01*
X174989775Y-103810170D01*
X175377018Y-103570024D01*
X175637641Y-103076123D01*
X175796901Y-102540867D01*
X175848678Y-101984826D01*
X175790981Y-101429368D01*
X175626028Y-100895839D01*
X175377018Y-100429976D01*
X174989775Y-100189830D01*
X173179605Y-102000000D01*
X172820395Y-102000000D01*
X171010225Y-100189830D01*
X170622982Y-100429976D01*
X170362359Y-100923877D01*
X170203099Y-101459133D01*
X170151322Y-102015174D01*
X156860000Y-102015174D01*
X156860000Y-100010225D01*
X171189830Y-100010225D01*
X173000000Y-101820395D01*
X174810170Y-100010225D01*
X174570024Y-99622982D01*
X174076123Y-99362359D01*
X173540867Y-99203099D01*
X172984826Y-99151322D01*
X172429368Y-99209019D01*
X171895839Y-99373972D01*
X171429976Y-99622982D01*
X171189830Y-100010225D01*
X156860000Y-100010225D01*
X156860000Y-86914801D01*
X157439802Y-86335000D01*
X157501939Y-86335000D01*
X157701898Y-86295226D01*
X157890256Y-86217205D01*
X158059774Y-86103937D01*
X158203937Y-85959774D01*
X158317205Y-85790256D01*
X158395226Y-85601898D01*
X158435000Y-85401939D01*
X158435000Y-85198061D01*
X158395226Y-84998102D01*
X158317205Y-84809744D01*
X158203937Y-84640226D01*
X158059774Y-84496063D01*
X157890256Y-84382795D01*
X157701898Y-84304774D01*
X157501939Y-84265000D01*
X157298061Y-84265000D01*
X157098102Y-84304774D01*
X156960000Y-84361978D01*
X156960000Y-73898061D01*
X160265000Y-73898061D01*
X160265000Y-74101939D01*
X160304774Y-74301898D01*
X160382795Y-74490256D01*
X160496063Y-74659774D01*
X160540001Y-74703712D01*
X160540000Y-84596289D01*
X160496063Y-84640226D01*
X160382795Y-84809744D01*
X160304774Y-84998102D01*
X160265000Y-85198061D01*
X160265000Y-85401939D01*
X160304774Y-85601898D01*
X160382795Y-85790256D01*
X160496063Y-85959774D01*
X160640226Y-86103937D01*
X160809744Y-86217205D01*
X160998102Y-86295226D01*
X161198061Y-86335000D01*
X161401939Y-86335000D01*
X161601898Y-86295226D01*
X161790256Y-86217205D01*
X161900000Y-86143877D01*
X162009744Y-86217205D01*
X162198102Y-86295226D01*
X162398061Y-86335000D01*
X162601939Y-86335000D01*
X162801898Y-86295226D01*
X162990256Y-86217205D01*
X163159774Y-86103937D01*
X163303937Y-85959774D01*
X163417205Y-85790256D01*
X163495226Y-85601898D01*
X163535000Y-85401939D01*
X163535000Y-85198061D01*
X163495226Y-84998102D01*
X163417205Y-84809744D01*
X163303937Y-84640226D01*
X163260000Y-84596289D01*
X163260000Y-74703711D01*
X163303937Y-74659774D01*
X163417205Y-74490256D01*
X163495226Y-74301898D01*
X163535000Y-74101939D01*
X163535000Y-73898061D01*
X163495226Y-73698102D01*
X163417205Y-73509744D01*
X163303937Y-73340226D01*
X163159774Y-73196063D01*
X162990256Y-73082795D01*
X162801898Y-73004774D01*
X162601939Y-72965000D01*
X162398061Y-72965000D01*
X162198102Y-73004774D01*
X162009744Y-73082795D01*
X161900000Y-73156123D01*
X161790256Y-73082795D01*
X161601898Y-73004774D01*
X161401939Y-72965000D01*
X161198061Y-72965000D01*
X160998102Y-73004774D01*
X160809744Y-73082795D01*
X160640226Y-73196063D01*
X160496063Y-73340226D01*
X160382795Y-73509744D01*
X160304774Y-73698102D01*
X160265000Y-73898061D01*
X156960000Y-73898061D01*
X156960000Y-72703711D01*
X157003937Y-72659774D01*
X157117205Y-72490256D01*
X157195226Y-72301898D01*
X157235000Y-72101939D01*
X157235000Y-71898061D01*
X157195226Y-71698102D01*
X157117205Y-71509744D01*
X157003937Y-71340226D01*
X156859774Y-71196063D01*
X156690256Y-71082795D01*
X156501898Y-71004774D01*
X156301939Y-70965000D01*
X156098061Y-70965000D01*
X155898102Y-71004774D01*
X155709744Y-71082795D01*
X155540226Y-71196063D01*
X155396063Y-71340226D01*
X155282795Y-71509744D01*
X155204774Y-71698102D01*
X155165000Y-71898061D01*
X155165000Y-72101939D01*
X155204774Y-72301898D01*
X155282795Y-72490256D01*
X155396063Y-72659774D01*
X155440000Y-72703711D01*
X155440001Y-84596288D01*
X155396063Y-84640226D01*
X155282795Y-84809744D01*
X155204774Y-84998102D01*
X155165000Y-85198061D01*
X155165000Y-85401939D01*
X155204774Y-85601898D01*
X155282795Y-85790256D01*
X155396063Y-85959774D01*
X155531281Y-86094992D01*
X155507250Y-86124275D01*
X155465026Y-86175724D01*
X155442854Y-86217205D01*
X155394454Y-86307754D01*
X155350997Y-86451015D01*
X155340000Y-86562668D01*
X155340000Y-86562678D01*
X155336324Y-86600000D01*
X155340000Y-86637322D01*
X155340001Y-107683187D01*
X155313158Y-107672068D01*
X155026260Y-107615000D01*
X154733740Y-107615000D01*
X154446842Y-107672068D01*
X154176589Y-107784010D01*
X153933368Y-107946525D01*
X153726525Y-108153368D01*
X153610000Y-108327760D01*
X153493475Y-108153368D01*
X153286632Y-107946525D01*
X153043411Y-107784010D01*
X152773158Y-107672068D01*
X152486260Y-107615000D01*
X152193740Y-107615000D01*
X151906842Y-107672068D01*
X151636589Y-107784010D01*
X151393368Y-107946525D01*
X151186525Y-108153368D01*
X151070000Y-108327760D01*
X150953475Y-108153368D01*
X150746632Y-107946525D01*
X150503411Y-107784010D01*
X150233158Y-107672068D01*
X149946260Y-107615000D01*
X149653740Y-107615000D01*
X149366842Y-107672068D01*
X149096589Y-107784010D01*
X148853368Y-107946525D01*
X148646525Y-108153368D01*
X148530000Y-108327760D01*
X148413475Y-108153368D01*
X148206632Y-107946525D01*
X147963411Y-107784010D01*
X147693158Y-107672068D01*
X147406260Y-107615000D01*
X147113740Y-107615000D01*
X146826842Y-107672068D01*
X146760000Y-107699755D01*
X146760000Y-77164320D01*
X146763676Y-77126997D01*
X146760000Y-77089674D01*
X146760000Y-77089665D01*
X146749003Y-76978012D01*
X146705546Y-76834751D01*
X146634974Y-76702722D01*
X146592537Y-76651012D01*
X146563799Y-76615994D01*
X146563795Y-76615990D01*
X146540001Y-76586997D01*
X146511008Y-76563203D01*
X144136806Y-74189003D01*
X144113003Y-74159999D01*
X143997278Y-74065026D01*
X143865249Y-73994454D01*
X143721988Y-73950997D01*
X143610335Y-73940000D01*
X143610324Y-73940000D01*
X143573002Y-73936324D01*
X143535680Y-73940000D01*
X143260000Y-73940000D01*
X143260000Y-67703711D01*
X143303937Y-67659774D01*
X143417205Y-67490256D01*
X143495226Y-67301898D01*
X143535000Y-67101939D01*
X143535000Y-66898061D01*
X147265000Y-66898061D01*
X147265000Y-67101939D01*
X147304774Y-67301898D01*
X147382795Y-67490256D01*
X147496063Y-67659774D01*
X147540001Y-67703712D01*
X147540000Y-69137332D01*
X147540001Y-69137342D01*
X147540000Y-76896289D01*
X147496063Y-76940226D01*
X147382795Y-77109744D01*
X147304774Y-77298102D01*
X147265000Y-77498061D01*
X147265000Y-77701939D01*
X147304774Y-77901898D01*
X147382795Y-78090256D01*
X147496063Y-78259774D01*
X147640226Y-78403937D01*
X147809744Y-78517205D01*
X147998102Y-78595226D01*
X148198061Y-78635000D01*
X148401939Y-78635000D01*
X148601898Y-78595226D01*
X148790256Y-78517205D01*
X148959774Y-78403937D01*
X149103937Y-78259774D01*
X149217205Y-78090256D01*
X149295226Y-77901898D01*
X149335000Y-77701939D01*
X149335000Y-77498061D01*
X149295226Y-77298102D01*
X149217205Y-77109744D01*
X149103937Y-76940226D01*
X149060000Y-76896289D01*
X149060000Y-67703711D01*
X149103937Y-67659774D01*
X149217205Y-67490256D01*
X149295226Y-67301898D01*
X149335000Y-67101939D01*
X149335000Y-66998061D01*
X151465000Y-66998061D01*
X151465000Y-67201939D01*
X151504774Y-67401898D01*
X151582795Y-67590256D01*
X151696063Y-67759774D01*
X151740000Y-67803711D01*
X151740000Y-68262668D01*
X151740001Y-73296288D01*
X151696063Y-73340226D01*
X151582795Y-73509744D01*
X151504774Y-73698102D01*
X151465000Y-73898061D01*
X151465000Y-74101939D01*
X151504774Y-74301898D01*
X151582795Y-74490256D01*
X151696063Y-74659774D01*
X151840226Y-74803937D01*
X152009744Y-74917205D01*
X152198102Y-74995226D01*
X152398061Y-75035000D01*
X152601939Y-75035000D01*
X152801898Y-74995226D01*
X152990256Y-74917205D01*
X153159774Y-74803937D01*
X153303937Y-74659774D01*
X153417205Y-74490256D01*
X153495226Y-74301898D01*
X153535000Y-74101939D01*
X153535000Y-73898061D01*
X153495226Y-73698102D01*
X153417205Y-73509744D01*
X153303937Y-73340226D01*
X153260000Y-73296289D01*
X153260000Y-67803711D01*
X153303937Y-67759774D01*
X153417205Y-67590256D01*
X153495226Y-67401898D01*
X153535000Y-67201939D01*
X153535000Y-66998061D01*
X153495226Y-66798102D01*
X153417205Y-66609744D01*
X153303937Y-66440226D01*
X153159774Y-66296063D01*
X152990256Y-66182795D01*
X152801898Y-66104774D01*
X152601939Y-66065000D01*
X152398061Y-66065000D01*
X152198102Y-66104774D01*
X152009744Y-66182795D01*
X151840226Y-66296063D01*
X151696063Y-66440226D01*
X151582795Y-66609744D01*
X151504774Y-66798102D01*
X151465000Y-66998061D01*
X149335000Y-66998061D01*
X149335000Y-66898061D01*
X149295226Y-66698102D01*
X149217205Y-66509744D01*
X149103937Y-66340226D01*
X148959774Y-66196063D01*
X148790256Y-66082795D01*
X148601898Y-66004774D01*
X148401939Y-65965000D01*
X148198061Y-65965000D01*
X147998102Y-66004774D01*
X147809744Y-66082795D01*
X147640226Y-66196063D01*
X147496063Y-66340226D01*
X147382795Y-66509744D01*
X147304774Y-66698102D01*
X147265000Y-66898061D01*
X143535000Y-66898061D01*
X143495226Y-66698102D01*
X143417205Y-66509744D01*
X143303937Y-66340226D01*
X143159774Y-66196063D01*
X142990256Y-66082795D01*
X142801898Y-66004774D01*
X142601939Y-65965000D01*
X142398061Y-65965000D01*
X142198102Y-66004774D01*
X142009744Y-66082795D01*
X141840226Y-66196063D01*
X141696063Y-66340226D01*
X141582795Y-66509744D01*
X141504774Y-66698102D01*
X141465000Y-66898061D01*
X141465000Y-67101939D01*
X141504774Y-67301898D01*
X141582795Y-67490256D01*
X141696063Y-67659774D01*
X141740001Y-67703712D01*
X141740000Y-69062667D01*
X141740000Y-69062668D01*
X141740001Y-74662657D01*
X141736323Y-74700000D01*
X141740000Y-74737333D01*
X141740001Y-84361979D01*
X141601898Y-84304774D01*
X141401939Y-84265000D01*
X141198061Y-84265000D01*
X140998102Y-84304774D01*
X140809744Y-84382795D01*
X140760000Y-84416033D01*
X140760000Y-72703711D01*
X140803937Y-72659774D01*
X140917205Y-72490256D01*
X140995226Y-72301898D01*
X141035000Y-72101939D01*
X141035000Y-71898061D01*
X140995226Y-71698102D01*
X140917205Y-71509744D01*
X140803937Y-71340226D01*
X140659774Y-71196063D01*
X140490256Y-71082795D01*
X140301898Y-71004774D01*
X140101939Y-70965000D01*
X139898061Y-70965000D01*
X139698102Y-71004774D01*
X139509744Y-71082795D01*
X139340226Y-71196063D01*
X139196063Y-71340226D01*
X139082795Y-71509744D01*
X139004774Y-71698102D01*
X138965000Y-71898061D01*
X138965000Y-72101939D01*
X139004774Y-72301898D01*
X139082795Y-72490256D01*
X139196063Y-72659774D01*
X139240001Y-72703712D01*
X139240000Y-84416033D01*
X139190256Y-84382795D01*
X139001898Y-84304774D01*
X138801939Y-84265000D01*
X138598061Y-84265000D01*
X138398102Y-84304774D01*
X138209744Y-84382795D01*
X138040226Y-84496063D01*
X137896063Y-84640226D01*
X137782795Y-84809744D01*
X137704774Y-84998102D01*
X137665000Y-85198061D01*
X137665000Y-85275774D01*
X137594455Y-85407753D01*
X137550999Y-85551014D01*
X137536325Y-85699999D01*
X137540002Y-85737332D01*
X137540001Y-107674903D01*
X137533158Y-107672068D01*
X137246260Y-107615000D01*
X136953740Y-107615000D01*
X136666842Y-107672068D01*
X136560001Y-107716323D01*
X136560001Y-86271159D01*
X136690256Y-86217205D01*
X136859774Y-86103937D01*
X137003937Y-85959774D01*
X137117205Y-85790256D01*
X137195226Y-85601898D01*
X137235000Y-85401939D01*
X137235000Y-85198061D01*
X137195226Y-84998102D01*
X137117205Y-84809744D01*
X137003937Y-84640226D01*
X136859774Y-84496063D01*
X136690256Y-84382795D01*
X136501898Y-84304774D01*
X136301939Y-84265000D01*
X136098061Y-84265000D01*
X135898102Y-84304774D01*
X135709744Y-84382795D01*
X135540226Y-84496063D01*
X135396063Y-84640226D01*
X135282795Y-84809744D01*
X135204774Y-84998102D01*
X135165000Y-85198061D01*
X135165000Y-85275774D01*
X135094455Y-85407753D01*
X135050999Y-85551014D01*
X135036325Y-85699999D01*
X135040002Y-85737332D01*
X135040001Y-107691471D01*
X134993158Y-107672068D01*
X134706260Y-107615000D01*
X134413740Y-107615000D01*
X134126842Y-107672068D01*
X134060001Y-107699754D01*
X134060001Y-86271159D01*
X134190256Y-86217205D01*
X134359774Y-86103937D01*
X134503937Y-85959774D01*
X134617205Y-85790256D01*
X134695226Y-85601898D01*
X134735000Y-85401939D01*
X134735000Y-85198061D01*
X134695226Y-84998102D01*
X134617205Y-84809744D01*
X134503937Y-84640226D01*
X134359774Y-84496063D01*
X134190256Y-84382795D01*
X134001898Y-84304774D01*
X133801939Y-84265000D01*
X133598061Y-84265000D01*
X133398102Y-84304774D01*
X133209744Y-84382795D01*
X133040226Y-84496063D01*
X132896063Y-84640226D01*
X132782795Y-84809744D01*
X132704774Y-84998102D01*
X132665000Y-85198061D01*
X132665000Y-85275774D01*
X132594455Y-85407753D01*
X132550999Y-85551014D01*
X132536325Y-85699999D01*
X132540002Y-85737332D01*
X132540002Y-107708040D01*
X132453158Y-107672068D01*
X132166260Y-107615000D01*
X131873740Y-107615000D01*
X131586842Y-107672068D01*
X131316589Y-107784010D01*
X131073368Y-107946525D01*
X130866525Y-108153368D01*
X130750000Y-108327760D01*
X130633475Y-108153368D01*
X130426632Y-107946525D01*
X130183411Y-107784010D01*
X129913158Y-107672068D01*
X129626260Y-107615000D01*
X129333740Y-107615000D01*
X129046842Y-107672068D01*
X128776589Y-107784010D01*
X128533368Y-107946525D01*
X128326525Y-108153368D01*
X128164010Y-108396589D01*
X128052068Y-108666842D01*
X127995000Y-108953740D01*
X115660000Y-108953740D01*
X115660000Y-103989775D01*
X125189830Y-103989775D01*
X125429976Y-104377018D01*
X125923877Y-104637641D01*
X126459133Y-104796901D01*
X127015174Y-104848678D01*
X127570632Y-104790981D01*
X128104161Y-104626028D01*
X128570024Y-104377018D01*
X128810170Y-103989775D01*
X127000000Y-102179605D01*
X125189830Y-103989775D01*
X115660000Y-103989775D01*
X115660000Y-102015174D01*
X124151322Y-102015174D01*
X124209019Y-102570632D01*
X124373972Y-103104161D01*
X124622982Y-103570024D01*
X125010225Y-103810170D01*
X126820395Y-102000000D01*
X127179605Y-102000000D01*
X128989775Y-103810170D01*
X129377018Y-103570024D01*
X129637641Y-103076123D01*
X129796901Y-102540867D01*
X129848678Y-101984826D01*
X129790981Y-101429368D01*
X129626028Y-100895839D01*
X129377018Y-100429976D01*
X128989775Y-100189830D01*
X127179605Y-102000000D01*
X126820395Y-102000000D01*
X125010225Y-100189830D01*
X124622982Y-100429976D01*
X124362359Y-100923877D01*
X124203099Y-101459133D01*
X124151322Y-102015174D01*
X115660000Y-102015174D01*
X115660000Y-100010225D01*
X125189830Y-100010225D01*
X127000000Y-101820395D01*
X128810170Y-100010225D01*
X128570024Y-99622982D01*
X128076123Y-99362359D01*
X127540867Y-99203099D01*
X126984826Y-99151322D01*
X126429368Y-99209019D01*
X125895839Y-99373972D01*
X125429976Y-99622982D01*
X125189830Y-100010225D01*
X115660000Y-100010225D01*
X115660000Y-97491743D01*
X115786922Y-97683474D01*
X115958275Y-97856307D01*
X116160054Y-97992390D01*
X116384504Y-98086493D01*
X116623000Y-98135000D01*
X116973000Y-98135000D01*
X116973000Y-97027000D01*
X117227000Y-97027000D01*
X117227000Y-98135000D01*
X117577000Y-98135000D01*
X117815496Y-98086493D01*
X118039946Y-97992390D01*
X118241725Y-97856307D01*
X118413078Y-97683474D01*
X118547421Y-97480533D01*
X118639591Y-97255282D01*
X118643462Y-97217609D01*
X118518731Y-97027000D01*
X117227000Y-97027000D01*
X116973000Y-97027000D01*
X116953000Y-97027000D01*
X116953000Y-96839133D01*
X119040472Y-96839133D01*
X119102965Y-97075450D01*
X119345678Y-97188850D01*
X119605849Y-97252719D01*
X119873482Y-97264604D01*
X120138291Y-97224048D01*
X120390100Y-97132609D01*
X120497035Y-97075450D01*
X120559528Y-96839133D01*
X119800000Y-96079605D01*
X119040472Y-96839133D01*
X116953000Y-96839133D01*
X116953000Y-96773000D01*
X116973000Y-96773000D01*
X116973000Y-95665000D01*
X117227000Y-95665000D01*
X117227000Y-96773000D01*
X118518731Y-96773000D01*
X118632503Y-96599138D01*
X118860867Y-96659528D01*
X119620395Y-95900000D01*
X119979605Y-95900000D01*
X120739133Y-96659528D01*
X120975450Y-96597035D01*
X121088850Y-96354322D01*
X121152719Y-96094151D01*
X121164604Y-95826518D01*
X121124048Y-95561709D01*
X121032609Y-95309900D01*
X120975450Y-95202965D01*
X120739133Y-95140472D01*
X119979605Y-95900000D01*
X119620395Y-95900000D01*
X118860867Y-95140472D01*
X118624550Y-95202965D01*
X118511150Y-95445678D01*
X118447281Y-95705849D01*
X118435396Y-95973482D01*
X118470615Y-96203442D01*
X118413078Y-96116526D01*
X118241725Y-95943693D01*
X118039946Y-95807610D01*
X117815496Y-95713507D01*
X117577000Y-95665000D01*
X117227000Y-95665000D01*
X116973000Y-95665000D01*
X116623000Y-95665000D01*
X116384504Y-95713507D01*
X116160054Y-95807610D01*
X115958275Y-95943693D01*
X115786922Y-96116526D01*
X115660000Y-96308257D01*
X115660000Y-94960867D01*
X119040472Y-94960867D01*
X119800000Y-95720395D01*
X120559528Y-94960867D01*
X120497035Y-94724550D01*
X120254322Y-94611150D01*
X119994151Y-94547281D01*
X119726518Y-94535396D01*
X119461709Y-94575952D01*
X119209900Y-94667391D01*
X119102965Y-94724550D01*
X119040472Y-94960867D01*
X115660000Y-94960867D01*
X115660000Y-91839133D01*
X119040472Y-91839133D01*
X119102965Y-92075450D01*
X119345678Y-92188850D01*
X119605849Y-92252719D01*
X119873482Y-92264604D01*
X120138291Y-92224048D01*
X120390100Y-92132609D01*
X120497035Y-92075450D01*
X120559528Y-91839133D01*
X119800000Y-91079605D01*
X119040472Y-91839133D01*
X115660000Y-91839133D01*
X115660000Y-90491743D01*
X115786922Y-90683474D01*
X115958275Y-90856307D01*
X116160054Y-90992390D01*
X116384504Y-91086493D01*
X116623000Y-91135000D01*
X116973000Y-91135000D01*
X116973000Y-90027000D01*
X117227000Y-90027000D01*
X117227000Y-91135000D01*
X117577000Y-91135000D01*
X117815496Y-91086493D01*
X118039946Y-90992390D01*
X118241725Y-90856307D01*
X118413078Y-90683474D01*
X118476171Y-90588164D01*
X118447281Y-90705849D01*
X118435396Y-90973482D01*
X118475952Y-91238291D01*
X118567391Y-91490100D01*
X118624550Y-91597035D01*
X118860867Y-91659528D01*
X119620395Y-90900000D01*
X119979605Y-90900000D01*
X120739133Y-91659528D01*
X120975450Y-91597035D01*
X121088850Y-91354322D01*
X121152719Y-91094151D01*
X121164604Y-90826518D01*
X121124048Y-90561709D01*
X121032609Y-90309900D01*
X120975450Y-90202965D01*
X120739133Y-90140472D01*
X119979605Y-90900000D01*
X119620395Y-90900000D01*
X118860867Y-90140472D01*
X118632503Y-90200862D01*
X118518731Y-90027000D01*
X117227000Y-90027000D01*
X116973000Y-90027000D01*
X116953000Y-90027000D01*
X116953000Y-89960867D01*
X119040472Y-89960867D01*
X119800000Y-90720395D01*
X120559528Y-89960867D01*
X120497035Y-89724550D01*
X120254322Y-89611150D01*
X119994151Y-89547281D01*
X119726518Y-89535396D01*
X119461709Y-89575952D01*
X119209900Y-89667391D01*
X119102965Y-89724550D01*
X119040472Y-89960867D01*
X116953000Y-89960867D01*
X116953000Y-89773000D01*
X116973000Y-89773000D01*
X116973000Y-88665000D01*
X117227000Y-88665000D01*
X117227000Y-89773000D01*
X118518731Y-89773000D01*
X118643462Y-89582391D01*
X118639591Y-89544718D01*
X118547421Y-89319467D01*
X118413078Y-89116526D01*
X118241725Y-88943693D01*
X118039946Y-88807610D01*
X117815496Y-88713507D01*
X117577000Y-88665000D01*
X117227000Y-88665000D01*
X116973000Y-88665000D01*
X116623000Y-88665000D01*
X116384504Y-88713507D01*
X116160054Y-88807610D01*
X115958275Y-88943693D01*
X115786922Y-89116526D01*
X115660000Y-89308257D01*
X115660000Y-65050000D01*
X140891928Y-65050000D01*
X140904188Y-65174482D01*
X140940498Y-65294180D01*
X140999463Y-65404494D01*
X141078815Y-65501185D01*
X141175506Y-65580537D01*
X141285820Y-65639502D01*
X141405518Y-65675812D01*
X141530000Y-65688072D01*
X142094250Y-65685000D01*
X142253000Y-65526250D01*
X142253000Y-64327000D01*
X142507000Y-64327000D01*
X142507000Y-65526250D01*
X142665750Y-65685000D01*
X143230000Y-65688072D01*
X143354482Y-65675812D01*
X143474180Y-65639502D01*
X143584494Y-65580537D01*
X143681185Y-65501185D01*
X143760537Y-65404494D01*
X143819502Y-65294180D01*
X143843966Y-65213534D01*
X143919731Y-65297588D01*
X144153080Y-65471641D01*
X144415901Y-65596825D01*
X144563110Y-65641476D01*
X144793000Y-65520155D01*
X144793000Y-64327000D01*
X142507000Y-64327000D01*
X142253000Y-64327000D01*
X141053750Y-64327000D01*
X140895000Y-64485750D01*
X140891928Y-65050000D01*
X115660000Y-65050000D01*
X115660000Y-63350000D01*
X140891928Y-63350000D01*
X140895000Y-63914250D01*
X141053750Y-64073000D01*
X142253000Y-64073000D01*
X142253000Y-62873750D01*
X142507000Y-62873750D01*
X142507000Y-64073000D01*
X144793000Y-64073000D01*
X144793000Y-62879845D01*
X145047000Y-62879845D01*
X145047000Y-64073000D01*
X145067000Y-64073000D01*
X145067000Y-64327000D01*
X145047000Y-64327000D01*
X145047000Y-65520155D01*
X145276890Y-65641476D01*
X145424099Y-65596825D01*
X145686920Y-65471641D01*
X145920269Y-65297588D01*
X146115178Y-65081355D01*
X146184805Y-64964466D01*
X146306525Y-65146632D01*
X146513368Y-65353475D01*
X146756589Y-65515990D01*
X147026842Y-65627932D01*
X147313740Y-65685000D01*
X147606260Y-65685000D01*
X147893158Y-65627932D01*
X148163411Y-65515990D01*
X148406632Y-65353475D01*
X148613475Y-65146632D01*
X148730000Y-64972240D01*
X148846525Y-65146632D01*
X149053368Y-65353475D01*
X149296589Y-65515990D01*
X149566842Y-65627932D01*
X149853740Y-65685000D01*
X150146260Y-65685000D01*
X150433158Y-65627932D01*
X150703411Y-65515990D01*
X150946632Y-65353475D01*
X151153475Y-65146632D01*
X151270000Y-64972240D01*
X151386525Y-65146632D01*
X151593368Y-65353475D01*
X151836589Y-65515990D01*
X152106842Y-65627932D01*
X152393740Y-65685000D01*
X152686260Y-65685000D01*
X152973158Y-65627932D01*
X153243411Y-65515990D01*
X153486632Y-65353475D01*
X153693475Y-65146632D01*
X153810000Y-64972240D01*
X153926525Y-65146632D01*
X154133368Y-65353475D01*
X154376589Y-65515990D01*
X154646842Y-65627932D01*
X154933740Y-65685000D01*
X155226260Y-65685000D01*
X155513158Y-65627932D01*
X155783411Y-65515990D01*
X156026632Y-65353475D01*
X156233475Y-65146632D01*
X156350000Y-64972240D01*
X156466525Y-65146632D01*
X156673368Y-65353475D01*
X156916589Y-65515990D01*
X157186842Y-65627932D01*
X157473740Y-65685000D01*
X157766260Y-65685000D01*
X158053158Y-65627932D01*
X158323411Y-65515990D01*
X158566632Y-65353475D01*
X158773475Y-65146632D01*
X158935990Y-64903411D01*
X159047932Y-64633158D01*
X159105000Y-64346260D01*
X159105000Y-64053740D01*
X159047932Y-63766842D01*
X158935990Y-63496589D01*
X158773475Y-63253368D01*
X158566632Y-63046525D01*
X158323411Y-62884010D01*
X158053158Y-62772068D01*
X157766260Y-62715000D01*
X157473740Y-62715000D01*
X157186842Y-62772068D01*
X156916589Y-62884010D01*
X156673368Y-63046525D01*
X156466525Y-63253368D01*
X156350000Y-63427760D01*
X156233475Y-63253368D01*
X156026632Y-63046525D01*
X155783411Y-62884010D01*
X155513158Y-62772068D01*
X155226260Y-62715000D01*
X154933740Y-62715000D01*
X154646842Y-62772068D01*
X154376589Y-62884010D01*
X154133368Y-63046525D01*
X153926525Y-63253368D01*
X153810000Y-63427760D01*
X153693475Y-63253368D01*
X153486632Y-63046525D01*
X153243411Y-62884010D01*
X152973158Y-62772068D01*
X152686260Y-62715000D01*
X152393740Y-62715000D01*
X152106842Y-62772068D01*
X151836589Y-62884010D01*
X151593368Y-63046525D01*
X151386525Y-63253368D01*
X151270000Y-63427760D01*
X151153475Y-63253368D01*
X150946632Y-63046525D01*
X150703411Y-62884010D01*
X150433158Y-62772068D01*
X150146260Y-62715000D01*
X149853740Y-62715000D01*
X149566842Y-62772068D01*
X149296589Y-62884010D01*
X149053368Y-63046525D01*
X148846525Y-63253368D01*
X148730000Y-63427760D01*
X148613475Y-63253368D01*
X148406632Y-63046525D01*
X148163411Y-62884010D01*
X147893158Y-62772068D01*
X147606260Y-62715000D01*
X147313740Y-62715000D01*
X147026842Y-62772068D01*
X146756589Y-62884010D01*
X146513368Y-63046525D01*
X146306525Y-63253368D01*
X146184805Y-63435534D01*
X146115178Y-63318645D01*
X145920269Y-63102412D01*
X145686920Y-62928359D01*
X145424099Y-62803175D01*
X145276890Y-62758524D01*
X145047000Y-62879845D01*
X144793000Y-62879845D01*
X144563110Y-62758524D01*
X144415901Y-62803175D01*
X144153080Y-62928359D01*
X143919731Y-63102412D01*
X143843966Y-63186466D01*
X143819502Y-63105820D01*
X143760537Y-62995506D01*
X143681185Y-62898815D01*
X143584494Y-62819463D01*
X143474180Y-62760498D01*
X143354482Y-62724188D01*
X143230000Y-62711928D01*
X142665750Y-62715000D01*
X142507000Y-62873750D01*
X142253000Y-62873750D01*
X142094250Y-62715000D01*
X141530000Y-62711928D01*
X141405518Y-62724188D01*
X141285820Y-62760498D01*
X141175506Y-62819463D01*
X141078815Y-62898815D01*
X140999463Y-62995506D01*
X140940498Y-63105820D01*
X140904188Y-63225518D01*
X140891928Y-63350000D01*
X115660000Y-63350000D01*
X115660000Y-62032279D01*
X115688625Y-61740341D01*
X115764035Y-61490571D01*
X115886522Y-61260208D01*
X116051422Y-61058020D01*
X116252450Y-60891714D01*
X116481954Y-60767622D01*
X116731195Y-60690469D01*
X117021088Y-60660000D01*
X182967721Y-60660000D01*
X183259659Y-60688625D01*
G36*
X139509744Y-86217205D02*
G01*
X139698102Y-86295226D01*
X139898061Y-86335000D01*
X140101939Y-86335000D01*
X140140002Y-86327429D01*
X140140001Y-107699755D01*
X140073158Y-107672068D01*
X139786260Y-107615000D01*
X139493740Y-107615000D01*
X139206842Y-107672068D01*
X139060001Y-107732891D01*
X139060001Y-86271159D01*
X139190256Y-86217205D01*
X139350000Y-86110468D01*
X139509744Y-86217205D01*
G37*
X139509744Y-86217205D02*
X139698102Y-86295226D01*
X139898061Y-86335000D01*
X140101939Y-86335000D01*
X140140002Y-86327429D01*
X140140001Y-107699755D01*
X140073158Y-107672068D01*
X139786260Y-107615000D01*
X139493740Y-107615000D01*
X139206842Y-107672068D01*
X139060001Y-107732891D01*
X139060001Y-86271159D01*
X139190256Y-86217205D01*
X139350000Y-86110468D01*
X139509744Y-86217205D01*
G36*
X145240000Y-107708039D02*
G01*
X145153158Y-107672068D01*
X144866260Y-107615000D01*
X144573740Y-107615000D01*
X144286842Y-107672068D01*
X144160000Y-107724607D01*
X144160000Y-86335000D01*
X144301939Y-86335000D01*
X144501898Y-86295226D01*
X144690256Y-86217205D01*
X144859774Y-86103937D01*
X145003937Y-85959774D01*
X145117205Y-85790256D01*
X145195226Y-85601898D01*
X145235000Y-85401939D01*
X145235000Y-85324226D01*
X145240001Y-85314871D01*
X145240000Y-107708039D01*
G37*
X145240000Y-107708039D02*
X145153158Y-107672068D01*
X144866260Y-107615000D01*
X144573740Y-107615000D01*
X144286842Y-107672068D01*
X144160000Y-107724607D01*
X144160000Y-86335000D01*
X144301939Y-86335000D01*
X144501898Y-86295226D01*
X144690256Y-86217205D01*
X144859774Y-86103937D01*
X145003937Y-85959774D01*
X145117205Y-85790256D01*
X145195226Y-85601898D01*
X145235000Y-85401939D01*
X145235000Y-85324226D01*
X145240001Y-85314871D01*
X145240000Y-107708039D01*
G36*
X142009744Y-86217205D02*
G01*
X142198102Y-86295226D01*
X142398061Y-86335000D01*
X142601939Y-86335000D01*
X142640000Y-86327429D01*
X142640001Y-107683187D01*
X142613158Y-107672068D01*
X142326260Y-107615000D01*
X142033740Y-107615000D01*
X141746842Y-107672068D01*
X141660001Y-107708039D01*
X141660001Y-86271159D01*
X141790256Y-86217205D01*
X141900000Y-86143877D01*
X142009744Y-86217205D01*
G37*
X142009744Y-86217205D02*
X142198102Y-86295226D01*
X142398061Y-86335000D01*
X142601939Y-86335000D01*
X142640000Y-86327429D01*
X142640001Y-107683187D01*
X142613158Y-107672068D01*
X142326260Y-107615000D01*
X142033740Y-107615000D01*
X141746842Y-107672068D01*
X141660001Y-107708039D01*
X141660001Y-86271159D01*
X141790256Y-86217205D01*
X141900000Y-86143877D01*
X142009744Y-86217205D01*
M02*
