G04 #@! TF.GenerationSoftware,KiCad,Pcbnew,5.1.5-52549c5~84~ubuntu19.10.1*
G04 #@! TF.CreationDate,2020-02-17T22:34:59+13:00*
G04 #@! TF.ProjectId,Snepper-1,536e6570-7065-4722-9d31-2e6b69636164,rev?*
G04 #@! TF.SameCoordinates,Original*
G04 #@! TF.FileFunction,Soldermask,Top*
G04 #@! TF.FilePolarity,Negative*
%FSLAX46Y46*%
G04 Gerber Fmt 4.6, Leading zero omitted, Abs format (unit mm)*
G04 Created by KiCad (PCBNEW 5.1.5-52549c5~84~ubuntu19.10.1) date 2020-02-17 22:34:59*
%MOMM*%
%LPD*%
G04 APERTURE LIST*
%ADD10C,0.100000*%
G04 APERTURE END LIST*
D10*
G36*
X169465799Y-133971116D02*
G01*
X169576984Y-133993232D01*
X169786453Y-134079997D01*
X169974970Y-134205960D01*
X170135290Y-134366280D01*
X170261253Y-134554797D01*
X170348018Y-134764266D01*
X170392250Y-134986636D01*
X170392250Y-135213364D01*
X170348018Y-135435734D01*
X170261253Y-135645203D01*
X170135290Y-135833720D01*
X169974970Y-135994040D01*
X169786453Y-136120003D01*
X169576984Y-136206768D01*
X169465799Y-136228884D01*
X169354615Y-136251000D01*
X169127885Y-136251000D01*
X169016701Y-136228884D01*
X168905516Y-136206768D01*
X168696047Y-136120003D01*
X168507530Y-135994040D01*
X168347210Y-135833720D01*
X168221247Y-135645203D01*
X168134482Y-135435734D01*
X168090250Y-135213364D01*
X168090250Y-134986636D01*
X168134482Y-134764266D01*
X168221247Y-134554797D01*
X168347210Y-134366280D01*
X168507530Y-134205960D01*
X168696047Y-134079997D01*
X168905516Y-133993232D01*
X169016701Y-133971116D01*
X169127885Y-133949000D01*
X169354615Y-133949000D01*
X169465799Y-133971116D01*
G37*
G36*
X155252049Y-133971116D02*
G01*
X155363234Y-133993232D01*
X155572703Y-134079997D01*
X155761220Y-134205960D01*
X155921540Y-134366280D01*
X156047503Y-134554797D01*
X156134268Y-134764266D01*
X156178500Y-134986636D01*
X156178500Y-135213364D01*
X156134268Y-135435734D01*
X156047503Y-135645203D01*
X155921540Y-135833720D01*
X155761220Y-135994040D01*
X155572703Y-136120003D01*
X155363234Y-136206768D01*
X155252049Y-136228884D01*
X155140865Y-136251000D01*
X154914135Y-136251000D01*
X154802951Y-136228884D01*
X154691766Y-136206768D01*
X154482297Y-136120003D01*
X154293780Y-135994040D01*
X154133460Y-135833720D01*
X154007497Y-135645203D01*
X153920732Y-135435734D01*
X153876500Y-135213364D01*
X153876500Y-134986636D01*
X153920732Y-134764266D01*
X154007497Y-134554797D01*
X154133460Y-134366280D01*
X154293780Y-134205960D01*
X154482297Y-134079997D01*
X154691766Y-133993232D01*
X154802951Y-133971116D01*
X154914135Y-133949000D01*
X155140865Y-133949000D01*
X155252049Y-133971116D01*
G37*
G36*
X148752049Y-133971116D02*
G01*
X148863234Y-133993232D01*
X149072703Y-134079997D01*
X149261220Y-134205960D01*
X149421540Y-134366280D01*
X149547503Y-134554797D01*
X149634268Y-134764266D01*
X149678500Y-134986636D01*
X149678500Y-135213364D01*
X149634268Y-135435734D01*
X149547503Y-135645203D01*
X149421540Y-135833720D01*
X149261220Y-135994040D01*
X149072703Y-136120003D01*
X148863234Y-136206768D01*
X148752049Y-136228884D01*
X148640865Y-136251000D01*
X148414135Y-136251000D01*
X148302951Y-136228884D01*
X148191766Y-136206768D01*
X147982297Y-136120003D01*
X147793780Y-135994040D01*
X147633460Y-135833720D01*
X147507497Y-135645203D01*
X147420732Y-135435734D01*
X147376500Y-135213364D01*
X147376500Y-134986636D01*
X147420732Y-134764266D01*
X147507497Y-134554797D01*
X147633460Y-134366280D01*
X147793780Y-134205960D01*
X147982297Y-134079997D01*
X148191766Y-133993232D01*
X148302951Y-133971116D01*
X148414135Y-133949000D01*
X148640865Y-133949000D01*
X148752049Y-133971116D01*
G37*
G36*
X162965799Y-133971116D02*
G01*
X163076984Y-133993232D01*
X163286453Y-134079997D01*
X163474970Y-134205960D01*
X163635290Y-134366280D01*
X163761253Y-134554797D01*
X163848018Y-134764266D01*
X163892250Y-134986636D01*
X163892250Y-135213364D01*
X163848018Y-135435734D01*
X163761253Y-135645203D01*
X163635290Y-135833720D01*
X163474970Y-135994040D01*
X163286453Y-136120003D01*
X163076984Y-136206768D01*
X162965799Y-136228884D01*
X162854615Y-136251000D01*
X162627885Y-136251000D01*
X162516701Y-136228884D01*
X162405516Y-136206768D01*
X162196047Y-136120003D01*
X162007530Y-135994040D01*
X161847210Y-135833720D01*
X161721247Y-135645203D01*
X161634482Y-135435734D01*
X161590250Y-135213364D01*
X161590250Y-134986636D01*
X161634482Y-134764266D01*
X161721247Y-134554797D01*
X161847210Y-134366280D01*
X162007530Y-134205960D01*
X162196047Y-134079997D01*
X162405516Y-133993232D01*
X162516701Y-133971116D01*
X162627885Y-133949000D01*
X162854615Y-133949000D01*
X162965799Y-133971116D01*
G37*
G36*
X140711978Y-132031703D02*
G01*
X140866850Y-132095853D01*
X141006231Y-132188985D01*
X141124765Y-132307519D01*
X141217897Y-132446900D01*
X141282047Y-132601772D01*
X141314750Y-132766184D01*
X141314750Y-132933816D01*
X141282047Y-133098228D01*
X141217897Y-133253100D01*
X141124765Y-133392481D01*
X141006231Y-133511015D01*
X140866850Y-133604147D01*
X140711978Y-133668297D01*
X140547566Y-133701000D01*
X140379934Y-133701000D01*
X140215522Y-133668297D01*
X140060650Y-133604147D01*
X139921269Y-133511015D01*
X139802735Y-133392481D01*
X139709603Y-133253100D01*
X139645453Y-133098228D01*
X139612750Y-132933816D01*
X139612750Y-132766184D01*
X139645453Y-132601772D01*
X139709603Y-132446900D01*
X139802735Y-132307519D01*
X139921269Y-132188985D01*
X140060650Y-132095853D01*
X140215522Y-132031703D01*
X140379934Y-131999000D01*
X140547566Y-131999000D01*
X140711978Y-132031703D01*
G37*
G36*
X136011978Y-132031703D02*
G01*
X136166850Y-132095853D01*
X136306231Y-132188985D01*
X136424765Y-132307519D01*
X136517897Y-132446900D01*
X136582047Y-132601772D01*
X136614750Y-132766184D01*
X136614750Y-132933816D01*
X136582047Y-133098228D01*
X136517897Y-133253100D01*
X136424765Y-133392481D01*
X136306231Y-133511015D01*
X136166850Y-133604147D01*
X136011978Y-133668297D01*
X135847566Y-133701000D01*
X135679934Y-133701000D01*
X135515522Y-133668297D01*
X135360650Y-133604147D01*
X135221269Y-133511015D01*
X135102735Y-133392481D01*
X135009603Y-133253100D01*
X134945453Y-133098228D01*
X134912750Y-132933816D01*
X134912750Y-132766184D01*
X134945453Y-132601772D01*
X135009603Y-132446900D01*
X135102735Y-132307519D01*
X135221269Y-132188985D01*
X135360650Y-132095853D01*
X135515522Y-132031703D01*
X135679934Y-131999000D01*
X135847566Y-131999000D01*
X136011978Y-132031703D01*
G37*
G36*
X131311978Y-132031703D02*
G01*
X131466850Y-132095853D01*
X131606231Y-132188985D01*
X131724765Y-132307519D01*
X131817897Y-132446900D01*
X131882047Y-132601772D01*
X131914750Y-132766184D01*
X131914750Y-132933816D01*
X131882047Y-133098228D01*
X131817897Y-133253100D01*
X131724765Y-133392481D01*
X131606231Y-133511015D01*
X131466850Y-133604147D01*
X131311978Y-133668297D01*
X131147566Y-133701000D01*
X130979934Y-133701000D01*
X130815522Y-133668297D01*
X130660650Y-133604147D01*
X130521269Y-133511015D01*
X130402735Y-133392481D01*
X130309603Y-133253100D01*
X130245453Y-133098228D01*
X130212750Y-132933816D01*
X130212750Y-132766184D01*
X130245453Y-132601772D01*
X130309603Y-132446900D01*
X130402735Y-132307519D01*
X130521269Y-132188985D01*
X130660650Y-132095853D01*
X130815522Y-132031703D01*
X130979934Y-131999000D01*
X131147566Y-131999000D01*
X131311978Y-132031703D01*
G37*
G36*
X123988674Y-132125965D02*
G01*
X124026367Y-132137399D01*
X124061103Y-132155966D01*
X124091548Y-132180952D01*
X124116534Y-132211397D01*
X124135101Y-132246133D01*
X124146535Y-132283826D01*
X124151000Y-132329161D01*
X124151000Y-133415839D01*
X124146535Y-133461174D01*
X124135101Y-133498867D01*
X124116534Y-133533603D01*
X124091548Y-133564048D01*
X124061103Y-133589034D01*
X124026367Y-133607601D01*
X123988674Y-133619035D01*
X123943339Y-133623500D01*
X123106661Y-133623500D01*
X123061326Y-133619035D01*
X123023633Y-133607601D01*
X122988897Y-133589034D01*
X122958452Y-133564048D01*
X122933466Y-133533603D01*
X122914899Y-133498867D01*
X122903465Y-133461174D01*
X122899000Y-133415839D01*
X122899000Y-132329161D01*
X122903465Y-132283826D01*
X122914899Y-132246133D01*
X122933466Y-132211397D01*
X122958452Y-132180952D01*
X122988897Y-132155966D01*
X123023633Y-132137399D01*
X123061326Y-132125965D01*
X123106661Y-132121500D01*
X123943339Y-132121500D01*
X123988674Y-132125965D01*
G37*
G36*
X121938674Y-132125965D02*
G01*
X121976367Y-132137399D01*
X122011103Y-132155966D01*
X122041548Y-132180952D01*
X122066534Y-132211397D01*
X122085101Y-132246133D01*
X122096535Y-132283826D01*
X122101000Y-132329161D01*
X122101000Y-133415839D01*
X122096535Y-133461174D01*
X122085101Y-133498867D01*
X122066534Y-133533603D01*
X122041548Y-133564048D01*
X122011103Y-133589034D01*
X121976367Y-133607601D01*
X121938674Y-133619035D01*
X121893339Y-133623500D01*
X121056661Y-133623500D01*
X121011326Y-133619035D01*
X120973633Y-133607601D01*
X120938897Y-133589034D01*
X120908452Y-133564048D01*
X120883466Y-133533603D01*
X120864899Y-133498867D01*
X120853465Y-133461174D01*
X120849000Y-133415839D01*
X120849000Y-132329161D01*
X120853465Y-132283826D01*
X120864899Y-132246133D01*
X120883466Y-132211397D01*
X120908452Y-132180952D01*
X120938897Y-132155966D01*
X120973633Y-132137399D01*
X121011326Y-132125965D01*
X121056661Y-132121500D01*
X121893339Y-132121500D01*
X121938674Y-132125965D01*
G37*
G36*
X178988674Y-132080965D02*
G01*
X179026367Y-132092399D01*
X179061103Y-132110966D01*
X179091548Y-132135952D01*
X179116534Y-132166397D01*
X179135101Y-132201133D01*
X179146535Y-132238826D01*
X179151000Y-132284161D01*
X179151000Y-133370839D01*
X179146535Y-133416174D01*
X179135101Y-133453867D01*
X179116534Y-133488603D01*
X179091548Y-133519048D01*
X179061103Y-133544034D01*
X179026367Y-133562601D01*
X178988674Y-133574035D01*
X178943339Y-133578500D01*
X178106661Y-133578500D01*
X178061326Y-133574035D01*
X178023633Y-133562601D01*
X177988897Y-133544034D01*
X177958452Y-133519048D01*
X177933466Y-133488603D01*
X177914899Y-133453867D01*
X177903465Y-133416174D01*
X177899000Y-133370839D01*
X177899000Y-132284161D01*
X177903465Y-132238826D01*
X177914899Y-132201133D01*
X177933466Y-132166397D01*
X177958452Y-132135952D01*
X177988897Y-132110966D01*
X178023633Y-132092399D01*
X178061326Y-132080965D01*
X178106661Y-132076500D01*
X178943339Y-132076500D01*
X178988674Y-132080965D01*
G37*
G36*
X176938674Y-132080965D02*
G01*
X176976367Y-132092399D01*
X177011103Y-132110966D01*
X177041548Y-132135952D01*
X177066534Y-132166397D01*
X177085101Y-132201133D01*
X177096535Y-132238826D01*
X177101000Y-132284161D01*
X177101000Y-133370839D01*
X177096535Y-133416174D01*
X177085101Y-133453867D01*
X177066534Y-133488603D01*
X177041548Y-133519048D01*
X177011103Y-133544034D01*
X176976367Y-133562601D01*
X176938674Y-133574035D01*
X176893339Y-133578500D01*
X176056661Y-133578500D01*
X176011326Y-133574035D01*
X175973633Y-133562601D01*
X175938897Y-133544034D01*
X175908452Y-133519048D01*
X175883466Y-133488603D01*
X175864899Y-133453867D01*
X175853465Y-133416174D01*
X175849000Y-133370839D01*
X175849000Y-132284161D01*
X175853465Y-132238826D01*
X175864899Y-132201133D01*
X175883466Y-132166397D01*
X175908452Y-132135952D01*
X175938897Y-132110966D01*
X175973633Y-132092399D01*
X176011326Y-132080965D01*
X176056661Y-132076500D01*
X176893339Y-132076500D01*
X176938674Y-132080965D01*
G37*
G36*
X155252049Y-129471116D02*
G01*
X155363234Y-129493232D01*
X155572703Y-129579997D01*
X155761220Y-129705960D01*
X155921540Y-129866280D01*
X156047503Y-130054797D01*
X156134268Y-130264266D01*
X156178500Y-130486636D01*
X156178500Y-130713364D01*
X156134268Y-130935734D01*
X156047503Y-131145203D01*
X155921540Y-131333720D01*
X155761220Y-131494040D01*
X155572703Y-131620003D01*
X155363234Y-131706768D01*
X155252049Y-131728884D01*
X155140865Y-131751000D01*
X154914135Y-131751000D01*
X154802951Y-131728884D01*
X154691766Y-131706768D01*
X154482297Y-131620003D01*
X154293780Y-131494040D01*
X154133460Y-131333720D01*
X154007497Y-131145203D01*
X153920732Y-130935734D01*
X153876500Y-130713364D01*
X153876500Y-130486636D01*
X153920732Y-130264266D01*
X154007497Y-130054797D01*
X154133460Y-129866280D01*
X154293780Y-129705960D01*
X154482297Y-129579997D01*
X154691766Y-129493232D01*
X154802951Y-129471116D01*
X154914135Y-129449000D01*
X155140865Y-129449000D01*
X155252049Y-129471116D01*
G37*
G36*
X169465799Y-129471116D02*
G01*
X169576984Y-129493232D01*
X169786453Y-129579997D01*
X169974970Y-129705960D01*
X170135290Y-129866280D01*
X170261253Y-130054797D01*
X170348018Y-130264266D01*
X170392250Y-130486636D01*
X170392250Y-130713364D01*
X170348018Y-130935734D01*
X170261253Y-131145203D01*
X170135290Y-131333720D01*
X169974970Y-131494040D01*
X169786453Y-131620003D01*
X169576984Y-131706768D01*
X169465799Y-131728884D01*
X169354615Y-131751000D01*
X169127885Y-131751000D01*
X169016701Y-131728884D01*
X168905516Y-131706768D01*
X168696047Y-131620003D01*
X168507530Y-131494040D01*
X168347210Y-131333720D01*
X168221247Y-131145203D01*
X168134482Y-130935734D01*
X168090250Y-130713364D01*
X168090250Y-130486636D01*
X168134482Y-130264266D01*
X168221247Y-130054797D01*
X168347210Y-129866280D01*
X168507530Y-129705960D01*
X168696047Y-129579997D01*
X168905516Y-129493232D01*
X169016701Y-129471116D01*
X169127885Y-129449000D01*
X169354615Y-129449000D01*
X169465799Y-129471116D01*
G37*
G36*
X163892250Y-131751000D02*
G01*
X161590250Y-131751000D01*
X161590250Y-129449000D01*
X163892250Y-129449000D01*
X163892250Y-131751000D01*
G37*
G36*
X149678500Y-131751000D02*
G01*
X147376500Y-131751000D01*
X147376500Y-129449000D01*
X149678500Y-129449000D01*
X149678500Y-131751000D01*
G37*
G36*
X156934826Y-122303465D02*
G01*
X156972519Y-122314899D01*
X157007255Y-122333466D01*
X157037700Y-122358452D01*
X157062686Y-122388897D01*
X157081253Y-122423633D01*
X157092687Y-122461326D01*
X157097152Y-122506661D01*
X157097152Y-123343339D01*
X157092687Y-123388674D01*
X157081253Y-123426367D01*
X157062686Y-123461103D01*
X157037700Y-123491548D01*
X157007255Y-123516534D01*
X156972519Y-123535101D01*
X156934826Y-123546535D01*
X156889491Y-123551000D01*
X155802813Y-123551000D01*
X155757478Y-123546535D01*
X155719785Y-123535101D01*
X155685049Y-123516534D01*
X155654604Y-123491548D01*
X155629618Y-123461103D01*
X155611051Y-123426367D01*
X155599617Y-123388674D01*
X155595152Y-123343339D01*
X155595152Y-122506661D01*
X155599617Y-122461326D01*
X155611051Y-122423633D01*
X155629618Y-122388897D01*
X155654604Y-122358452D01*
X155685049Y-122333466D01*
X155719785Y-122314899D01*
X155757478Y-122303465D01*
X155802813Y-122299000D01*
X156889491Y-122299000D01*
X156934826Y-122303465D01*
G37*
G36*
X123088674Y-122303465D02*
G01*
X123126367Y-122314899D01*
X123161103Y-122333466D01*
X123191548Y-122358452D01*
X123216534Y-122388897D01*
X123235101Y-122423633D01*
X123246535Y-122461326D01*
X123251000Y-122506661D01*
X123251000Y-123343339D01*
X123246535Y-123388674D01*
X123235101Y-123426367D01*
X123216534Y-123461103D01*
X123191548Y-123491548D01*
X123161103Y-123516534D01*
X123126367Y-123535101D01*
X123088674Y-123546535D01*
X123043339Y-123551000D01*
X121956661Y-123551000D01*
X121911326Y-123546535D01*
X121873633Y-123535101D01*
X121838897Y-123516534D01*
X121808452Y-123491548D01*
X121783466Y-123461103D01*
X121764899Y-123426367D01*
X121753465Y-123388674D01*
X121749000Y-123343339D01*
X121749000Y-122506661D01*
X121753465Y-122461326D01*
X121764899Y-122423633D01*
X121783466Y-122388897D01*
X121808452Y-122358452D01*
X121838897Y-122333466D01*
X121873633Y-122314899D01*
X121911326Y-122303465D01*
X121956661Y-122299000D01*
X123043339Y-122299000D01*
X123088674Y-122303465D01*
G37*
G36*
X140011750Y-122303465D02*
G01*
X140049443Y-122314899D01*
X140084179Y-122333466D01*
X140114624Y-122358452D01*
X140139610Y-122388897D01*
X140158177Y-122423633D01*
X140169611Y-122461326D01*
X140174076Y-122506661D01*
X140174076Y-123343339D01*
X140169611Y-123388674D01*
X140158177Y-123426367D01*
X140139610Y-123461103D01*
X140114624Y-123491548D01*
X140084179Y-123516534D01*
X140049443Y-123535101D01*
X140011750Y-123546535D01*
X139966415Y-123551000D01*
X138879737Y-123551000D01*
X138834402Y-123546535D01*
X138796709Y-123535101D01*
X138761973Y-123516534D01*
X138731528Y-123491548D01*
X138706542Y-123461103D01*
X138687975Y-123426367D01*
X138676541Y-123388674D01*
X138672076Y-123343339D01*
X138672076Y-122506661D01*
X138676541Y-122461326D01*
X138687975Y-122423633D01*
X138706542Y-122388897D01*
X138731528Y-122358452D01*
X138761973Y-122333466D01*
X138796709Y-122314899D01*
X138834402Y-122303465D01*
X138879737Y-122299000D01*
X139966415Y-122299000D01*
X140011750Y-122303465D01*
G37*
G36*
X165396364Y-122303465D02*
G01*
X165434057Y-122314899D01*
X165468793Y-122333466D01*
X165499238Y-122358452D01*
X165524224Y-122388897D01*
X165542791Y-122423633D01*
X165554225Y-122461326D01*
X165558690Y-122506661D01*
X165558690Y-123343339D01*
X165554225Y-123388674D01*
X165542791Y-123426367D01*
X165524224Y-123461103D01*
X165499238Y-123491548D01*
X165468793Y-123516534D01*
X165434057Y-123535101D01*
X165396364Y-123546535D01*
X165351029Y-123551000D01*
X164264351Y-123551000D01*
X164219016Y-123546535D01*
X164181323Y-123535101D01*
X164146587Y-123516534D01*
X164116142Y-123491548D01*
X164091156Y-123461103D01*
X164072589Y-123426367D01*
X164061155Y-123388674D01*
X164056690Y-123343339D01*
X164056690Y-122506661D01*
X164061155Y-122461326D01*
X164072589Y-122423633D01*
X164091156Y-122388897D01*
X164116142Y-122358452D01*
X164146587Y-122333466D01*
X164181323Y-122314899D01*
X164219016Y-122303465D01*
X164264351Y-122299000D01*
X165351029Y-122299000D01*
X165396364Y-122303465D01*
G37*
G36*
X178088674Y-122303465D02*
G01*
X178126367Y-122314899D01*
X178161103Y-122333466D01*
X178191548Y-122358452D01*
X178216534Y-122388897D01*
X178235101Y-122423633D01*
X178246535Y-122461326D01*
X178251000Y-122506661D01*
X178251000Y-123343339D01*
X178246535Y-123388674D01*
X178235101Y-123426367D01*
X178216534Y-123461103D01*
X178191548Y-123491548D01*
X178161103Y-123516534D01*
X178126367Y-123535101D01*
X178088674Y-123546535D01*
X178043339Y-123551000D01*
X176956661Y-123551000D01*
X176911326Y-123546535D01*
X176873633Y-123535101D01*
X176838897Y-123516534D01*
X176808452Y-123491548D01*
X176783466Y-123461103D01*
X176764899Y-123426367D01*
X176753465Y-123388674D01*
X176749000Y-123343339D01*
X176749000Y-122506661D01*
X176753465Y-122461326D01*
X176764899Y-122423633D01*
X176783466Y-122388897D01*
X176808452Y-122358452D01*
X176838897Y-122333466D01*
X176873633Y-122314899D01*
X176911326Y-122303465D01*
X176956661Y-122299000D01*
X178043339Y-122299000D01*
X178088674Y-122303465D01*
G37*
G36*
X144242519Y-122303465D02*
G01*
X144280212Y-122314899D01*
X144314948Y-122333466D01*
X144345393Y-122358452D01*
X144370379Y-122388897D01*
X144388946Y-122423633D01*
X144400380Y-122461326D01*
X144404845Y-122506661D01*
X144404845Y-123343339D01*
X144400380Y-123388674D01*
X144388946Y-123426367D01*
X144370379Y-123461103D01*
X144345393Y-123491548D01*
X144314948Y-123516534D01*
X144280212Y-123535101D01*
X144242519Y-123546535D01*
X144197184Y-123551000D01*
X143110506Y-123551000D01*
X143065171Y-123546535D01*
X143027478Y-123535101D01*
X142992742Y-123516534D01*
X142962297Y-123491548D01*
X142937311Y-123461103D01*
X142918744Y-123426367D01*
X142907310Y-123388674D01*
X142902845Y-123343339D01*
X142902845Y-122506661D01*
X142907310Y-122461326D01*
X142918744Y-122423633D01*
X142937311Y-122388897D01*
X142962297Y-122358452D01*
X142992742Y-122333466D01*
X143027478Y-122314899D01*
X143065171Y-122303465D01*
X143110506Y-122299000D01*
X144197184Y-122299000D01*
X144242519Y-122303465D01*
G37*
G36*
X127319443Y-122303465D02*
G01*
X127357136Y-122314899D01*
X127391872Y-122333466D01*
X127422317Y-122358452D01*
X127447303Y-122388897D01*
X127465870Y-122423633D01*
X127477304Y-122461326D01*
X127481769Y-122506661D01*
X127481769Y-123343339D01*
X127477304Y-123388674D01*
X127465870Y-123426367D01*
X127447303Y-123461103D01*
X127422317Y-123491548D01*
X127391872Y-123516534D01*
X127357136Y-123535101D01*
X127319443Y-123546535D01*
X127274108Y-123551000D01*
X126187430Y-123551000D01*
X126142095Y-123546535D01*
X126104402Y-123535101D01*
X126069666Y-123516534D01*
X126039221Y-123491548D01*
X126014235Y-123461103D01*
X125995668Y-123426367D01*
X125984234Y-123388674D01*
X125979769Y-123343339D01*
X125979769Y-122506661D01*
X125984234Y-122461326D01*
X125995668Y-122423633D01*
X126014235Y-122388897D01*
X126039221Y-122358452D01*
X126069666Y-122333466D01*
X126104402Y-122314899D01*
X126142095Y-122303465D01*
X126187430Y-122299000D01*
X127274108Y-122299000D01*
X127319443Y-122303465D01*
G37*
G36*
X131550212Y-122303465D02*
G01*
X131587905Y-122314899D01*
X131622641Y-122333466D01*
X131653086Y-122358452D01*
X131678072Y-122388897D01*
X131696639Y-122423633D01*
X131708073Y-122461326D01*
X131712538Y-122506661D01*
X131712538Y-123343339D01*
X131708073Y-123388674D01*
X131696639Y-123426367D01*
X131678072Y-123461103D01*
X131653086Y-123491548D01*
X131622641Y-123516534D01*
X131587905Y-123535101D01*
X131550212Y-123546535D01*
X131504877Y-123551000D01*
X130418199Y-123551000D01*
X130372864Y-123546535D01*
X130335171Y-123535101D01*
X130300435Y-123516534D01*
X130269990Y-123491548D01*
X130245004Y-123461103D01*
X130226437Y-123426367D01*
X130215003Y-123388674D01*
X130210538Y-123343339D01*
X130210538Y-122506661D01*
X130215003Y-122461326D01*
X130226437Y-122423633D01*
X130245004Y-122388897D01*
X130269990Y-122358452D01*
X130300435Y-122333466D01*
X130335171Y-122314899D01*
X130372864Y-122303465D01*
X130418199Y-122299000D01*
X131504877Y-122299000D01*
X131550212Y-122303465D01*
G37*
G36*
X152704057Y-122303465D02*
G01*
X152741750Y-122314899D01*
X152776486Y-122333466D01*
X152806931Y-122358452D01*
X152831917Y-122388897D01*
X152850484Y-122423633D01*
X152861918Y-122461326D01*
X152866383Y-122506661D01*
X152866383Y-123343339D01*
X152861918Y-123388674D01*
X152850484Y-123426367D01*
X152831917Y-123461103D01*
X152806931Y-123491548D01*
X152776486Y-123516534D01*
X152741750Y-123535101D01*
X152704057Y-123546535D01*
X152658722Y-123551000D01*
X151572044Y-123551000D01*
X151526709Y-123546535D01*
X151489016Y-123535101D01*
X151454280Y-123516534D01*
X151423835Y-123491548D01*
X151398849Y-123461103D01*
X151380282Y-123426367D01*
X151368848Y-123388674D01*
X151364383Y-123343339D01*
X151364383Y-122506661D01*
X151368848Y-122461326D01*
X151380282Y-122423633D01*
X151398849Y-122388897D01*
X151423835Y-122358452D01*
X151454280Y-122333466D01*
X151489016Y-122314899D01*
X151526709Y-122303465D01*
X151572044Y-122299000D01*
X152658722Y-122299000D01*
X152704057Y-122303465D01*
G37*
G36*
X135780981Y-122303465D02*
G01*
X135818674Y-122314899D01*
X135853410Y-122333466D01*
X135883855Y-122358452D01*
X135908841Y-122388897D01*
X135927408Y-122423633D01*
X135938842Y-122461326D01*
X135943307Y-122506661D01*
X135943307Y-123343339D01*
X135938842Y-123388674D01*
X135927408Y-123426367D01*
X135908841Y-123461103D01*
X135883855Y-123491548D01*
X135853410Y-123516534D01*
X135818674Y-123535101D01*
X135780981Y-123546535D01*
X135735646Y-123551000D01*
X134648968Y-123551000D01*
X134603633Y-123546535D01*
X134565940Y-123535101D01*
X134531204Y-123516534D01*
X134500759Y-123491548D01*
X134475773Y-123461103D01*
X134457206Y-123426367D01*
X134445772Y-123388674D01*
X134441307Y-123343339D01*
X134441307Y-122506661D01*
X134445772Y-122461326D01*
X134457206Y-122423633D01*
X134475773Y-122388897D01*
X134500759Y-122358452D01*
X134531204Y-122333466D01*
X134565940Y-122314899D01*
X134603633Y-122303465D01*
X134648968Y-122299000D01*
X135735646Y-122299000D01*
X135780981Y-122303465D01*
G37*
G36*
X161165595Y-122303465D02*
G01*
X161203288Y-122314899D01*
X161238024Y-122333466D01*
X161268469Y-122358452D01*
X161293455Y-122388897D01*
X161312022Y-122423633D01*
X161323456Y-122461326D01*
X161327921Y-122506661D01*
X161327921Y-123343339D01*
X161323456Y-123388674D01*
X161312022Y-123426367D01*
X161293455Y-123461103D01*
X161268469Y-123491548D01*
X161238024Y-123516534D01*
X161203288Y-123535101D01*
X161165595Y-123546535D01*
X161120260Y-123551000D01*
X160033582Y-123551000D01*
X159988247Y-123546535D01*
X159950554Y-123535101D01*
X159915818Y-123516534D01*
X159885373Y-123491548D01*
X159860387Y-123461103D01*
X159841820Y-123426367D01*
X159830386Y-123388674D01*
X159825921Y-123343339D01*
X159825921Y-122506661D01*
X159830386Y-122461326D01*
X159841820Y-122423633D01*
X159860387Y-122388897D01*
X159885373Y-122358452D01*
X159915818Y-122333466D01*
X159950554Y-122314899D01*
X159988247Y-122303465D01*
X160033582Y-122299000D01*
X161120260Y-122299000D01*
X161165595Y-122303465D01*
G37*
G36*
X173857902Y-122303465D02*
G01*
X173895595Y-122314899D01*
X173930331Y-122333466D01*
X173960776Y-122358452D01*
X173985762Y-122388897D01*
X174004329Y-122423633D01*
X174015763Y-122461326D01*
X174020228Y-122506661D01*
X174020228Y-123343339D01*
X174015763Y-123388674D01*
X174004329Y-123426367D01*
X173985762Y-123461103D01*
X173960776Y-123491548D01*
X173930331Y-123516534D01*
X173895595Y-123535101D01*
X173857902Y-123546535D01*
X173812567Y-123551000D01*
X172725889Y-123551000D01*
X172680554Y-123546535D01*
X172642861Y-123535101D01*
X172608125Y-123516534D01*
X172577680Y-123491548D01*
X172552694Y-123461103D01*
X172534127Y-123426367D01*
X172522693Y-123388674D01*
X172518228Y-123343339D01*
X172518228Y-122506661D01*
X172522693Y-122461326D01*
X172534127Y-122423633D01*
X172552694Y-122388897D01*
X172577680Y-122358452D01*
X172608125Y-122333466D01*
X172642861Y-122314899D01*
X172680554Y-122303465D01*
X172725889Y-122299000D01*
X173812567Y-122299000D01*
X173857902Y-122303465D01*
G37*
G36*
X169627133Y-122303465D02*
G01*
X169664826Y-122314899D01*
X169699562Y-122333466D01*
X169730007Y-122358452D01*
X169754993Y-122388897D01*
X169773560Y-122423633D01*
X169784994Y-122461326D01*
X169789459Y-122506661D01*
X169789459Y-123343339D01*
X169784994Y-123388674D01*
X169773560Y-123426367D01*
X169754993Y-123461103D01*
X169730007Y-123491548D01*
X169699562Y-123516534D01*
X169664826Y-123535101D01*
X169627133Y-123546535D01*
X169581798Y-123551000D01*
X168495120Y-123551000D01*
X168449785Y-123546535D01*
X168412092Y-123535101D01*
X168377356Y-123516534D01*
X168346911Y-123491548D01*
X168321925Y-123461103D01*
X168303358Y-123426367D01*
X168291924Y-123388674D01*
X168287459Y-123343339D01*
X168287459Y-122506661D01*
X168291924Y-122461326D01*
X168303358Y-122423633D01*
X168321925Y-122388897D01*
X168346911Y-122358452D01*
X168377356Y-122333466D01*
X168412092Y-122314899D01*
X168449785Y-122303465D01*
X168495120Y-122299000D01*
X169581798Y-122299000D01*
X169627133Y-122303465D01*
G37*
G36*
X148473288Y-122303465D02*
G01*
X148510981Y-122314899D01*
X148545717Y-122333466D01*
X148576162Y-122358452D01*
X148601148Y-122388897D01*
X148619715Y-122423633D01*
X148631149Y-122461326D01*
X148635614Y-122506661D01*
X148635614Y-123343339D01*
X148631149Y-123388674D01*
X148619715Y-123426367D01*
X148601148Y-123461103D01*
X148576162Y-123491548D01*
X148545717Y-123516534D01*
X148510981Y-123535101D01*
X148473288Y-123546535D01*
X148427953Y-123551000D01*
X147341275Y-123551000D01*
X147295940Y-123546535D01*
X147258247Y-123535101D01*
X147223511Y-123516534D01*
X147193066Y-123491548D01*
X147168080Y-123461103D01*
X147149513Y-123426367D01*
X147138079Y-123388674D01*
X147133614Y-123343339D01*
X147133614Y-122506661D01*
X147138079Y-122461326D01*
X147149513Y-122423633D01*
X147168080Y-122388897D01*
X147193066Y-122358452D01*
X147223511Y-122333466D01*
X147258247Y-122314899D01*
X147295940Y-122303465D01*
X147341275Y-122299000D01*
X148427953Y-122299000D01*
X148473288Y-122303465D01*
G37*
G36*
X169627133Y-120253465D02*
G01*
X169664826Y-120264899D01*
X169699562Y-120283466D01*
X169730007Y-120308452D01*
X169754993Y-120338897D01*
X169773560Y-120373633D01*
X169784994Y-120411326D01*
X169789459Y-120456661D01*
X169789459Y-121293339D01*
X169784994Y-121338674D01*
X169773560Y-121376367D01*
X169754993Y-121411103D01*
X169730007Y-121441548D01*
X169699562Y-121466534D01*
X169664826Y-121485101D01*
X169627133Y-121496535D01*
X169581798Y-121501000D01*
X168495120Y-121501000D01*
X168449785Y-121496535D01*
X168412092Y-121485101D01*
X168377356Y-121466534D01*
X168346911Y-121441548D01*
X168321925Y-121411103D01*
X168303358Y-121376367D01*
X168291924Y-121338674D01*
X168287459Y-121293339D01*
X168287459Y-120456661D01*
X168291924Y-120411326D01*
X168303358Y-120373633D01*
X168321925Y-120338897D01*
X168346911Y-120308452D01*
X168377356Y-120283466D01*
X168412092Y-120264899D01*
X168449785Y-120253465D01*
X168495120Y-120249000D01*
X169581798Y-120249000D01*
X169627133Y-120253465D01*
G37*
G36*
X127319443Y-120253465D02*
G01*
X127357136Y-120264899D01*
X127391872Y-120283466D01*
X127422317Y-120308452D01*
X127447303Y-120338897D01*
X127465870Y-120373633D01*
X127477304Y-120411326D01*
X127481769Y-120456661D01*
X127481769Y-121293339D01*
X127477304Y-121338674D01*
X127465870Y-121376367D01*
X127447303Y-121411103D01*
X127422317Y-121441548D01*
X127391872Y-121466534D01*
X127357136Y-121485101D01*
X127319443Y-121496535D01*
X127274108Y-121501000D01*
X126187430Y-121501000D01*
X126142095Y-121496535D01*
X126104402Y-121485101D01*
X126069666Y-121466534D01*
X126039221Y-121441548D01*
X126014235Y-121411103D01*
X125995668Y-121376367D01*
X125984234Y-121338674D01*
X125979769Y-121293339D01*
X125979769Y-120456661D01*
X125984234Y-120411326D01*
X125995668Y-120373633D01*
X126014235Y-120338897D01*
X126039221Y-120308452D01*
X126069666Y-120283466D01*
X126104402Y-120264899D01*
X126142095Y-120253465D01*
X126187430Y-120249000D01*
X127274108Y-120249000D01*
X127319443Y-120253465D01*
G37*
G36*
X123088674Y-120253465D02*
G01*
X123126367Y-120264899D01*
X123161103Y-120283466D01*
X123191548Y-120308452D01*
X123216534Y-120338897D01*
X123235101Y-120373633D01*
X123246535Y-120411326D01*
X123251000Y-120456661D01*
X123251000Y-121293339D01*
X123246535Y-121338674D01*
X123235101Y-121376367D01*
X123216534Y-121411103D01*
X123191548Y-121441548D01*
X123161103Y-121466534D01*
X123126367Y-121485101D01*
X123088674Y-121496535D01*
X123043339Y-121501000D01*
X121956661Y-121501000D01*
X121911326Y-121496535D01*
X121873633Y-121485101D01*
X121838897Y-121466534D01*
X121808452Y-121441548D01*
X121783466Y-121411103D01*
X121764899Y-121376367D01*
X121753465Y-121338674D01*
X121749000Y-121293339D01*
X121749000Y-120456661D01*
X121753465Y-120411326D01*
X121764899Y-120373633D01*
X121783466Y-120338897D01*
X121808452Y-120308452D01*
X121838897Y-120283466D01*
X121873633Y-120264899D01*
X121911326Y-120253465D01*
X121956661Y-120249000D01*
X123043339Y-120249000D01*
X123088674Y-120253465D01*
G37*
G36*
X135780981Y-120253465D02*
G01*
X135818674Y-120264899D01*
X135853410Y-120283466D01*
X135883855Y-120308452D01*
X135908841Y-120338897D01*
X135927408Y-120373633D01*
X135938842Y-120411326D01*
X135943307Y-120456661D01*
X135943307Y-121293339D01*
X135938842Y-121338674D01*
X135927408Y-121376367D01*
X135908841Y-121411103D01*
X135883855Y-121441548D01*
X135853410Y-121466534D01*
X135818674Y-121485101D01*
X135780981Y-121496535D01*
X135735646Y-121501000D01*
X134648968Y-121501000D01*
X134603633Y-121496535D01*
X134565940Y-121485101D01*
X134531204Y-121466534D01*
X134500759Y-121441548D01*
X134475773Y-121411103D01*
X134457206Y-121376367D01*
X134445772Y-121338674D01*
X134441307Y-121293339D01*
X134441307Y-120456661D01*
X134445772Y-120411326D01*
X134457206Y-120373633D01*
X134475773Y-120338897D01*
X134500759Y-120308452D01*
X134531204Y-120283466D01*
X134565940Y-120264899D01*
X134603633Y-120253465D01*
X134648968Y-120249000D01*
X135735646Y-120249000D01*
X135780981Y-120253465D01*
G37*
G36*
X178088674Y-120253465D02*
G01*
X178126367Y-120264899D01*
X178161103Y-120283466D01*
X178191548Y-120308452D01*
X178216534Y-120338897D01*
X178235101Y-120373633D01*
X178246535Y-120411326D01*
X178251000Y-120456661D01*
X178251000Y-121293339D01*
X178246535Y-121338674D01*
X178235101Y-121376367D01*
X178216534Y-121411103D01*
X178191548Y-121441548D01*
X178161103Y-121466534D01*
X178126367Y-121485101D01*
X178088674Y-121496535D01*
X178043339Y-121501000D01*
X176956661Y-121501000D01*
X176911326Y-121496535D01*
X176873633Y-121485101D01*
X176838897Y-121466534D01*
X176808452Y-121441548D01*
X176783466Y-121411103D01*
X176764899Y-121376367D01*
X176753465Y-121338674D01*
X176749000Y-121293339D01*
X176749000Y-120456661D01*
X176753465Y-120411326D01*
X176764899Y-120373633D01*
X176783466Y-120338897D01*
X176808452Y-120308452D01*
X176838897Y-120283466D01*
X176873633Y-120264899D01*
X176911326Y-120253465D01*
X176956661Y-120249000D01*
X178043339Y-120249000D01*
X178088674Y-120253465D01*
G37*
G36*
X165396364Y-120253465D02*
G01*
X165434057Y-120264899D01*
X165468793Y-120283466D01*
X165499238Y-120308452D01*
X165524224Y-120338897D01*
X165542791Y-120373633D01*
X165554225Y-120411326D01*
X165558690Y-120456661D01*
X165558690Y-121293339D01*
X165554225Y-121338674D01*
X165542791Y-121376367D01*
X165524224Y-121411103D01*
X165499238Y-121441548D01*
X165468793Y-121466534D01*
X165434057Y-121485101D01*
X165396364Y-121496535D01*
X165351029Y-121501000D01*
X164264351Y-121501000D01*
X164219016Y-121496535D01*
X164181323Y-121485101D01*
X164146587Y-121466534D01*
X164116142Y-121441548D01*
X164091156Y-121411103D01*
X164072589Y-121376367D01*
X164061155Y-121338674D01*
X164056690Y-121293339D01*
X164056690Y-120456661D01*
X164061155Y-120411326D01*
X164072589Y-120373633D01*
X164091156Y-120338897D01*
X164116142Y-120308452D01*
X164146587Y-120283466D01*
X164181323Y-120264899D01*
X164219016Y-120253465D01*
X164264351Y-120249000D01*
X165351029Y-120249000D01*
X165396364Y-120253465D01*
G37*
G36*
X161165595Y-120253465D02*
G01*
X161203288Y-120264899D01*
X161238024Y-120283466D01*
X161268469Y-120308452D01*
X161293455Y-120338897D01*
X161312022Y-120373633D01*
X161323456Y-120411326D01*
X161327921Y-120456661D01*
X161327921Y-121293339D01*
X161323456Y-121338674D01*
X161312022Y-121376367D01*
X161293455Y-121411103D01*
X161268469Y-121441548D01*
X161238024Y-121466534D01*
X161203288Y-121485101D01*
X161165595Y-121496535D01*
X161120260Y-121501000D01*
X160033582Y-121501000D01*
X159988247Y-121496535D01*
X159950554Y-121485101D01*
X159915818Y-121466534D01*
X159885373Y-121441548D01*
X159860387Y-121411103D01*
X159841820Y-121376367D01*
X159830386Y-121338674D01*
X159825921Y-121293339D01*
X159825921Y-120456661D01*
X159830386Y-120411326D01*
X159841820Y-120373633D01*
X159860387Y-120338897D01*
X159885373Y-120308452D01*
X159915818Y-120283466D01*
X159950554Y-120264899D01*
X159988247Y-120253465D01*
X160033582Y-120249000D01*
X161120260Y-120249000D01*
X161165595Y-120253465D01*
G37*
G36*
X156934826Y-120253465D02*
G01*
X156972519Y-120264899D01*
X157007255Y-120283466D01*
X157037700Y-120308452D01*
X157062686Y-120338897D01*
X157081253Y-120373633D01*
X157092687Y-120411326D01*
X157097152Y-120456661D01*
X157097152Y-121293339D01*
X157092687Y-121338674D01*
X157081253Y-121376367D01*
X157062686Y-121411103D01*
X157037700Y-121441548D01*
X157007255Y-121466534D01*
X156972519Y-121485101D01*
X156934826Y-121496535D01*
X156889491Y-121501000D01*
X155802813Y-121501000D01*
X155757478Y-121496535D01*
X155719785Y-121485101D01*
X155685049Y-121466534D01*
X155654604Y-121441548D01*
X155629618Y-121411103D01*
X155611051Y-121376367D01*
X155599617Y-121338674D01*
X155595152Y-121293339D01*
X155595152Y-120456661D01*
X155599617Y-120411326D01*
X155611051Y-120373633D01*
X155629618Y-120338897D01*
X155654604Y-120308452D01*
X155685049Y-120283466D01*
X155719785Y-120264899D01*
X155757478Y-120253465D01*
X155802813Y-120249000D01*
X156889491Y-120249000D01*
X156934826Y-120253465D01*
G37*
G36*
X148473288Y-120253465D02*
G01*
X148510981Y-120264899D01*
X148545717Y-120283466D01*
X148576162Y-120308452D01*
X148601148Y-120338897D01*
X148619715Y-120373633D01*
X148631149Y-120411326D01*
X148635614Y-120456661D01*
X148635614Y-121293339D01*
X148631149Y-121338674D01*
X148619715Y-121376367D01*
X148601148Y-121411103D01*
X148576162Y-121441548D01*
X148545717Y-121466534D01*
X148510981Y-121485101D01*
X148473288Y-121496535D01*
X148427953Y-121501000D01*
X147341275Y-121501000D01*
X147295940Y-121496535D01*
X147258247Y-121485101D01*
X147223511Y-121466534D01*
X147193066Y-121441548D01*
X147168080Y-121411103D01*
X147149513Y-121376367D01*
X147138079Y-121338674D01*
X147133614Y-121293339D01*
X147133614Y-120456661D01*
X147138079Y-120411326D01*
X147149513Y-120373633D01*
X147168080Y-120338897D01*
X147193066Y-120308452D01*
X147223511Y-120283466D01*
X147258247Y-120264899D01*
X147295940Y-120253465D01*
X147341275Y-120249000D01*
X148427953Y-120249000D01*
X148473288Y-120253465D01*
G37*
G36*
X173857902Y-120253465D02*
G01*
X173895595Y-120264899D01*
X173930331Y-120283466D01*
X173960776Y-120308452D01*
X173985762Y-120338897D01*
X174004329Y-120373633D01*
X174015763Y-120411326D01*
X174020228Y-120456661D01*
X174020228Y-121293339D01*
X174015763Y-121338674D01*
X174004329Y-121376367D01*
X173985762Y-121411103D01*
X173960776Y-121441548D01*
X173930331Y-121466534D01*
X173895595Y-121485101D01*
X173857902Y-121496535D01*
X173812567Y-121501000D01*
X172725889Y-121501000D01*
X172680554Y-121496535D01*
X172642861Y-121485101D01*
X172608125Y-121466534D01*
X172577680Y-121441548D01*
X172552694Y-121411103D01*
X172534127Y-121376367D01*
X172522693Y-121338674D01*
X172518228Y-121293339D01*
X172518228Y-120456661D01*
X172522693Y-120411326D01*
X172534127Y-120373633D01*
X172552694Y-120338897D01*
X172577680Y-120308452D01*
X172608125Y-120283466D01*
X172642861Y-120264899D01*
X172680554Y-120253465D01*
X172725889Y-120249000D01*
X173812567Y-120249000D01*
X173857902Y-120253465D01*
G37*
G36*
X144242519Y-120253465D02*
G01*
X144280212Y-120264899D01*
X144314948Y-120283466D01*
X144345393Y-120308452D01*
X144370379Y-120338897D01*
X144388946Y-120373633D01*
X144400380Y-120411326D01*
X144404845Y-120456661D01*
X144404845Y-121293339D01*
X144400380Y-121338674D01*
X144388946Y-121376367D01*
X144370379Y-121411103D01*
X144345393Y-121441548D01*
X144314948Y-121466534D01*
X144280212Y-121485101D01*
X144242519Y-121496535D01*
X144197184Y-121501000D01*
X143110506Y-121501000D01*
X143065171Y-121496535D01*
X143027478Y-121485101D01*
X142992742Y-121466534D01*
X142962297Y-121441548D01*
X142937311Y-121411103D01*
X142918744Y-121376367D01*
X142907310Y-121338674D01*
X142902845Y-121293339D01*
X142902845Y-120456661D01*
X142907310Y-120411326D01*
X142918744Y-120373633D01*
X142937311Y-120338897D01*
X142962297Y-120308452D01*
X142992742Y-120283466D01*
X143027478Y-120264899D01*
X143065171Y-120253465D01*
X143110506Y-120249000D01*
X144197184Y-120249000D01*
X144242519Y-120253465D01*
G37*
G36*
X131550212Y-120253465D02*
G01*
X131587905Y-120264899D01*
X131622641Y-120283466D01*
X131653086Y-120308452D01*
X131678072Y-120338897D01*
X131696639Y-120373633D01*
X131708073Y-120411326D01*
X131712538Y-120456661D01*
X131712538Y-121293339D01*
X131708073Y-121338674D01*
X131696639Y-121376367D01*
X131678072Y-121411103D01*
X131653086Y-121441548D01*
X131622641Y-121466534D01*
X131587905Y-121485101D01*
X131550212Y-121496535D01*
X131504877Y-121501000D01*
X130418199Y-121501000D01*
X130372864Y-121496535D01*
X130335171Y-121485101D01*
X130300435Y-121466534D01*
X130269990Y-121441548D01*
X130245004Y-121411103D01*
X130226437Y-121376367D01*
X130215003Y-121338674D01*
X130210538Y-121293339D01*
X130210538Y-120456661D01*
X130215003Y-120411326D01*
X130226437Y-120373633D01*
X130245004Y-120338897D01*
X130269990Y-120308452D01*
X130300435Y-120283466D01*
X130335171Y-120264899D01*
X130372864Y-120253465D01*
X130418199Y-120249000D01*
X131504877Y-120249000D01*
X131550212Y-120253465D01*
G37*
G36*
X140011750Y-120253465D02*
G01*
X140049443Y-120264899D01*
X140084179Y-120283466D01*
X140114624Y-120308452D01*
X140139610Y-120338897D01*
X140158177Y-120373633D01*
X140169611Y-120411326D01*
X140174076Y-120456661D01*
X140174076Y-121293339D01*
X140169611Y-121338674D01*
X140158177Y-121376367D01*
X140139610Y-121411103D01*
X140114624Y-121441548D01*
X140084179Y-121466534D01*
X140049443Y-121485101D01*
X140011750Y-121496535D01*
X139966415Y-121501000D01*
X138879737Y-121501000D01*
X138834402Y-121496535D01*
X138796709Y-121485101D01*
X138761973Y-121466534D01*
X138731528Y-121441548D01*
X138706542Y-121411103D01*
X138687975Y-121376367D01*
X138676541Y-121338674D01*
X138672076Y-121293339D01*
X138672076Y-120456661D01*
X138676541Y-120411326D01*
X138687975Y-120373633D01*
X138706542Y-120338897D01*
X138731528Y-120308452D01*
X138761973Y-120283466D01*
X138796709Y-120264899D01*
X138834402Y-120253465D01*
X138879737Y-120249000D01*
X139966415Y-120249000D01*
X140011750Y-120253465D01*
G37*
G36*
X152704057Y-120253465D02*
G01*
X152741750Y-120264899D01*
X152776486Y-120283466D01*
X152806931Y-120308452D01*
X152831917Y-120338897D01*
X152850484Y-120373633D01*
X152861918Y-120411326D01*
X152866383Y-120456661D01*
X152866383Y-121293339D01*
X152861918Y-121338674D01*
X152850484Y-121376367D01*
X152831917Y-121411103D01*
X152806931Y-121441548D01*
X152776486Y-121466534D01*
X152741750Y-121485101D01*
X152704057Y-121496535D01*
X152658722Y-121501000D01*
X151572044Y-121501000D01*
X151526709Y-121496535D01*
X151489016Y-121485101D01*
X151454280Y-121466534D01*
X151423835Y-121441548D01*
X151398849Y-121411103D01*
X151380282Y-121376367D01*
X151368848Y-121338674D01*
X151364383Y-121293339D01*
X151364383Y-120456661D01*
X151368848Y-120411326D01*
X151380282Y-120373633D01*
X151398849Y-120338897D01*
X151423835Y-120308452D01*
X151454280Y-120283466D01*
X151489016Y-120264899D01*
X151526709Y-120253465D01*
X151572044Y-120249000D01*
X152658722Y-120249000D01*
X152704057Y-120253465D01*
G37*
G36*
X178088674Y-113403465D02*
G01*
X178126367Y-113414899D01*
X178161103Y-113433466D01*
X178191548Y-113458452D01*
X178216534Y-113488897D01*
X178235101Y-113523633D01*
X178246535Y-113561326D01*
X178251000Y-113606661D01*
X178251000Y-114443339D01*
X178246535Y-114488674D01*
X178235101Y-114526367D01*
X178216534Y-114561103D01*
X178191548Y-114591548D01*
X178161103Y-114616534D01*
X178126367Y-114635101D01*
X178088674Y-114646535D01*
X178043339Y-114651000D01*
X176956661Y-114651000D01*
X176911326Y-114646535D01*
X176873633Y-114635101D01*
X176838897Y-114616534D01*
X176808452Y-114591548D01*
X176783466Y-114561103D01*
X176764899Y-114526367D01*
X176753465Y-114488674D01*
X176749000Y-114443339D01*
X176749000Y-113606661D01*
X176753465Y-113561326D01*
X176764899Y-113523633D01*
X176783466Y-113488897D01*
X176808452Y-113458452D01*
X176838897Y-113433466D01*
X176873633Y-113414899D01*
X176911326Y-113403465D01*
X176956661Y-113399000D01*
X178043339Y-113399000D01*
X178088674Y-113403465D01*
G37*
G36*
X123088674Y-113103465D02*
G01*
X123126367Y-113114899D01*
X123161103Y-113133466D01*
X123191548Y-113158452D01*
X123216534Y-113188897D01*
X123235101Y-113223633D01*
X123246535Y-113261326D01*
X123251000Y-113306661D01*
X123251000Y-114143339D01*
X123246535Y-114188674D01*
X123235101Y-114226367D01*
X123216534Y-114261103D01*
X123191548Y-114291548D01*
X123161103Y-114316534D01*
X123126367Y-114335101D01*
X123088674Y-114346535D01*
X123043339Y-114351000D01*
X121956661Y-114351000D01*
X121911326Y-114346535D01*
X121873633Y-114335101D01*
X121838897Y-114316534D01*
X121808452Y-114291548D01*
X121783466Y-114261103D01*
X121764899Y-114226367D01*
X121753465Y-114188674D01*
X121749000Y-114143339D01*
X121749000Y-113306661D01*
X121753465Y-113261326D01*
X121764899Y-113223633D01*
X121783466Y-113188897D01*
X121808452Y-113158452D01*
X121838897Y-113133466D01*
X121873633Y-113114899D01*
X121911326Y-113103465D01*
X121956661Y-113099000D01*
X123043339Y-113099000D01*
X123088674Y-113103465D01*
G37*
G36*
X178088674Y-111353465D02*
G01*
X178126367Y-111364899D01*
X178161103Y-111383466D01*
X178191548Y-111408452D01*
X178216534Y-111438897D01*
X178235101Y-111473633D01*
X178246535Y-111511326D01*
X178251000Y-111556661D01*
X178251000Y-112393339D01*
X178246535Y-112438674D01*
X178235101Y-112476367D01*
X178216534Y-112511103D01*
X178191548Y-112541548D01*
X178161103Y-112566534D01*
X178126367Y-112585101D01*
X178088674Y-112596535D01*
X178043339Y-112601000D01*
X176956661Y-112601000D01*
X176911326Y-112596535D01*
X176873633Y-112585101D01*
X176838897Y-112566534D01*
X176808452Y-112541548D01*
X176783466Y-112511103D01*
X176764899Y-112476367D01*
X176753465Y-112438674D01*
X176749000Y-112393339D01*
X176749000Y-111556661D01*
X176753465Y-111511326D01*
X176764899Y-111473633D01*
X176783466Y-111438897D01*
X176808452Y-111408452D01*
X176838897Y-111383466D01*
X176873633Y-111364899D01*
X176911326Y-111353465D01*
X176956661Y-111349000D01*
X178043339Y-111349000D01*
X178088674Y-111353465D01*
G37*
G36*
X147373512Y-110743927D02*
G01*
X147522812Y-110773624D01*
X147686784Y-110841544D01*
X147834354Y-110940147D01*
X147959853Y-111065646D01*
X148058456Y-111213216D01*
X148126376Y-111377188D01*
X148161000Y-111551259D01*
X148161000Y-111728741D01*
X148126376Y-111902812D01*
X148058456Y-112066784D01*
X147959853Y-112214354D01*
X147834354Y-112339853D01*
X147686784Y-112438456D01*
X147522812Y-112506376D01*
X147373512Y-112536073D01*
X147348742Y-112541000D01*
X147171258Y-112541000D01*
X147146488Y-112536073D01*
X146997188Y-112506376D01*
X146833216Y-112438456D01*
X146685646Y-112339853D01*
X146560147Y-112214354D01*
X146461544Y-112066784D01*
X146393624Y-111902812D01*
X146359000Y-111728741D01*
X146359000Y-111551259D01*
X146393624Y-111377188D01*
X146461544Y-111213216D01*
X146560147Y-111065646D01*
X146685646Y-110940147D01*
X146833216Y-110841544D01*
X146997188Y-110773624D01*
X147146488Y-110743927D01*
X147171258Y-110739000D01*
X147348742Y-110739000D01*
X147373512Y-110743927D01*
G37*
G36*
X170233512Y-110743927D02*
G01*
X170382812Y-110773624D01*
X170546784Y-110841544D01*
X170694354Y-110940147D01*
X170819853Y-111065646D01*
X170918456Y-111213216D01*
X170986376Y-111377188D01*
X171021000Y-111551259D01*
X171021000Y-111728741D01*
X170986376Y-111902812D01*
X170918456Y-112066784D01*
X170819853Y-112214354D01*
X170694354Y-112339853D01*
X170546784Y-112438456D01*
X170382812Y-112506376D01*
X170233512Y-112536073D01*
X170208742Y-112541000D01*
X170031258Y-112541000D01*
X170006488Y-112536073D01*
X169857188Y-112506376D01*
X169693216Y-112438456D01*
X169545646Y-112339853D01*
X169420147Y-112214354D01*
X169321544Y-112066784D01*
X169253624Y-111902812D01*
X169219000Y-111728741D01*
X169219000Y-111551259D01*
X169253624Y-111377188D01*
X169321544Y-111213216D01*
X169420147Y-111065646D01*
X169545646Y-110940147D01*
X169693216Y-110841544D01*
X169857188Y-110773624D01*
X170006488Y-110743927D01*
X170031258Y-110739000D01*
X170208742Y-110739000D01*
X170233512Y-110743927D01*
G37*
G36*
X152453512Y-110743927D02*
G01*
X152602812Y-110773624D01*
X152766784Y-110841544D01*
X152914354Y-110940147D01*
X153039853Y-111065646D01*
X153138456Y-111213216D01*
X153206376Y-111377188D01*
X153241000Y-111551259D01*
X153241000Y-111728741D01*
X153206376Y-111902812D01*
X153138456Y-112066784D01*
X153039853Y-112214354D01*
X152914354Y-112339853D01*
X152766784Y-112438456D01*
X152602812Y-112506376D01*
X152453512Y-112536073D01*
X152428742Y-112541000D01*
X152251258Y-112541000D01*
X152226488Y-112536073D01*
X152077188Y-112506376D01*
X151913216Y-112438456D01*
X151765646Y-112339853D01*
X151640147Y-112214354D01*
X151541544Y-112066784D01*
X151473624Y-111902812D01*
X151439000Y-111728741D01*
X151439000Y-111551259D01*
X151473624Y-111377188D01*
X151541544Y-111213216D01*
X151640147Y-111065646D01*
X151765646Y-110940147D01*
X151913216Y-110841544D01*
X152077188Y-110773624D01*
X152226488Y-110743927D01*
X152251258Y-110739000D01*
X152428742Y-110739000D01*
X152453512Y-110743927D01*
G37*
G36*
X154993512Y-110743927D02*
G01*
X155142812Y-110773624D01*
X155306784Y-110841544D01*
X155454354Y-110940147D01*
X155579853Y-111065646D01*
X155678456Y-111213216D01*
X155746376Y-111377188D01*
X155781000Y-111551259D01*
X155781000Y-111728741D01*
X155746376Y-111902812D01*
X155678456Y-112066784D01*
X155579853Y-112214354D01*
X155454354Y-112339853D01*
X155306784Y-112438456D01*
X155142812Y-112506376D01*
X154993512Y-112536073D01*
X154968742Y-112541000D01*
X154791258Y-112541000D01*
X154766488Y-112536073D01*
X154617188Y-112506376D01*
X154453216Y-112438456D01*
X154305646Y-112339853D01*
X154180147Y-112214354D01*
X154081544Y-112066784D01*
X154013624Y-111902812D01*
X153979000Y-111728741D01*
X153979000Y-111551259D01*
X154013624Y-111377188D01*
X154081544Y-111213216D01*
X154180147Y-111065646D01*
X154305646Y-110940147D01*
X154453216Y-110841544D01*
X154617188Y-110773624D01*
X154766488Y-110743927D01*
X154791258Y-110739000D01*
X154968742Y-110739000D01*
X154993512Y-110743927D01*
G37*
G36*
X157533512Y-110743927D02*
G01*
X157682812Y-110773624D01*
X157846784Y-110841544D01*
X157994354Y-110940147D01*
X158119853Y-111065646D01*
X158218456Y-111213216D01*
X158286376Y-111377188D01*
X158321000Y-111551259D01*
X158321000Y-111728741D01*
X158286376Y-111902812D01*
X158218456Y-112066784D01*
X158119853Y-112214354D01*
X157994354Y-112339853D01*
X157846784Y-112438456D01*
X157682812Y-112506376D01*
X157533512Y-112536073D01*
X157508742Y-112541000D01*
X157331258Y-112541000D01*
X157306488Y-112536073D01*
X157157188Y-112506376D01*
X156993216Y-112438456D01*
X156845646Y-112339853D01*
X156720147Y-112214354D01*
X156621544Y-112066784D01*
X156553624Y-111902812D01*
X156519000Y-111728741D01*
X156519000Y-111551259D01*
X156553624Y-111377188D01*
X156621544Y-111213216D01*
X156720147Y-111065646D01*
X156845646Y-110940147D01*
X156993216Y-110841544D01*
X157157188Y-110773624D01*
X157306488Y-110743927D01*
X157331258Y-110739000D01*
X157508742Y-110739000D01*
X157533512Y-110743927D01*
G37*
G36*
X160073512Y-110743927D02*
G01*
X160222812Y-110773624D01*
X160386784Y-110841544D01*
X160534354Y-110940147D01*
X160659853Y-111065646D01*
X160758456Y-111213216D01*
X160826376Y-111377188D01*
X160861000Y-111551259D01*
X160861000Y-111728741D01*
X160826376Y-111902812D01*
X160758456Y-112066784D01*
X160659853Y-112214354D01*
X160534354Y-112339853D01*
X160386784Y-112438456D01*
X160222812Y-112506376D01*
X160073512Y-112536073D01*
X160048742Y-112541000D01*
X159871258Y-112541000D01*
X159846488Y-112536073D01*
X159697188Y-112506376D01*
X159533216Y-112438456D01*
X159385646Y-112339853D01*
X159260147Y-112214354D01*
X159161544Y-112066784D01*
X159093624Y-111902812D01*
X159059000Y-111728741D01*
X159059000Y-111551259D01*
X159093624Y-111377188D01*
X159161544Y-111213216D01*
X159260147Y-111065646D01*
X159385646Y-110940147D01*
X159533216Y-110841544D01*
X159697188Y-110773624D01*
X159846488Y-110743927D01*
X159871258Y-110739000D01*
X160048742Y-110739000D01*
X160073512Y-110743927D01*
G37*
G36*
X162613512Y-110743927D02*
G01*
X162762812Y-110773624D01*
X162926784Y-110841544D01*
X163074354Y-110940147D01*
X163199853Y-111065646D01*
X163298456Y-111213216D01*
X163366376Y-111377188D01*
X163401000Y-111551259D01*
X163401000Y-111728741D01*
X163366376Y-111902812D01*
X163298456Y-112066784D01*
X163199853Y-112214354D01*
X163074354Y-112339853D01*
X162926784Y-112438456D01*
X162762812Y-112506376D01*
X162613512Y-112536073D01*
X162588742Y-112541000D01*
X162411258Y-112541000D01*
X162386488Y-112536073D01*
X162237188Y-112506376D01*
X162073216Y-112438456D01*
X161925646Y-112339853D01*
X161800147Y-112214354D01*
X161701544Y-112066784D01*
X161633624Y-111902812D01*
X161599000Y-111728741D01*
X161599000Y-111551259D01*
X161633624Y-111377188D01*
X161701544Y-111213216D01*
X161800147Y-111065646D01*
X161925646Y-110940147D01*
X162073216Y-110841544D01*
X162237188Y-110773624D01*
X162386488Y-110743927D01*
X162411258Y-110739000D01*
X162588742Y-110739000D01*
X162613512Y-110743927D01*
G37*
G36*
X165153512Y-110743927D02*
G01*
X165302812Y-110773624D01*
X165466784Y-110841544D01*
X165614354Y-110940147D01*
X165739853Y-111065646D01*
X165838456Y-111213216D01*
X165906376Y-111377188D01*
X165941000Y-111551259D01*
X165941000Y-111728741D01*
X165906376Y-111902812D01*
X165838456Y-112066784D01*
X165739853Y-112214354D01*
X165614354Y-112339853D01*
X165466784Y-112438456D01*
X165302812Y-112506376D01*
X165153512Y-112536073D01*
X165128742Y-112541000D01*
X164951258Y-112541000D01*
X164926488Y-112536073D01*
X164777188Y-112506376D01*
X164613216Y-112438456D01*
X164465646Y-112339853D01*
X164340147Y-112214354D01*
X164241544Y-112066784D01*
X164173624Y-111902812D01*
X164139000Y-111728741D01*
X164139000Y-111551259D01*
X164173624Y-111377188D01*
X164241544Y-111213216D01*
X164340147Y-111065646D01*
X164465646Y-110940147D01*
X164613216Y-110841544D01*
X164777188Y-110773624D01*
X164926488Y-110743927D01*
X164951258Y-110739000D01*
X165128742Y-110739000D01*
X165153512Y-110743927D01*
G37*
G36*
X129593512Y-110743927D02*
G01*
X129742812Y-110773624D01*
X129906784Y-110841544D01*
X130054354Y-110940147D01*
X130179853Y-111065646D01*
X130278456Y-111213216D01*
X130346376Y-111377188D01*
X130381000Y-111551259D01*
X130381000Y-111728741D01*
X130346376Y-111902812D01*
X130278456Y-112066784D01*
X130179853Y-112214354D01*
X130054354Y-112339853D01*
X129906784Y-112438456D01*
X129742812Y-112506376D01*
X129593512Y-112536073D01*
X129568742Y-112541000D01*
X129391258Y-112541000D01*
X129366488Y-112536073D01*
X129217188Y-112506376D01*
X129053216Y-112438456D01*
X128905646Y-112339853D01*
X128780147Y-112214354D01*
X128681544Y-112066784D01*
X128613624Y-111902812D01*
X128579000Y-111728741D01*
X128579000Y-111551259D01*
X128613624Y-111377188D01*
X128681544Y-111213216D01*
X128780147Y-111065646D01*
X128905646Y-110940147D01*
X129053216Y-110841544D01*
X129217188Y-110773624D01*
X129366488Y-110743927D01*
X129391258Y-110739000D01*
X129568742Y-110739000D01*
X129593512Y-110743927D01*
G37*
G36*
X134673512Y-110743927D02*
G01*
X134822812Y-110773624D01*
X134986784Y-110841544D01*
X135134354Y-110940147D01*
X135259853Y-111065646D01*
X135358456Y-111213216D01*
X135426376Y-111377188D01*
X135461000Y-111551259D01*
X135461000Y-111728741D01*
X135426376Y-111902812D01*
X135358456Y-112066784D01*
X135259853Y-112214354D01*
X135134354Y-112339853D01*
X134986784Y-112438456D01*
X134822812Y-112506376D01*
X134673512Y-112536073D01*
X134648742Y-112541000D01*
X134471258Y-112541000D01*
X134446488Y-112536073D01*
X134297188Y-112506376D01*
X134133216Y-112438456D01*
X133985646Y-112339853D01*
X133860147Y-112214354D01*
X133761544Y-112066784D01*
X133693624Y-111902812D01*
X133659000Y-111728741D01*
X133659000Y-111551259D01*
X133693624Y-111377188D01*
X133761544Y-111213216D01*
X133860147Y-111065646D01*
X133985646Y-110940147D01*
X134133216Y-110841544D01*
X134297188Y-110773624D01*
X134446488Y-110743927D01*
X134471258Y-110739000D01*
X134648742Y-110739000D01*
X134673512Y-110743927D01*
G37*
G36*
X137213512Y-110743927D02*
G01*
X137362812Y-110773624D01*
X137526784Y-110841544D01*
X137674354Y-110940147D01*
X137799853Y-111065646D01*
X137898456Y-111213216D01*
X137966376Y-111377188D01*
X138001000Y-111551259D01*
X138001000Y-111728741D01*
X137966376Y-111902812D01*
X137898456Y-112066784D01*
X137799853Y-112214354D01*
X137674354Y-112339853D01*
X137526784Y-112438456D01*
X137362812Y-112506376D01*
X137213512Y-112536073D01*
X137188742Y-112541000D01*
X137011258Y-112541000D01*
X136986488Y-112536073D01*
X136837188Y-112506376D01*
X136673216Y-112438456D01*
X136525646Y-112339853D01*
X136400147Y-112214354D01*
X136301544Y-112066784D01*
X136233624Y-111902812D01*
X136199000Y-111728741D01*
X136199000Y-111551259D01*
X136233624Y-111377188D01*
X136301544Y-111213216D01*
X136400147Y-111065646D01*
X136525646Y-110940147D01*
X136673216Y-110841544D01*
X136837188Y-110773624D01*
X136986488Y-110743927D01*
X137011258Y-110739000D01*
X137188742Y-110739000D01*
X137213512Y-110743927D01*
G37*
G36*
X139753512Y-110743927D02*
G01*
X139902812Y-110773624D01*
X140066784Y-110841544D01*
X140214354Y-110940147D01*
X140339853Y-111065646D01*
X140438456Y-111213216D01*
X140506376Y-111377188D01*
X140541000Y-111551259D01*
X140541000Y-111728741D01*
X140506376Y-111902812D01*
X140438456Y-112066784D01*
X140339853Y-112214354D01*
X140214354Y-112339853D01*
X140066784Y-112438456D01*
X139902812Y-112506376D01*
X139753512Y-112536073D01*
X139728742Y-112541000D01*
X139551258Y-112541000D01*
X139526488Y-112536073D01*
X139377188Y-112506376D01*
X139213216Y-112438456D01*
X139065646Y-112339853D01*
X138940147Y-112214354D01*
X138841544Y-112066784D01*
X138773624Y-111902812D01*
X138739000Y-111728741D01*
X138739000Y-111551259D01*
X138773624Y-111377188D01*
X138841544Y-111213216D01*
X138940147Y-111065646D01*
X139065646Y-110940147D01*
X139213216Y-110841544D01*
X139377188Y-110773624D01*
X139526488Y-110743927D01*
X139551258Y-110739000D01*
X139728742Y-110739000D01*
X139753512Y-110743927D01*
G37*
G36*
X167693512Y-110743927D02*
G01*
X167842812Y-110773624D01*
X168006784Y-110841544D01*
X168154354Y-110940147D01*
X168279853Y-111065646D01*
X168378456Y-111213216D01*
X168446376Y-111377188D01*
X168481000Y-111551259D01*
X168481000Y-111728741D01*
X168446376Y-111902812D01*
X168378456Y-112066784D01*
X168279853Y-112214354D01*
X168154354Y-112339853D01*
X168006784Y-112438456D01*
X167842812Y-112506376D01*
X167693512Y-112536073D01*
X167668742Y-112541000D01*
X167491258Y-112541000D01*
X167466488Y-112536073D01*
X167317188Y-112506376D01*
X167153216Y-112438456D01*
X167005646Y-112339853D01*
X166880147Y-112214354D01*
X166781544Y-112066784D01*
X166713624Y-111902812D01*
X166679000Y-111728741D01*
X166679000Y-111551259D01*
X166713624Y-111377188D01*
X166781544Y-111213216D01*
X166880147Y-111065646D01*
X167005646Y-110940147D01*
X167153216Y-110841544D01*
X167317188Y-110773624D01*
X167466488Y-110743927D01*
X167491258Y-110739000D01*
X167668742Y-110739000D01*
X167693512Y-110743927D01*
G37*
G36*
X142293512Y-110743927D02*
G01*
X142442812Y-110773624D01*
X142606784Y-110841544D01*
X142754354Y-110940147D01*
X142879853Y-111065646D01*
X142978456Y-111213216D01*
X143046376Y-111377188D01*
X143081000Y-111551259D01*
X143081000Y-111728741D01*
X143046376Y-111902812D01*
X142978456Y-112066784D01*
X142879853Y-112214354D01*
X142754354Y-112339853D01*
X142606784Y-112438456D01*
X142442812Y-112506376D01*
X142293512Y-112536073D01*
X142268742Y-112541000D01*
X142091258Y-112541000D01*
X142066488Y-112536073D01*
X141917188Y-112506376D01*
X141753216Y-112438456D01*
X141605646Y-112339853D01*
X141480147Y-112214354D01*
X141381544Y-112066784D01*
X141313624Y-111902812D01*
X141279000Y-111728741D01*
X141279000Y-111551259D01*
X141313624Y-111377188D01*
X141381544Y-111213216D01*
X141480147Y-111065646D01*
X141605646Y-110940147D01*
X141753216Y-110841544D01*
X141917188Y-110773624D01*
X142066488Y-110743927D01*
X142091258Y-110739000D01*
X142268742Y-110739000D01*
X142293512Y-110743927D01*
G37*
G36*
X144833512Y-110743927D02*
G01*
X144982812Y-110773624D01*
X145146784Y-110841544D01*
X145294354Y-110940147D01*
X145419853Y-111065646D01*
X145518456Y-111213216D01*
X145586376Y-111377188D01*
X145621000Y-111551259D01*
X145621000Y-111728741D01*
X145586376Y-111902812D01*
X145518456Y-112066784D01*
X145419853Y-112214354D01*
X145294354Y-112339853D01*
X145146784Y-112438456D01*
X144982812Y-112506376D01*
X144833512Y-112536073D01*
X144808742Y-112541000D01*
X144631258Y-112541000D01*
X144606488Y-112536073D01*
X144457188Y-112506376D01*
X144293216Y-112438456D01*
X144145646Y-112339853D01*
X144020147Y-112214354D01*
X143921544Y-112066784D01*
X143853624Y-111902812D01*
X143819000Y-111728741D01*
X143819000Y-111551259D01*
X143853624Y-111377188D01*
X143921544Y-111213216D01*
X144020147Y-111065646D01*
X144145646Y-110940147D01*
X144293216Y-110841544D01*
X144457188Y-110773624D01*
X144606488Y-110743927D01*
X144631258Y-110739000D01*
X144808742Y-110739000D01*
X144833512Y-110743927D01*
G37*
G36*
X149913512Y-110743927D02*
G01*
X150062812Y-110773624D01*
X150226784Y-110841544D01*
X150374354Y-110940147D01*
X150499853Y-111065646D01*
X150598456Y-111213216D01*
X150666376Y-111377188D01*
X150701000Y-111551259D01*
X150701000Y-111728741D01*
X150666376Y-111902812D01*
X150598456Y-112066784D01*
X150499853Y-112214354D01*
X150374354Y-112339853D01*
X150226784Y-112438456D01*
X150062812Y-112506376D01*
X149913512Y-112536073D01*
X149888742Y-112541000D01*
X149711258Y-112541000D01*
X149686488Y-112536073D01*
X149537188Y-112506376D01*
X149373216Y-112438456D01*
X149225646Y-112339853D01*
X149100147Y-112214354D01*
X149001544Y-112066784D01*
X148933624Y-111902812D01*
X148899000Y-111728741D01*
X148899000Y-111551259D01*
X148933624Y-111377188D01*
X149001544Y-111213216D01*
X149100147Y-111065646D01*
X149225646Y-110940147D01*
X149373216Y-110841544D01*
X149537188Y-110773624D01*
X149686488Y-110743927D01*
X149711258Y-110739000D01*
X149888742Y-110739000D01*
X149913512Y-110743927D01*
G37*
G36*
X132133512Y-110743927D02*
G01*
X132282812Y-110773624D01*
X132446784Y-110841544D01*
X132594354Y-110940147D01*
X132719853Y-111065646D01*
X132818456Y-111213216D01*
X132886376Y-111377188D01*
X132921000Y-111551259D01*
X132921000Y-111728741D01*
X132886376Y-111902812D01*
X132818456Y-112066784D01*
X132719853Y-112214354D01*
X132594354Y-112339853D01*
X132446784Y-112438456D01*
X132282812Y-112506376D01*
X132133512Y-112536073D01*
X132108742Y-112541000D01*
X131931258Y-112541000D01*
X131906488Y-112536073D01*
X131757188Y-112506376D01*
X131593216Y-112438456D01*
X131445646Y-112339853D01*
X131320147Y-112214354D01*
X131221544Y-112066784D01*
X131153624Y-111902812D01*
X131119000Y-111728741D01*
X131119000Y-111551259D01*
X131153624Y-111377188D01*
X131221544Y-111213216D01*
X131320147Y-111065646D01*
X131445646Y-110940147D01*
X131593216Y-110841544D01*
X131757188Y-110773624D01*
X131906488Y-110743927D01*
X131931258Y-110739000D01*
X132108742Y-110739000D01*
X132133512Y-110743927D01*
G37*
G36*
X123088674Y-111053465D02*
G01*
X123126367Y-111064899D01*
X123161103Y-111083466D01*
X123191548Y-111108452D01*
X123216534Y-111138897D01*
X123235101Y-111173633D01*
X123246535Y-111211326D01*
X123251000Y-111256661D01*
X123251000Y-112093339D01*
X123246535Y-112138674D01*
X123235101Y-112176367D01*
X123216534Y-112211103D01*
X123191548Y-112241548D01*
X123161103Y-112266534D01*
X123126367Y-112285101D01*
X123088674Y-112296535D01*
X123043339Y-112301000D01*
X121956661Y-112301000D01*
X121911326Y-112296535D01*
X121873633Y-112285101D01*
X121838897Y-112266534D01*
X121808452Y-112241548D01*
X121783466Y-112211103D01*
X121764899Y-112176367D01*
X121753465Y-112138674D01*
X121749000Y-112093339D01*
X121749000Y-111256661D01*
X121753465Y-111211326D01*
X121764899Y-111173633D01*
X121783466Y-111138897D01*
X121808452Y-111108452D01*
X121838897Y-111083466D01*
X121873633Y-111064899D01*
X121911326Y-111053465D01*
X121956661Y-111049000D01*
X123043339Y-111049000D01*
X123088674Y-111053465D01*
G37*
G36*
X167693512Y-108203927D02*
G01*
X167842812Y-108233624D01*
X168006784Y-108301544D01*
X168154354Y-108400147D01*
X168279853Y-108525646D01*
X168378456Y-108673216D01*
X168446376Y-108837188D01*
X168481000Y-109011259D01*
X168481000Y-109188741D01*
X168446376Y-109362812D01*
X168378456Y-109526784D01*
X168279853Y-109674354D01*
X168154354Y-109799853D01*
X168006784Y-109898456D01*
X167842812Y-109966376D01*
X167693512Y-109996073D01*
X167668742Y-110001000D01*
X167491258Y-110001000D01*
X167466488Y-109996073D01*
X167317188Y-109966376D01*
X167153216Y-109898456D01*
X167005646Y-109799853D01*
X166880147Y-109674354D01*
X166781544Y-109526784D01*
X166713624Y-109362812D01*
X166679000Y-109188741D01*
X166679000Y-109011259D01*
X166713624Y-108837188D01*
X166781544Y-108673216D01*
X166880147Y-108525646D01*
X167005646Y-108400147D01*
X167153216Y-108301544D01*
X167317188Y-108233624D01*
X167466488Y-108203927D01*
X167491258Y-108199000D01*
X167668742Y-108199000D01*
X167693512Y-108203927D01*
G37*
G36*
X165153512Y-108203927D02*
G01*
X165302812Y-108233624D01*
X165466784Y-108301544D01*
X165614354Y-108400147D01*
X165739853Y-108525646D01*
X165838456Y-108673216D01*
X165906376Y-108837188D01*
X165941000Y-109011259D01*
X165941000Y-109188741D01*
X165906376Y-109362812D01*
X165838456Y-109526784D01*
X165739853Y-109674354D01*
X165614354Y-109799853D01*
X165466784Y-109898456D01*
X165302812Y-109966376D01*
X165153512Y-109996073D01*
X165128742Y-110001000D01*
X164951258Y-110001000D01*
X164926488Y-109996073D01*
X164777188Y-109966376D01*
X164613216Y-109898456D01*
X164465646Y-109799853D01*
X164340147Y-109674354D01*
X164241544Y-109526784D01*
X164173624Y-109362812D01*
X164139000Y-109188741D01*
X164139000Y-109011259D01*
X164173624Y-108837188D01*
X164241544Y-108673216D01*
X164340147Y-108525646D01*
X164465646Y-108400147D01*
X164613216Y-108301544D01*
X164777188Y-108233624D01*
X164926488Y-108203927D01*
X164951258Y-108199000D01*
X165128742Y-108199000D01*
X165153512Y-108203927D01*
G37*
G36*
X162613512Y-108203927D02*
G01*
X162762812Y-108233624D01*
X162926784Y-108301544D01*
X163074354Y-108400147D01*
X163199853Y-108525646D01*
X163298456Y-108673216D01*
X163366376Y-108837188D01*
X163401000Y-109011259D01*
X163401000Y-109188741D01*
X163366376Y-109362812D01*
X163298456Y-109526784D01*
X163199853Y-109674354D01*
X163074354Y-109799853D01*
X162926784Y-109898456D01*
X162762812Y-109966376D01*
X162613512Y-109996073D01*
X162588742Y-110001000D01*
X162411258Y-110001000D01*
X162386488Y-109996073D01*
X162237188Y-109966376D01*
X162073216Y-109898456D01*
X161925646Y-109799853D01*
X161800147Y-109674354D01*
X161701544Y-109526784D01*
X161633624Y-109362812D01*
X161599000Y-109188741D01*
X161599000Y-109011259D01*
X161633624Y-108837188D01*
X161701544Y-108673216D01*
X161800147Y-108525646D01*
X161925646Y-108400147D01*
X162073216Y-108301544D01*
X162237188Y-108233624D01*
X162386488Y-108203927D01*
X162411258Y-108199000D01*
X162588742Y-108199000D01*
X162613512Y-108203927D01*
G37*
G36*
X171021000Y-110001000D02*
G01*
X169219000Y-110001000D01*
X169219000Y-108199000D01*
X171021000Y-108199000D01*
X171021000Y-110001000D01*
G37*
G36*
X160073512Y-108203927D02*
G01*
X160222812Y-108233624D01*
X160386784Y-108301544D01*
X160534354Y-108400147D01*
X160659853Y-108525646D01*
X160758456Y-108673216D01*
X160826376Y-108837188D01*
X160861000Y-109011259D01*
X160861000Y-109188741D01*
X160826376Y-109362812D01*
X160758456Y-109526784D01*
X160659853Y-109674354D01*
X160534354Y-109799853D01*
X160386784Y-109898456D01*
X160222812Y-109966376D01*
X160073512Y-109996073D01*
X160048742Y-110001000D01*
X159871258Y-110001000D01*
X159846488Y-109996073D01*
X159697188Y-109966376D01*
X159533216Y-109898456D01*
X159385646Y-109799853D01*
X159260147Y-109674354D01*
X159161544Y-109526784D01*
X159093624Y-109362812D01*
X159059000Y-109188741D01*
X159059000Y-109011259D01*
X159093624Y-108837188D01*
X159161544Y-108673216D01*
X159260147Y-108525646D01*
X159385646Y-108400147D01*
X159533216Y-108301544D01*
X159697188Y-108233624D01*
X159846488Y-108203927D01*
X159871258Y-108199000D01*
X160048742Y-108199000D01*
X160073512Y-108203927D01*
G37*
G36*
X157533512Y-108203927D02*
G01*
X157682812Y-108233624D01*
X157846784Y-108301544D01*
X157994354Y-108400147D01*
X158119853Y-108525646D01*
X158218456Y-108673216D01*
X158286376Y-108837188D01*
X158321000Y-109011259D01*
X158321000Y-109188741D01*
X158286376Y-109362812D01*
X158218456Y-109526784D01*
X158119853Y-109674354D01*
X157994354Y-109799853D01*
X157846784Y-109898456D01*
X157682812Y-109966376D01*
X157533512Y-109996073D01*
X157508742Y-110001000D01*
X157331258Y-110001000D01*
X157306488Y-109996073D01*
X157157188Y-109966376D01*
X156993216Y-109898456D01*
X156845646Y-109799853D01*
X156720147Y-109674354D01*
X156621544Y-109526784D01*
X156553624Y-109362812D01*
X156519000Y-109188741D01*
X156519000Y-109011259D01*
X156553624Y-108837188D01*
X156621544Y-108673216D01*
X156720147Y-108525646D01*
X156845646Y-108400147D01*
X156993216Y-108301544D01*
X157157188Y-108233624D01*
X157306488Y-108203927D01*
X157331258Y-108199000D01*
X157508742Y-108199000D01*
X157533512Y-108203927D01*
G37*
G36*
X147373512Y-108203927D02*
G01*
X147522812Y-108233624D01*
X147686784Y-108301544D01*
X147834354Y-108400147D01*
X147959853Y-108525646D01*
X148058456Y-108673216D01*
X148126376Y-108837188D01*
X148161000Y-109011259D01*
X148161000Y-109188741D01*
X148126376Y-109362812D01*
X148058456Y-109526784D01*
X147959853Y-109674354D01*
X147834354Y-109799853D01*
X147686784Y-109898456D01*
X147522812Y-109966376D01*
X147373512Y-109996073D01*
X147348742Y-110001000D01*
X147171258Y-110001000D01*
X147146488Y-109996073D01*
X146997188Y-109966376D01*
X146833216Y-109898456D01*
X146685646Y-109799853D01*
X146560147Y-109674354D01*
X146461544Y-109526784D01*
X146393624Y-109362812D01*
X146359000Y-109188741D01*
X146359000Y-109011259D01*
X146393624Y-108837188D01*
X146461544Y-108673216D01*
X146560147Y-108525646D01*
X146685646Y-108400147D01*
X146833216Y-108301544D01*
X146997188Y-108233624D01*
X147146488Y-108203927D01*
X147171258Y-108199000D01*
X147348742Y-108199000D01*
X147373512Y-108203927D01*
G37*
G36*
X144833512Y-108203927D02*
G01*
X144982812Y-108233624D01*
X145146784Y-108301544D01*
X145294354Y-108400147D01*
X145419853Y-108525646D01*
X145518456Y-108673216D01*
X145586376Y-108837188D01*
X145621000Y-109011259D01*
X145621000Y-109188741D01*
X145586376Y-109362812D01*
X145518456Y-109526784D01*
X145419853Y-109674354D01*
X145294354Y-109799853D01*
X145146784Y-109898456D01*
X144982812Y-109966376D01*
X144833512Y-109996073D01*
X144808742Y-110001000D01*
X144631258Y-110001000D01*
X144606488Y-109996073D01*
X144457188Y-109966376D01*
X144293216Y-109898456D01*
X144145646Y-109799853D01*
X144020147Y-109674354D01*
X143921544Y-109526784D01*
X143853624Y-109362812D01*
X143819000Y-109188741D01*
X143819000Y-109011259D01*
X143853624Y-108837188D01*
X143921544Y-108673216D01*
X144020147Y-108525646D01*
X144145646Y-108400147D01*
X144293216Y-108301544D01*
X144457188Y-108233624D01*
X144606488Y-108203927D01*
X144631258Y-108199000D01*
X144808742Y-108199000D01*
X144833512Y-108203927D01*
G37*
G36*
X142293512Y-108203927D02*
G01*
X142442812Y-108233624D01*
X142606784Y-108301544D01*
X142754354Y-108400147D01*
X142879853Y-108525646D01*
X142978456Y-108673216D01*
X143046376Y-108837188D01*
X143081000Y-109011259D01*
X143081000Y-109188741D01*
X143046376Y-109362812D01*
X142978456Y-109526784D01*
X142879853Y-109674354D01*
X142754354Y-109799853D01*
X142606784Y-109898456D01*
X142442812Y-109966376D01*
X142293512Y-109996073D01*
X142268742Y-110001000D01*
X142091258Y-110001000D01*
X142066488Y-109996073D01*
X141917188Y-109966376D01*
X141753216Y-109898456D01*
X141605646Y-109799853D01*
X141480147Y-109674354D01*
X141381544Y-109526784D01*
X141313624Y-109362812D01*
X141279000Y-109188741D01*
X141279000Y-109011259D01*
X141313624Y-108837188D01*
X141381544Y-108673216D01*
X141480147Y-108525646D01*
X141605646Y-108400147D01*
X141753216Y-108301544D01*
X141917188Y-108233624D01*
X142066488Y-108203927D01*
X142091258Y-108199000D01*
X142268742Y-108199000D01*
X142293512Y-108203927D01*
G37*
G36*
X139753512Y-108203927D02*
G01*
X139902812Y-108233624D01*
X140066784Y-108301544D01*
X140214354Y-108400147D01*
X140339853Y-108525646D01*
X140438456Y-108673216D01*
X140506376Y-108837188D01*
X140541000Y-109011259D01*
X140541000Y-109188741D01*
X140506376Y-109362812D01*
X140438456Y-109526784D01*
X140339853Y-109674354D01*
X140214354Y-109799853D01*
X140066784Y-109898456D01*
X139902812Y-109966376D01*
X139753512Y-109996073D01*
X139728742Y-110001000D01*
X139551258Y-110001000D01*
X139526488Y-109996073D01*
X139377188Y-109966376D01*
X139213216Y-109898456D01*
X139065646Y-109799853D01*
X138940147Y-109674354D01*
X138841544Y-109526784D01*
X138773624Y-109362812D01*
X138739000Y-109188741D01*
X138739000Y-109011259D01*
X138773624Y-108837188D01*
X138841544Y-108673216D01*
X138940147Y-108525646D01*
X139065646Y-108400147D01*
X139213216Y-108301544D01*
X139377188Y-108233624D01*
X139526488Y-108203927D01*
X139551258Y-108199000D01*
X139728742Y-108199000D01*
X139753512Y-108203927D01*
G37*
G36*
X152453512Y-108203927D02*
G01*
X152602812Y-108233624D01*
X152766784Y-108301544D01*
X152914354Y-108400147D01*
X153039853Y-108525646D01*
X153138456Y-108673216D01*
X153206376Y-108837188D01*
X153241000Y-109011259D01*
X153241000Y-109188741D01*
X153206376Y-109362812D01*
X153138456Y-109526784D01*
X153039853Y-109674354D01*
X152914354Y-109799853D01*
X152766784Y-109898456D01*
X152602812Y-109966376D01*
X152453512Y-109996073D01*
X152428742Y-110001000D01*
X152251258Y-110001000D01*
X152226488Y-109996073D01*
X152077188Y-109966376D01*
X151913216Y-109898456D01*
X151765646Y-109799853D01*
X151640147Y-109674354D01*
X151541544Y-109526784D01*
X151473624Y-109362812D01*
X151439000Y-109188741D01*
X151439000Y-109011259D01*
X151473624Y-108837188D01*
X151541544Y-108673216D01*
X151640147Y-108525646D01*
X151765646Y-108400147D01*
X151913216Y-108301544D01*
X152077188Y-108233624D01*
X152226488Y-108203927D01*
X152251258Y-108199000D01*
X152428742Y-108199000D01*
X152453512Y-108203927D01*
G37*
G36*
X134673512Y-108203927D02*
G01*
X134822812Y-108233624D01*
X134986784Y-108301544D01*
X135134354Y-108400147D01*
X135259853Y-108525646D01*
X135358456Y-108673216D01*
X135426376Y-108837188D01*
X135461000Y-109011259D01*
X135461000Y-109188741D01*
X135426376Y-109362812D01*
X135358456Y-109526784D01*
X135259853Y-109674354D01*
X135134354Y-109799853D01*
X134986784Y-109898456D01*
X134822812Y-109966376D01*
X134673512Y-109996073D01*
X134648742Y-110001000D01*
X134471258Y-110001000D01*
X134446488Y-109996073D01*
X134297188Y-109966376D01*
X134133216Y-109898456D01*
X133985646Y-109799853D01*
X133860147Y-109674354D01*
X133761544Y-109526784D01*
X133693624Y-109362812D01*
X133659000Y-109188741D01*
X133659000Y-109011259D01*
X133693624Y-108837188D01*
X133761544Y-108673216D01*
X133860147Y-108525646D01*
X133985646Y-108400147D01*
X134133216Y-108301544D01*
X134297188Y-108233624D01*
X134446488Y-108203927D01*
X134471258Y-108199000D01*
X134648742Y-108199000D01*
X134673512Y-108203927D01*
G37*
G36*
X132133512Y-108203927D02*
G01*
X132282812Y-108233624D01*
X132446784Y-108301544D01*
X132594354Y-108400147D01*
X132719853Y-108525646D01*
X132818456Y-108673216D01*
X132886376Y-108837188D01*
X132921000Y-109011259D01*
X132921000Y-109188741D01*
X132886376Y-109362812D01*
X132818456Y-109526784D01*
X132719853Y-109674354D01*
X132594354Y-109799853D01*
X132446784Y-109898456D01*
X132282812Y-109966376D01*
X132133512Y-109996073D01*
X132108742Y-110001000D01*
X131931258Y-110001000D01*
X131906488Y-109996073D01*
X131757188Y-109966376D01*
X131593216Y-109898456D01*
X131445646Y-109799853D01*
X131320147Y-109674354D01*
X131221544Y-109526784D01*
X131153624Y-109362812D01*
X131119000Y-109188741D01*
X131119000Y-109011259D01*
X131153624Y-108837188D01*
X131221544Y-108673216D01*
X131320147Y-108525646D01*
X131445646Y-108400147D01*
X131593216Y-108301544D01*
X131757188Y-108233624D01*
X131906488Y-108203927D01*
X131931258Y-108199000D01*
X132108742Y-108199000D01*
X132133512Y-108203927D01*
G37*
G36*
X129593512Y-108203927D02*
G01*
X129742812Y-108233624D01*
X129906784Y-108301544D01*
X130054354Y-108400147D01*
X130179853Y-108525646D01*
X130278456Y-108673216D01*
X130346376Y-108837188D01*
X130381000Y-109011259D01*
X130381000Y-109188741D01*
X130346376Y-109362812D01*
X130278456Y-109526784D01*
X130179853Y-109674354D01*
X130054354Y-109799853D01*
X129906784Y-109898456D01*
X129742812Y-109966376D01*
X129593512Y-109996073D01*
X129568742Y-110001000D01*
X129391258Y-110001000D01*
X129366488Y-109996073D01*
X129217188Y-109966376D01*
X129053216Y-109898456D01*
X128905646Y-109799853D01*
X128780147Y-109674354D01*
X128681544Y-109526784D01*
X128613624Y-109362812D01*
X128579000Y-109188741D01*
X128579000Y-109011259D01*
X128613624Y-108837188D01*
X128681544Y-108673216D01*
X128780147Y-108525646D01*
X128905646Y-108400147D01*
X129053216Y-108301544D01*
X129217188Y-108233624D01*
X129366488Y-108203927D01*
X129391258Y-108199000D01*
X129568742Y-108199000D01*
X129593512Y-108203927D01*
G37*
G36*
X149913512Y-108203927D02*
G01*
X150062812Y-108233624D01*
X150226784Y-108301544D01*
X150374354Y-108400147D01*
X150499853Y-108525646D01*
X150598456Y-108673216D01*
X150666376Y-108837188D01*
X150701000Y-109011259D01*
X150701000Y-109188741D01*
X150666376Y-109362812D01*
X150598456Y-109526784D01*
X150499853Y-109674354D01*
X150374354Y-109799853D01*
X150226784Y-109898456D01*
X150062812Y-109966376D01*
X149913512Y-109996073D01*
X149888742Y-110001000D01*
X149711258Y-110001000D01*
X149686488Y-109996073D01*
X149537188Y-109966376D01*
X149373216Y-109898456D01*
X149225646Y-109799853D01*
X149100147Y-109674354D01*
X149001544Y-109526784D01*
X148933624Y-109362812D01*
X148899000Y-109188741D01*
X148899000Y-109011259D01*
X148933624Y-108837188D01*
X149001544Y-108673216D01*
X149100147Y-108525646D01*
X149225646Y-108400147D01*
X149373216Y-108301544D01*
X149537188Y-108233624D01*
X149686488Y-108203927D01*
X149711258Y-108199000D01*
X149888742Y-108199000D01*
X149913512Y-108203927D01*
G37*
G36*
X137213512Y-108203927D02*
G01*
X137362812Y-108233624D01*
X137526784Y-108301544D01*
X137674354Y-108400147D01*
X137799853Y-108525646D01*
X137898456Y-108673216D01*
X137966376Y-108837188D01*
X138001000Y-109011259D01*
X138001000Y-109188741D01*
X137966376Y-109362812D01*
X137898456Y-109526784D01*
X137799853Y-109674354D01*
X137674354Y-109799853D01*
X137526784Y-109898456D01*
X137362812Y-109966376D01*
X137213512Y-109996073D01*
X137188742Y-110001000D01*
X137011258Y-110001000D01*
X136986488Y-109996073D01*
X136837188Y-109966376D01*
X136673216Y-109898456D01*
X136525646Y-109799853D01*
X136400147Y-109674354D01*
X136301544Y-109526784D01*
X136233624Y-109362812D01*
X136199000Y-109188741D01*
X136199000Y-109011259D01*
X136233624Y-108837188D01*
X136301544Y-108673216D01*
X136400147Y-108525646D01*
X136525646Y-108400147D01*
X136673216Y-108301544D01*
X136837188Y-108233624D01*
X136986488Y-108203927D01*
X137011258Y-108199000D01*
X137188742Y-108199000D01*
X137213512Y-108203927D01*
G37*
G36*
X154993512Y-108203927D02*
G01*
X155142812Y-108233624D01*
X155306784Y-108301544D01*
X155454354Y-108400147D01*
X155579853Y-108525646D01*
X155678456Y-108673216D01*
X155746376Y-108837188D01*
X155781000Y-109011259D01*
X155781000Y-109188741D01*
X155746376Y-109362812D01*
X155678456Y-109526784D01*
X155579853Y-109674354D01*
X155454354Y-109799853D01*
X155306784Y-109898456D01*
X155142812Y-109966376D01*
X154993512Y-109996073D01*
X154968742Y-110001000D01*
X154791258Y-110001000D01*
X154766488Y-109996073D01*
X154617188Y-109966376D01*
X154453216Y-109898456D01*
X154305646Y-109799853D01*
X154180147Y-109674354D01*
X154081544Y-109526784D01*
X154013624Y-109362812D01*
X153979000Y-109188741D01*
X153979000Y-109011259D01*
X154013624Y-108837188D01*
X154081544Y-108673216D01*
X154180147Y-108525646D01*
X154305646Y-108400147D01*
X154453216Y-108301544D01*
X154617188Y-108233624D01*
X154766488Y-108203927D01*
X154791258Y-108199000D01*
X154968742Y-108199000D01*
X154993512Y-108203927D01*
G37*
G36*
X178088674Y-108403465D02*
G01*
X178126367Y-108414899D01*
X178161103Y-108433466D01*
X178191548Y-108458452D01*
X178216534Y-108488897D01*
X178235101Y-108523633D01*
X178246535Y-108561326D01*
X178251000Y-108606661D01*
X178251000Y-109443339D01*
X178246535Y-109488674D01*
X178235101Y-109526367D01*
X178216534Y-109561103D01*
X178191548Y-109591548D01*
X178161103Y-109616534D01*
X178126367Y-109635101D01*
X178088674Y-109646535D01*
X178043339Y-109651000D01*
X176956661Y-109651000D01*
X176911326Y-109646535D01*
X176873633Y-109635101D01*
X176838897Y-109616534D01*
X176808452Y-109591548D01*
X176783466Y-109561103D01*
X176764899Y-109526367D01*
X176753465Y-109488674D01*
X176749000Y-109443339D01*
X176749000Y-108606661D01*
X176753465Y-108561326D01*
X176764899Y-108523633D01*
X176783466Y-108488897D01*
X176808452Y-108458452D01*
X176838897Y-108433466D01*
X176873633Y-108414899D01*
X176911326Y-108403465D01*
X176956661Y-108399000D01*
X178043339Y-108399000D01*
X178088674Y-108403465D01*
G37*
G36*
X178088674Y-106353465D02*
G01*
X178126367Y-106364899D01*
X178161103Y-106383466D01*
X178191548Y-106408452D01*
X178216534Y-106438897D01*
X178235101Y-106473633D01*
X178246535Y-106511326D01*
X178251000Y-106556661D01*
X178251000Y-107393339D01*
X178246535Y-107438674D01*
X178235101Y-107476367D01*
X178216534Y-107511103D01*
X178191548Y-107541548D01*
X178161103Y-107566534D01*
X178126367Y-107585101D01*
X178088674Y-107596535D01*
X178043339Y-107601000D01*
X176956661Y-107601000D01*
X176911326Y-107596535D01*
X176873633Y-107585101D01*
X176838897Y-107566534D01*
X176808452Y-107541548D01*
X176783466Y-107511103D01*
X176764899Y-107476367D01*
X176753465Y-107438674D01*
X176749000Y-107393339D01*
X176749000Y-106556661D01*
X176753465Y-106511326D01*
X176764899Y-106473633D01*
X176783466Y-106438897D01*
X176808452Y-106408452D01*
X176838897Y-106383466D01*
X176873633Y-106364899D01*
X176911326Y-106353465D01*
X176956661Y-106349000D01*
X178043339Y-106349000D01*
X178088674Y-106353465D01*
G37*
G36*
X127275880Y-99759776D02*
G01*
X127656593Y-99835504D01*
X128066249Y-100005189D01*
X128434929Y-100251534D01*
X128748466Y-100565071D01*
X128994811Y-100933751D01*
X129164496Y-101343407D01*
X129251000Y-101778296D01*
X129251000Y-102221704D01*
X129164496Y-102656593D01*
X128994811Y-103066249D01*
X128748466Y-103434929D01*
X128434929Y-103748466D01*
X128066249Y-103994811D01*
X127656593Y-104164496D01*
X127275880Y-104240224D01*
X127221705Y-104251000D01*
X126778295Y-104251000D01*
X126724120Y-104240224D01*
X126343407Y-104164496D01*
X125933751Y-103994811D01*
X125565071Y-103748466D01*
X125251534Y-103434929D01*
X125005189Y-103066249D01*
X124835504Y-102656593D01*
X124749000Y-102221704D01*
X124749000Y-101778296D01*
X124835504Y-101343407D01*
X125005189Y-100933751D01*
X125251534Y-100565071D01*
X125565071Y-100251534D01*
X125933751Y-100005189D01*
X126343407Y-99835504D01*
X126724120Y-99759776D01*
X126778295Y-99749000D01*
X127221705Y-99749000D01*
X127275880Y-99759776D01*
G37*
G36*
X173275880Y-99759776D02*
G01*
X173656593Y-99835504D01*
X174066249Y-100005189D01*
X174434929Y-100251534D01*
X174748466Y-100565071D01*
X174994811Y-100933751D01*
X175164496Y-101343407D01*
X175251000Y-101778296D01*
X175251000Y-102221704D01*
X175164496Y-102656593D01*
X174994811Y-103066249D01*
X174748466Y-103434929D01*
X174434929Y-103748466D01*
X174066249Y-103994811D01*
X173656593Y-104164496D01*
X173275880Y-104240224D01*
X173221705Y-104251000D01*
X172778295Y-104251000D01*
X172724120Y-104240224D01*
X172343407Y-104164496D01*
X171933751Y-103994811D01*
X171565071Y-103748466D01*
X171251534Y-103434929D01*
X171005189Y-103066249D01*
X170835504Y-102656593D01*
X170749000Y-102221704D01*
X170749000Y-101778296D01*
X170835504Y-101343407D01*
X171005189Y-100933751D01*
X171251534Y-100565071D01*
X171565071Y-100251534D01*
X171933751Y-100005189D01*
X172343407Y-99835504D01*
X172724120Y-99759776D01*
X172778295Y-99749000D01*
X173221705Y-99749000D01*
X173275880Y-99759776D01*
G37*
G36*
X118101000Y-96861886D02*
G01*
X118101602Y-96874138D01*
X118104149Y-96900000D01*
X118101602Y-96925862D01*
X118101000Y-96938114D01*
X118101000Y-97011406D01*
X118092043Y-97028164D01*
X118087915Y-97039701D01*
X118062132Y-97124693D01*
X118054354Y-97150336D01*
X117993906Y-97263425D01*
X117912554Y-97362554D01*
X117813425Y-97443906D01*
X117700336Y-97504354D01*
X117668404Y-97514040D01*
X117577618Y-97541580D01*
X117513855Y-97547860D01*
X117481974Y-97551000D01*
X116718026Y-97551000D01*
X116686145Y-97547860D01*
X116622382Y-97541580D01*
X116531596Y-97514040D01*
X116499664Y-97504354D01*
X116386575Y-97443906D01*
X116287446Y-97362554D01*
X116206094Y-97263425D01*
X116145646Y-97150336D01*
X116137868Y-97124693D01*
X116112087Y-97039708D01*
X116102713Y-97017075D01*
X116099000Y-97011518D01*
X116099000Y-96938114D01*
X116098398Y-96925862D01*
X116095851Y-96900000D01*
X116098398Y-96874138D01*
X116099000Y-96861886D01*
X116099000Y-95649000D01*
X118101000Y-95649000D01*
X118101000Y-96861886D01*
G37*
G36*
X136449928Y-94851764D02*
G01*
X136471009Y-94858160D01*
X136490445Y-94868548D01*
X136507476Y-94882524D01*
X136521452Y-94899555D01*
X136531840Y-94918991D01*
X136538236Y-94940072D01*
X136541000Y-94968140D01*
X136541000Y-96781860D01*
X136538236Y-96809928D01*
X136531840Y-96831009D01*
X136521452Y-96850445D01*
X136507476Y-96867476D01*
X136490445Y-96881452D01*
X136471009Y-96891840D01*
X136449928Y-96898236D01*
X136421860Y-96901000D01*
X135958140Y-96901000D01*
X135930072Y-96898236D01*
X135908991Y-96891840D01*
X135889555Y-96881452D01*
X135872524Y-96867476D01*
X135858548Y-96850445D01*
X135848160Y-96831009D01*
X135841764Y-96809928D01*
X135839000Y-96781860D01*
X135839000Y-94968140D01*
X135841764Y-94940072D01*
X135848160Y-94918991D01*
X135858548Y-94899555D01*
X135872524Y-94882524D01*
X135889555Y-94868548D01*
X135908991Y-94858160D01*
X135930072Y-94851764D01*
X135958140Y-94849000D01*
X136421860Y-94849000D01*
X136449928Y-94851764D01*
G37*
G36*
X137719928Y-94851764D02*
G01*
X137741009Y-94858160D01*
X137760445Y-94868548D01*
X137777476Y-94882524D01*
X137791452Y-94899555D01*
X137801840Y-94918991D01*
X137808236Y-94940072D01*
X137811000Y-94968140D01*
X137811000Y-96781860D01*
X137808236Y-96809928D01*
X137801840Y-96831009D01*
X137791452Y-96850445D01*
X137777476Y-96867476D01*
X137760445Y-96881452D01*
X137741009Y-96891840D01*
X137719928Y-96898236D01*
X137691860Y-96901000D01*
X137228140Y-96901000D01*
X137200072Y-96898236D01*
X137178991Y-96891840D01*
X137159555Y-96881452D01*
X137142524Y-96867476D01*
X137128548Y-96850445D01*
X137118160Y-96831009D01*
X137111764Y-96809928D01*
X137109000Y-96781860D01*
X137109000Y-94968140D01*
X137111764Y-94940072D01*
X137118160Y-94918991D01*
X137128548Y-94899555D01*
X137142524Y-94882524D01*
X137159555Y-94868548D01*
X137178991Y-94858160D01*
X137200072Y-94851764D01*
X137228140Y-94849000D01*
X137691860Y-94849000D01*
X137719928Y-94851764D01*
G37*
G36*
X138989928Y-94851764D02*
G01*
X139011009Y-94858160D01*
X139030445Y-94868548D01*
X139047476Y-94882524D01*
X139061452Y-94899555D01*
X139071840Y-94918991D01*
X139078236Y-94940072D01*
X139081000Y-94968140D01*
X139081000Y-96781860D01*
X139078236Y-96809928D01*
X139071840Y-96831009D01*
X139061452Y-96850445D01*
X139047476Y-96867476D01*
X139030445Y-96881452D01*
X139011009Y-96891840D01*
X138989928Y-96898236D01*
X138961860Y-96901000D01*
X138498140Y-96901000D01*
X138470072Y-96898236D01*
X138448991Y-96891840D01*
X138429555Y-96881452D01*
X138412524Y-96867476D01*
X138398548Y-96850445D01*
X138388160Y-96831009D01*
X138381764Y-96809928D01*
X138379000Y-96781860D01*
X138379000Y-94968140D01*
X138381764Y-94940072D01*
X138388160Y-94918991D01*
X138398548Y-94899555D01*
X138412524Y-94882524D01*
X138429555Y-94868548D01*
X138448991Y-94858160D01*
X138470072Y-94851764D01*
X138498140Y-94849000D01*
X138961860Y-94849000D01*
X138989928Y-94851764D01*
G37*
G36*
X140259928Y-94851764D02*
G01*
X140281009Y-94858160D01*
X140300445Y-94868548D01*
X140317476Y-94882524D01*
X140331452Y-94899555D01*
X140341840Y-94918991D01*
X140348236Y-94940072D01*
X140351000Y-94968140D01*
X140351000Y-96781860D01*
X140348236Y-96809928D01*
X140341840Y-96831009D01*
X140331452Y-96850445D01*
X140317476Y-96867476D01*
X140300445Y-96881452D01*
X140281009Y-96891840D01*
X140259928Y-96898236D01*
X140231860Y-96901000D01*
X139768140Y-96901000D01*
X139740072Y-96898236D01*
X139718991Y-96891840D01*
X139699555Y-96881452D01*
X139682524Y-96867476D01*
X139668548Y-96850445D01*
X139658160Y-96831009D01*
X139651764Y-96809928D01*
X139649000Y-96781860D01*
X139649000Y-94968140D01*
X139651764Y-94940072D01*
X139658160Y-94918991D01*
X139668548Y-94899555D01*
X139682524Y-94882524D01*
X139699555Y-94868548D01*
X139718991Y-94858160D01*
X139740072Y-94851764D01*
X139768140Y-94849000D01*
X140231860Y-94849000D01*
X140259928Y-94851764D01*
G37*
G36*
X141529928Y-94851764D02*
G01*
X141551009Y-94858160D01*
X141570445Y-94868548D01*
X141587476Y-94882524D01*
X141601452Y-94899555D01*
X141611840Y-94918991D01*
X141618236Y-94940072D01*
X141621000Y-94968140D01*
X141621000Y-96781860D01*
X141618236Y-96809928D01*
X141611840Y-96831009D01*
X141601452Y-96850445D01*
X141587476Y-96867476D01*
X141570445Y-96881452D01*
X141551009Y-96891840D01*
X141529928Y-96898236D01*
X141501860Y-96901000D01*
X141038140Y-96901000D01*
X141010072Y-96898236D01*
X140988991Y-96891840D01*
X140969555Y-96881452D01*
X140952524Y-96867476D01*
X140938548Y-96850445D01*
X140928160Y-96831009D01*
X140921764Y-96809928D01*
X140919000Y-96781860D01*
X140919000Y-94968140D01*
X140921764Y-94940072D01*
X140928160Y-94918991D01*
X140938548Y-94899555D01*
X140952524Y-94882524D01*
X140969555Y-94868548D01*
X140988991Y-94858160D01*
X141010072Y-94851764D01*
X141038140Y-94849000D01*
X141501860Y-94849000D01*
X141529928Y-94851764D01*
G37*
G36*
X142799928Y-94851764D02*
G01*
X142821009Y-94858160D01*
X142840445Y-94868548D01*
X142857476Y-94882524D01*
X142871452Y-94899555D01*
X142881840Y-94918991D01*
X142888236Y-94940072D01*
X142891000Y-94968140D01*
X142891000Y-96781860D01*
X142888236Y-96809928D01*
X142881840Y-96831009D01*
X142871452Y-96850445D01*
X142857476Y-96867476D01*
X142840445Y-96881452D01*
X142821009Y-96891840D01*
X142799928Y-96898236D01*
X142771860Y-96901000D01*
X142308140Y-96901000D01*
X142280072Y-96898236D01*
X142258991Y-96891840D01*
X142239555Y-96881452D01*
X142222524Y-96867476D01*
X142208548Y-96850445D01*
X142198160Y-96831009D01*
X142191764Y-96809928D01*
X142189000Y-96781860D01*
X142189000Y-94968140D01*
X142191764Y-94940072D01*
X142198160Y-94918991D01*
X142208548Y-94899555D01*
X142222524Y-94882524D01*
X142239555Y-94868548D01*
X142258991Y-94858160D01*
X142280072Y-94851764D01*
X142308140Y-94849000D01*
X142771860Y-94849000D01*
X142799928Y-94851764D01*
G37*
G36*
X160259928Y-94851764D02*
G01*
X160281009Y-94858160D01*
X160300445Y-94868548D01*
X160317476Y-94882524D01*
X160331452Y-94899555D01*
X160341840Y-94918991D01*
X160348236Y-94940072D01*
X160351000Y-94968140D01*
X160351000Y-96781860D01*
X160348236Y-96809928D01*
X160341840Y-96831009D01*
X160331452Y-96850445D01*
X160317476Y-96867476D01*
X160300445Y-96881452D01*
X160281009Y-96891840D01*
X160259928Y-96898236D01*
X160231860Y-96901000D01*
X159768140Y-96901000D01*
X159740072Y-96898236D01*
X159718991Y-96891840D01*
X159699555Y-96881452D01*
X159682524Y-96867476D01*
X159668548Y-96850445D01*
X159658160Y-96831009D01*
X159651764Y-96809928D01*
X159649000Y-96781860D01*
X159649000Y-94968140D01*
X159651764Y-94940072D01*
X159658160Y-94918991D01*
X159668548Y-94899555D01*
X159682524Y-94882524D01*
X159699555Y-94868548D01*
X159718991Y-94858160D01*
X159740072Y-94851764D01*
X159768140Y-94849000D01*
X160231860Y-94849000D01*
X160259928Y-94851764D01*
G37*
G36*
X164069928Y-94851764D02*
G01*
X164091009Y-94858160D01*
X164110445Y-94868548D01*
X164127476Y-94882524D01*
X164141452Y-94899555D01*
X164151840Y-94918991D01*
X164158236Y-94940072D01*
X164161000Y-94968140D01*
X164161000Y-96781860D01*
X164158236Y-96809928D01*
X164151840Y-96831009D01*
X164141452Y-96850445D01*
X164127476Y-96867476D01*
X164110445Y-96881452D01*
X164091009Y-96891840D01*
X164069928Y-96898236D01*
X164041860Y-96901000D01*
X163578140Y-96901000D01*
X163550072Y-96898236D01*
X163528991Y-96891840D01*
X163509555Y-96881452D01*
X163492524Y-96867476D01*
X163478548Y-96850445D01*
X163468160Y-96831009D01*
X163461764Y-96809928D01*
X163459000Y-96781860D01*
X163459000Y-94968140D01*
X163461764Y-94940072D01*
X163468160Y-94918991D01*
X163478548Y-94899555D01*
X163492524Y-94882524D01*
X163509555Y-94868548D01*
X163528991Y-94858160D01*
X163550072Y-94851764D01*
X163578140Y-94849000D01*
X164041860Y-94849000D01*
X164069928Y-94851764D01*
G37*
G36*
X162799928Y-94851764D02*
G01*
X162821009Y-94858160D01*
X162840445Y-94868548D01*
X162857476Y-94882524D01*
X162871452Y-94899555D01*
X162881840Y-94918991D01*
X162888236Y-94940072D01*
X162891000Y-94968140D01*
X162891000Y-96781860D01*
X162888236Y-96809928D01*
X162881840Y-96831009D01*
X162871452Y-96850445D01*
X162857476Y-96867476D01*
X162840445Y-96881452D01*
X162821009Y-96891840D01*
X162799928Y-96898236D01*
X162771860Y-96901000D01*
X162308140Y-96901000D01*
X162280072Y-96898236D01*
X162258991Y-96891840D01*
X162239555Y-96881452D01*
X162222524Y-96867476D01*
X162208548Y-96850445D01*
X162198160Y-96831009D01*
X162191764Y-96809928D01*
X162189000Y-96781860D01*
X162189000Y-94968140D01*
X162191764Y-94940072D01*
X162198160Y-94918991D01*
X162208548Y-94899555D01*
X162222524Y-94882524D01*
X162239555Y-94868548D01*
X162258991Y-94858160D01*
X162280072Y-94851764D01*
X162308140Y-94849000D01*
X162771860Y-94849000D01*
X162799928Y-94851764D01*
G37*
G36*
X161529928Y-94851764D02*
G01*
X161551009Y-94858160D01*
X161570445Y-94868548D01*
X161587476Y-94882524D01*
X161601452Y-94899555D01*
X161611840Y-94918991D01*
X161618236Y-94940072D01*
X161621000Y-94968140D01*
X161621000Y-96781860D01*
X161618236Y-96809928D01*
X161611840Y-96831009D01*
X161601452Y-96850445D01*
X161587476Y-96867476D01*
X161570445Y-96881452D01*
X161551009Y-96891840D01*
X161529928Y-96898236D01*
X161501860Y-96901000D01*
X161038140Y-96901000D01*
X161010072Y-96898236D01*
X160988991Y-96891840D01*
X160969555Y-96881452D01*
X160952524Y-96867476D01*
X160938548Y-96850445D01*
X160928160Y-96831009D01*
X160921764Y-96809928D01*
X160919000Y-96781860D01*
X160919000Y-94968140D01*
X160921764Y-94940072D01*
X160928160Y-94918991D01*
X160938548Y-94899555D01*
X160952524Y-94882524D01*
X160969555Y-94868548D01*
X160988991Y-94858160D01*
X161010072Y-94851764D01*
X161038140Y-94849000D01*
X161501860Y-94849000D01*
X161529928Y-94851764D01*
G37*
G36*
X156449928Y-94851764D02*
G01*
X156471009Y-94858160D01*
X156490445Y-94868548D01*
X156507476Y-94882524D01*
X156521452Y-94899555D01*
X156531840Y-94918991D01*
X156538236Y-94940072D01*
X156541000Y-94968140D01*
X156541000Y-96781860D01*
X156538236Y-96809928D01*
X156531840Y-96831009D01*
X156521452Y-96850445D01*
X156507476Y-96867476D01*
X156490445Y-96881452D01*
X156471009Y-96891840D01*
X156449928Y-96898236D01*
X156421860Y-96901000D01*
X155958140Y-96901000D01*
X155930072Y-96898236D01*
X155908991Y-96891840D01*
X155889555Y-96881452D01*
X155872524Y-96867476D01*
X155858548Y-96850445D01*
X155848160Y-96831009D01*
X155841764Y-96809928D01*
X155839000Y-96781860D01*
X155839000Y-94968140D01*
X155841764Y-94940072D01*
X155848160Y-94918991D01*
X155858548Y-94899555D01*
X155872524Y-94882524D01*
X155889555Y-94868548D01*
X155908991Y-94858160D01*
X155930072Y-94851764D01*
X155958140Y-94849000D01*
X156421860Y-94849000D01*
X156449928Y-94851764D01*
G37*
G36*
X158989928Y-94851764D02*
G01*
X159011009Y-94858160D01*
X159030445Y-94868548D01*
X159047476Y-94882524D01*
X159061452Y-94899555D01*
X159071840Y-94918991D01*
X159078236Y-94940072D01*
X159081000Y-94968140D01*
X159081000Y-96781860D01*
X159078236Y-96809928D01*
X159071840Y-96831009D01*
X159061452Y-96850445D01*
X159047476Y-96867476D01*
X159030445Y-96881452D01*
X159011009Y-96891840D01*
X158989928Y-96898236D01*
X158961860Y-96901000D01*
X158498140Y-96901000D01*
X158470072Y-96898236D01*
X158448991Y-96891840D01*
X158429555Y-96881452D01*
X158412524Y-96867476D01*
X158398548Y-96850445D01*
X158388160Y-96831009D01*
X158381764Y-96809928D01*
X158379000Y-96781860D01*
X158379000Y-94968140D01*
X158381764Y-94940072D01*
X158388160Y-94918991D01*
X158398548Y-94899555D01*
X158412524Y-94882524D01*
X158429555Y-94868548D01*
X158448991Y-94858160D01*
X158470072Y-94851764D01*
X158498140Y-94849000D01*
X158961860Y-94849000D01*
X158989928Y-94851764D01*
G37*
G36*
X144069928Y-94851764D02*
G01*
X144091009Y-94858160D01*
X144110445Y-94868548D01*
X144127476Y-94882524D01*
X144141452Y-94899555D01*
X144151840Y-94918991D01*
X144158236Y-94940072D01*
X144161000Y-94968140D01*
X144161000Y-96781860D01*
X144158236Y-96809928D01*
X144151840Y-96831009D01*
X144141452Y-96850445D01*
X144127476Y-96867476D01*
X144110445Y-96881452D01*
X144091009Y-96891840D01*
X144069928Y-96898236D01*
X144041860Y-96901000D01*
X143578140Y-96901000D01*
X143550072Y-96898236D01*
X143528991Y-96891840D01*
X143509555Y-96881452D01*
X143492524Y-96867476D01*
X143478548Y-96850445D01*
X143468160Y-96831009D01*
X143461764Y-96809928D01*
X143459000Y-96781860D01*
X143459000Y-94968140D01*
X143461764Y-94940072D01*
X143468160Y-94918991D01*
X143478548Y-94899555D01*
X143492524Y-94882524D01*
X143509555Y-94868548D01*
X143528991Y-94858160D01*
X143550072Y-94851764D01*
X143578140Y-94849000D01*
X144041860Y-94849000D01*
X144069928Y-94851764D01*
G37*
G36*
X157719928Y-94851764D02*
G01*
X157741009Y-94858160D01*
X157760445Y-94868548D01*
X157777476Y-94882524D01*
X157791452Y-94899555D01*
X157801840Y-94918991D01*
X157808236Y-94940072D01*
X157811000Y-94968140D01*
X157811000Y-96781860D01*
X157808236Y-96809928D01*
X157801840Y-96831009D01*
X157791452Y-96850445D01*
X157777476Y-96867476D01*
X157760445Y-96881452D01*
X157741009Y-96891840D01*
X157719928Y-96898236D01*
X157691860Y-96901000D01*
X157228140Y-96901000D01*
X157200072Y-96898236D01*
X157178991Y-96891840D01*
X157159555Y-96881452D01*
X157142524Y-96867476D01*
X157128548Y-96850445D01*
X157118160Y-96831009D01*
X157111764Y-96809928D01*
X157109000Y-96781860D01*
X157109000Y-94968140D01*
X157111764Y-94940072D01*
X157118160Y-94918991D01*
X157128548Y-94899555D01*
X157142524Y-94882524D01*
X157159555Y-94868548D01*
X157178991Y-94858160D01*
X157200072Y-94851764D01*
X157228140Y-94849000D01*
X157691860Y-94849000D01*
X157719928Y-94851764D01*
G37*
G36*
X120026348Y-90153820D02*
G01*
X120026350Y-90153821D01*
X120026351Y-90153821D01*
X120167574Y-90212317D01*
X120167577Y-90212319D01*
X120294669Y-90297239D01*
X120402761Y-90405331D01*
X120487681Y-90532423D01*
X120487683Y-90532426D01*
X120546179Y-90673649D01*
X120576000Y-90823571D01*
X120576000Y-90976429D01*
X120546179Y-91126351D01*
X120487683Y-91267574D01*
X120487681Y-91267577D01*
X120402761Y-91394669D01*
X120294669Y-91502761D01*
X120246268Y-91535101D01*
X120167574Y-91587683D01*
X120117272Y-91608519D01*
X120095664Y-91620068D01*
X120076722Y-91635614D01*
X120061177Y-91654556D01*
X120049626Y-91676166D01*
X120042513Y-91699615D01*
X120040111Y-91724001D01*
X120042513Y-91748387D01*
X120049626Y-91771836D01*
X120061177Y-91793447D01*
X120076723Y-91812389D01*
X120095665Y-91827934D01*
X120117275Y-91839485D01*
X120140724Y-91846598D01*
X120165110Y-91849000D01*
X120526000Y-91849000D01*
X120526000Y-94951000D01*
X120165110Y-94951000D01*
X120140724Y-94953402D01*
X120117275Y-94960515D01*
X120095664Y-94972066D01*
X120076722Y-94987611D01*
X120061177Y-95006553D01*
X120049626Y-95028164D01*
X120042513Y-95051613D01*
X120040111Y-95075999D01*
X120042513Y-95100385D01*
X120049626Y-95123834D01*
X120061177Y-95145445D01*
X120076722Y-95164387D01*
X120095664Y-95179932D01*
X120117272Y-95191481D01*
X120167574Y-95212317D01*
X120167575Y-95212318D01*
X120294669Y-95297239D01*
X120402761Y-95405331D01*
X120487681Y-95532423D01*
X120487683Y-95532426D01*
X120546179Y-95673649D01*
X120576000Y-95823571D01*
X120576000Y-95976429D01*
X120546179Y-96126351D01*
X120487683Y-96267574D01*
X120487681Y-96267577D01*
X120402761Y-96394669D01*
X120294669Y-96502761D01*
X120259889Y-96526000D01*
X120167574Y-96587683D01*
X120026351Y-96646179D01*
X120026350Y-96646179D01*
X120026348Y-96646180D01*
X119876431Y-96676000D01*
X119723569Y-96676000D01*
X119573652Y-96646180D01*
X119573650Y-96646179D01*
X119573649Y-96646179D01*
X119432426Y-96587683D01*
X119340111Y-96526000D01*
X119305331Y-96502761D01*
X119197239Y-96394669D01*
X119112319Y-96267577D01*
X119112317Y-96267574D01*
X119053821Y-96126351D01*
X119024000Y-95976429D01*
X119024000Y-95823571D01*
X119053821Y-95673649D01*
X119112317Y-95532426D01*
X119112319Y-95532423D01*
X119197239Y-95405331D01*
X119305331Y-95297239D01*
X119432425Y-95212318D01*
X119432426Y-95212317D01*
X119482728Y-95191481D01*
X119504336Y-95179932D01*
X119523278Y-95164386D01*
X119538823Y-95145444D01*
X119550374Y-95123834D01*
X119557487Y-95100385D01*
X119559889Y-95075999D01*
X119557487Y-95051613D01*
X119550374Y-95028164D01*
X119538823Y-95006553D01*
X119523277Y-94987611D01*
X119504335Y-94972066D01*
X119482725Y-94960515D01*
X119459276Y-94953402D01*
X119434890Y-94951000D01*
X119074000Y-94951000D01*
X119074000Y-91849000D01*
X119434890Y-91849000D01*
X119459276Y-91846598D01*
X119482725Y-91839485D01*
X119504336Y-91827934D01*
X119523278Y-91812389D01*
X119538823Y-91793447D01*
X119550374Y-91771836D01*
X119557487Y-91748387D01*
X119559889Y-91724001D01*
X119557487Y-91699615D01*
X119550374Y-91676166D01*
X119538823Y-91654555D01*
X119523278Y-91635613D01*
X119504336Y-91620068D01*
X119482728Y-91608519D01*
X119432426Y-91587683D01*
X119353732Y-91535101D01*
X119305331Y-91502761D01*
X119197239Y-91394669D01*
X119112319Y-91267577D01*
X119112317Y-91267574D01*
X119053821Y-91126351D01*
X119024000Y-90976429D01*
X119024000Y-90823571D01*
X119053821Y-90673649D01*
X119112317Y-90532426D01*
X119112319Y-90532423D01*
X119197239Y-90405331D01*
X119305331Y-90297239D01*
X119432423Y-90212319D01*
X119432426Y-90212317D01*
X119573649Y-90153821D01*
X119573650Y-90153821D01*
X119573652Y-90153820D01*
X119723569Y-90124000D01*
X119876431Y-90124000D01*
X120026348Y-90153820D01*
G37*
G36*
X176151000Y-96526000D02*
G01*
X174749000Y-96526000D01*
X174749000Y-95324000D01*
X176151000Y-95324000D01*
X176151000Y-96526000D01*
G37*
G36*
X178251000Y-96526000D02*
G01*
X176849000Y-96526000D01*
X176849000Y-95324000D01*
X178251000Y-95324000D01*
X178251000Y-96526000D01*
G37*
G36*
X118101000Y-95201000D02*
G01*
X116099000Y-95201000D01*
X116099000Y-93599000D01*
X118101000Y-93599000D01*
X118101000Y-95201000D01*
G37*
G36*
X133688674Y-93803465D02*
G01*
X133726367Y-93814899D01*
X133761103Y-93833466D01*
X133791548Y-93858452D01*
X133816534Y-93888897D01*
X133835101Y-93923633D01*
X133846535Y-93961326D01*
X133851000Y-94006661D01*
X133851000Y-94843339D01*
X133846535Y-94888674D01*
X133835101Y-94926367D01*
X133816534Y-94961103D01*
X133791548Y-94991548D01*
X133761103Y-95016534D01*
X133726367Y-95035101D01*
X133688674Y-95046535D01*
X133643339Y-95051000D01*
X132556661Y-95051000D01*
X132511326Y-95046535D01*
X132473633Y-95035101D01*
X132438897Y-95016534D01*
X132408452Y-94991548D01*
X132383466Y-94961103D01*
X132364899Y-94926367D01*
X132353465Y-94888674D01*
X132349000Y-94843339D01*
X132349000Y-94006661D01*
X132353465Y-93961326D01*
X132364899Y-93923633D01*
X132383466Y-93888897D01*
X132408452Y-93858452D01*
X132438897Y-93833466D01*
X132473633Y-93814899D01*
X132511326Y-93803465D01*
X132556661Y-93799000D01*
X133643339Y-93799000D01*
X133688674Y-93803465D01*
G37*
G36*
X153688674Y-93803465D02*
G01*
X153726367Y-93814899D01*
X153761103Y-93833466D01*
X153791548Y-93858452D01*
X153816534Y-93888897D01*
X153835101Y-93923633D01*
X153846535Y-93961326D01*
X153851000Y-94006661D01*
X153851000Y-94843339D01*
X153846535Y-94888674D01*
X153835101Y-94926367D01*
X153816534Y-94961103D01*
X153791548Y-94991548D01*
X153761103Y-95016534D01*
X153726367Y-95035101D01*
X153688674Y-95046535D01*
X153643339Y-95051000D01*
X152556661Y-95051000D01*
X152511326Y-95046535D01*
X152473633Y-95035101D01*
X152438897Y-95016534D01*
X152408452Y-94991548D01*
X152383466Y-94961103D01*
X152364899Y-94926367D01*
X152353465Y-94888674D01*
X152349000Y-94843339D01*
X152349000Y-94006661D01*
X152353465Y-93961326D01*
X152364899Y-93923633D01*
X152383466Y-93888897D01*
X152408452Y-93858452D01*
X152438897Y-93833466D01*
X152473633Y-93814899D01*
X152511326Y-93803465D01*
X152556661Y-93799000D01*
X153643339Y-93799000D01*
X153688674Y-93803465D01*
G37*
G36*
X178251000Y-94876000D02*
G01*
X176849000Y-94876000D01*
X176849000Y-93674000D01*
X178251000Y-93674000D01*
X178251000Y-94876000D01*
G37*
G36*
X176151000Y-94876000D02*
G01*
X174749000Y-94876000D01*
X174749000Y-93674000D01*
X176151000Y-93674000D01*
X176151000Y-94876000D01*
G37*
G36*
X118101000Y-93201000D02*
G01*
X116099000Y-93201000D01*
X116099000Y-91599000D01*
X118101000Y-91599000D01*
X118101000Y-93201000D01*
G37*
G36*
X153688674Y-91753465D02*
G01*
X153726367Y-91764899D01*
X153761103Y-91783466D01*
X153791548Y-91808452D01*
X153816534Y-91838897D01*
X153835101Y-91873633D01*
X153846535Y-91911326D01*
X153851000Y-91956661D01*
X153851000Y-92793339D01*
X153846535Y-92838674D01*
X153835101Y-92876367D01*
X153816534Y-92911103D01*
X153791548Y-92941548D01*
X153761103Y-92966534D01*
X153726367Y-92985101D01*
X153688674Y-92996535D01*
X153643339Y-93001000D01*
X152556661Y-93001000D01*
X152511326Y-92996535D01*
X152473633Y-92985101D01*
X152438897Y-92966534D01*
X152408452Y-92941548D01*
X152383466Y-92911103D01*
X152364899Y-92876367D01*
X152353465Y-92838674D01*
X152349000Y-92793339D01*
X152349000Y-91956661D01*
X152353465Y-91911326D01*
X152364899Y-91873633D01*
X152383466Y-91838897D01*
X152408452Y-91808452D01*
X152438897Y-91783466D01*
X152473633Y-91764899D01*
X152511326Y-91753465D01*
X152556661Y-91749000D01*
X153643339Y-91749000D01*
X153688674Y-91753465D01*
G37*
G36*
X133688674Y-91753465D02*
G01*
X133726367Y-91764899D01*
X133761103Y-91783466D01*
X133791548Y-91808452D01*
X133816534Y-91838897D01*
X133835101Y-91873633D01*
X133846535Y-91911326D01*
X133851000Y-91956661D01*
X133851000Y-92793339D01*
X133846535Y-92838674D01*
X133835101Y-92876367D01*
X133816534Y-92911103D01*
X133791548Y-92941548D01*
X133761103Y-92966534D01*
X133726367Y-92985101D01*
X133688674Y-92996535D01*
X133643339Y-93001000D01*
X132556661Y-93001000D01*
X132511326Y-92996535D01*
X132473633Y-92985101D01*
X132438897Y-92966534D01*
X132408452Y-92941548D01*
X132383466Y-92911103D01*
X132364899Y-92876367D01*
X132353465Y-92838674D01*
X132349000Y-92793339D01*
X132349000Y-91956661D01*
X132353465Y-91911326D01*
X132364899Y-91873633D01*
X132383466Y-91838897D01*
X132408452Y-91808452D01*
X132438897Y-91783466D01*
X132473633Y-91764899D01*
X132511326Y-91753465D01*
X132556661Y-91749000D01*
X133643339Y-91749000D01*
X133688674Y-91753465D01*
G37*
G36*
X144069928Y-89901764D02*
G01*
X144091009Y-89908160D01*
X144110445Y-89918548D01*
X144127476Y-89932524D01*
X144141452Y-89949555D01*
X144151840Y-89968991D01*
X144158236Y-89990072D01*
X144161000Y-90018140D01*
X144161000Y-91831860D01*
X144158236Y-91859928D01*
X144151840Y-91881009D01*
X144141452Y-91900445D01*
X144127476Y-91917476D01*
X144110445Y-91931452D01*
X144091009Y-91941840D01*
X144069928Y-91948236D01*
X144041860Y-91951000D01*
X143578140Y-91951000D01*
X143550072Y-91948236D01*
X143528991Y-91941840D01*
X143509555Y-91931452D01*
X143492524Y-91917476D01*
X143478548Y-91900445D01*
X143468160Y-91881009D01*
X143461764Y-91859928D01*
X143459000Y-91831860D01*
X143459000Y-90018140D01*
X143461764Y-89990072D01*
X143468160Y-89968991D01*
X143478548Y-89949555D01*
X143492524Y-89932524D01*
X143509555Y-89918548D01*
X143528991Y-89908160D01*
X143550072Y-89901764D01*
X143578140Y-89899000D01*
X144041860Y-89899000D01*
X144069928Y-89901764D01*
G37*
G36*
X156449928Y-89901764D02*
G01*
X156471009Y-89908160D01*
X156490445Y-89918548D01*
X156507476Y-89932524D01*
X156521452Y-89949555D01*
X156531840Y-89968991D01*
X156538236Y-89990072D01*
X156541000Y-90018140D01*
X156541000Y-91831860D01*
X156538236Y-91859928D01*
X156531840Y-91881009D01*
X156521452Y-91900445D01*
X156507476Y-91917476D01*
X156490445Y-91931452D01*
X156471009Y-91941840D01*
X156449928Y-91948236D01*
X156421860Y-91951000D01*
X155958140Y-91951000D01*
X155930072Y-91948236D01*
X155908991Y-91941840D01*
X155889555Y-91931452D01*
X155872524Y-91917476D01*
X155858548Y-91900445D01*
X155848160Y-91881009D01*
X155841764Y-91859928D01*
X155839000Y-91831860D01*
X155839000Y-90018140D01*
X155841764Y-89990072D01*
X155848160Y-89968991D01*
X155858548Y-89949555D01*
X155872524Y-89932524D01*
X155889555Y-89918548D01*
X155908991Y-89908160D01*
X155930072Y-89901764D01*
X155958140Y-89899000D01*
X156421860Y-89899000D01*
X156449928Y-89901764D01*
G37*
G36*
X142799928Y-89901764D02*
G01*
X142821009Y-89908160D01*
X142840445Y-89918548D01*
X142857476Y-89932524D01*
X142871452Y-89949555D01*
X142881840Y-89968991D01*
X142888236Y-89990072D01*
X142891000Y-90018140D01*
X142891000Y-91831860D01*
X142888236Y-91859928D01*
X142881840Y-91881009D01*
X142871452Y-91900445D01*
X142857476Y-91917476D01*
X142840445Y-91931452D01*
X142821009Y-91941840D01*
X142799928Y-91948236D01*
X142771860Y-91951000D01*
X142308140Y-91951000D01*
X142280072Y-91948236D01*
X142258991Y-91941840D01*
X142239555Y-91931452D01*
X142222524Y-91917476D01*
X142208548Y-91900445D01*
X142198160Y-91881009D01*
X142191764Y-91859928D01*
X142189000Y-91831860D01*
X142189000Y-90018140D01*
X142191764Y-89990072D01*
X142198160Y-89968991D01*
X142208548Y-89949555D01*
X142222524Y-89932524D01*
X142239555Y-89918548D01*
X142258991Y-89908160D01*
X142280072Y-89901764D01*
X142308140Y-89899000D01*
X142771860Y-89899000D01*
X142799928Y-89901764D01*
G37*
G36*
X141529928Y-89901764D02*
G01*
X141551009Y-89908160D01*
X141570445Y-89918548D01*
X141587476Y-89932524D01*
X141601452Y-89949555D01*
X141611840Y-89968991D01*
X141618236Y-89990072D01*
X141621000Y-90018140D01*
X141621000Y-91831860D01*
X141618236Y-91859928D01*
X141611840Y-91881009D01*
X141601452Y-91900445D01*
X141587476Y-91917476D01*
X141570445Y-91931452D01*
X141551009Y-91941840D01*
X141529928Y-91948236D01*
X141501860Y-91951000D01*
X141038140Y-91951000D01*
X141010072Y-91948236D01*
X140988991Y-91941840D01*
X140969555Y-91931452D01*
X140952524Y-91917476D01*
X140938548Y-91900445D01*
X140928160Y-91881009D01*
X140921764Y-91859928D01*
X140919000Y-91831860D01*
X140919000Y-90018140D01*
X140921764Y-89990072D01*
X140928160Y-89968991D01*
X140938548Y-89949555D01*
X140952524Y-89932524D01*
X140969555Y-89918548D01*
X140988991Y-89908160D01*
X141010072Y-89901764D01*
X141038140Y-89899000D01*
X141501860Y-89899000D01*
X141529928Y-89901764D01*
G37*
G36*
X140259928Y-89901764D02*
G01*
X140281009Y-89908160D01*
X140300445Y-89918548D01*
X140317476Y-89932524D01*
X140331452Y-89949555D01*
X140341840Y-89968991D01*
X140348236Y-89990072D01*
X140351000Y-90018140D01*
X140351000Y-91831860D01*
X140348236Y-91859928D01*
X140341840Y-91881009D01*
X140331452Y-91900445D01*
X140317476Y-91917476D01*
X140300445Y-91931452D01*
X140281009Y-91941840D01*
X140259928Y-91948236D01*
X140231860Y-91951000D01*
X139768140Y-91951000D01*
X139740072Y-91948236D01*
X139718991Y-91941840D01*
X139699555Y-91931452D01*
X139682524Y-91917476D01*
X139668548Y-91900445D01*
X139658160Y-91881009D01*
X139651764Y-91859928D01*
X139649000Y-91831860D01*
X139649000Y-90018140D01*
X139651764Y-89990072D01*
X139658160Y-89968991D01*
X139668548Y-89949555D01*
X139682524Y-89932524D01*
X139699555Y-89918548D01*
X139718991Y-89908160D01*
X139740072Y-89901764D01*
X139768140Y-89899000D01*
X140231860Y-89899000D01*
X140259928Y-89901764D01*
G37*
G36*
X138989928Y-89901764D02*
G01*
X139011009Y-89908160D01*
X139030445Y-89918548D01*
X139047476Y-89932524D01*
X139061452Y-89949555D01*
X139071840Y-89968991D01*
X139078236Y-89990072D01*
X139081000Y-90018140D01*
X139081000Y-91831860D01*
X139078236Y-91859928D01*
X139071840Y-91881009D01*
X139061452Y-91900445D01*
X139047476Y-91917476D01*
X139030445Y-91931452D01*
X139011009Y-91941840D01*
X138989928Y-91948236D01*
X138961860Y-91951000D01*
X138498140Y-91951000D01*
X138470072Y-91948236D01*
X138448991Y-91941840D01*
X138429555Y-91931452D01*
X138412524Y-91917476D01*
X138398548Y-91900445D01*
X138388160Y-91881009D01*
X138381764Y-91859928D01*
X138379000Y-91831860D01*
X138379000Y-90018140D01*
X138381764Y-89990072D01*
X138388160Y-89968991D01*
X138398548Y-89949555D01*
X138412524Y-89932524D01*
X138429555Y-89918548D01*
X138448991Y-89908160D01*
X138470072Y-89901764D01*
X138498140Y-89899000D01*
X138961860Y-89899000D01*
X138989928Y-89901764D01*
G37*
G36*
X137719928Y-89901764D02*
G01*
X137741009Y-89908160D01*
X137760445Y-89918548D01*
X137777476Y-89932524D01*
X137791452Y-89949555D01*
X137801840Y-89968991D01*
X137808236Y-89990072D01*
X137811000Y-90018140D01*
X137811000Y-91831860D01*
X137808236Y-91859928D01*
X137801840Y-91881009D01*
X137791452Y-91900445D01*
X137777476Y-91917476D01*
X137760445Y-91931452D01*
X137741009Y-91941840D01*
X137719928Y-91948236D01*
X137691860Y-91951000D01*
X137228140Y-91951000D01*
X137200072Y-91948236D01*
X137178991Y-91941840D01*
X137159555Y-91931452D01*
X137142524Y-91917476D01*
X137128548Y-91900445D01*
X137118160Y-91881009D01*
X137111764Y-91859928D01*
X137109000Y-91831860D01*
X137109000Y-90018140D01*
X137111764Y-89990072D01*
X137118160Y-89968991D01*
X137128548Y-89949555D01*
X137142524Y-89932524D01*
X137159555Y-89918548D01*
X137178991Y-89908160D01*
X137200072Y-89901764D01*
X137228140Y-89899000D01*
X137691860Y-89899000D01*
X137719928Y-89901764D01*
G37*
G36*
X160259928Y-89901764D02*
G01*
X160281009Y-89908160D01*
X160300445Y-89918548D01*
X160317476Y-89932524D01*
X160331452Y-89949555D01*
X160341840Y-89968991D01*
X160348236Y-89990072D01*
X160351000Y-90018140D01*
X160351000Y-91831860D01*
X160348236Y-91859928D01*
X160341840Y-91881009D01*
X160331452Y-91900445D01*
X160317476Y-91917476D01*
X160300445Y-91931452D01*
X160281009Y-91941840D01*
X160259928Y-91948236D01*
X160231860Y-91951000D01*
X159768140Y-91951000D01*
X159740072Y-91948236D01*
X159718991Y-91941840D01*
X159699555Y-91931452D01*
X159682524Y-91917476D01*
X159668548Y-91900445D01*
X159658160Y-91881009D01*
X159651764Y-91859928D01*
X159649000Y-91831860D01*
X159649000Y-90018140D01*
X159651764Y-89990072D01*
X159658160Y-89968991D01*
X159668548Y-89949555D01*
X159682524Y-89932524D01*
X159699555Y-89918548D01*
X159718991Y-89908160D01*
X159740072Y-89901764D01*
X159768140Y-89899000D01*
X160231860Y-89899000D01*
X160259928Y-89901764D01*
G37*
G36*
X161529928Y-89901764D02*
G01*
X161551009Y-89908160D01*
X161570445Y-89918548D01*
X161587476Y-89932524D01*
X161601452Y-89949555D01*
X161611840Y-89968991D01*
X161618236Y-89990072D01*
X161621000Y-90018140D01*
X161621000Y-91831860D01*
X161618236Y-91859928D01*
X161611840Y-91881009D01*
X161601452Y-91900445D01*
X161587476Y-91917476D01*
X161570445Y-91931452D01*
X161551009Y-91941840D01*
X161529928Y-91948236D01*
X161501860Y-91951000D01*
X161038140Y-91951000D01*
X161010072Y-91948236D01*
X160988991Y-91941840D01*
X160969555Y-91931452D01*
X160952524Y-91917476D01*
X160938548Y-91900445D01*
X160928160Y-91881009D01*
X160921764Y-91859928D01*
X160919000Y-91831860D01*
X160919000Y-90018140D01*
X160921764Y-89990072D01*
X160928160Y-89968991D01*
X160938548Y-89949555D01*
X160952524Y-89932524D01*
X160969555Y-89918548D01*
X160988991Y-89908160D01*
X161010072Y-89901764D01*
X161038140Y-89899000D01*
X161501860Y-89899000D01*
X161529928Y-89901764D01*
G37*
G36*
X162799928Y-89901764D02*
G01*
X162821009Y-89908160D01*
X162840445Y-89918548D01*
X162857476Y-89932524D01*
X162871452Y-89949555D01*
X162881840Y-89968991D01*
X162888236Y-89990072D01*
X162891000Y-90018140D01*
X162891000Y-91831860D01*
X162888236Y-91859928D01*
X162881840Y-91881009D01*
X162871452Y-91900445D01*
X162857476Y-91917476D01*
X162840445Y-91931452D01*
X162821009Y-91941840D01*
X162799928Y-91948236D01*
X162771860Y-91951000D01*
X162308140Y-91951000D01*
X162280072Y-91948236D01*
X162258991Y-91941840D01*
X162239555Y-91931452D01*
X162222524Y-91917476D01*
X162208548Y-91900445D01*
X162198160Y-91881009D01*
X162191764Y-91859928D01*
X162189000Y-91831860D01*
X162189000Y-90018140D01*
X162191764Y-89990072D01*
X162198160Y-89968991D01*
X162208548Y-89949555D01*
X162222524Y-89932524D01*
X162239555Y-89918548D01*
X162258991Y-89908160D01*
X162280072Y-89901764D01*
X162308140Y-89899000D01*
X162771860Y-89899000D01*
X162799928Y-89901764D01*
G37*
G36*
X136449928Y-89901764D02*
G01*
X136471009Y-89908160D01*
X136490445Y-89918548D01*
X136507476Y-89932524D01*
X136521452Y-89949555D01*
X136531840Y-89968991D01*
X136538236Y-89990072D01*
X136541000Y-90018140D01*
X136541000Y-91831860D01*
X136538236Y-91859928D01*
X136531840Y-91881009D01*
X136521452Y-91900445D01*
X136507476Y-91917476D01*
X136490445Y-91931452D01*
X136471009Y-91941840D01*
X136449928Y-91948236D01*
X136421860Y-91951000D01*
X135958140Y-91951000D01*
X135930072Y-91948236D01*
X135908991Y-91941840D01*
X135889555Y-91931452D01*
X135872524Y-91917476D01*
X135858548Y-91900445D01*
X135848160Y-91881009D01*
X135841764Y-91859928D01*
X135839000Y-91831860D01*
X135839000Y-90018140D01*
X135841764Y-89990072D01*
X135848160Y-89968991D01*
X135858548Y-89949555D01*
X135872524Y-89932524D01*
X135889555Y-89918548D01*
X135908991Y-89908160D01*
X135930072Y-89901764D01*
X135958140Y-89899000D01*
X136421860Y-89899000D01*
X136449928Y-89901764D01*
G37*
G36*
X164069928Y-89901764D02*
G01*
X164091009Y-89908160D01*
X164110445Y-89918548D01*
X164127476Y-89932524D01*
X164141452Y-89949555D01*
X164151840Y-89968991D01*
X164158236Y-89990072D01*
X164161000Y-90018140D01*
X164161000Y-91831860D01*
X164158236Y-91859928D01*
X164151840Y-91881009D01*
X164141452Y-91900445D01*
X164127476Y-91917476D01*
X164110445Y-91931452D01*
X164091009Y-91941840D01*
X164069928Y-91948236D01*
X164041860Y-91951000D01*
X163578140Y-91951000D01*
X163550072Y-91948236D01*
X163528991Y-91941840D01*
X163509555Y-91931452D01*
X163492524Y-91917476D01*
X163478548Y-91900445D01*
X163468160Y-91881009D01*
X163461764Y-91859928D01*
X163459000Y-91831860D01*
X163459000Y-90018140D01*
X163461764Y-89990072D01*
X163468160Y-89968991D01*
X163478548Y-89949555D01*
X163492524Y-89932524D01*
X163509555Y-89918548D01*
X163528991Y-89908160D01*
X163550072Y-89901764D01*
X163578140Y-89899000D01*
X164041860Y-89899000D01*
X164069928Y-89901764D01*
G37*
G36*
X157719928Y-89901764D02*
G01*
X157741009Y-89908160D01*
X157760445Y-89918548D01*
X157777476Y-89932524D01*
X157791452Y-89949555D01*
X157801840Y-89968991D01*
X157808236Y-89990072D01*
X157811000Y-90018140D01*
X157811000Y-91831860D01*
X157808236Y-91859928D01*
X157801840Y-91881009D01*
X157791452Y-91900445D01*
X157777476Y-91917476D01*
X157760445Y-91931452D01*
X157741009Y-91941840D01*
X157719928Y-91948236D01*
X157691860Y-91951000D01*
X157228140Y-91951000D01*
X157200072Y-91948236D01*
X157178991Y-91941840D01*
X157159555Y-91931452D01*
X157142524Y-91917476D01*
X157128548Y-91900445D01*
X157118160Y-91881009D01*
X157111764Y-91859928D01*
X157109000Y-91831860D01*
X157109000Y-90018140D01*
X157111764Y-89990072D01*
X157118160Y-89968991D01*
X157128548Y-89949555D01*
X157142524Y-89932524D01*
X157159555Y-89918548D01*
X157178991Y-89908160D01*
X157200072Y-89901764D01*
X157228140Y-89899000D01*
X157691860Y-89899000D01*
X157719928Y-89901764D01*
G37*
G36*
X158989928Y-89901764D02*
G01*
X159011009Y-89908160D01*
X159030445Y-89918548D01*
X159047476Y-89932524D01*
X159061452Y-89949555D01*
X159071840Y-89968991D01*
X159078236Y-89990072D01*
X159081000Y-90018140D01*
X159081000Y-91831860D01*
X159078236Y-91859928D01*
X159071840Y-91881009D01*
X159061452Y-91900445D01*
X159047476Y-91917476D01*
X159030445Y-91931452D01*
X159011009Y-91941840D01*
X158989928Y-91948236D01*
X158961860Y-91951000D01*
X158498140Y-91951000D01*
X158470072Y-91948236D01*
X158448991Y-91941840D01*
X158429555Y-91931452D01*
X158412524Y-91917476D01*
X158398548Y-91900445D01*
X158388160Y-91881009D01*
X158381764Y-91859928D01*
X158379000Y-91831860D01*
X158379000Y-90018140D01*
X158381764Y-89990072D01*
X158388160Y-89968991D01*
X158398548Y-89949555D01*
X158412524Y-89932524D01*
X158429555Y-89918548D01*
X158448991Y-89908160D01*
X158470072Y-89901764D01*
X158498140Y-89899000D01*
X158961860Y-89899000D01*
X158989928Y-89901764D01*
G37*
G36*
X175938674Y-90053465D02*
G01*
X175976367Y-90064899D01*
X176011103Y-90083466D01*
X176041548Y-90108452D01*
X176066534Y-90138897D01*
X176085101Y-90173633D01*
X176096535Y-90211326D01*
X176101000Y-90256661D01*
X176101000Y-91343339D01*
X176096535Y-91388674D01*
X176085101Y-91426367D01*
X176066534Y-91461103D01*
X176041548Y-91491548D01*
X176011103Y-91516534D01*
X175976367Y-91535101D01*
X175938674Y-91546535D01*
X175893339Y-91551000D01*
X175056661Y-91551000D01*
X175011326Y-91546535D01*
X174973633Y-91535101D01*
X174938897Y-91516534D01*
X174908452Y-91491548D01*
X174883466Y-91461103D01*
X174864899Y-91426367D01*
X174853465Y-91388674D01*
X174849000Y-91343339D01*
X174849000Y-90256661D01*
X174853465Y-90211326D01*
X174864899Y-90173633D01*
X174883466Y-90138897D01*
X174908452Y-90108452D01*
X174938897Y-90083466D01*
X174973633Y-90064899D01*
X175011326Y-90053465D01*
X175056661Y-90049000D01*
X175893339Y-90049000D01*
X175938674Y-90053465D01*
G37*
G36*
X177988674Y-90053465D02*
G01*
X178026367Y-90064899D01*
X178061103Y-90083466D01*
X178091548Y-90108452D01*
X178116534Y-90138897D01*
X178135101Y-90173633D01*
X178146535Y-90211326D01*
X178151000Y-90256661D01*
X178151000Y-91343339D01*
X178146535Y-91388674D01*
X178135101Y-91426367D01*
X178116534Y-91461103D01*
X178091548Y-91491548D01*
X178061103Y-91516534D01*
X178026367Y-91535101D01*
X177988674Y-91546535D01*
X177943339Y-91551000D01*
X177106661Y-91551000D01*
X177061326Y-91546535D01*
X177023633Y-91535101D01*
X176988897Y-91516534D01*
X176958452Y-91491548D01*
X176933466Y-91461103D01*
X176914899Y-91426367D01*
X176903465Y-91388674D01*
X176899000Y-91343339D01*
X176899000Y-90256661D01*
X176903465Y-90211326D01*
X176914899Y-90173633D01*
X176933466Y-90138897D01*
X176958452Y-90108452D01*
X176988897Y-90083466D01*
X177023633Y-90064899D01*
X177061326Y-90053465D01*
X177106661Y-90049000D01*
X177943339Y-90049000D01*
X177988674Y-90053465D01*
G37*
G36*
X117513855Y-89252140D02*
G01*
X117577618Y-89258420D01*
X117668404Y-89285960D01*
X117700336Y-89295646D01*
X117813425Y-89356094D01*
X117912554Y-89437446D01*
X117993906Y-89536575D01*
X118054354Y-89649664D01*
X118054355Y-89649668D01*
X118087913Y-89760292D01*
X118097287Y-89782925D01*
X118101000Y-89788482D01*
X118101000Y-89861886D01*
X118101602Y-89874138D01*
X118104149Y-89900000D01*
X118101602Y-89925862D01*
X118101000Y-89938114D01*
X118101000Y-91151000D01*
X116099000Y-91151000D01*
X116099000Y-89938114D01*
X116098398Y-89925862D01*
X116095851Y-89900000D01*
X116098398Y-89874138D01*
X116099000Y-89861886D01*
X116099000Y-89788594D01*
X116107957Y-89771836D01*
X116112085Y-89760299D01*
X116145645Y-89649668D01*
X116145646Y-89649664D01*
X116206094Y-89536575D01*
X116287446Y-89437446D01*
X116386575Y-89356094D01*
X116499664Y-89295646D01*
X116531596Y-89285960D01*
X116622382Y-89258420D01*
X116686145Y-89252140D01*
X116718026Y-89249000D01*
X117481974Y-89249000D01*
X117513855Y-89252140D01*
G37*
G36*
X125751000Y-84201000D02*
G01*
X121849000Y-84201000D01*
X121849000Y-82099000D01*
X125751000Y-82099000D01*
X125751000Y-84201000D01*
G37*
G36*
X158989928Y-81451764D02*
G01*
X159011009Y-81458160D01*
X159030445Y-81468548D01*
X159047476Y-81482524D01*
X159061452Y-81499555D01*
X159071840Y-81518991D01*
X159078236Y-81540072D01*
X159081000Y-81568140D01*
X159081000Y-83381860D01*
X159078236Y-83409928D01*
X159071840Y-83431009D01*
X159061452Y-83450445D01*
X159047476Y-83467476D01*
X159030445Y-83481452D01*
X159011009Y-83491840D01*
X158989928Y-83498236D01*
X158961860Y-83501000D01*
X158498140Y-83501000D01*
X158470072Y-83498236D01*
X158448991Y-83491840D01*
X158429555Y-83481452D01*
X158412524Y-83467476D01*
X158398548Y-83450445D01*
X158388160Y-83431009D01*
X158381764Y-83409928D01*
X158379000Y-83381860D01*
X158379000Y-81568140D01*
X158381764Y-81540072D01*
X158388160Y-81518991D01*
X158398548Y-81499555D01*
X158412524Y-81482524D01*
X158429555Y-81468548D01*
X158448991Y-81458160D01*
X158470072Y-81451764D01*
X158498140Y-81449000D01*
X158961860Y-81449000D01*
X158989928Y-81451764D01*
G37*
G36*
X157719928Y-81451764D02*
G01*
X157741009Y-81458160D01*
X157760445Y-81468548D01*
X157777476Y-81482524D01*
X157791452Y-81499555D01*
X157801840Y-81518991D01*
X157808236Y-81540072D01*
X157811000Y-81568140D01*
X157811000Y-83381860D01*
X157808236Y-83409928D01*
X157801840Y-83431009D01*
X157791452Y-83450445D01*
X157777476Y-83467476D01*
X157760445Y-83481452D01*
X157741009Y-83491840D01*
X157719928Y-83498236D01*
X157691860Y-83501000D01*
X157228140Y-83501000D01*
X157200072Y-83498236D01*
X157178991Y-83491840D01*
X157159555Y-83481452D01*
X157142524Y-83467476D01*
X157128548Y-83450445D01*
X157118160Y-83431009D01*
X157111764Y-83409928D01*
X157109000Y-83381860D01*
X157109000Y-81568140D01*
X157111764Y-81540072D01*
X157118160Y-81518991D01*
X157128548Y-81499555D01*
X157142524Y-81482524D01*
X157159555Y-81468548D01*
X157178991Y-81458160D01*
X157200072Y-81451764D01*
X157228140Y-81449000D01*
X157691860Y-81449000D01*
X157719928Y-81451764D01*
G37*
G36*
X156449928Y-81451764D02*
G01*
X156471009Y-81458160D01*
X156490445Y-81468548D01*
X156507476Y-81482524D01*
X156521452Y-81499555D01*
X156531840Y-81518991D01*
X156538236Y-81540072D01*
X156541000Y-81568140D01*
X156541000Y-83381860D01*
X156538236Y-83409928D01*
X156531840Y-83431009D01*
X156521452Y-83450445D01*
X156507476Y-83467476D01*
X156490445Y-83481452D01*
X156471009Y-83491840D01*
X156449928Y-83498236D01*
X156421860Y-83501000D01*
X155958140Y-83501000D01*
X155930072Y-83498236D01*
X155908991Y-83491840D01*
X155889555Y-83481452D01*
X155872524Y-83467476D01*
X155858548Y-83450445D01*
X155848160Y-83431009D01*
X155841764Y-83409928D01*
X155839000Y-83381860D01*
X155839000Y-81568140D01*
X155841764Y-81540072D01*
X155848160Y-81518991D01*
X155858548Y-81499555D01*
X155872524Y-81482524D01*
X155889555Y-81468548D01*
X155908991Y-81458160D01*
X155930072Y-81451764D01*
X155958140Y-81449000D01*
X156421860Y-81449000D01*
X156449928Y-81451764D01*
G37*
G36*
X144069928Y-81451764D02*
G01*
X144091009Y-81458160D01*
X144110445Y-81468548D01*
X144127476Y-81482524D01*
X144141452Y-81499555D01*
X144151840Y-81518991D01*
X144158236Y-81540072D01*
X144161000Y-81568140D01*
X144161000Y-83381860D01*
X144158236Y-83409928D01*
X144151840Y-83431009D01*
X144141452Y-83450445D01*
X144127476Y-83467476D01*
X144110445Y-83481452D01*
X144091009Y-83491840D01*
X144069928Y-83498236D01*
X144041860Y-83501000D01*
X143578140Y-83501000D01*
X143550072Y-83498236D01*
X143528991Y-83491840D01*
X143509555Y-83481452D01*
X143492524Y-83467476D01*
X143478548Y-83450445D01*
X143468160Y-83431009D01*
X143461764Y-83409928D01*
X143459000Y-83381860D01*
X143459000Y-81568140D01*
X143461764Y-81540072D01*
X143468160Y-81518991D01*
X143478548Y-81499555D01*
X143492524Y-81482524D01*
X143509555Y-81468548D01*
X143528991Y-81458160D01*
X143550072Y-81451764D01*
X143578140Y-81449000D01*
X144041860Y-81449000D01*
X144069928Y-81451764D01*
G37*
G36*
X142799928Y-81451764D02*
G01*
X142821009Y-81458160D01*
X142840445Y-81468548D01*
X142857476Y-81482524D01*
X142871452Y-81499555D01*
X142881840Y-81518991D01*
X142888236Y-81540072D01*
X142891000Y-81568140D01*
X142891000Y-83381860D01*
X142888236Y-83409928D01*
X142881840Y-83431009D01*
X142871452Y-83450445D01*
X142857476Y-83467476D01*
X142840445Y-83481452D01*
X142821009Y-83491840D01*
X142799928Y-83498236D01*
X142771860Y-83501000D01*
X142308140Y-83501000D01*
X142280072Y-83498236D01*
X142258991Y-83491840D01*
X142239555Y-83481452D01*
X142222524Y-83467476D01*
X142208548Y-83450445D01*
X142198160Y-83431009D01*
X142191764Y-83409928D01*
X142189000Y-83381860D01*
X142189000Y-81568140D01*
X142191764Y-81540072D01*
X142198160Y-81518991D01*
X142208548Y-81499555D01*
X142222524Y-81482524D01*
X142239555Y-81468548D01*
X142258991Y-81458160D01*
X142280072Y-81451764D01*
X142308140Y-81449000D01*
X142771860Y-81449000D01*
X142799928Y-81451764D01*
G37*
G36*
X141529928Y-81451764D02*
G01*
X141551009Y-81458160D01*
X141570445Y-81468548D01*
X141587476Y-81482524D01*
X141601452Y-81499555D01*
X141611840Y-81518991D01*
X141618236Y-81540072D01*
X141621000Y-81568140D01*
X141621000Y-83381860D01*
X141618236Y-83409928D01*
X141611840Y-83431009D01*
X141601452Y-83450445D01*
X141587476Y-83467476D01*
X141570445Y-83481452D01*
X141551009Y-83491840D01*
X141529928Y-83498236D01*
X141501860Y-83501000D01*
X141038140Y-83501000D01*
X141010072Y-83498236D01*
X140988991Y-83491840D01*
X140969555Y-83481452D01*
X140952524Y-83467476D01*
X140938548Y-83450445D01*
X140928160Y-83431009D01*
X140921764Y-83409928D01*
X140919000Y-83381860D01*
X140919000Y-81568140D01*
X140921764Y-81540072D01*
X140928160Y-81518991D01*
X140938548Y-81499555D01*
X140952524Y-81482524D01*
X140969555Y-81468548D01*
X140988991Y-81458160D01*
X141010072Y-81451764D01*
X141038140Y-81449000D01*
X141501860Y-81449000D01*
X141529928Y-81451764D01*
G37*
G36*
X140259928Y-81451764D02*
G01*
X140281009Y-81458160D01*
X140300445Y-81468548D01*
X140317476Y-81482524D01*
X140331452Y-81499555D01*
X140341840Y-81518991D01*
X140348236Y-81540072D01*
X140351000Y-81568140D01*
X140351000Y-83381860D01*
X140348236Y-83409928D01*
X140341840Y-83431009D01*
X140331452Y-83450445D01*
X140317476Y-83467476D01*
X140300445Y-83481452D01*
X140281009Y-83491840D01*
X140259928Y-83498236D01*
X140231860Y-83501000D01*
X139768140Y-83501000D01*
X139740072Y-83498236D01*
X139718991Y-83491840D01*
X139699555Y-83481452D01*
X139682524Y-83467476D01*
X139668548Y-83450445D01*
X139658160Y-83431009D01*
X139651764Y-83409928D01*
X139649000Y-83381860D01*
X139649000Y-81568140D01*
X139651764Y-81540072D01*
X139658160Y-81518991D01*
X139668548Y-81499555D01*
X139682524Y-81482524D01*
X139699555Y-81468548D01*
X139718991Y-81458160D01*
X139740072Y-81451764D01*
X139768140Y-81449000D01*
X140231860Y-81449000D01*
X140259928Y-81451764D01*
G37*
G36*
X137719928Y-81451764D02*
G01*
X137741009Y-81458160D01*
X137760445Y-81468548D01*
X137777476Y-81482524D01*
X137791452Y-81499555D01*
X137801840Y-81518991D01*
X137808236Y-81540072D01*
X137811000Y-81568140D01*
X137811000Y-83381860D01*
X137808236Y-83409928D01*
X137801840Y-83431009D01*
X137791452Y-83450445D01*
X137777476Y-83467476D01*
X137760445Y-83481452D01*
X137741009Y-83491840D01*
X137719928Y-83498236D01*
X137691860Y-83501000D01*
X137228140Y-83501000D01*
X137200072Y-83498236D01*
X137178991Y-83491840D01*
X137159555Y-83481452D01*
X137142524Y-83467476D01*
X137128548Y-83450445D01*
X137118160Y-83431009D01*
X137111764Y-83409928D01*
X137109000Y-83381860D01*
X137109000Y-81568140D01*
X137111764Y-81540072D01*
X137118160Y-81518991D01*
X137128548Y-81499555D01*
X137142524Y-81482524D01*
X137159555Y-81468548D01*
X137178991Y-81458160D01*
X137200072Y-81451764D01*
X137228140Y-81449000D01*
X137691860Y-81449000D01*
X137719928Y-81451764D01*
G37*
G36*
X136449928Y-81451764D02*
G01*
X136471009Y-81458160D01*
X136490445Y-81468548D01*
X136507476Y-81482524D01*
X136521452Y-81499555D01*
X136531840Y-81518991D01*
X136538236Y-81540072D01*
X136541000Y-81568140D01*
X136541000Y-83381860D01*
X136538236Y-83409928D01*
X136531840Y-83431009D01*
X136521452Y-83450445D01*
X136507476Y-83467476D01*
X136490445Y-83481452D01*
X136471009Y-83491840D01*
X136449928Y-83498236D01*
X136421860Y-83501000D01*
X135958140Y-83501000D01*
X135930072Y-83498236D01*
X135908991Y-83491840D01*
X135889555Y-83481452D01*
X135872524Y-83467476D01*
X135858548Y-83450445D01*
X135848160Y-83431009D01*
X135841764Y-83409928D01*
X135839000Y-83381860D01*
X135839000Y-81568140D01*
X135841764Y-81540072D01*
X135848160Y-81518991D01*
X135858548Y-81499555D01*
X135872524Y-81482524D01*
X135889555Y-81468548D01*
X135908991Y-81458160D01*
X135930072Y-81451764D01*
X135958140Y-81449000D01*
X136421860Y-81449000D01*
X136449928Y-81451764D01*
G37*
G36*
X161529928Y-81451764D02*
G01*
X161551009Y-81458160D01*
X161570445Y-81468548D01*
X161587476Y-81482524D01*
X161601452Y-81499555D01*
X161611840Y-81518991D01*
X161618236Y-81540072D01*
X161621000Y-81568140D01*
X161621000Y-83381860D01*
X161618236Y-83409928D01*
X161611840Y-83431009D01*
X161601452Y-83450445D01*
X161587476Y-83467476D01*
X161570445Y-83481452D01*
X161551009Y-83491840D01*
X161529928Y-83498236D01*
X161501860Y-83501000D01*
X161038140Y-83501000D01*
X161010072Y-83498236D01*
X160988991Y-83491840D01*
X160969555Y-83481452D01*
X160952524Y-83467476D01*
X160938548Y-83450445D01*
X160928160Y-83431009D01*
X160921764Y-83409928D01*
X160919000Y-83381860D01*
X160919000Y-81568140D01*
X160921764Y-81540072D01*
X160928160Y-81518991D01*
X160938548Y-81499555D01*
X160952524Y-81482524D01*
X160969555Y-81468548D01*
X160988991Y-81458160D01*
X161010072Y-81451764D01*
X161038140Y-81449000D01*
X161501860Y-81449000D01*
X161529928Y-81451764D01*
G37*
G36*
X160259928Y-81451764D02*
G01*
X160281009Y-81458160D01*
X160300445Y-81468548D01*
X160317476Y-81482524D01*
X160331452Y-81499555D01*
X160341840Y-81518991D01*
X160348236Y-81540072D01*
X160351000Y-81568140D01*
X160351000Y-83381860D01*
X160348236Y-83409928D01*
X160341840Y-83431009D01*
X160331452Y-83450445D01*
X160317476Y-83467476D01*
X160300445Y-83481452D01*
X160281009Y-83491840D01*
X160259928Y-83498236D01*
X160231860Y-83501000D01*
X159768140Y-83501000D01*
X159740072Y-83498236D01*
X159718991Y-83491840D01*
X159699555Y-83481452D01*
X159682524Y-83467476D01*
X159668548Y-83450445D01*
X159658160Y-83431009D01*
X159651764Y-83409928D01*
X159649000Y-83381860D01*
X159649000Y-81568140D01*
X159651764Y-81540072D01*
X159658160Y-81518991D01*
X159668548Y-81499555D01*
X159682524Y-81482524D01*
X159699555Y-81468548D01*
X159718991Y-81458160D01*
X159740072Y-81451764D01*
X159768140Y-81449000D01*
X160231860Y-81449000D01*
X160259928Y-81451764D01*
G37*
G36*
X162799928Y-81451764D02*
G01*
X162821009Y-81458160D01*
X162840445Y-81468548D01*
X162857476Y-81482524D01*
X162871452Y-81499555D01*
X162881840Y-81518991D01*
X162888236Y-81540072D01*
X162891000Y-81568140D01*
X162891000Y-83381860D01*
X162888236Y-83409928D01*
X162881840Y-83431009D01*
X162871452Y-83450445D01*
X162857476Y-83467476D01*
X162840445Y-83481452D01*
X162821009Y-83491840D01*
X162799928Y-83498236D01*
X162771860Y-83501000D01*
X162308140Y-83501000D01*
X162280072Y-83498236D01*
X162258991Y-83491840D01*
X162239555Y-83481452D01*
X162222524Y-83467476D01*
X162208548Y-83450445D01*
X162198160Y-83431009D01*
X162191764Y-83409928D01*
X162189000Y-83381860D01*
X162189000Y-81568140D01*
X162191764Y-81540072D01*
X162198160Y-81518991D01*
X162208548Y-81499555D01*
X162222524Y-81482524D01*
X162239555Y-81468548D01*
X162258991Y-81458160D01*
X162280072Y-81451764D01*
X162308140Y-81449000D01*
X162771860Y-81449000D01*
X162799928Y-81451764D01*
G37*
G36*
X164069928Y-81451764D02*
G01*
X164091009Y-81458160D01*
X164110445Y-81468548D01*
X164127476Y-81482524D01*
X164141452Y-81499555D01*
X164151840Y-81518991D01*
X164158236Y-81540072D01*
X164161000Y-81568140D01*
X164161000Y-83381860D01*
X164158236Y-83409928D01*
X164151840Y-83431009D01*
X164141452Y-83450445D01*
X164127476Y-83467476D01*
X164110445Y-83481452D01*
X164091009Y-83491840D01*
X164069928Y-83498236D01*
X164041860Y-83501000D01*
X163578140Y-83501000D01*
X163550072Y-83498236D01*
X163528991Y-83491840D01*
X163509555Y-83481452D01*
X163492524Y-83467476D01*
X163478548Y-83450445D01*
X163468160Y-83431009D01*
X163461764Y-83409928D01*
X163459000Y-83381860D01*
X163459000Y-81568140D01*
X163461764Y-81540072D01*
X163468160Y-81518991D01*
X163478548Y-81499555D01*
X163492524Y-81482524D01*
X163509555Y-81468548D01*
X163528991Y-81458160D01*
X163550072Y-81451764D01*
X163578140Y-81449000D01*
X164041860Y-81449000D01*
X164069928Y-81451764D01*
G37*
G36*
X138989928Y-81451764D02*
G01*
X139011009Y-81458160D01*
X139030445Y-81468548D01*
X139047476Y-81482524D01*
X139061452Y-81499555D01*
X139071840Y-81518991D01*
X139078236Y-81540072D01*
X139081000Y-81568140D01*
X139081000Y-83381860D01*
X139078236Y-83409928D01*
X139071840Y-83431009D01*
X139061452Y-83450445D01*
X139047476Y-83467476D01*
X139030445Y-83481452D01*
X139011009Y-83491840D01*
X138989928Y-83498236D01*
X138961860Y-83501000D01*
X138498140Y-83501000D01*
X138470072Y-83498236D01*
X138448991Y-83491840D01*
X138429555Y-83481452D01*
X138412524Y-83467476D01*
X138398548Y-83450445D01*
X138388160Y-83431009D01*
X138381764Y-83409928D01*
X138379000Y-83381860D01*
X138379000Y-81568140D01*
X138381764Y-81540072D01*
X138388160Y-81518991D01*
X138398548Y-81499555D01*
X138412524Y-81482524D01*
X138429555Y-81468548D01*
X138448991Y-81458160D01*
X138470072Y-81451764D01*
X138498140Y-81449000D01*
X138961860Y-81449000D01*
X138989928Y-81451764D01*
G37*
G36*
X147488674Y-80403465D02*
G01*
X147526367Y-80414899D01*
X147561103Y-80433466D01*
X147591548Y-80458452D01*
X147616534Y-80488897D01*
X147635101Y-80523633D01*
X147646535Y-80561326D01*
X147651000Y-80606661D01*
X147651000Y-81443339D01*
X147646535Y-81488674D01*
X147635101Y-81526367D01*
X147616534Y-81561103D01*
X147591548Y-81591548D01*
X147561103Y-81616534D01*
X147526367Y-81635101D01*
X147488674Y-81646535D01*
X147443339Y-81651000D01*
X146356661Y-81651000D01*
X146311326Y-81646535D01*
X146273633Y-81635101D01*
X146238897Y-81616534D01*
X146208452Y-81591548D01*
X146183466Y-81561103D01*
X146164899Y-81526367D01*
X146153465Y-81488674D01*
X146149000Y-81443339D01*
X146149000Y-80606661D01*
X146153465Y-80561326D01*
X146164899Y-80523633D01*
X146183466Y-80488897D01*
X146208452Y-80458452D01*
X146238897Y-80433466D01*
X146273633Y-80414899D01*
X146311326Y-80403465D01*
X146356661Y-80399000D01*
X147443339Y-80399000D01*
X147488674Y-80403465D01*
G37*
G36*
X153688674Y-80403465D02*
G01*
X153726367Y-80414899D01*
X153761103Y-80433466D01*
X153791548Y-80458452D01*
X153816534Y-80488897D01*
X153835101Y-80523633D01*
X153846535Y-80561326D01*
X153851000Y-80606661D01*
X153851000Y-81443339D01*
X153846535Y-81488674D01*
X153835101Y-81526367D01*
X153816534Y-81561103D01*
X153791548Y-81591548D01*
X153761103Y-81616534D01*
X153726367Y-81635101D01*
X153688674Y-81646535D01*
X153643339Y-81651000D01*
X152556661Y-81651000D01*
X152511326Y-81646535D01*
X152473633Y-81635101D01*
X152438897Y-81616534D01*
X152408452Y-81591548D01*
X152383466Y-81561103D01*
X152364899Y-81526367D01*
X152353465Y-81488674D01*
X152349000Y-81443339D01*
X152349000Y-80606661D01*
X152353465Y-80561326D01*
X152364899Y-80523633D01*
X152383466Y-80488897D01*
X152408452Y-80458452D01*
X152438897Y-80433466D01*
X152473633Y-80414899D01*
X152511326Y-80403465D01*
X152556661Y-80399000D01*
X153643339Y-80399000D01*
X153688674Y-80403465D01*
G37*
G36*
X133688674Y-80403465D02*
G01*
X133726367Y-80414899D01*
X133761103Y-80433466D01*
X133791548Y-80458452D01*
X133816534Y-80488897D01*
X133835101Y-80523633D01*
X133846535Y-80561326D01*
X133851000Y-80606661D01*
X133851000Y-81443339D01*
X133846535Y-81488674D01*
X133835101Y-81526367D01*
X133816534Y-81561103D01*
X133791548Y-81591548D01*
X133761103Y-81616534D01*
X133726367Y-81635101D01*
X133688674Y-81646535D01*
X133643339Y-81651000D01*
X132556661Y-81651000D01*
X132511326Y-81646535D01*
X132473633Y-81635101D01*
X132438897Y-81616534D01*
X132408452Y-81591548D01*
X132383466Y-81561103D01*
X132364899Y-81526367D01*
X132353465Y-81488674D01*
X132349000Y-81443339D01*
X132349000Y-80606661D01*
X132353465Y-80561326D01*
X132364899Y-80523633D01*
X132383466Y-80488897D01*
X132408452Y-80458452D01*
X132438897Y-80433466D01*
X132473633Y-80414899D01*
X132511326Y-80403465D01*
X132556661Y-80399000D01*
X133643339Y-80399000D01*
X133688674Y-80403465D01*
G37*
G36*
X153688674Y-78353465D02*
G01*
X153726367Y-78364899D01*
X153761103Y-78383466D01*
X153791548Y-78408452D01*
X153816534Y-78438897D01*
X153835101Y-78473633D01*
X153846535Y-78511326D01*
X153851000Y-78556661D01*
X153851000Y-79393339D01*
X153846535Y-79438674D01*
X153835101Y-79476367D01*
X153816534Y-79511103D01*
X153791548Y-79541548D01*
X153761103Y-79566534D01*
X153726367Y-79585101D01*
X153688674Y-79596535D01*
X153643339Y-79601000D01*
X152556661Y-79601000D01*
X152511326Y-79596535D01*
X152473633Y-79585101D01*
X152438897Y-79566534D01*
X152408452Y-79541548D01*
X152383466Y-79511103D01*
X152364899Y-79476367D01*
X152353465Y-79438674D01*
X152349000Y-79393339D01*
X152349000Y-78556661D01*
X152353465Y-78511326D01*
X152364899Y-78473633D01*
X152383466Y-78438897D01*
X152408452Y-78408452D01*
X152438897Y-78383466D01*
X152473633Y-78364899D01*
X152511326Y-78353465D01*
X152556661Y-78349000D01*
X153643339Y-78349000D01*
X153688674Y-78353465D01*
G37*
G36*
X147488674Y-78353465D02*
G01*
X147526367Y-78364899D01*
X147561103Y-78383466D01*
X147591548Y-78408452D01*
X147616534Y-78438897D01*
X147635101Y-78473633D01*
X147646535Y-78511326D01*
X147651000Y-78556661D01*
X147651000Y-79393339D01*
X147646535Y-79438674D01*
X147635101Y-79476367D01*
X147616534Y-79511103D01*
X147591548Y-79541548D01*
X147561103Y-79566534D01*
X147526367Y-79585101D01*
X147488674Y-79596535D01*
X147443339Y-79601000D01*
X146356661Y-79601000D01*
X146311326Y-79596535D01*
X146273633Y-79585101D01*
X146238897Y-79566534D01*
X146208452Y-79541548D01*
X146183466Y-79511103D01*
X146164899Y-79476367D01*
X146153465Y-79438674D01*
X146149000Y-79393339D01*
X146149000Y-78556661D01*
X146153465Y-78511326D01*
X146164899Y-78473633D01*
X146183466Y-78438897D01*
X146208452Y-78408452D01*
X146238897Y-78383466D01*
X146273633Y-78364899D01*
X146311326Y-78353465D01*
X146356661Y-78349000D01*
X147443339Y-78349000D01*
X147488674Y-78353465D01*
G37*
G36*
X133688674Y-78353465D02*
G01*
X133726367Y-78364899D01*
X133761103Y-78383466D01*
X133791548Y-78408452D01*
X133816534Y-78438897D01*
X133835101Y-78473633D01*
X133846535Y-78511326D01*
X133851000Y-78556661D01*
X133851000Y-79393339D01*
X133846535Y-79438674D01*
X133835101Y-79476367D01*
X133816534Y-79511103D01*
X133791548Y-79541548D01*
X133761103Y-79566534D01*
X133726367Y-79585101D01*
X133688674Y-79596535D01*
X133643339Y-79601000D01*
X132556661Y-79601000D01*
X132511326Y-79596535D01*
X132473633Y-79585101D01*
X132438897Y-79566534D01*
X132408452Y-79541548D01*
X132383466Y-79511103D01*
X132364899Y-79476367D01*
X132353465Y-79438674D01*
X132349000Y-79393339D01*
X132349000Y-78556661D01*
X132353465Y-78511326D01*
X132364899Y-78473633D01*
X132383466Y-78438897D01*
X132408452Y-78408452D01*
X132438897Y-78383466D01*
X132473633Y-78364899D01*
X132511326Y-78353465D01*
X132556661Y-78349000D01*
X133643339Y-78349000D01*
X133688674Y-78353465D01*
G37*
G36*
X140259928Y-76501764D02*
G01*
X140281009Y-76508160D01*
X140300445Y-76518548D01*
X140317476Y-76532524D01*
X140331452Y-76549555D01*
X140341840Y-76568991D01*
X140348236Y-76590072D01*
X140351000Y-76618140D01*
X140351000Y-78431860D01*
X140348236Y-78459928D01*
X140341840Y-78481009D01*
X140331452Y-78500445D01*
X140317476Y-78517476D01*
X140300445Y-78531452D01*
X140281009Y-78541840D01*
X140259928Y-78548236D01*
X140231860Y-78551000D01*
X139768140Y-78551000D01*
X139740072Y-78548236D01*
X139718991Y-78541840D01*
X139699555Y-78531452D01*
X139682524Y-78517476D01*
X139668548Y-78500445D01*
X139658160Y-78481009D01*
X139651764Y-78459928D01*
X139649000Y-78431860D01*
X139649000Y-76618140D01*
X139651764Y-76590072D01*
X139658160Y-76568991D01*
X139668548Y-76549555D01*
X139682524Y-76532524D01*
X139699555Y-76518548D01*
X139718991Y-76508160D01*
X139740072Y-76501764D01*
X139768140Y-76499000D01*
X140231860Y-76499000D01*
X140259928Y-76501764D01*
G37*
G36*
X141529928Y-76501764D02*
G01*
X141551009Y-76508160D01*
X141570445Y-76518548D01*
X141587476Y-76532524D01*
X141601452Y-76549555D01*
X141611840Y-76568991D01*
X141618236Y-76590072D01*
X141621000Y-76618140D01*
X141621000Y-78431860D01*
X141618236Y-78459928D01*
X141611840Y-78481009D01*
X141601452Y-78500445D01*
X141587476Y-78517476D01*
X141570445Y-78531452D01*
X141551009Y-78541840D01*
X141529928Y-78548236D01*
X141501860Y-78551000D01*
X141038140Y-78551000D01*
X141010072Y-78548236D01*
X140988991Y-78541840D01*
X140969555Y-78531452D01*
X140952524Y-78517476D01*
X140938548Y-78500445D01*
X140928160Y-78481009D01*
X140921764Y-78459928D01*
X140919000Y-78431860D01*
X140919000Y-76618140D01*
X140921764Y-76590072D01*
X140928160Y-76568991D01*
X140938548Y-76549555D01*
X140952524Y-76532524D01*
X140969555Y-76518548D01*
X140988991Y-76508160D01*
X141010072Y-76501764D01*
X141038140Y-76499000D01*
X141501860Y-76499000D01*
X141529928Y-76501764D01*
G37*
G36*
X138989928Y-76501764D02*
G01*
X139011009Y-76508160D01*
X139030445Y-76518548D01*
X139047476Y-76532524D01*
X139061452Y-76549555D01*
X139071840Y-76568991D01*
X139078236Y-76590072D01*
X139081000Y-76618140D01*
X139081000Y-78431860D01*
X139078236Y-78459928D01*
X139071840Y-78481009D01*
X139061452Y-78500445D01*
X139047476Y-78517476D01*
X139030445Y-78531452D01*
X139011009Y-78541840D01*
X138989928Y-78548236D01*
X138961860Y-78551000D01*
X138498140Y-78551000D01*
X138470072Y-78548236D01*
X138448991Y-78541840D01*
X138429555Y-78531452D01*
X138412524Y-78517476D01*
X138398548Y-78500445D01*
X138388160Y-78481009D01*
X138381764Y-78459928D01*
X138379000Y-78431860D01*
X138379000Y-76618140D01*
X138381764Y-76590072D01*
X138388160Y-76568991D01*
X138398548Y-76549555D01*
X138412524Y-76532524D01*
X138429555Y-76518548D01*
X138448991Y-76508160D01*
X138470072Y-76501764D01*
X138498140Y-76499000D01*
X138961860Y-76499000D01*
X138989928Y-76501764D01*
G37*
G36*
X136449928Y-76501764D02*
G01*
X136471009Y-76508160D01*
X136490445Y-76518548D01*
X136507476Y-76532524D01*
X136521452Y-76549555D01*
X136531840Y-76568991D01*
X136538236Y-76590072D01*
X136541000Y-76618140D01*
X136541000Y-78431860D01*
X136538236Y-78459928D01*
X136531840Y-78481009D01*
X136521452Y-78500445D01*
X136507476Y-78517476D01*
X136490445Y-78531452D01*
X136471009Y-78541840D01*
X136449928Y-78548236D01*
X136421860Y-78551000D01*
X135958140Y-78551000D01*
X135930072Y-78548236D01*
X135908991Y-78541840D01*
X135889555Y-78531452D01*
X135872524Y-78517476D01*
X135858548Y-78500445D01*
X135848160Y-78481009D01*
X135841764Y-78459928D01*
X135839000Y-78431860D01*
X135839000Y-76618140D01*
X135841764Y-76590072D01*
X135848160Y-76568991D01*
X135858548Y-76549555D01*
X135872524Y-76532524D01*
X135889555Y-76518548D01*
X135908991Y-76508160D01*
X135930072Y-76501764D01*
X135958140Y-76499000D01*
X136421860Y-76499000D01*
X136449928Y-76501764D01*
G37*
G36*
X137719928Y-76501764D02*
G01*
X137741009Y-76508160D01*
X137760445Y-76518548D01*
X137777476Y-76532524D01*
X137791452Y-76549555D01*
X137801840Y-76568991D01*
X137808236Y-76590072D01*
X137811000Y-76618140D01*
X137811000Y-78431860D01*
X137808236Y-78459928D01*
X137801840Y-78481009D01*
X137791452Y-78500445D01*
X137777476Y-78517476D01*
X137760445Y-78531452D01*
X137741009Y-78541840D01*
X137719928Y-78548236D01*
X137691860Y-78551000D01*
X137228140Y-78551000D01*
X137200072Y-78548236D01*
X137178991Y-78541840D01*
X137159555Y-78531452D01*
X137142524Y-78517476D01*
X137128548Y-78500445D01*
X137118160Y-78481009D01*
X137111764Y-78459928D01*
X137109000Y-78431860D01*
X137109000Y-76618140D01*
X137111764Y-76590072D01*
X137118160Y-76568991D01*
X137128548Y-76549555D01*
X137142524Y-76532524D01*
X137159555Y-76518548D01*
X137178991Y-76508160D01*
X137200072Y-76501764D01*
X137228140Y-76499000D01*
X137691860Y-76499000D01*
X137719928Y-76501764D01*
G37*
G36*
X142799928Y-76501764D02*
G01*
X142821009Y-76508160D01*
X142840445Y-76518548D01*
X142857476Y-76532524D01*
X142871452Y-76549555D01*
X142881840Y-76568991D01*
X142888236Y-76590072D01*
X142891000Y-76618140D01*
X142891000Y-78431860D01*
X142888236Y-78459928D01*
X142881840Y-78481009D01*
X142871452Y-78500445D01*
X142857476Y-78517476D01*
X142840445Y-78531452D01*
X142821009Y-78541840D01*
X142799928Y-78548236D01*
X142771860Y-78551000D01*
X142308140Y-78551000D01*
X142280072Y-78548236D01*
X142258991Y-78541840D01*
X142239555Y-78531452D01*
X142222524Y-78517476D01*
X142208548Y-78500445D01*
X142198160Y-78481009D01*
X142191764Y-78459928D01*
X142189000Y-78431860D01*
X142189000Y-76618140D01*
X142191764Y-76590072D01*
X142198160Y-76568991D01*
X142208548Y-76549555D01*
X142222524Y-76532524D01*
X142239555Y-76518548D01*
X142258991Y-76508160D01*
X142280072Y-76501764D01*
X142308140Y-76499000D01*
X142771860Y-76499000D01*
X142799928Y-76501764D01*
G37*
G36*
X144069928Y-76501764D02*
G01*
X144091009Y-76508160D01*
X144110445Y-76518548D01*
X144127476Y-76532524D01*
X144141452Y-76549555D01*
X144151840Y-76568991D01*
X144158236Y-76590072D01*
X144161000Y-76618140D01*
X144161000Y-78431860D01*
X144158236Y-78459928D01*
X144151840Y-78481009D01*
X144141452Y-78500445D01*
X144127476Y-78517476D01*
X144110445Y-78531452D01*
X144091009Y-78541840D01*
X144069928Y-78548236D01*
X144041860Y-78551000D01*
X143578140Y-78551000D01*
X143550072Y-78548236D01*
X143528991Y-78541840D01*
X143509555Y-78531452D01*
X143492524Y-78517476D01*
X143478548Y-78500445D01*
X143468160Y-78481009D01*
X143461764Y-78459928D01*
X143459000Y-78431860D01*
X143459000Y-76618140D01*
X143461764Y-76590072D01*
X143468160Y-76568991D01*
X143478548Y-76549555D01*
X143492524Y-76532524D01*
X143509555Y-76518548D01*
X143528991Y-76508160D01*
X143550072Y-76501764D01*
X143578140Y-76499000D01*
X144041860Y-76499000D01*
X144069928Y-76501764D01*
G37*
G36*
X160259928Y-76501764D02*
G01*
X160281009Y-76508160D01*
X160300445Y-76518548D01*
X160317476Y-76532524D01*
X160331452Y-76549555D01*
X160341840Y-76568991D01*
X160348236Y-76590072D01*
X160351000Y-76618140D01*
X160351000Y-78431860D01*
X160348236Y-78459928D01*
X160341840Y-78481009D01*
X160331452Y-78500445D01*
X160317476Y-78517476D01*
X160300445Y-78531452D01*
X160281009Y-78541840D01*
X160259928Y-78548236D01*
X160231860Y-78551000D01*
X159768140Y-78551000D01*
X159740072Y-78548236D01*
X159718991Y-78541840D01*
X159699555Y-78531452D01*
X159682524Y-78517476D01*
X159668548Y-78500445D01*
X159658160Y-78481009D01*
X159651764Y-78459928D01*
X159649000Y-78431860D01*
X159649000Y-76618140D01*
X159651764Y-76590072D01*
X159658160Y-76568991D01*
X159668548Y-76549555D01*
X159682524Y-76532524D01*
X159699555Y-76518548D01*
X159718991Y-76508160D01*
X159740072Y-76501764D01*
X159768140Y-76499000D01*
X160231860Y-76499000D01*
X160259928Y-76501764D01*
G37*
G36*
X158989928Y-76501764D02*
G01*
X159011009Y-76508160D01*
X159030445Y-76518548D01*
X159047476Y-76532524D01*
X159061452Y-76549555D01*
X159071840Y-76568991D01*
X159078236Y-76590072D01*
X159081000Y-76618140D01*
X159081000Y-78431860D01*
X159078236Y-78459928D01*
X159071840Y-78481009D01*
X159061452Y-78500445D01*
X159047476Y-78517476D01*
X159030445Y-78531452D01*
X159011009Y-78541840D01*
X158989928Y-78548236D01*
X158961860Y-78551000D01*
X158498140Y-78551000D01*
X158470072Y-78548236D01*
X158448991Y-78541840D01*
X158429555Y-78531452D01*
X158412524Y-78517476D01*
X158398548Y-78500445D01*
X158388160Y-78481009D01*
X158381764Y-78459928D01*
X158379000Y-78431860D01*
X158379000Y-76618140D01*
X158381764Y-76590072D01*
X158388160Y-76568991D01*
X158398548Y-76549555D01*
X158412524Y-76532524D01*
X158429555Y-76518548D01*
X158448991Y-76508160D01*
X158470072Y-76501764D01*
X158498140Y-76499000D01*
X158961860Y-76499000D01*
X158989928Y-76501764D01*
G37*
G36*
X157719928Y-76501764D02*
G01*
X157741009Y-76508160D01*
X157760445Y-76518548D01*
X157777476Y-76532524D01*
X157791452Y-76549555D01*
X157801840Y-76568991D01*
X157808236Y-76590072D01*
X157811000Y-76618140D01*
X157811000Y-78431860D01*
X157808236Y-78459928D01*
X157801840Y-78481009D01*
X157791452Y-78500445D01*
X157777476Y-78517476D01*
X157760445Y-78531452D01*
X157741009Y-78541840D01*
X157719928Y-78548236D01*
X157691860Y-78551000D01*
X157228140Y-78551000D01*
X157200072Y-78548236D01*
X157178991Y-78541840D01*
X157159555Y-78531452D01*
X157142524Y-78517476D01*
X157128548Y-78500445D01*
X157118160Y-78481009D01*
X157111764Y-78459928D01*
X157109000Y-78431860D01*
X157109000Y-76618140D01*
X157111764Y-76590072D01*
X157118160Y-76568991D01*
X157128548Y-76549555D01*
X157142524Y-76532524D01*
X157159555Y-76518548D01*
X157178991Y-76508160D01*
X157200072Y-76501764D01*
X157228140Y-76499000D01*
X157691860Y-76499000D01*
X157719928Y-76501764D01*
G37*
G36*
X156449928Y-76501764D02*
G01*
X156471009Y-76508160D01*
X156490445Y-76518548D01*
X156507476Y-76532524D01*
X156521452Y-76549555D01*
X156531840Y-76568991D01*
X156538236Y-76590072D01*
X156541000Y-76618140D01*
X156541000Y-78431860D01*
X156538236Y-78459928D01*
X156531840Y-78481009D01*
X156521452Y-78500445D01*
X156507476Y-78517476D01*
X156490445Y-78531452D01*
X156471009Y-78541840D01*
X156449928Y-78548236D01*
X156421860Y-78551000D01*
X155958140Y-78551000D01*
X155930072Y-78548236D01*
X155908991Y-78541840D01*
X155889555Y-78531452D01*
X155872524Y-78517476D01*
X155858548Y-78500445D01*
X155848160Y-78481009D01*
X155841764Y-78459928D01*
X155839000Y-78431860D01*
X155839000Y-76618140D01*
X155841764Y-76590072D01*
X155848160Y-76568991D01*
X155858548Y-76549555D01*
X155872524Y-76532524D01*
X155889555Y-76518548D01*
X155908991Y-76508160D01*
X155930072Y-76501764D01*
X155958140Y-76499000D01*
X156421860Y-76499000D01*
X156449928Y-76501764D01*
G37*
G36*
X162799928Y-76501764D02*
G01*
X162821009Y-76508160D01*
X162840445Y-76518548D01*
X162857476Y-76532524D01*
X162871452Y-76549555D01*
X162881840Y-76568991D01*
X162888236Y-76590072D01*
X162891000Y-76618140D01*
X162891000Y-78431860D01*
X162888236Y-78459928D01*
X162881840Y-78481009D01*
X162871452Y-78500445D01*
X162857476Y-78517476D01*
X162840445Y-78531452D01*
X162821009Y-78541840D01*
X162799928Y-78548236D01*
X162771860Y-78551000D01*
X162308140Y-78551000D01*
X162280072Y-78548236D01*
X162258991Y-78541840D01*
X162239555Y-78531452D01*
X162222524Y-78517476D01*
X162208548Y-78500445D01*
X162198160Y-78481009D01*
X162191764Y-78459928D01*
X162189000Y-78431860D01*
X162189000Y-76618140D01*
X162191764Y-76590072D01*
X162198160Y-76568991D01*
X162208548Y-76549555D01*
X162222524Y-76532524D01*
X162239555Y-76518548D01*
X162258991Y-76508160D01*
X162280072Y-76501764D01*
X162308140Y-76499000D01*
X162771860Y-76499000D01*
X162799928Y-76501764D01*
G37*
G36*
X164069928Y-76501764D02*
G01*
X164091009Y-76508160D01*
X164110445Y-76518548D01*
X164127476Y-76532524D01*
X164141452Y-76549555D01*
X164151840Y-76568991D01*
X164158236Y-76590072D01*
X164161000Y-76618140D01*
X164161000Y-78431860D01*
X164158236Y-78459928D01*
X164151840Y-78481009D01*
X164141452Y-78500445D01*
X164127476Y-78517476D01*
X164110445Y-78531452D01*
X164091009Y-78541840D01*
X164069928Y-78548236D01*
X164041860Y-78551000D01*
X163578140Y-78551000D01*
X163550072Y-78548236D01*
X163528991Y-78541840D01*
X163509555Y-78531452D01*
X163492524Y-78517476D01*
X163478548Y-78500445D01*
X163468160Y-78481009D01*
X163461764Y-78459928D01*
X163459000Y-78431860D01*
X163459000Y-76618140D01*
X163461764Y-76590072D01*
X163468160Y-76568991D01*
X163478548Y-76549555D01*
X163492524Y-76532524D01*
X163509555Y-76518548D01*
X163528991Y-76508160D01*
X163550072Y-76501764D01*
X163578140Y-76499000D01*
X164041860Y-76499000D01*
X164069928Y-76501764D01*
G37*
G36*
X161529928Y-76501764D02*
G01*
X161551009Y-76508160D01*
X161570445Y-76518548D01*
X161587476Y-76532524D01*
X161601452Y-76549555D01*
X161611840Y-76568991D01*
X161618236Y-76590072D01*
X161621000Y-76618140D01*
X161621000Y-78431860D01*
X161618236Y-78459928D01*
X161611840Y-78481009D01*
X161601452Y-78500445D01*
X161587476Y-78517476D01*
X161570445Y-78531452D01*
X161551009Y-78541840D01*
X161529928Y-78548236D01*
X161501860Y-78551000D01*
X161038140Y-78551000D01*
X161010072Y-78548236D01*
X160988991Y-78541840D01*
X160969555Y-78531452D01*
X160952524Y-78517476D01*
X160938548Y-78500445D01*
X160928160Y-78481009D01*
X160921764Y-78459928D01*
X160919000Y-78431860D01*
X160919000Y-76618140D01*
X160921764Y-76590072D01*
X160928160Y-76568991D01*
X160938548Y-76549555D01*
X160952524Y-76532524D01*
X160969555Y-76518548D01*
X160988991Y-76508160D01*
X161010072Y-76501764D01*
X161038140Y-76499000D01*
X161501860Y-76499000D01*
X161529928Y-76501764D01*
G37*
G36*
X124601000Y-77901000D02*
G01*
X122999000Y-77901000D01*
X122999000Y-75799000D01*
X124601000Y-75799000D01*
X124601000Y-77901000D01*
G37*
G36*
X122301000Y-77901000D02*
G01*
X120699000Y-77901000D01*
X120699000Y-75799000D01*
X122301000Y-75799000D01*
X122301000Y-77901000D01*
G37*
G36*
X126901000Y-77901000D02*
G01*
X125299000Y-77901000D01*
X125299000Y-75799000D01*
X126901000Y-75799000D01*
X126901000Y-77901000D01*
G37*
G36*
X126688674Y-72203465D02*
G01*
X126726367Y-72214899D01*
X126761103Y-72233466D01*
X126791548Y-72258452D01*
X126816534Y-72288897D01*
X126835101Y-72323633D01*
X126846535Y-72361326D01*
X126851000Y-72406661D01*
X126851000Y-73243339D01*
X126846535Y-73288674D01*
X126835101Y-73326367D01*
X126816534Y-73361103D01*
X126791548Y-73391548D01*
X126761103Y-73416534D01*
X126726367Y-73435101D01*
X126688674Y-73446535D01*
X126643339Y-73451000D01*
X125556661Y-73451000D01*
X125511326Y-73446535D01*
X125473633Y-73435101D01*
X125438897Y-73416534D01*
X125408452Y-73391548D01*
X125383466Y-73361103D01*
X125364899Y-73326367D01*
X125353465Y-73288674D01*
X125349000Y-73243339D01*
X125349000Y-72406661D01*
X125353465Y-72361326D01*
X125364899Y-72323633D01*
X125383466Y-72288897D01*
X125408452Y-72258452D01*
X125438897Y-72233466D01*
X125473633Y-72214899D01*
X125511326Y-72203465D01*
X125556661Y-72199000D01*
X126643339Y-72199000D01*
X126688674Y-72203465D01*
G37*
G36*
X122088674Y-72203465D02*
G01*
X122126367Y-72214899D01*
X122161103Y-72233466D01*
X122191548Y-72258452D01*
X122216534Y-72288897D01*
X122235101Y-72323633D01*
X122246535Y-72361326D01*
X122251000Y-72406661D01*
X122251000Y-73243339D01*
X122246535Y-73288674D01*
X122235101Y-73326367D01*
X122216534Y-73361103D01*
X122191548Y-73391548D01*
X122161103Y-73416534D01*
X122126367Y-73435101D01*
X122088674Y-73446535D01*
X122043339Y-73451000D01*
X120956661Y-73451000D01*
X120911326Y-73446535D01*
X120873633Y-73435101D01*
X120838897Y-73416534D01*
X120808452Y-73391548D01*
X120783466Y-73361103D01*
X120764899Y-73326367D01*
X120753465Y-73288674D01*
X120749000Y-73243339D01*
X120749000Y-72406661D01*
X120753465Y-72361326D01*
X120764899Y-72323633D01*
X120783466Y-72288897D01*
X120808452Y-72258452D01*
X120838897Y-72233466D01*
X120873633Y-72214899D01*
X120911326Y-72203465D01*
X120956661Y-72199000D01*
X122043339Y-72199000D01*
X122088674Y-72203465D01*
G37*
G36*
X126688674Y-70153465D02*
G01*
X126726367Y-70164899D01*
X126761103Y-70183466D01*
X126791548Y-70208452D01*
X126816534Y-70238897D01*
X126835101Y-70273633D01*
X126846535Y-70311326D01*
X126851000Y-70356661D01*
X126851000Y-71193339D01*
X126846535Y-71238674D01*
X126835101Y-71276367D01*
X126816534Y-71311103D01*
X126791548Y-71341548D01*
X126761103Y-71366534D01*
X126726367Y-71385101D01*
X126688674Y-71396535D01*
X126643339Y-71401000D01*
X125556661Y-71401000D01*
X125511326Y-71396535D01*
X125473633Y-71385101D01*
X125438897Y-71366534D01*
X125408452Y-71341548D01*
X125383466Y-71311103D01*
X125364899Y-71276367D01*
X125353465Y-71238674D01*
X125349000Y-71193339D01*
X125349000Y-70356661D01*
X125353465Y-70311326D01*
X125364899Y-70273633D01*
X125383466Y-70238897D01*
X125408452Y-70208452D01*
X125438897Y-70183466D01*
X125473633Y-70164899D01*
X125511326Y-70153465D01*
X125556661Y-70149000D01*
X126643339Y-70149000D01*
X126688674Y-70153465D01*
G37*
G36*
X122088674Y-70153465D02*
G01*
X122126367Y-70164899D01*
X122161103Y-70183466D01*
X122191548Y-70208452D01*
X122216534Y-70238897D01*
X122235101Y-70273633D01*
X122246535Y-70311326D01*
X122251000Y-70356661D01*
X122251000Y-71193339D01*
X122246535Y-71238674D01*
X122235101Y-71276367D01*
X122216534Y-71311103D01*
X122191548Y-71341548D01*
X122161103Y-71366534D01*
X122126367Y-71385101D01*
X122088674Y-71396535D01*
X122043339Y-71401000D01*
X120956661Y-71401000D01*
X120911326Y-71396535D01*
X120873633Y-71385101D01*
X120838897Y-71366534D01*
X120808452Y-71341548D01*
X120783466Y-71311103D01*
X120764899Y-71276367D01*
X120753465Y-71238674D01*
X120749000Y-71193339D01*
X120749000Y-70356661D01*
X120753465Y-70311326D01*
X120764899Y-70273633D01*
X120783466Y-70238897D01*
X120808452Y-70208452D01*
X120838897Y-70183466D01*
X120873633Y-70164899D01*
X120911326Y-70153465D01*
X120956661Y-70149000D01*
X122043339Y-70149000D01*
X122088674Y-70153465D01*
G37*
G36*
X173288674Y-69453465D02*
G01*
X173326367Y-69464899D01*
X173361103Y-69483466D01*
X173391548Y-69508452D01*
X173416534Y-69538897D01*
X173435101Y-69573633D01*
X173446535Y-69611326D01*
X173451000Y-69656661D01*
X173451000Y-70743339D01*
X173446535Y-70788674D01*
X173435101Y-70826367D01*
X173416534Y-70861103D01*
X173391548Y-70891548D01*
X173361103Y-70916534D01*
X173326367Y-70935101D01*
X173288674Y-70946535D01*
X173243339Y-70951000D01*
X172406661Y-70951000D01*
X172361326Y-70946535D01*
X172323633Y-70935101D01*
X172288897Y-70916534D01*
X172258452Y-70891548D01*
X172233466Y-70861103D01*
X172214899Y-70826367D01*
X172203465Y-70788674D01*
X172199000Y-70743339D01*
X172199000Y-69656661D01*
X172203465Y-69611326D01*
X172214899Y-69573633D01*
X172233466Y-69538897D01*
X172258452Y-69508452D01*
X172288897Y-69483466D01*
X172323633Y-69464899D01*
X172361326Y-69453465D01*
X172406661Y-69449000D01*
X173243339Y-69449000D01*
X173288674Y-69453465D01*
G37*
G36*
X171238674Y-69453465D02*
G01*
X171276367Y-69464899D01*
X171311103Y-69483466D01*
X171341548Y-69508452D01*
X171366534Y-69538897D01*
X171385101Y-69573633D01*
X171396535Y-69611326D01*
X171401000Y-69656661D01*
X171401000Y-70743339D01*
X171396535Y-70788674D01*
X171385101Y-70826367D01*
X171366534Y-70861103D01*
X171341548Y-70891548D01*
X171311103Y-70916534D01*
X171276367Y-70935101D01*
X171238674Y-70946535D01*
X171193339Y-70951000D01*
X170356661Y-70951000D01*
X170311326Y-70946535D01*
X170273633Y-70935101D01*
X170238897Y-70916534D01*
X170208452Y-70891548D01*
X170183466Y-70861103D01*
X170164899Y-70826367D01*
X170153465Y-70788674D01*
X170149000Y-70743339D01*
X170149000Y-69656661D01*
X170153465Y-69611326D01*
X170164899Y-69573633D01*
X170183466Y-69538897D01*
X170208452Y-69508452D01*
X170238897Y-69483466D01*
X170273633Y-69464899D01*
X170311326Y-69453465D01*
X170356661Y-69449000D01*
X171193339Y-69449000D01*
X171238674Y-69453465D01*
G37*
G36*
X176938674Y-69453465D02*
G01*
X176976367Y-69464899D01*
X177011103Y-69483466D01*
X177041548Y-69508452D01*
X177066534Y-69538897D01*
X177085101Y-69573633D01*
X177096535Y-69611326D01*
X177101000Y-69656661D01*
X177101000Y-70743339D01*
X177096535Y-70788674D01*
X177085101Y-70826367D01*
X177066534Y-70861103D01*
X177041548Y-70891548D01*
X177011103Y-70916534D01*
X176976367Y-70935101D01*
X176938674Y-70946535D01*
X176893339Y-70951000D01*
X176056661Y-70951000D01*
X176011326Y-70946535D01*
X175973633Y-70935101D01*
X175938897Y-70916534D01*
X175908452Y-70891548D01*
X175883466Y-70861103D01*
X175864899Y-70826367D01*
X175853465Y-70788674D01*
X175849000Y-70743339D01*
X175849000Y-69656661D01*
X175853465Y-69611326D01*
X175864899Y-69573633D01*
X175883466Y-69538897D01*
X175908452Y-69508452D01*
X175938897Y-69483466D01*
X175973633Y-69464899D01*
X176011326Y-69453465D01*
X176056661Y-69449000D01*
X176893339Y-69449000D01*
X176938674Y-69453465D01*
G37*
G36*
X178988674Y-69453465D02*
G01*
X179026367Y-69464899D01*
X179061103Y-69483466D01*
X179091548Y-69508452D01*
X179116534Y-69538897D01*
X179135101Y-69573633D01*
X179146535Y-69611326D01*
X179151000Y-69656661D01*
X179151000Y-70743339D01*
X179146535Y-70788674D01*
X179135101Y-70826367D01*
X179116534Y-70861103D01*
X179091548Y-70891548D01*
X179061103Y-70916534D01*
X179026367Y-70935101D01*
X178988674Y-70946535D01*
X178943339Y-70951000D01*
X178106661Y-70951000D01*
X178061326Y-70946535D01*
X178023633Y-70935101D01*
X177988897Y-70916534D01*
X177958452Y-70891548D01*
X177933466Y-70861103D01*
X177914899Y-70826367D01*
X177903465Y-70788674D01*
X177899000Y-70743339D01*
X177899000Y-69656661D01*
X177903465Y-69611326D01*
X177914899Y-69573633D01*
X177933466Y-69538897D01*
X177958452Y-69508452D01*
X177988897Y-69483466D01*
X178023633Y-69464899D01*
X178061326Y-69453465D01*
X178106661Y-69449000D01*
X178943339Y-69449000D01*
X178988674Y-69453465D01*
G37*
G36*
X155193512Y-63303927D02*
G01*
X155342812Y-63333624D01*
X155506784Y-63401544D01*
X155654354Y-63500147D01*
X155779853Y-63625646D01*
X155878456Y-63773216D01*
X155946376Y-63937188D01*
X155981000Y-64111259D01*
X155981000Y-64288741D01*
X155946376Y-64462812D01*
X155878456Y-64626784D01*
X155779853Y-64774354D01*
X155654354Y-64899853D01*
X155506784Y-64998456D01*
X155342812Y-65066376D01*
X155193512Y-65096073D01*
X155168742Y-65101000D01*
X154991258Y-65101000D01*
X154966488Y-65096073D01*
X154817188Y-65066376D01*
X154653216Y-64998456D01*
X154505646Y-64899853D01*
X154380147Y-64774354D01*
X154281544Y-64626784D01*
X154213624Y-64462812D01*
X154179000Y-64288741D01*
X154179000Y-64111259D01*
X154213624Y-63937188D01*
X154281544Y-63773216D01*
X154380147Y-63625646D01*
X154505646Y-63500147D01*
X154653216Y-63401544D01*
X154817188Y-63333624D01*
X154966488Y-63303927D01*
X154991258Y-63299000D01*
X155168742Y-63299000D01*
X155193512Y-63303927D01*
G37*
G36*
X150113512Y-63303927D02*
G01*
X150262812Y-63333624D01*
X150426784Y-63401544D01*
X150574354Y-63500147D01*
X150699853Y-63625646D01*
X150798456Y-63773216D01*
X150866376Y-63937188D01*
X150901000Y-64111259D01*
X150901000Y-64288741D01*
X150866376Y-64462812D01*
X150798456Y-64626784D01*
X150699853Y-64774354D01*
X150574354Y-64899853D01*
X150426784Y-64998456D01*
X150262812Y-65066376D01*
X150113512Y-65096073D01*
X150088742Y-65101000D01*
X149911258Y-65101000D01*
X149886488Y-65096073D01*
X149737188Y-65066376D01*
X149573216Y-64998456D01*
X149425646Y-64899853D01*
X149300147Y-64774354D01*
X149201544Y-64626784D01*
X149133624Y-64462812D01*
X149099000Y-64288741D01*
X149099000Y-64111259D01*
X149133624Y-63937188D01*
X149201544Y-63773216D01*
X149300147Y-63625646D01*
X149425646Y-63500147D01*
X149573216Y-63401544D01*
X149737188Y-63333624D01*
X149886488Y-63303927D01*
X149911258Y-63299000D01*
X150088742Y-63299000D01*
X150113512Y-63303927D01*
G37*
G36*
X147573512Y-63303927D02*
G01*
X147722812Y-63333624D01*
X147886784Y-63401544D01*
X148034354Y-63500147D01*
X148159853Y-63625646D01*
X148258456Y-63773216D01*
X148326376Y-63937188D01*
X148361000Y-64111259D01*
X148361000Y-64288741D01*
X148326376Y-64462812D01*
X148258456Y-64626784D01*
X148159853Y-64774354D01*
X148034354Y-64899853D01*
X147886784Y-64998456D01*
X147722812Y-65066376D01*
X147573512Y-65096073D01*
X147548742Y-65101000D01*
X147371258Y-65101000D01*
X147346488Y-65096073D01*
X147197188Y-65066376D01*
X147033216Y-64998456D01*
X146885646Y-64899853D01*
X146760147Y-64774354D01*
X146661544Y-64626784D01*
X146593624Y-64462812D01*
X146559000Y-64288741D01*
X146559000Y-64111259D01*
X146593624Y-63937188D01*
X146661544Y-63773216D01*
X146760147Y-63625646D01*
X146885646Y-63500147D01*
X147033216Y-63401544D01*
X147197188Y-63333624D01*
X147346488Y-63303927D01*
X147371258Y-63299000D01*
X147548742Y-63299000D01*
X147573512Y-63303927D01*
G37*
G36*
X145033512Y-63303927D02*
G01*
X145182812Y-63333624D01*
X145346784Y-63401544D01*
X145494354Y-63500147D01*
X145619853Y-63625646D01*
X145718456Y-63773216D01*
X145786376Y-63937188D01*
X145821000Y-64111259D01*
X145821000Y-64288741D01*
X145786376Y-64462812D01*
X145718456Y-64626784D01*
X145619853Y-64774354D01*
X145494354Y-64899853D01*
X145346784Y-64998456D01*
X145182812Y-65066376D01*
X145033512Y-65096073D01*
X145008742Y-65101000D01*
X144831258Y-65101000D01*
X144806488Y-65096073D01*
X144657188Y-65066376D01*
X144493216Y-64998456D01*
X144345646Y-64899853D01*
X144220147Y-64774354D01*
X144121544Y-64626784D01*
X144053624Y-64462812D01*
X144019000Y-64288741D01*
X144019000Y-64111259D01*
X144053624Y-63937188D01*
X144121544Y-63773216D01*
X144220147Y-63625646D01*
X144345646Y-63500147D01*
X144493216Y-63401544D01*
X144657188Y-63333624D01*
X144806488Y-63303927D01*
X144831258Y-63299000D01*
X145008742Y-63299000D01*
X145033512Y-63303927D01*
G37*
G36*
X143281000Y-65101000D02*
G01*
X141479000Y-65101000D01*
X141479000Y-63299000D01*
X143281000Y-63299000D01*
X143281000Y-65101000D01*
G37*
G36*
X157733512Y-63303927D02*
G01*
X157882812Y-63333624D01*
X158046784Y-63401544D01*
X158194354Y-63500147D01*
X158319853Y-63625646D01*
X158418456Y-63773216D01*
X158486376Y-63937188D01*
X158521000Y-64111259D01*
X158521000Y-64288741D01*
X158486376Y-64462812D01*
X158418456Y-64626784D01*
X158319853Y-64774354D01*
X158194354Y-64899853D01*
X158046784Y-64998456D01*
X157882812Y-65066376D01*
X157733512Y-65096073D01*
X157708742Y-65101000D01*
X157531258Y-65101000D01*
X157506488Y-65096073D01*
X157357188Y-65066376D01*
X157193216Y-64998456D01*
X157045646Y-64899853D01*
X156920147Y-64774354D01*
X156821544Y-64626784D01*
X156753624Y-64462812D01*
X156719000Y-64288741D01*
X156719000Y-64111259D01*
X156753624Y-63937188D01*
X156821544Y-63773216D01*
X156920147Y-63625646D01*
X157045646Y-63500147D01*
X157193216Y-63401544D01*
X157357188Y-63333624D01*
X157506488Y-63303927D01*
X157531258Y-63299000D01*
X157708742Y-63299000D01*
X157733512Y-63303927D01*
G37*
G36*
X152653512Y-63303927D02*
G01*
X152802812Y-63333624D01*
X152966784Y-63401544D01*
X153114354Y-63500147D01*
X153239853Y-63625646D01*
X153338456Y-63773216D01*
X153406376Y-63937188D01*
X153441000Y-64111259D01*
X153441000Y-64288741D01*
X153406376Y-64462812D01*
X153338456Y-64626784D01*
X153239853Y-64774354D01*
X153114354Y-64899853D01*
X152966784Y-64998456D01*
X152802812Y-65066376D01*
X152653512Y-65096073D01*
X152628742Y-65101000D01*
X152451258Y-65101000D01*
X152426488Y-65096073D01*
X152277188Y-65066376D01*
X152113216Y-64998456D01*
X151965646Y-64899853D01*
X151840147Y-64774354D01*
X151741544Y-64626784D01*
X151673624Y-64462812D01*
X151639000Y-64288741D01*
X151639000Y-64111259D01*
X151673624Y-63937188D01*
X151741544Y-63773216D01*
X151840147Y-63625646D01*
X151965646Y-63500147D01*
X152113216Y-63401544D01*
X152277188Y-63333624D01*
X152426488Y-63303927D01*
X152451258Y-63299000D01*
X152628742Y-63299000D01*
X152653512Y-63303927D01*
G37*
G36*
X171238674Y-63253465D02*
G01*
X171276367Y-63264899D01*
X171311103Y-63283466D01*
X171341548Y-63308452D01*
X171366534Y-63338897D01*
X171385101Y-63373633D01*
X171396535Y-63411326D01*
X171401000Y-63456661D01*
X171401000Y-64543339D01*
X171396535Y-64588674D01*
X171385101Y-64626367D01*
X171366534Y-64661103D01*
X171341548Y-64691548D01*
X171311103Y-64716534D01*
X171276367Y-64735101D01*
X171238674Y-64746535D01*
X171193339Y-64751000D01*
X170356661Y-64751000D01*
X170311326Y-64746535D01*
X170273633Y-64735101D01*
X170238897Y-64716534D01*
X170208452Y-64691548D01*
X170183466Y-64661103D01*
X170164899Y-64626367D01*
X170153465Y-64588674D01*
X170149000Y-64543339D01*
X170149000Y-63456661D01*
X170153465Y-63411326D01*
X170164899Y-63373633D01*
X170183466Y-63338897D01*
X170208452Y-63308452D01*
X170238897Y-63283466D01*
X170273633Y-63264899D01*
X170311326Y-63253465D01*
X170356661Y-63249000D01*
X171193339Y-63249000D01*
X171238674Y-63253465D01*
G37*
G36*
X129688674Y-63253465D02*
G01*
X129726367Y-63264899D01*
X129761103Y-63283466D01*
X129791548Y-63308452D01*
X129816534Y-63338897D01*
X129835101Y-63373633D01*
X129846535Y-63411326D01*
X129851000Y-63456661D01*
X129851000Y-64543339D01*
X129846535Y-64588674D01*
X129835101Y-64626367D01*
X129816534Y-64661103D01*
X129791548Y-64691548D01*
X129761103Y-64716534D01*
X129726367Y-64735101D01*
X129688674Y-64746535D01*
X129643339Y-64751000D01*
X128806661Y-64751000D01*
X128761326Y-64746535D01*
X128723633Y-64735101D01*
X128688897Y-64716534D01*
X128658452Y-64691548D01*
X128633466Y-64661103D01*
X128614899Y-64626367D01*
X128603465Y-64588674D01*
X128599000Y-64543339D01*
X128599000Y-63456661D01*
X128603465Y-63411326D01*
X128614899Y-63373633D01*
X128633466Y-63338897D01*
X128658452Y-63308452D01*
X128688897Y-63283466D01*
X128723633Y-63264899D01*
X128761326Y-63253465D01*
X128806661Y-63249000D01*
X129643339Y-63249000D01*
X129688674Y-63253465D01*
G37*
G36*
X123988674Y-63253465D02*
G01*
X124026367Y-63264899D01*
X124061103Y-63283466D01*
X124091548Y-63308452D01*
X124116534Y-63338897D01*
X124135101Y-63373633D01*
X124146535Y-63411326D01*
X124151000Y-63456661D01*
X124151000Y-64543339D01*
X124146535Y-64588674D01*
X124135101Y-64626367D01*
X124116534Y-64661103D01*
X124091548Y-64691548D01*
X124061103Y-64716534D01*
X124026367Y-64735101D01*
X123988674Y-64746535D01*
X123943339Y-64751000D01*
X123106661Y-64751000D01*
X123061326Y-64746535D01*
X123023633Y-64735101D01*
X122988897Y-64716534D01*
X122958452Y-64691548D01*
X122933466Y-64661103D01*
X122914899Y-64626367D01*
X122903465Y-64588674D01*
X122899000Y-64543339D01*
X122899000Y-63456661D01*
X122903465Y-63411326D01*
X122914899Y-63373633D01*
X122933466Y-63338897D01*
X122958452Y-63308452D01*
X122988897Y-63283466D01*
X123023633Y-63264899D01*
X123061326Y-63253465D01*
X123106661Y-63249000D01*
X123943339Y-63249000D01*
X123988674Y-63253465D01*
G37*
G36*
X127638674Y-63253465D02*
G01*
X127676367Y-63264899D01*
X127711103Y-63283466D01*
X127741548Y-63308452D01*
X127766534Y-63338897D01*
X127785101Y-63373633D01*
X127796535Y-63411326D01*
X127801000Y-63456661D01*
X127801000Y-64543339D01*
X127796535Y-64588674D01*
X127785101Y-64626367D01*
X127766534Y-64661103D01*
X127741548Y-64691548D01*
X127711103Y-64716534D01*
X127676367Y-64735101D01*
X127638674Y-64746535D01*
X127593339Y-64751000D01*
X126756661Y-64751000D01*
X126711326Y-64746535D01*
X126673633Y-64735101D01*
X126638897Y-64716534D01*
X126608452Y-64691548D01*
X126583466Y-64661103D01*
X126564899Y-64626367D01*
X126553465Y-64588674D01*
X126549000Y-64543339D01*
X126549000Y-63456661D01*
X126553465Y-63411326D01*
X126564899Y-63373633D01*
X126583466Y-63338897D01*
X126608452Y-63308452D01*
X126638897Y-63283466D01*
X126673633Y-63264899D01*
X126711326Y-63253465D01*
X126756661Y-63249000D01*
X127593339Y-63249000D01*
X127638674Y-63253465D01*
G37*
G36*
X121938674Y-63253465D02*
G01*
X121976367Y-63264899D01*
X122011103Y-63283466D01*
X122041548Y-63308452D01*
X122066534Y-63338897D01*
X122085101Y-63373633D01*
X122096535Y-63411326D01*
X122101000Y-63456661D01*
X122101000Y-64543339D01*
X122096535Y-64588674D01*
X122085101Y-64626367D01*
X122066534Y-64661103D01*
X122041548Y-64691548D01*
X122011103Y-64716534D01*
X121976367Y-64735101D01*
X121938674Y-64746535D01*
X121893339Y-64751000D01*
X121056661Y-64751000D01*
X121011326Y-64746535D01*
X120973633Y-64735101D01*
X120938897Y-64716534D01*
X120908452Y-64691548D01*
X120883466Y-64661103D01*
X120864899Y-64626367D01*
X120853465Y-64588674D01*
X120849000Y-64543339D01*
X120849000Y-63456661D01*
X120853465Y-63411326D01*
X120864899Y-63373633D01*
X120883466Y-63338897D01*
X120908452Y-63308452D01*
X120938897Y-63283466D01*
X120973633Y-63264899D01*
X121011326Y-63253465D01*
X121056661Y-63249000D01*
X121893339Y-63249000D01*
X121938674Y-63253465D01*
G37*
G36*
X173288674Y-63253465D02*
G01*
X173326367Y-63264899D01*
X173361103Y-63283466D01*
X173391548Y-63308452D01*
X173416534Y-63338897D01*
X173435101Y-63373633D01*
X173446535Y-63411326D01*
X173451000Y-63456661D01*
X173451000Y-64543339D01*
X173446535Y-64588674D01*
X173435101Y-64626367D01*
X173416534Y-64661103D01*
X173391548Y-64691548D01*
X173361103Y-64716534D01*
X173326367Y-64735101D01*
X173288674Y-64746535D01*
X173243339Y-64751000D01*
X172406661Y-64751000D01*
X172361326Y-64746535D01*
X172323633Y-64735101D01*
X172288897Y-64716534D01*
X172258452Y-64691548D01*
X172233466Y-64661103D01*
X172214899Y-64626367D01*
X172203465Y-64588674D01*
X172199000Y-64543339D01*
X172199000Y-63456661D01*
X172203465Y-63411326D01*
X172214899Y-63373633D01*
X172233466Y-63338897D01*
X172258452Y-63308452D01*
X172288897Y-63283466D01*
X172323633Y-63264899D01*
X172361326Y-63253465D01*
X172406661Y-63249000D01*
X173243339Y-63249000D01*
X173288674Y-63253465D01*
G37*
G36*
X176938674Y-63253465D02*
G01*
X176976367Y-63264899D01*
X177011103Y-63283466D01*
X177041548Y-63308452D01*
X177066534Y-63338897D01*
X177085101Y-63373633D01*
X177096535Y-63411326D01*
X177101000Y-63456661D01*
X177101000Y-64543339D01*
X177096535Y-64588674D01*
X177085101Y-64626367D01*
X177066534Y-64661103D01*
X177041548Y-64691548D01*
X177011103Y-64716534D01*
X176976367Y-64735101D01*
X176938674Y-64746535D01*
X176893339Y-64751000D01*
X176056661Y-64751000D01*
X176011326Y-64746535D01*
X175973633Y-64735101D01*
X175938897Y-64716534D01*
X175908452Y-64691548D01*
X175883466Y-64661103D01*
X175864899Y-64626367D01*
X175853465Y-64588674D01*
X175849000Y-64543339D01*
X175849000Y-63456661D01*
X175853465Y-63411326D01*
X175864899Y-63373633D01*
X175883466Y-63338897D01*
X175908452Y-63308452D01*
X175938897Y-63283466D01*
X175973633Y-63264899D01*
X176011326Y-63253465D01*
X176056661Y-63249000D01*
X176893339Y-63249000D01*
X176938674Y-63253465D01*
G37*
G36*
X178988674Y-63253465D02*
G01*
X179026367Y-63264899D01*
X179061103Y-63283466D01*
X179091548Y-63308452D01*
X179116534Y-63338897D01*
X179135101Y-63373633D01*
X179146535Y-63411326D01*
X179151000Y-63456661D01*
X179151000Y-64543339D01*
X179146535Y-64588674D01*
X179135101Y-64626367D01*
X179116534Y-64661103D01*
X179091548Y-64691548D01*
X179061103Y-64716534D01*
X179026367Y-64735101D01*
X178988674Y-64746535D01*
X178943339Y-64751000D01*
X178106661Y-64751000D01*
X178061326Y-64746535D01*
X178023633Y-64735101D01*
X177988897Y-64716534D01*
X177958452Y-64691548D01*
X177933466Y-64661103D01*
X177914899Y-64626367D01*
X177903465Y-64588674D01*
X177899000Y-64543339D01*
X177899000Y-63456661D01*
X177903465Y-63411326D01*
X177914899Y-63373633D01*
X177933466Y-63338897D01*
X177958452Y-63308452D01*
X177988897Y-63283466D01*
X178023633Y-63264899D01*
X178061326Y-63253465D01*
X178106661Y-63249000D01*
X178943339Y-63249000D01*
X178988674Y-63253465D01*
G37*
M02*
