M48
; DRILL file {KiCad 5.1.5-52549c5~84~ubuntu19.10.1} date Mon 17 Feb 2020 22:35:55 NZDT
; FORMAT={-:-/ absolute / inch / decimal}
; #@! TF.CreationDate,2020-02-17T22:35:55+13:00
; #@! TF.GenerationSoftware,Kicad,Pcbnew,5.1.5-52549c5~84~ubuntu19.10.1
; #@! TF.FileFunction,Plated,1,2,PTH
FMAT,2
INCH
T1C0.0157
T2C0.0236
T3C0.0335
T4C0.0354
T5C0.0394
T6C0.0472
T7C0.0866
%
G90
G05
T1
X5.126Y-3.2165
X5.2638Y-3.3583
X5.2638Y-5.3071
X5.2835Y-4.1575
X5.3622Y-3.3583
X5.3622Y-4.6299
X5.3858Y-4.1575
X5.4606Y-3.3583
X5.4606Y-4.6299
X5.4803Y-4.1614
X5.5Y-3.4252
X5.5118Y-2.8346
X5.5118Y-3.3583
X5.5118Y-4.6575
X5.563Y-3.3583
X5.563Y-4.6299
X5.5827Y-3.8465
X5.5984Y-3.4252
X5.6102Y-2.6378
X5.6102Y-3.3583
X5.6417Y-2.9724
X5.6535Y-3.1811
X5.6535Y-4.4961
X5.6535Y-4.6614
X5.6752Y-4.1614
X5.6772Y-3.3583
X5.6969Y-3.4252
X5.7126Y-4.6772
X5.748Y-5.2283
X5.8189Y-3.8465
X5.8386Y-2.6378
X5.8386Y-3.0551
X5.9173Y-3.0551
X6.0039Y-2.6417
X6.0039Y-2.9134
X6.0827Y-4.1575
X6.1102Y-3.5787
X6.1496Y-2.8346
X6.1496Y-3.3583
X6.1496Y-4.3465
X6.185Y-4.1575
X6.1969Y-3.1339
X6.1969Y-3.3583
X6.2244Y-5.1417
X6.2677Y-4.1732
X6.3504Y-2.9134
X6.3504Y-3.3583
X6.3504Y-4.1575
X6.3976Y-2.9134
X6.3976Y-3.3583
X6.4449Y-4.1575
X6.4882Y-4.6575
X6.5512Y-3.5748
X6.5591Y-4.1575
X6.9528Y-3.6417
T3
X4.7165Y-3.5787
X4.7165Y-3.7756
T4
X5.16Y-5.2303
X5.345Y-5.2303
X5.5301Y-5.2303
T5
X5.0976Y-4.2953
X5.0976Y-4.3953
X5.1976Y-4.2953
X5.1976Y-4.3953
X5.2976Y-4.2953
X5.2976Y-4.3953
X5.3976Y-4.2953
X5.3976Y-4.3953
X5.4976Y-4.2953
X5.4976Y-4.3953
X5.5976Y-4.2953
X5.5976Y-4.3953
X5.6976Y-4.2953
X5.6976Y-4.3953
X5.7976Y-4.2953
X5.7976Y-4.3953
X5.8976Y-4.2953
X5.8976Y-4.3953
X5.9976Y-4.2953
X5.9976Y-4.3953
X6.0976Y-4.2953
X6.0976Y-4.3953
X6.1976Y-4.2953
X6.1976Y-4.3953
X6.2976Y-4.2953
X6.2976Y-4.3953
X6.3976Y-4.2953
X6.3976Y-4.3953
X6.4976Y-4.2953
X6.4976Y-4.3953
X6.5976Y-4.2953
X6.5976Y-4.3953
X6.6976Y-4.2953
X6.6976Y-4.3953
X5.6055Y-2.5276
X5.7055Y-2.5276
X5.8055Y-2.5276
X5.9055Y-2.5276
X6.0055Y-2.5276
X6.1055Y-2.5276
X6.2055Y-2.5276
T6
X6.4071Y-5.1417
X6.4071Y-5.3189
X6.663Y-5.1417
X6.663Y-5.3189
X5.8475Y-5.1417
X5.8475Y-5.3189
X6.1034Y-5.1417
X6.1034Y-5.3189
T7
X5.0Y-4.0157
X6.811Y-4.0157
T2
G00X4.5965Y-3.5394
M15
G01X4.624Y-3.5394
M16
G05
G00X4.624Y-3.815
M15
G01X4.5965Y-3.815
M16
G05
T0
M30
