G04 #@! TF.GenerationSoftware,KiCad,Pcbnew,5.1.5-52549c5~84~ubuntu19.10.1*
G04 #@! TF.CreationDate,2020-02-17T22:34:59+13:00*
G04 #@! TF.ProjectId,Snepper-1,536e6570-7065-4722-9d31-2e6b69636164,rev?*
G04 #@! TF.SameCoordinates,Original*
G04 #@! TF.FileFunction,Legend,Top*
G04 #@! TF.FilePolarity,Positive*
%FSLAX46Y46*%
G04 Gerber Fmt 4.6, Leading zero omitted, Abs format (unit mm)*
G04 Created by KiCad (PCBNEW 5.1.5-52549c5~84~ubuntu19.10.1) date 2020-02-17 22:34:59*
%MOMM*%
%LPD*%
G04 APERTURE LIST*
%ADD10C,0.250000*%
%ADD11C,0.001172*%
%ADD12C,0.100000*%
%ADD13C,0.120000*%
%ADD14C,0.150000*%
G04 APERTURE END LIST*
D10*
X143642857Y-73357142D02*
X143571428Y-73404761D01*
X143357142Y-73452380D01*
X143214285Y-73452380D01*
X143000000Y-73404761D01*
X142857142Y-73309523D01*
X142785714Y-73214285D01*
X142714285Y-73023809D01*
X142714285Y-72880952D01*
X142785714Y-72690476D01*
X142857142Y-72595238D01*
X143000000Y-72500000D01*
X143214285Y-72452380D01*
X143357142Y-72452380D01*
X143571428Y-72500000D01*
X143642857Y-72547619D01*
X144500000Y-73452380D02*
X144357142Y-73404761D01*
X144285714Y-73309523D01*
X144285714Y-72452380D01*
X145285714Y-73452380D02*
X145142857Y-73404761D01*
X145071428Y-73357142D01*
X145000000Y-73261904D01*
X145000000Y-72976190D01*
X145071428Y-72880952D01*
X145142857Y-72833333D01*
X145285714Y-72785714D01*
X145500000Y-72785714D01*
X145642857Y-72833333D01*
X145714285Y-72880952D01*
X145785714Y-72976190D01*
X145785714Y-73261904D01*
X145714285Y-73357142D01*
X145642857Y-73404761D01*
X145500000Y-73452380D01*
X145285714Y-73452380D01*
X147071428Y-73404761D02*
X146928571Y-73452380D01*
X146642857Y-73452380D01*
X146500000Y-73404761D01*
X146428571Y-73357142D01*
X146357142Y-73261904D01*
X146357142Y-72976190D01*
X146428571Y-72880952D01*
X146500000Y-72833333D01*
X146642857Y-72785714D01*
X146928571Y-72785714D01*
X147071428Y-72833333D01*
X147714285Y-73452380D02*
X147714285Y-72452380D01*
X147857142Y-73071428D02*
X148285714Y-73452380D01*
X148285714Y-72785714D02*
X147714285Y-73166666D01*
X150071428Y-73452380D02*
X150071428Y-72452380D01*
X150571428Y-73166666D01*
X151071428Y-72452380D01*
X151071428Y-73452380D01*
X152000000Y-73452380D02*
X151857142Y-73404761D01*
X151785714Y-73357142D01*
X151714285Y-73261904D01*
X151714285Y-72976190D01*
X151785714Y-72880952D01*
X151857142Y-72833333D01*
X152000000Y-72785714D01*
X152214285Y-72785714D01*
X152357142Y-72833333D01*
X152428571Y-72880952D01*
X152500000Y-72976190D01*
X152500000Y-73261904D01*
X152428571Y-73357142D01*
X152357142Y-73404761D01*
X152214285Y-73452380D01*
X152000000Y-73452380D01*
X153785714Y-73452380D02*
X153785714Y-72452380D01*
X153785714Y-73404761D02*
X153642857Y-73452380D01*
X153357142Y-73452380D01*
X153214285Y-73404761D01*
X153142857Y-73357142D01*
X153071428Y-73261904D01*
X153071428Y-72976190D01*
X153142857Y-72880952D01*
X153214285Y-72833333D01*
X153357142Y-72785714D01*
X153642857Y-72785714D01*
X153785714Y-72833333D01*
X155142857Y-72785714D02*
X155142857Y-73452380D01*
X154500000Y-72785714D02*
X154500000Y-73309523D01*
X154571428Y-73404761D01*
X154714285Y-73452380D01*
X154928571Y-73452380D01*
X155071428Y-73404761D01*
X155142857Y-73357142D01*
X156071428Y-73452380D02*
X155928571Y-73404761D01*
X155857142Y-73309523D01*
X155857142Y-72452380D01*
X157214285Y-73404761D02*
X157071428Y-73452380D01*
X156785714Y-73452380D01*
X156642857Y-73404761D01*
X156571428Y-73309523D01*
X156571428Y-72928571D01*
X156642857Y-72833333D01*
X156785714Y-72785714D01*
X157071428Y-72785714D01*
X157214285Y-72833333D01*
X157285714Y-72928571D01*
X157285714Y-73023809D01*
X156571428Y-73119047D01*
X159214285Y-105852380D02*
X160142857Y-105852380D01*
X159642857Y-106233333D01*
X159857142Y-106233333D01*
X160000000Y-106280952D01*
X160071428Y-106328571D01*
X160142857Y-106423809D01*
X160142857Y-106661904D01*
X160071428Y-106757142D01*
X160000000Y-106804761D01*
X159857142Y-106852380D01*
X159428571Y-106852380D01*
X159285714Y-106804761D01*
X159214285Y-106757142D01*
X160714285Y-105947619D02*
X160785714Y-105900000D01*
X160928571Y-105852380D01*
X161285714Y-105852380D01*
X161428571Y-105900000D01*
X161500000Y-105947619D01*
X161571428Y-106042857D01*
X161571428Y-106138095D01*
X161500000Y-106280952D01*
X160642857Y-106852380D01*
X161571428Y-106852380D01*
X162214285Y-106757142D02*
X162285714Y-106804761D01*
X162214285Y-106852380D01*
X162142857Y-106804761D01*
X162214285Y-106757142D01*
X162214285Y-106852380D01*
X162785714Y-105852380D02*
X163785714Y-105852380D01*
X163142857Y-106852380D01*
X165000000Y-105852380D02*
X164714285Y-105852380D01*
X164571428Y-105900000D01*
X164500000Y-105947619D01*
X164357142Y-106090476D01*
X164285714Y-106280952D01*
X164285714Y-106661904D01*
X164357142Y-106757142D01*
X164428571Y-106804761D01*
X164571428Y-106852380D01*
X164857142Y-106852380D01*
X165000000Y-106804761D01*
X165071428Y-106757142D01*
X165142857Y-106661904D01*
X165142857Y-106423809D01*
X165071428Y-106328571D01*
X165000000Y-106280952D01*
X164857142Y-106233333D01*
X164571428Y-106233333D01*
X164428571Y-106280952D01*
X164357142Y-106328571D01*
X164285714Y-106423809D01*
X166000000Y-106280952D02*
X165857142Y-106233333D01*
X165785714Y-106185714D01*
X165714285Y-106090476D01*
X165714285Y-106042857D01*
X165785714Y-105947619D01*
X165857142Y-105900000D01*
X166000000Y-105852380D01*
X166285714Y-105852380D01*
X166428571Y-105900000D01*
X166500000Y-105947619D01*
X166571428Y-106042857D01*
X166571428Y-106090476D01*
X166500000Y-106185714D01*
X166428571Y-106233333D01*
X166285714Y-106280952D01*
X166000000Y-106280952D01*
X165857142Y-106328571D01*
X165785714Y-106376190D01*
X165714285Y-106471428D01*
X165714285Y-106661904D01*
X165785714Y-106757142D01*
X165857142Y-106804761D01*
X166000000Y-106852380D01*
X166285714Y-106852380D01*
X166428571Y-106804761D01*
X166500000Y-106757142D01*
X166571428Y-106661904D01*
X166571428Y-106471428D01*
X166500000Y-106376190D01*
X166428571Y-106328571D01*
X166285714Y-106280952D01*
X168357142Y-106852380D02*
X168357142Y-105852380D01*
X168500000Y-106471428D02*
X168928571Y-106852380D01*
X168928571Y-106185714D02*
X168357142Y-106566666D01*
X169571428Y-106852380D02*
X169571428Y-105852380D01*
X169571428Y-106328571D02*
X170428571Y-106328571D01*
X170428571Y-106852380D02*
X170428571Y-105852380D01*
X171000000Y-106185714D02*
X171785714Y-106185714D01*
X171000000Y-106852380D01*
X171785714Y-106852380D01*
X128192857Y-105852380D02*
X128335714Y-105852380D01*
X128478571Y-105900000D01*
X128550000Y-105947619D01*
X128621428Y-106042857D01*
X128692857Y-106233333D01*
X128692857Y-106471428D01*
X128621428Y-106661904D01*
X128550000Y-106757142D01*
X128478571Y-106804761D01*
X128335714Y-106852380D01*
X128192857Y-106852380D01*
X128050000Y-106804761D01*
X127978571Y-106757142D01*
X127907142Y-106661904D01*
X127835714Y-106471428D01*
X127835714Y-106233333D01*
X127907142Y-106042857D01*
X127978571Y-105947619D01*
X128050000Y-105900000D01*
X128192857Y-105852380D01*
X129335714Y-106757142D02*
X129407142Y-106804761D01*
X129335714Y-106852380D01*
X129264285Y-106804761D01*
X129335714Y-106757142D01*
X129335714Y-106852380D01*
X130764285Y-105852380D02*
X130050000Y-105852380D01*
X129978571Y-106328571D01*
X130050000Y-106280952D01*
X130192857Y-106233333D01*
X130550000Y-106233333D01*
X130692857Y-106280952D01*
X130764285Y-106328571D01*
X130835714Y-106423809D01*
X130835714Y-106661904D01*
X130764285Y-106757142D01*
X130692857Y-106804761D01*
X130550000Y-106852380D01*
X130192857Y-106852380D01*
X130050000Y-106804761D01*
X129978571Y-106757142D01*
X132621428Y-106852380D02*
X132621428Y-105852380D01*
X132621428Y-106328571D02*
X133478571Y-106328571D01*
X133478571Y-106852380D02*
X133478571Y-105852380D01*
X134050000Y-106185714D02*
X134835714Y-106185714D01*
X134050000Y-106852380D01*
X134835714Y-106852380D01*
D11*
G36*
X155699227Y-71101120D02*
G01*
X155699227Y-71025820D01*
X155847607Y-71025820D01*
X155995997Y-71025820D01*
X155995997Y-71101120D01*
X155995997Y-71176420D01*
X155847607Y-71176420D01*
X155699227Y-71176420D01*
X155699227Y-71101120D01*
G37*
X155699227Y-71101120D02*
X155699227Y-71025820D01*
X155847607Y-71025820D01*
X155995997Y-71025820D01*
X155995997Y-71101120D01*
X155995997Y-71176420D01*
X155847607Y-71176420D01*
X155699227Y-71176420D01*
X155699227Y-71101120D01*
G36*
X155995997Y-70950520D02*
G01*
X155995997Y-70875220D01*
X156071297Y-70875220D01*
X156146597Y-70875220D01*
X156146597Y-70950520D01*
X156146597Y-71025820D01*
X156071297Y-71025820D01*
X155995997Y-71025820D01*
X155995997Y-70950520D01*
G37*
X155995997Y-70950520D02*
X155995997Y-70875220D01*
X156071297Y-70875220D01*
X156146597Y-70875220D01*
X156146597Y-70950520D01*
X156146597Y-71025820D01*
X156071297Y-71025820D01*
X155995997Y-71025820D01*
X155995997Y-70950520D01*
G36*
X156447797Y-68474470D02*
G01*
X156447797Y-68323870D01*
X156523097Y-68323870D01*
X156598397Y-68323870D01*
X156598397Y-68474470D01*
X156598397Y-68625070D01*
X156523097Y-68625070D01*
X156447797Y-68625070D01*
X156447797Y-68474470D01*
G37*
X156447797Y-68474470D02*
X156447797Y-68323870D01*
X156523097Y-68323870D01*
X156598397Y-68323870D01*
X156598397Y-68474470D01*
X156598397Y-68625070D01*
X156523097Y-68625070D01*
X156447797Y-68625070D01*
X156447797Y-68474470D01*
G36*
X156744567Y-68102410D02*
G01*
X156744567Y-68027110D01*
X156895167Y-68027110D01*
X157045767Y-68027110D01*
X157045767Y-68102410D01*
X157045767Y-68177710D01*
X156895167Y-68177710D01*
X156744567Y-68177710D01*
X156744567Y-68102410D01*
G37*
X156744567Y-68102410D02*
X156744567Y-68027110D01*
X156895167Y-68027110D01*
X157045767Y-68027110D01*
X157045767Y-68102410D01*
X157045767Y-68177710D01*
X156895167Y-68177710D01*
X156744567Y-68177710D01*
X156744567Y-68102410D01*
G36*
X156598397Y-68250790D02*
G01*
X156598397Y-68177790D01*
X156671497Y-68177790D01*
X156744497Y-68177790D01*
X156744497Y-68250790D01*
X156744497Y-68323790D01*
X156671497Y-68323790D01*
X156598397Y-68323790D01*
X156598397Y-68250790D01*
G37*
X156598397Y-68250790D02*
X156598397Y-68177790D01*
X156671497Y-68177790D01*
X156744497Y-68177790D01*
X156744497Y-68250790D01*
X156744497Y-68323790D01*
X156671497Y-68323790D01*
X156598397Y-68323790D01*
X156598397Y-68250790D01*
G36*
X156297197Y-71098900D02*
G01*
X156297197Y-70875220D01*
X156221897Y-70875220D01*
X156146597Y-70875220D01*
X156146597Y-70724620D01*
X156146597Y-70574020D01*
X156221897Y-70574020D01*
X156297197Y-70574020D01*
X156297197Y-70423420D01*
X156297197Y-70272820D01*
X156297157Y-70051420D01*
X156297157Y-69976120D01*
X156221857Y-69976120D01*
X156146557Y-69976120D01*
X156146557Y-70051420D01*
X156146557Y-70126720D01*
X156221857Y-70126720D01*
X156297157Y-70126720D01*
X156297157Y-70051420D01*
X156297197Y-70272820D01*
X156071297Y-70272820D01*
X155845397Y-70272820D01*
X155845397Y-70348120D01*
X155845397Y-70423420D01*
X155772297Y-70423420D01*
X155699197Y-70423420D01*
X155699197Y-70348120D01*
X155699197Y-70272820D01*
X154948407Y-70272820D01*
X154197618Y-70272820D01*
X154197618Y-70199720D01*
X154197618Y-70126720D01*
X154122318Y-70126720D01*
X154047018Y-70126720D01*
X154047018Y-70051420D01*
X154047018Y-69976120D01*
X155096797Y-69976120D01*
X156146557Y-69976120D01*
X156146557Y-69900820D01*
X156146557Y-69825520D01*
X156221857Y-69825520D01*
X156297157Y-69825520D01*
X156297157Y-69225330D01*
X156297157Y-68625150D01*
X156372457Y-68625150D01*
X156447757Y-68625150D01*
X156447757Y-69900820D01*
X156447757Y-71176490D01*
X156671447Y-71176490D01*
X156895127Y-71176490D01*
X156895127Y-69976120D01*
X156895127Y-68775750D01*
X156970427Y-68775750D01*
X157045727Y-68775750D01*
X157045727Y-69976120D01*
X157045727Y-71176490D01*
X157271627Y-71176490D01*
X157497527Y-71176490D01*
X157497527Y-70126720D01*
X157497527Y-69076950D01*
X158321407Y-69076950D01*
X159145267Y-69076950D01*
X159145267Y-68851050D01*
X159145267Y-68625150D01*
X158170806Y-68625150D01*
X157196327Y-68625150D01*
X157196327Y-68549850D01*
X157196327Y-68474550D01*
X158170806Y-68474550D01*
X159145267Y-68474550D01*
X159145267Y-68250870D01*
X159145267Y-68027180D01*
X158095507Y-68027180D01*
X157045727Y-68027180D01*
X157045727Y-67951880D01*
X157045727Y-67876580D01*
X158170806Y-67876580D01*
X159295867Y-67876580D01*
X159295867Y-68552070D01*
X159295867Y-69227550D01*
X158469787Y-69227550D01*
X157643707Y-69227550D01*
X157643707Y-70275100D01*
X157643707Y-71322660D01*
X156970427Y-71322660D01*
X156297157Y-71322660D01*
X156297157Y-71098980D01*
X156297197Y-71098900D01*
G37*
X156297197Y-71098900D02*
X156297197Y-70875220D01*
X156221897Y-70875220D01*
X156146597Y-70875220D01*
X156146597Y-70724620D01*
X156146597Y-70574020D01*
X156221897Y-70574020D01*
X156297197Y-70574020D01*
X156297197Y-70423420D01*
X156297197Y-70272820D01*
X156297157Y-70051420D01*
X156297157Y-69976120D01*
X156221857Y-69976120D01*
X156146557Y-69976120D01*
X156146557Y-70051420D01*
X156146557Y-70126720D01*
X156221857Y-70126720D01*
X156297157Y-70126720D01*
X156297157Y-70051420D01*
X156297197Y-70272820D01*
X156071297Y-70272820D01*
X155845397Y-70272820D01*
X155845397Y-70348120D01*
X155845397Y-70423420D01*
X155772297Y-70423420D01*
X155699197Y-70423420D01*
X155699197Y-70348120D01*
X155699197Y-70272820D01*
X154948407Y-70272820D01*
X154197618Y-70272820D01*
X154197618Y-70199720D01*
X154197618Y-70126720D01*
X154122318Y-70126720D01*
X154047018Y-70126720D01*
X154047018Y-70051420D01*
X154047018Y-69976120D01*
X155096797Y-69976120D01*
X156146557Y-69976120D01*
X156146557Y-69900820D01*
X156146557Y-69825520D01*
X156221857Y-69825520D01*
X156297157Y-69825520D01*
X156297157Y-69225330D01*
X156297157Y-68625150D01*
X156372457Y-68625150D01*
X156447757Y-68625150D01*
X156447757Y-69900820D01*
X156447757Y-71176490D01*
X156671447Y-71176490D01*
X156895127Y-71176490D01*
X156895127Y-69976120D01*
X156895127Y-68775750D01*
X156970427Y-68775750D01*
X157045727Y-68775750D01*
X157045727Y-69976120D01*
X157045727Y-71176490D01*
X157271627Y-71176490D01*
X157497527Y-71176490D01*
X157497527Y-70126720D01*
X157497527Y-69076950D01*
X158321407Y-69076950D01*
X159145267Y-69076950D01*
X159145267Y-68851050D01*
X159145267Y-68625150D01*
X158170806Y-68625150D01*
X157196327Y-68625150D01*
X157196327Y-68549850D01*
X157196327Y-68474550D01*
X158170806Y-68474550D01*
X159145267Y-68474550D01*
X159145267Y-68250870D01*
X159145267Y-68027180D01*
X158095507Y-68027180D01*
X157045727Y-68027180D01*
X157045727Y-67951880D01*
X157045727Y-67876580D01*
X158170806Y-67876580D01*
X159295867Y-67876580D01*
X159295867Y-68552070D01*
X159295867Y-69227550D01*
X158469787Y-69227550D01*
X157643707Y-69227550D01*
X157643707Y-70275100D01*
X157643707Y-71322660D01*
X156970427Y-71322660D01*
X156297157Y-71322660D01*
X156297157Y-71098980D01*
X156297197Y-71098900D01*
G36*
X147600232Y-69601760D02*
G01*
X147600232Y-69227470D01*
X147675532Y-69227470D01*
X147750832Y-69227470D01*
X147750832Y-69601760D01*
X147750832Y-69976050D01*
X147675532Y-69976050D01*
X147600232Y-69976050D01*
X147600232Y-69601760D01*
G37*
X147600232Y-69601760D02*
X147600232Y-69227470D01*
X147675532Y-69227470D01*
X147750832Y-69227470D01*
X147750832Y-69601760D01*
X147750832Y-69976050D01*
X147675532Y-69976050D01*
X147600232Y-69976050D01*
X147600232Y-69601760D01*
G36*
X147750832Y-69152170D02*
G01*
X147750832Y-69076870D01*
X148125116Y-69076870D01*
X148499402Y-69076870D01*
X148499402Y-69152170D01*
X148499402Y-69227470D01*
X148125116Y-69227470D01*
X147750832Y-69227470D01*
X147750832Y-69152170D01*
G37*
X147750832Y-69152170D02*
X147750832Y-69076870D01*
X148125116Y-69076870D01*
X148499402Y-69076870D01*
X148499402Y-69152170D01*
X148499402Y-69227470D01*
X148125116Y-69227470D01*
X147750832Y-69227470D01*
X147750832Y-69152170D01*
G36*
X147750832Y-70051350D02*
G01*
X147750832Y-69976050D01*
X148125116Y-69976050D01*
X148499402Y-69976050D01*
X148499402Y-70051350D01*
X148499402Y-70126650D01*
X148125116Y-70126650D01*
X147750832Y-70126650D01*
X147750832Y-70051350D01*
G37*
X147750832Y-70051350D02*
X147750832Y-69976050D01*
X148125116Y-69976050D01*
X148499402Y-69976050D01*
X148499402Y-70051350D01*
X148499402Y-70126650D01*
X148125116Y-70126650D01*
X147750832Y-70126650D01*
X147750832Y-70051350D01*
G36*
X149403001Y-70950520D02*
G01*
X149403001Y-70875220D01*
X149476091Y-70875220D01*
X149549181Y-70875220D01*
X149549181Y-70950520D01*
X149549181Y-71025820D01*
X149476091Y-71025820D01*
X149403001Y-71025820D01*
X149403001Y-70950520D01*
G37*
X149403001Y-70950520D02*
X149403001Y-70875220D01*
X149476091Y-70875220D01*
X149549181Y-70875220D01*
X149549181Y-70950520D01*
X149549181Y-71025820D01*
X149476091Y-71025820D01*
X149403001Y-71025820D01*
X149403001Y-70950520D01*
G36*
X149101802Y-71101120D02*
G01*
X149101802Y-71025820D01*
X149252402Y-71025820D01*
X149403001Y-71025820D01*
X149403001Y-71101120D01*
X149403001Y-71176420D01*
X149252402Y-71176420D01*
X149101802Y-71176420D01*
X149101802Y-71101120D01*
G37*
X149101802Y-71101120D02*
X149101802Y-71025820D01*
X149252402Y-71025820D01*
X149403001Y-71025820D01*
X149403001Y-71101120D01*
X149403001Y-71176420D01*
X149252402Y-71176420D01*
X149101802Y-71176420D01*
X149101802Y-71101120D01*
G36*
X147152862Y-68700370D02*
G01*
X147152862Y-68625070D01*
X147228162Y-68625070D01*
X147303462Y-68625070D01*
X147303462Y-68700370D01*
X147303462Y-68775670D01*
X147228162Y-68775670D01*
X147152862Y-68775670D01*
X147152862Y-68700370D01*
G37*
X147152862Y-68700370D02*
X147152862Y-68625070D01*
X147228162Y-68625070D01*
X147303462Y-68625070D01*
X147303462Y-68700370D01*
X147303462Y-68775670D01*
X147228162Y-68775670D01*
X147152862Y-68775670D01*
X147152862Y-68700370D01*
G36*
X146550462Y-68474470D02*
G01*
X146550462Y-68323870D01*
X146625762Y-68323870D01*
X146701062Y-68323870D01*
X146701062Y-68474470D01*
X146701062Y-68625070D01*
X146625762Y-68625070D01*
X146550462Y-68625070D01*
X146550462Y-68474470D01*
G37*
X146550462Y-68474470D02*
X146550462Y-68323870D01*
X146625762Y-68323870D01*
X146701062Y-68323870D01*
X146701062Y-68474470D01*
X146701062Y-68625070D01*
X146625762Y-68625070D01*
X146550462Y-68625070D01*
X146550462Y-68474470D01*
G36*
X146701062Y-68250790D02*
G01*
X146701062Y-68177790D01*
X146776362Y-68177790D01*
X146851662Y-68177790D01*
X146851662Y-68250790D01*
X146851662Y-68323790D01*
X146776362Y-68323790D01*
X146701062Y-68323790D01*
X146701062Y-68250790D01*
G37*
X146701062Y-68250790D02*
X146701062Y-68177790D01*
X146776362Y-68177790D01*
X146851662Y-68177790D01*
X146851662Y-68250790D01*
X146851662Y-68323790D01*
X146776362Y-68323790D01*
X146701062Y-68323790D01*
X146701062Y-68250790D01*
G36*
X146851662Y-68102410D02*
G01*
X146851662Y-68027110D01*
X147002262Y-68027110D01*
X147152862Y-68027110D01*
X147152862Y-68102410D01*
X147152862Y-68177710D01*
X147002262Y-68177710D01*
X146851662Y-68177710D01*
X146851662Y-68102410D01*
G37*
X146851662Y-68102410D02*
X146851662Y-68027110D01*
X147002262Y-68027110D01*
X147152862Y-68027110D01*
X147152862Y-68102410D01*
X147152862Y-68177710D01*
X147002262Y-68177710D01*
X146851662Y-68177710D01*
X146851662Y-68102410D01*
G36*
X147152862Y-67951810D02*
G01*
X147152862Y-67876510D01*
X148127332Y-67876510D01*
X149101802Y-67876510D01*
X149101802Y-67951810D01*
X149101802Y-68027110D01*
X148127332Y-68027110D01*
X147152862Y-68027110D01*
X147152862Y-67951810D01*
G37*
X147152862Y-67951810D02*
X147152862Y-67876510D01*
X148127332Y-67876510D01*
X149101802Y-67876510D01*
X149101802Y-67951810D01*
X149101802Y-68027110D01*
X148127332Y-68027110D01*
X147152862Y-68027110D01*
X147152862Y-67951810D01*
G36*
X147303461Y-68549770D02*
G01*
X147303461Y-68474470D01*
X148127332Y-68474470D01*
X148951202Y-68474470D01*
X148951202Y-68549770D01*
X148951202Y-68625070D01*
X148127332Y-68625070D01*
X147303461Y-68625070D01*
X147303461Y-68549770D01*
G37*
X147303461Y-68549770D02*
X147303461Y-68474470D01*
X148127332Y-68474470D01*
X148951202Y-68474470D01*
X148951202Y-68549770D01*
X148951202Y-68625070D01*
X148127332Y-68625070D01*
X147303461Y-68625070D01*
X147303461Y-68549770D01*
G36*
X146404292Y-71400100D02*
G01*
X146404296Y-70126660D01*
X146404296Y-70051360D01*
X146404296Y-69976060D01*
X146328996Y-69976060D01*
X146253696Y-69976060D01*
X146253696Y-70051360D01*
X146253696Y-70126660D01*
X146328996Y-70126660D01*
X146404296Y-70126660D01*
X146404292Y-71400100D01*
X146404292Y-70875220D01*
X146328992Y-70875220D01*
X146253692Y-70875220D01*
X146253692Y-70724620D01*
X146253692Y-70574020D01*
X146328992Y-70574020D01*
X146404292Y-70574020D01*
X146404292Y-70423420D01*
X146404292Y-70272820D01*
X146178392Y-70272820D01*
X145952492Y-70272820D01*
X145952492Y-70348120D01*
X145952492Y-70423420D01*
X145877192Y-70423420D01*
X145801892Y-70423420D01*
X145801892Y-70348120D01*
X145801892Y-70272820D01*
X145053322Y-70272820D01*
X144304753Y-70272820D01*
X144304753Y-70199720D01*
X144304753Y-70126720D01*
X144229453Y-70126720D01*
X144154153Y-70126720D01*
X144154153Y-70051420D01*
X144154153Y-69976120D01*
X145203924Y-69976120D01*
X146253693Y-69976120D01*
X146253693Y-69900820D01*
X146253693Y-69825520D01*
X146328993Y-69825520D01*
X146404293Y-69825520D01*
X146404293Y-69225330D01*
X146404293Y-68625150D01*
X146477383Y-68625150D01*
X146550473Y-68625150D01*
X146550473Y-70199800D01*
X146550473Y-71774460D01*
X146776373Y-71774460D01*
X147002273Y-71774460D01*
X147002273Y-70275100D01*
X147002273Y-68775750D01*
X147077573Y-68775750D01*
X147152873Y-68775750D01*
X147152873Y-69674920D01*
X147152873Y-70574090D01*
X148052042Y-70574090D01*
X148951212Y-70574090D01*
X148951212Y-70649390D01*
X148951212Y-70724690D01*
X148052042Y-70724690D01*
X147152873Y-70724690D01*
X147152873Y-71249580D01*
X147152873Y-71774460D01*
X147376558Y-71774460D01*
X147600242Y-71774460D01*
X147600242Y-71475480D01*
X147600242Y-71176490D01*
X148351028Y-71176490D01*
X149101812Y-71176490D01*
X149101812Y-71249590D01*
X149101812Y-71322590D01*
X148426321Y-71322590D01*
X147750836Y-71322590D01*
X147750836Y-71623790D01*
X147750836Y-71924990D01*
X147077566Y-71924990D01*
X146404296Y-71924990D01*
X146404296Y-71400110D01*
X146404292Y-71400100D01*
G37*
X146404292Y-71400100D02*
X146404296Y-70126660D01*
X146404296Y-70051360D01*
X146404296Y-69976060D01*
X146328996Y-69976060D01*
X146253696Y-69976060D01*
X146253696Y-70051360D01*
X146253696Y-70126660D01*
X146328996Y-70126660D01*
X146404296Y-70126660D01*
X146404292Y-71400100D01*
X146404292Y-70875220D01*
X146328992Y-70875220D01*
X146253692Y-70875220D01*
X146253692Y-70724620D01*
X146253692Y-70574020D01*
X146328992Y-70574020D01*
X146404292Y-70574020D01*
X146404292Y-70423420D01*
X146404292Y-70272820D01*
X146178392Y-70272820D01*
X145952492Y-70272820D01*
X145952492Y-70348120D01*
X145952492Y-70423420D01*
X145877192Y-70423420D01*
X145801892Y-70423420D01*
X145801892Y-70348120D01*
X145801892Y-70272820D01*
X145053322Y-70272820D01*
X144304753Y-70272820D01*
X144304753Y-70199720D01*
X144304753Y-70126720D01*
X144229453Y-70126720D01*
X144154153Y-70126720D01*
X144154153Y-70051420D01*
X144154153Y-69976120D01*
X145203924Y-69976120D01*
X146253693Y-69976120D01*
X146253693Y-69900820D01*
X146253693Y-69825520D01*
X146328993Y-69825520D01*
X146404293Y-69825520D01*
X146404293Y-69225330D01*
X146404293Y-68625150D01*
X146477383Y-68625150D01*
X146550473Y-68625150D01*
X146550473Y-70199800D01*
X146550473Y-71774460D01*
X146776373Y-71774460D01*
X147002273Y-71774460D01*
X147002273Y-70275100D01*
X147002273Y-68775750D01*
X147077573Y-68775750D01*
X147152873Y-68775750D01*
X147152873Y-69674920D01*
X147152873Y-70574090D01*
X148052042Y-70574090D01*
X148951212Y-70574090D01*
X148951212Y-70649390D01*
X148951212Y-70724690D01*
X148052042Y-70724690D01*
X147152873Y-70724690D01*
X147152873Y-71249580D01*
X147152873Y-71774460D01*
X147376558Y-71774460D01*
X147600242Y-71774460D01*
X147600242Y-71475480D01*
X147600242Y-71176490D01*
X148351028Y-71176490D01*
X149101812Y-71176490D01*
X149101812Y-71249590D01*
X149101812Y-71322590D01*
X148426321Y-71322590D01*
X147750836Y-71322590D01*
X147750836Y-71623790D01*
X147750836Y-71924990D01*
X147077566Y-71924990D01*
X146404296Y-71924990D01*
X146404296Y-71400110D01*
X146404292Y-71400100D01*
G36*
X152997343Y-69599550D02*
G01*
X152997343Y-68625070D01*
X153072643Y-68625070D01*
X153147943Y-68625070D01*
X153147943Y-69599550D01*
X153147943Y-70574020D01*
X153072643Y-70574020D01*
X152997343Y-70574020D01*
X152997343Y-69599550D01*
G37*
X152997343Y-69599550D02*
X152997343Y-68625070D01*
X153072643Y-68625070D01*
X153147943Y-68625070D01*
X153147943Y-69599550D01*
X153147943Y-70574020D01*
X153072643Y-70574020D01*
X152997343Y-70574020D01*
X152997343Y-69599550D01*
G36*
X150450434Y-68700370D02*
G01*
X150450434Y-68625070D01*
X150525734Y-68625070D01*
X150601034Y-68625070D01*
X150601034Y-68700370D01*
X150601034Y-68775670D01*
X150525734Y-68775670D01*
X150450434Y-68775670D01*
X150450434Y-68700370D01*
G37*
X150450434Y-68700370D02*
X150450434Y-68625070D01*
X150525734Y-68625070D01*
X150601034Y-68625070D01*
X150601034Y-68700370D01*
X150601034Y-68775670D01*
X150525734Y-68775670D01*
X150450434Y-68775670D01*
X150450434Y-68700370D01*
G36*
X150601034Y-68549770D02*
G01*
X150601034Y-68474470D01*
X151424904Y-68474470D01*
X152248774Y-68474470D01*
X152248774Y-68549770D01*
X152248774Y-68625070D01*
X151424904Y-68625070D01*
X150601034Y-68625070D01*
X150601034Y-68549770D01*
G37*
X150601034Y-68549770D02*
X150601034Y-68474470D01*
X151424904Y-68474470D01*
X152248774Y-68474470D01*
X152248774Y-68549770D01*
X152248774Y-68625070D01*
X151424904Y-68625070D01*
X150601034Y-68625070D01*
X150601034Y-68549770D01*
G36*
X152248774Y-68700370D02*
G01*
X152248774Y-68625070D01*
X152324074Y-68625070D01*
X152399374Y-68625070D01*
X152399374Y-68700370D01*
X152399374Y-68775670D01*
X152324074Y-68775670D01*
X152248774Y-68775670D01*
X152248774Y-68700370D01*
G37*
X152248774Y-68700370D02*
X152248774Y-68625070D01*
X152324074Y-68625070D01*
X152399374Y-68625070D01*
X152399374Y-68700370D01*
X152399374Y-68775670D01*
X152324074Y-68775670D01*
X152248774Y-68775670D01*
X152248774Y-68700370D01*
G36*
X152399373Y-69599550D02*
G01*
X152399373Y-68775670D01*
X152474673Y-68775670D01*
X152549973Y-68775670D01*
X152549973Y-69599550D01*
X152549973Y-70423420D01*
X152474673Y-70423420D01*
X152399373Y-70423420D01*
X152399373Y-69599550D01*
G37*
X152399373Y-69599550D02*
X152399373Y-68775670D01*
X152474673Y-68775670D01*
X152549973Y-68775670D01*
X152549973Y-69599550D01*
X152549973Y-70423420D01*
X152474673Y-70423420D01*
X152399373Y-70423420D01*
X152399373Y-69599550D01*
G36*
X149701863Y-71400100D02*
G01*
X149701863Y-70875220D01*
X149626563Y-70875220D01*
X149551263Y-70875220D01*
X149551263Y-70724620D01*
X149551263Y-70574020D01*
X149626563Y-70574020D01*
X149701863Y-70574020D01*
X149701863Y-69599550D01*
X149701863Y-68625070D01*
X149777163Y-68625070D01*
X149852463Y-68625070D01*
X149852463Y-70199730D01*
X149852463Y-71774380D01*
X150076150Y-71774380D01*
X150299835Y-71774380D01*
X150299835Y-70275030D01*
X150299835Y-68775670D01*
X150375135Y-68775670D01*
X150450435Y-68775670D01*
X150450435Y-69674850D01*
X150450435Y-70574020D01*
X151349605Y-70574020D01*
X152248775Y-70574020D01*
X152248775Y-70649320D01*
X152248775Y-70724620D01*
X151349605Y-70724620D01*
X150450435Y-70724620D01*
X150450435Y-71249500D01*
X150450435Y-71774380D01*
X150674119Y-71774380D01*
X150897805Y-71774380D01*
X150897805Y-71475400D01*
X150897805Y-71176420D01*
X151648590Y-71176420D01*
X152399374Y-71176420D01*
X152399374Y-71249520D01*
X152399374Y-71322520D01*
X151723890Y-71322520D01*
X151048405Y-71322520D01*
X151048405Y-71623720D01*
X151048405Y-71924920D01*
X150375135Y-71924920D01*
X149701864Y-71924920D01*
X149701864Y-71400040D01*
X149701863Y-71400100D01*
G37*
X149701863Y-71400100D02*
X149701863Y-70875220D01*
X149626563Y-70875220D01*
X149551263Y-70875220D01*
X149551263Y-70724620D01*
X149551263Y-70574020D01*
X149626563Y-70574020D01*
X149701863Y-70574020D01*
X149701863Y-69599550D01*
X149701863Y-68625070D01*
X149777163Y-68625070D01*
X149852463Y-68625070D01*
X149852463Y-70199730D01*
X149852463Y-71774380D01*
X150076150Y-71774380D01*
X150299835Y-71774380D01*
X150299835Y-70275030D01*
X150299835Y-68775670D01*
X150375135Y-68775670D01*
X150450435Y-68775670D01*
X150450435Y-69674850D01*
X150450435Y-70574020D01*
X151349605Y-70574020D01*
X152248775Y-70574020D01*
X152248775Y-70649320D01*
X152248775Y-70724620D01*
X151349605Y-70724620D01*
X150450435Y-70724620D01*
X150450435Y-71249500D01*
X150450435Y-71774380D01*
X150674119Y-71774380D01*
X150897805Y-71774380D01*
X150897805Y-71475400D01*
X150897805Y-71176420D01*
X151648590Y-71176420D01*
X152399374Y-71176420D01*
X152399374Y-71249520D01*
X152399374Y-71322520D01*
X151723890Y-71322520D01*
X151048405Y-71322520D01*
X151048405Y-71623720D01*
X151048405Y-71924920D01*
X150375135Y-71924920D01*
X149701864Y-71924920D01*
X149701864Y-71400040D01*
X149701863Y-71400100D01*
G36*
X152248774Y-70498720D02*
G01*
X152248774Y-70423420D01*
X152324074Y-70423420D01*
X152399374Y-70423420D01*
X152399374Y-70498720D01*
X152399374Y-70574020D01*
X152324074Y-70574020D01*
X152248774Y-70574020D01*
X152248774Y-70498720D01*
G37*
X152248774Y-70498720D02*
X152248774Y-70423420D01*
X152324074Y-70423420D01*
X152399374Y-70423420D01*
X152399374Y-70498720D01*
X152399374Y-70574020D01*
X152324074Y-70574020D01*
X152248774Y-70574020D01*
X152248774Y-70498720D01*
G36*
X152399373Y-71101120D02*
G01*
X152399373Y-71025820D01*
X152549973Y-71025820D01*
X152700573Y-71025820D01*
X152700573Y-71101120D01*
X152700573Y-71176420D01*
X152549973Y-71176420D01*
X152399373Y-71176420D01*
X152399373Y-71101120D01*
G37*
X152399373Y-71101120D02*
X152399373Y-71025820D01*
X152549973Y-71025820D01*
X152700573Y-71025820D01*
X152700573Y-71101120D01*
X152700573Y-71176420D01*
X152549973Y-71176420D01*
X152399373Y-71176420D01*
X152399373Y-71101120D01*
G36*
X152700573Y-70950520D02*
G01*
X152700573Y-70875220D01*
X152773663Y-70875220D01*
X152846753Y-70875220D01*
X152846753Y-70950520D01*
X152846753Y-71025820D01*
X152773663Y-71025820D01*
X152700573Y-71025820D01*
X152700573Y-70950520D01*
G37*
X152700573Y-70950520D02*
X152700573Y-70875220D01*
X152773663Y-70875220D01*
X152846753Y-70875220D01*
X152846753Y-70950520D01*
X152846753Y-71025820D01*
X152773663Y-71025820D01*
X152700573Y-71025820D01*
X152700573Y-70950520D01*
G36*
X152846744Y-70724620D02*
G01*
X152846744Y-70574020D01*
X152922044Y-70574020D01*
X152997344Y-70574020D01*
X152997344Y-70724620D01*
X152997344Y-70875220D01*
X152922044Y-70875220D01*
X152846744Y-70875220D01*
X152846744Y-70724620D01*
G37*
X152846744Y-70724620D02*
X152846744Y-70574020D01*
X152922044Y-70574020D01*
X152997344Y-70574020D01*
X152997344Y-70724620D01*
X152997344Y-70875220D01*
X152922044Y-70875220D01*
X152846744Y-70875220D01*
X152846744Y-70724620D01*
G36*
X153147944Y-70724620D02*
G01*
X153147944Y-70574020D01*
X153223244Y-70574020D01*
X153298544Y-70574020D01*
X153298544Y-70724620D01*
X153298544Y-70875220D01*
X153223244Y-70875220D01*
X153147944Y-70875220D01*
X153147944Y-70724620D01*
G37*
X153147944Y-70724620D02*
X153147944Y-70574020D01*
X153223244Y-70574020D01*
X153298544Y-70574020D01*
X153298544Y-70724620D01*
X153298544Y-70875220D01*
X153223244Y-70875220D01*
X153147944Y-70875220D01*
X153147944Y-70724620D01*
G36*
X153298543Y-70950520D02*
G01*
X153298543Y-70875220D01*
X153373843Y-70875220D01*
X153449143Y-70875220D01*
X153449143Y-70950520D01*
X153449143Y-71025820D01*
X153373843Y-71025820D01*
X153298543Y-71025820D01*
X153298543Y-70950520D01*
G37*
X153298543Y-70950520D02*
X153298543Y-70875220D01*
X153373843Y-70875220D01*
X153449143Y-70875220D01*
X153449143Y-70950520D01*
X153449143Y-71025820D01*
X153373843Y-71025820D01*
X153298543Y-71025820D01*
X153298543Y-70950520D01*
G36*
X153449143Y-71101120D02*
G01*
X153449143Y-71025820D01*
X153599743Y-71025820D01*
X153750341Y-71025820D01*
X153750341Y-71101120D01*
X153750341Y-71176420D01*
X153599743Y-71176420D01*
X153449143Y-71176420D01*
X153449143Y-71101120D01*
G37*
X153449143Y-71101120D02*
X153449143Y-71025820D01*
X153599743Y-71025820D01*
X153750341Y-71025820D01*
X153750341Y-71101120D01*
X153750341Y-71176420D01*
X153599743Y-71176420D01*
X153449143Y-71176420D01*
X153449143Y-71101120D01*
G36*
X153750341Y-71249500D02*
G01*
X153750341Y-71176400D01*
X154722596Y-71176400D01*
X155694847Y-71176400D01*
X155694847Y-71249500D01*
X155694847Y-71322500D01*
X154722596Y-71322500D01*
X153750341Y-71322500D01*
X153750341Y-71249500D01*
G37*
X153750341Y-71249500D02*
X153750341Y-71176400D01*
X154722596Y-71176400D01*
X155694847Y-71176400D01*
X155694847Y-71249500D01*
X155694847Y-71322500D01*
X154722596Y-71322500D01*
X153750341Y-71322500D01*
X153750341Y-71249500D01*
G36*
X155694847Y-68102410D02*
G01*
X155694847Y-68027110D01*
X155845447Y-68027110D01*
X155996047Y-68027110D01*
X155996047Y-68102410D01*
X155996047Y-68177710D01*
X155845447Y-68177710D01*
X155694847Y-68177710D01*
X155694847Y-68102410D01*
G37*
X155694847Y-68102410D02*
X155694847Y-68027110D01*
X155845447Y-68027110D01*
X155996047Y-68027110D01*
X155996047Y-68102410D01*
X155996047Y-68177710D01*
X155845447Y-68177710D01*
X155694847Y-68177710D01*
X155694847Y-68102410D01*
G36*
X155996047Y-68250790D02*
G01*
X155996047Y-68177790D01*
X156071347Y-68177790D01*
X156146647Y-68177790D01*
X156146647Y-68250790D01*
X156146647Y-68323790D01*
X156071347Y-68323790D01*
X155996047Y-68323790D01*
X155996047Y-68250790D01*
G37*
X155996047Y-68250790D02*
X155996047Y-68177790D01*
X156071347Y-68177790D01*
X156146647Y-68177790D01*
X156146647Y-68250790D01*
X156146647Y-68323790D01*
X156071347Y-68323790D01*
X155996047Y-68323790D01*
X155996047Y-68250790D01*
G36*
X156146647Y-68474470D02*
G01*
X156146647Y-68323870D01*
X156221947Y-68323870D01*
X156297247Y-68323870D01*
X156297247Y-68474470D01*
X156297247Y-68625070D01*
X156221947Y-68625070D01*
X156146647Y-68625070D01*
X156146647Y-68474470D01*
G37*
X156146647Y-68474470D02*
X156146647Y-68323870D01*
X156221947Y-68323870D01*
X156297247Y-68323870D01*
X156297247Y-68474470D01*
X156297247Y-68625070D01*
X156221947Y-68625070D01*
X156146647Y-68625070D01*
X156146647Y-68474470D01*
G36*
X153750341Y-67951810D02*
G01*
X153750341Y-67876510D01*
X154722596Y-67876510D01*
X155694847Y-67876510D01*
X155694847Y-67951810D01*
X155694847Y-68027110D01*
X154722596Y-68027110D01*
X153750341Y-68027110D01*
X153750341Y-67951810D01*
G37*
X153750341Y-67951810D02*
X153750341Y-67876510D01*
X154722596Y-67876510D01*
X155694847Y-67876510D01*
X155694847Y-67951810D01*
X155694847Y-68027110D01*
X154722596Y-68027110D01*
X153750341Y-68027110D01*
X153750341Y-67951810D01*
G36*
X153449143Y-68102410D02*
G01*
X153449143Y-68027110D01*
X153599743Y-68027110D01*
X153750341Y-68027110D01*
X153750341Y-68102410D01*
X153750341Y-68177710D01*
X153599743Y-68177710D01*
X153449143Y-68177710D01*
X153449143Y-68102410D01*
G37*
X153449143Y-68102410D02*
X153449143Y-68027110D01*
X153599743Y-68027110D01*
X153750341Y-68027110D01*
X153750341Y-68102410D01*
X153750341Y-68177710D01*
X153599743Y-68177710D01*
X153449143Y-68177710D01*
X153449143Y-68102410D01*
G36*
X153298543Y-68250790D02*
G01*
X153298543Y-68177790D01*
X153373843Y-68177790D01*
X153449143Y-68177790D01*
X153449143Y-68250790D01*
X153449143Y-68323790D01*
X153373843Y-68323790D01*
X153298543Y-68323790D01*
X153298543Y-68250790D01*
G37*
X153298543Y-68250790D02*
X153298543Y-68177790D01*
X153373843Y-68177790D01*
X153449143Y-68177790D01*
X153449143Y-68250790D01*
X153449143Y-68323790D01*
X153373843Y-68323790D01*
X153298543Y-68323790D01*
X153298543Y-68250790D01*
G36*
X153147944Y-68474470D02*
G01*
X153147944Y-68323870D01*
X153223244Y-68323870D01*
X153298544Y-68323870D01*
X153298544Y-68474470D01*
X153298544Y-68625070D01*
X153223244Y-68625070D01*
X153147944Y-68625070D01*
X153147944Y-68474470D01*
G37*
X153147944Y-68474470D02*
X153147944Y-68323870D01*
X153223244Y-68323870D01*
X153298544Y-68323870D01*
X153298544Y-68474470D01*
X153298544Y-68625070D01*
X153223244Y-68625070D01*
X153147944Y-68625070D01*
X153147944Y-68474470D01*
G36*
X152846744Y-68474470D02*
G01*
X152846744Y-68323870D01*
X152922044Y-68323870D01*
X152997344Y-68323870D01*
X152997344Y-68474470D01*
X152997344Y-68625070D01*
X152922044Y-68625070D01*
X152846744Y-68625070D01*
X152846744Y-68474470D01*
G37*
X152846744Y-68474470D02*
X152846744Y-68323870D01*
X152922044Y-68323870D01*
X152997344Y-68323870D01*
X152997344Y-68474470D01*
X152997344Y-68625070D01*
X152922044Y-68625070D01*
X152846744Y-68625070D01*
X152846744Y-68474470D01*
G36*
X152700573Y-68250790D02*
G01*
X152700573Y-68177790D01*
X152773663Y-68177790D01*
X152846753Y-68177790D01*
X152846753Y-68250790D01*
X152846753Y-68323790D01*
X152773663Y-68323790D01*
X152700573Y-68323790D01*
X152700573Y-68250790D01*
G37*
X152700573Y-68250790D02*
X152700573Y-68177790D01*
X152773663Y-68177790D01*
X152846753Y-68177790D01*
X152846753Y-68250790D01*
X152846753Y-68323790D01*
X152773663Y-68323790D01*
X152700573Y-68323790D01*
X152700573Y-68250790D01*
G36*
X152399373Y-68102410D02*
G01*
X152399373Y-68027110D01*
X152549973Y-68027110D01*
X152700573Y-68027110D01*
X152700573Y-68102410D01*
X152700573Y-68177710D01*
X152549973Y-68177710D01*
X152399373Y-68177710D01*
X152399373Y-68102410D01*
G37*
X152399373Y-68102410D02*
X152399373Y-68027110D01*
X152549973Y-68027110D01*
X152700573Y-68027110D01*
X152700573Y-68102410D01*
X152700573Y-68177710D01*
X152549973Y-68177710D01*
X152399373Y-68177710D01*
X152399373Y-68102410D01*
G36*
X150450434Y-67951810D02*
G01*
X150450434Y-67876510D01*
X151424904Y-67876510D01*
X152399373Y-67876510D01*
X152399373Y-67951810D01*
X152399373Y-68027110D01*
X151424904Y-68027110D01*
X150450434Y-68027110D01*
X150450434Y-67951810D01*
G37*
X150450434Y-67951810D02*
X150450434Y-67876510D01*
X151424904Y-67876510D01*
X152399373Y-67876510D01*
X152399373Y-67951810D01*
X152399373Y-68027110D01*
X151424904Y-68027110D01*
X150450434Y-68027110D01*
X150450434Y-67951810D01*
G36*
X150149234Y-68102410D02*
G01*
X150149234Y-68027110D01*
X150299834Y-68027110D01*
X150450434Y-68027110D01*
X150450434Y-68102410D01*
X150450434Y-68177710D01*
X150299834Y-68177710D01*
X150149234Y-68177710D01*
X150149234Y-68102410D01*
G37*
X150149234Y-68102410D02*
X150149234Y-68027110D01*
X150299834Y-68027110D01*
X150450434Y-68027110D01*
X150450434Y-68102410D01*
X150450434Y-68177710D01*
X150299834Y-68177710D01*
X150149234Y-68177710D01*
X150149234Y-68102410D01*
G36*
X149998633Y-68250790D02*
G01*
X149998633Y-68177790D01*
X150073934Y-68177790D01*
X150149234Y-68177790D01*
X150149234Y-68250790D01*
X150149234Y-68323790D01*
X150073934Y-68323790D01*
X149998633Y-68323790D01*
X149998633Y-68250790D01*
G37*
X149998633Y-68250790D02*
X149998633Y-68177790D01*
X150073934Y-68177790D01*
X150149234Y-68177790D01*
X150149234Y-68250790D01*
X150149234Y-68323790D01*
X150073934Y-68323790D01*
X149998633Y-68323790D01*
X149998633Y-68250790D01*
G36*
X149099463Y-68102410D02*
G01*
X149099463Y-68027110D01*
X149250063Y-68027110D01*
X149400663Y-68027110D01*
X149400663Y-68102410D01*
X149400663Y-68177710D01*
X149250063Y-68177710D01*
X149099463Y-68177710D01*
X149099463Y-68102410D01*
G37*
X149099463Y-68102410D02*
X149099463Y-68027110D01*
X149250063Y-68027110D01*
X149400663Y-68027110D01*
X149400663Y-68102410D01*
X149400663Y-68177710D01*
X149250063Y-68177710D01*
X149099463Y-68177710D01*
X149099463Y-68102410D01*
G36*
X149400663Y-68250790D02*
G01*
X149400663Y-68177790D01*
X149475963Y-68177790D01*
X149551263Y-68177790D01*
X149551263Y-68250790D01*
X149551263Y-68323790D01*
X149475963Y-68323790D01*
X149400663Y-68323790D01*
X149400663Y-68250790D01*
G37*
X149400663Y-68250790D02*
X149400663Y-68177790D01*
X149475963Y-68177790D01*
X149551263Y-68177790D01*
X149551263Y-68250790D01*
X149551263Y-68323790D01*
X149475963Y-68323790D01*
X149400663Y-68323790D01*
X149400663Y-68250790D01*
G36*
X149551263Y-68474470D02*
G01*
X149551263Y-68323870D01*
X149626563Y-68323870D01*
X149701863Y-68323870D01*
X149701863Y-68474470D01*
X149701863Y-68625070D01*
X149626563Y-68625070D01*
X149551263Y-68625070D01*
X149551263Y-68474470D01*
G37*
X149551263Y-68474470D02*
X149551263Y-68323870D01*
X149626563Y-68323870D01*
X149701863Y-68323870D01*
X149701863Y-68474470D01*
X149701863Y-68625070D01*
X149626563Y-68625070D01*
X149551263Y-68625070D01*
X149551263Y-68474470D01*
G36*
X149852462Y-68474470D02*
G01*
X149852462Y-68323870D01*
X149925552Y-68323870D01*
X149998642Y-68323870D01*
X149998642Y-68474470D01*
X149998642Y-68625070D01*
X149925552Y-68625070D01*
X149852462Y-68625070D01*
X149852462Y-68474470D01*
G37*
X149852462Y-68474470D02*
X149852462Y-68323870D01*
X149925552Y-68323870D01*
X149998642Y-68323870D01*
X149998642Y-68474470D01*
X149998642Y-68625070D01*
X149925552Y-68625070D01*
X149852462Y-68625070D01*
X149852462Y-68474470D01*
G36*
X148953293Y-70498720D02*
G01*
X148953293Y-70423420D01*
X149026383Y-70423420D01*
X149099473Y-70423420D01*
X149099473Y-70498720D01*
X149099473Y-70574020D01*
X149026383Y-70574020D01*
X148953293Y-70574020D01*
X148953293Y-70498720D01*
G37*
X148953293Y-70498720D02*
X148953293Y-70423420D01*
X149026383Y-70423420D01*
X149099473Y-70423420D01*
X149099473Y-70498720D01*
X149099473Y-70574020D01*
X149026383Y-70574020D01*
X148953293Y-70574020D01*
X148953293Y-70498720D01*
G36*
X148953293Y-68700370D02*
G01*
X148953293Y-68625070D01*
X149026383Y-68625070D01*
X149099473Y-68625070D01*
X149099473Y-68700370D01*
X149099473Y-68775670D01*
X149026383Y-68775670D01*
X148953293Y-68775670D01*
X148953293Y-68700370D01*
G37*
X148953293Y-68700370D02*
X148953293Y-68625070D01*
X149026383Y-68625070D01*
X149099473Y-68625070D01*
X149099473Y-68700370D01*
X149099473Y-68775670D01*
X149026383Y-68775670D01*
X148953293Y-68775670D01*
X148953293Y-68700370D01*
G36*
X149099463Y-69599550D02*
G01*
X149099463Y-68775670D01*
X149174763Y-68775670D01*
X149250063Y-68775670D01*
X149250063Y-69599550D01*
X149250063Y-70423420D01*
X149174763Y-70423420D01*
X149099463Y-70423420D01*
X149099463Y-69599550D01*
G37*
X149099463Y-69599550D02*
X149099463Y-68775670D01*
X149174763Y-68775670D01*
X149250063Y-68775670D01*
X149250063Y-69599550D01*
X149250063Y-70423420D01*
X149174763Y-70423420D01*
X149099463Y-70423420D01*
X149099463Y-69599550D01*
G36*
X148501493Y-69601760D02*
G01*
X148501493Y-69227470D01*
X148576793Y-69227470D01*
X148652093Y-69227470D01*
X148652093Y-69601760D01*
X148652093Y-69976050D01*
X148576793Y-69976050D01*
X148501493Y-69976050D01*
X148501493Y-69601760D01*
G37*
X148501493Y-69601760D02*
X148501493Y-69227470D01*
X148576793Y-69227470D01*
X148652093Y-69227470D01*
X148652093Y-69601760D01*
X148652093Y-69976050D01*
X148576793Y-69976050D01*
X148501493Y-69976050D01*
X148501493Y-69601760D01*
G36*
X150897804Y-69601760D02*
G01*
X150897804Y-69227470D01*
X150973104Y-69227470D01*
X151048404Y-69227470D01*
X151048404Y-69601760D01*
X151048404Y-69976050D01*
X150973104Y-69976050D01*
X150897804Y-69976050D01*
X150897804Y-69601760D01*
G37*
X150897804Y-69601760D02*
X150897804Y-69227470D01*
X150973104Y-69227470D01*
X151048404Y-69227470D01*
X151048404Y-69601760D01*
X151048404Y-69976050D01*
X150973104Y-69976050D01*
X150897804Y-69976050D01*
X150897804Y-69601760D01*
G36*
X151048404Y-69152170D02*
G01*
X151048404Y-69076870D01*
X151424904Y-69076870D01*
X151801404Y-69076870D01*
X151801404Y-69152170D01*
X151801404Y-69227470D01*
X151424904Y-69227470D01*
X151048404Y-69227470D01*
X151048404Y-69152170D01*
G37*
X151048404Y-69152170D02*
X151048404Y-69076870D01*
X151424904Y-69076870D01*
X151801404Y-69076870D01*
X151801404Y-69152170D01*
X151801404Y-69227470D01*
X151424904Y-69227470D01*
X151048404Y-69227470D01*
X151048404Y-69152170D01*
G36*
X151801404Y-69601760D02*
G01*
X151801404Y-69227470D01*
X151874494Y-69227470D01*
X151947584Y-69227470D01*
X151947584Y-69601760D01*
X151947584Y-69976050D01*
X151874494Y-69976050D01*
X151801404Y-69976050D01*
X151801404Y-69601760D01*
G37*
X151801404Y-69601760D02*
X151801404Y-69227470D01*
X151874494Y-69227470D01*
X151947584Y-69227470D01*
X151947584Y-69601760D01*
X151947584Y-69976050D01*
X151874494Y-69976050D01*
X151801404Y-69976050D01*
X151801404Y-69601760D01*
G36*
X151048404Y-70051350D02*
G01*
X151048404Y-69976050D01*
X151424904Y-69976050D01*
X151801404Y-69976050D01*
X151801404Y-70051350D01*
X151801404Y-70126650D01*
X151424904Y-70126650D01*
X151048404Y-70126650D01*
X151048404Y-70051350D01*
G37*
X151048404Y-70051350D02*
X151048404Y-69976050D01*
X151424904Y-69976050D01*
X151801404Y-69976050D01*
X151801404Y-70051350D01*
X151801404Y-70126650D01*
X151424904Y-70126650D01*
X151048404Y-70126650D01*
X151048404Y-70051350D01*
G36*
X155545687Y-70498720D02*
G01*
X155545687Y-70423420D01*
X155620987Y-70423420D01*
X155696287Y-70423420D01*
X155696287Y-70498720D01*
X155696287Y-70574020D01*
X155620987Y-70574020D01*
X155545687Y-70574020D01*
X155545687Y-70498720D01*
G37*
X155545687Y-70498720D02*
X155545687Y-70423420D01*
X155620987Y-70423420D01*
X155696287Y-70423420D01*
X155696287Y-70498720D01*
X155696287Y-70574020D01*
X155620987Y-70574020D01*
X155545687Y-70574020D01*
X155545687Y-70498720D01*
G36*
X153747356Y-70498720D02*
G01*
X153747356Y-70423420D01*
X153822656Y-70423420D01*
X153897956Y-70423420D01*
X153897956Y-70498720D01*
X153897956Y-70574020D01*
X153822656Y-70574020D01*
X153747356Y-70574020D01*
X153747356Y-70498720D01*
G37*
X153747356Y-70498720D02*
X153747356Y-70423420D01*
X153822656Y-70423420D01*
X153897956Y-70423420D01*
X153897956Y-70498720D01*
X153897956Y-70574020D01*
X153822656Y-70574020D01*
X153747356Y-70574020D01*
X153747356Y-70498720D01*
G36*
X153897956Y-70649320D02*
G01*
X153897956Y-70574020D01*
X154721823Y-70574020D01*
X155545687Y-70574020D01*
X155545687Y-70649320D01*
X155545687Y-70724620D01*
X154721823Y-70724620D01*
X153897956Y-70724620D01*
X153897956Y-70649320D01*
G37*
X153897956Y-70649320D02*
X153897956Y-70574020D01*
X154721823Y-70574020D01*
X155545687Y-70574020D01*
X155545687Y-70649320D01*
X155545687Y-70724620D01*
X154721823Y-70724620D01*
X153897956Y-70724620D01*
X153897956Y-70649320D01*
G36*
X153747356Y-68700370D02*
G01*
X153747356Y-68625070D01*
X153822656Y-68625070D01*
X153897956Y-68625070D01*
X153897956Y-68700370D01*
X153897956Y-68775670D01*
X153822656Y-68775670D01*
X153747356Y-68775670D01*
X153747356Y-68700370D01*
G37*
X153747356Y-68700370D02*
X153747356Y-68625070D01*
X153822656Y-68625070D01*
X153897956Y-68625070D01*
X153897956Y-68700370D01*
X153897956Y-68775670D01*
X153822656Y-68775670D01*
X153747356Y-68775670D01*
X153747356Y-68700370D01*
G36*
X153596754Y-69599550D02*
G01*
X153596754Y-68775670D01*
X153672054Y-68775670D01*
X153747354Y-68775670D01*
X153747354Y-69149960D01*
X153747354Y-69524250D01*
X154721821Y-69524250D01*
X155696287Y-69524250D01*
X155696287Y-69149960D01*
X155696287Y-68775670D01*
X155771587Y-68775670D01*
X155846887Y-68775670D01*
X155846887Y-69225260D01*
X155846887Y-69674850D01*
X154797121Y-69674850D01*
X153747354Y-69674850D01*
X153747354Y-70049130D01*
X153747354Y-70423420D01*
X153672054Y-70423420D01*
X153596754Y-70423420D01*
X153596754Y-69599550D01*
G37*
X153596754Y-69599550D02*
X153596754Y-68775670D01*
X153672054Y-68775670D01*
X153747354Y-68775670D01*
X153747354Y-69149960D01*
X153747354Y-69524250D01*
X154721821Y-69524250D01*
X155696287Y-69524250D01*
X155696287Y-69149960D01*
X155696287Y-68775670D01*
X155771587Y-68775670D01*
X155846887Y-68775670D01*
X155846887Y-69225260D01*
X155846887Y-69674850D01*
X154797121Y-69674850D01*
X153747354Y-69674850D01*
X153747354Y-70049130D01*
X153747354Y-70423420D01*
X153672054Y-70423420D01*
X153596754Y-70423420D01*
X153596754Y-69599550D01*
G36*
X155545687Y-68700370D02*
G01*
X155545687Y-68625070D01*
X155620987Y-68625070D01*
X155696287Y-68625070D01*
X155696287Y-68700370D01*
X155696287Y-68775670D01*
X155620987Y-68775670D01*
X155545687Y-68775670D01*
X155545687Y-68700370D01*
G37*
X155545687Y-68700370D02*
X155545687Y-68625070D01*
X155620987Y-68625070D01*
X155696287Y-68625070D01*
X155696287Y-68700370D01*
X155696287Y-68775670D01*
X155620987Y-68775670D01*
X155545687Y-68775670D01*
X155545687Y-68700370D01*
G36*
X153897956Y-68549770D02*
G01*
X153897956Y-68474470D01*
X154721823Y-68474470D01*
X155545687Y-68474470D01*
X155545687Y-68549770D01*
X155545687Y-68625070D01*
X154721823Y-68625070D01*
X153897956Y-68625070D01*
X153897956Y-68549770D01*
G37*
X153897956Y-68549770D02*
X153897956Y-68474470D01*
X154721823Y-68474470D01*
X155545687Y-68474470D01*
X155545687Y-68549770D01*
X155545687Y-68625070D01*
X154721823Y-68625070D01*
X153897956Y-68625070D01*
X153897956Y-68549770D01*
G36*
X154048556Y-69152170D02*
G01*
X154048556Y-69076870D01*
X154123856Y-69076870D01*
X154199156Y-69076870D01*
X154199156Y-69001570D01*
X154199156Y-68926270D01*
X154724036Y-68926270D01*
X155248927Y-68926270D01*
X155248927Y-69001570D01*
X155248927Y-69076870D01*
X155321927Y-69076870D01*
X155395027Y-69076870D01*
X155395027Y-69152170D01*
X155395027Y-69227470D01*
X154721756Y-69227470D01*
X154048488Y-69227470D01*
X154048488Y-69152170D01*
X154048556Y-69152170D01*
G37*
X154048556Y-69152170D02*
X154048556Y-69076870D01*
X154123856Y-69076870D01*
X154199156Y-69076870D01*
X154199156Y-69001570D01*
X154199156Y-68926270D01*
X154724036Y-68926270D01*
X155248927Y-68926270D01*
X155248927Y-69001570D01*
X155248927Y-69076870D01*
X155321927Y-69076870D01*
X155395027Y-69076870D01*
X155395027Y-69152170D01*
X155395027Y-69227470D01*
X154721756Y-69227470D01*
X154048488Y-69227470D01*
X154048488Y-69152170D01*
X154048556Y-69152170D01*
G36*
X157047267Y-68700370D02*
G01*
X157047267Y-68625070D01*
X157122567Y-68625070D01*
X157197867Y-68625070D01*
X157197867Y-68700370D01*
X157197867Y-68775670D01*
X157122567Y-68775670D01*
X157047267Y-68775670D01*
X157047267Y-68700370D01*
G37*
X157047267Y-68700370D02*
X157047267Y-68625070D01*
X157122567Y-68625070D01*
X157197867Y-68625070D01*
X157197867Y-68700370D01*
X157197867Y-68775670D01*
X157122567Y-68775670D01*
X157047267Y-68775670D01*
X157047267Y-68700370D01*
G36*
X159592507Y-69599550D02*
G01*
X161692057Y-69674850D01*
X160717577Y-69674850D01*
X159743107Y-69674850D01*
X159743107Y-69900750D01*
X159743107Y-70126650D01*
X160717577Y-70126650D01*
X161692057Y-70126650D01*
X161692057Y-69900750D01*
X161692057Y-69674850D01*
X159592507Y-69599550D01*
X159743107Y-69076870D01*
X159743107Y-69300560D01*
X159743107Y-69524250D01*
X160717577Y-69524250D01*
X161692057Y-69524250D01*
X161692057Y-69300560D01*
X161692057Y-69076870D01*
X160717577Y-69076870D01*
X159743107Y-69076870D01*
X159592507Y-69599550D01*
X159592507Y-68926270D01*
X160717577Y-68926270D01*
X161842657Y-68926270D01*
X161842657Y-69599550D01*
X161842657Y-70272820D01*
X160717577Y-70272820D01*
X159592507Y-70272820D01*
X159592507Y-69599550D01*
G37*
X159592507Y-69599550D02*
X161692057Y-69674850D01*
X160717577Y-69674850D01*
X159743107Y-69674850D01*
X159743107Y-69900750D01*
X159743107Y-70126650D01*
X160717577Y-70126650D01*
X161692057Y-70126650D01*
X161692057Y-69900750D01*
X161692057Y-69674850D01*
X159592507Y-69599550D01*
X159743107Y-69076870D01*
X159743107Y-69300560D01*
X159743107Y-69524250D01*
X160717577Y-69524250D01*
X161692057Y-69524250D01*
X161692057Y-69300560D01*
X161692057Y-69076870D01*
X160717577Y-69076870D01*
X159743107Y-69076870D01*
X159592507Y-69599550D01*
X159592507Y-68926270D01*
X160717577Y-68926270D01*
X161842657Y-68926270D01*
X161842657Y-69599550D01*
X161842657Y-70272820D01*
X160717577Y-70272820D01*
X159592507Y-70272820D01*
X159592507Y-69599550D01*
G36*
X163193617Y-67500010D02*
G01*
X163193617Y-67424710D01*
X163268917Y-67424710D01*
X163344217Y-67424710D01*
X163344217Y-67500010D01*
X163344217Y-67575310D01*
X163268917Y-67575310D01*
X163193617Y-67575310D01*
X163193617Y-67500010D01*
G37*
X163193617Y-67500010D02*
X163193617Y-67424710D01*
X163268917Y-67424710D01*
X163344217Y-67424710D01*
X163344217Y-67500010D01*
X163344217Y-67575310D01*
X163268917Y-67575310D01*
X163193617Y-67575310D01*
X163193617Y-67500010D01*
G36*
X162143857Y-69973830D02*
G01*
X162294287Y-68474410D01*
X162294287Y-69825380D01*
X162294287Y-71176350D01*
X162517967Y-71176350D01*
X162741657Y-71176350D01*
X162741657Y-69601690D01*
X162741657Y-68027040D01*
X162292067Y-68027040D01*
X161842487Y-68027040D01*
X161842487Y-68250730D01*
X161842487Y-68474410D01*
X162068387Y-68474410D01*
X162294287Y-68474410D01*
X162143857Y-69973830D01*
X162143857Y-68625070D01*
X161917957Y-68625070D01*
X161692057Y-68625070D01*
X161692057Y-67951810D01*
X161692057Y-67278540D01*
X162442837Y-67278540D01*
X163193617Y-67278540D01*
X163193617Y-67351640D01*
X163193617Y-67424640D01*
X162518137Y-67424640D01*
X161842657Y-67424640D01*
X161842657Y-67650540D01*
X161842657Y-67876440D01*
X162292237Y-67876440D01*
X162741817Y-67876440D01*
X162741817Y-67951740D01*
X162741817Y-68027040D01*
X162817117Y-68027040D01*
X162892417Y-68027040D01*
X162892417Y-69601690D01*
X162892417Y-71176350D01*
X163118317Y-71176350D01*
X163344217Y-71176350D01*
X163344217Y-69375790D01*
X163344217Y-67575240D01*
X163417217Y-67575240D01*
X163490217Y-67575240D01*
X163490217Y-69448880D01*
X163490217Y-71322520D01*
X162816957Y-71322520D01*
X162143687Y-71322520D01*
X162143687Y-69973760D01*
X162143857Y-69973830D01*
G37*
X162143857Y-69973830D02*
X162294287Y-68474410D01*
X162294287Y-69825380D01*
X162294287Y-71176350D01*
X162517967Y-71176350D01*
X162741657Y-71176350D01*
X162741657Y-69601690D01*
X162741657Y-68027040D01*
X162292067Y-68027040D01*
X161842487Y-68027040D01*
X161842487Y-68250730D01*
X161842487Y-68474410D01*
X162068387Y-68474410D01*
X162294287Y-68474410D01*
X162143857Y-69973830D01*
X162143857Y-68625070D01*
X161917957Y-68625070D01*
X161692057Y-68625070D01*
X161692057Y-67951810D01*
X161692057Y-67278540D01*
X162442837Y-67278540D01*
X163193617Y-67278540D01*
X163193617Y-67351640D01*
X163193617Y-67424640D01*
X162518137Y-67424640D01*
X161842657Y-67424640D01*
X161842657Y-67650540D01*
X161842657Y-67876440D01*
X162292237Y-67876440D01*
X162741817Y-67876440D01*
X162741817Y-67951740D01*
X162741817Y-68027040D01*
X162817117Y-68027040D01*
X162892417Y-68027040D01*
X162892417Y-69601690D01*
X162892417Y-71176350D01*
X163118317Y-71176350D01*
X163344217Y-71176350D01*
X163344217Y-69375790D01*
X163344217Y-67575240D01*
X163417217Y-67575240D01*
X163490217Y-67575240D01*
X163490217Y-69448880D01*
X163490217Y-71322520D01*
X162816957Y-71322520D01*
X162143687Y-71322520D01*
X162143687Y-69973760D01*
X162143857Y-69973830D01*
G36*
X145651292Y-70498720D02*
G01*
X145651292Y-70423420D01*
X145726592Y-70423420D01*
X145801892Y-70423420D01*
X145801892Y-70498720D01*
X145801892Y-70574020D01*
X145726592Y-70574020D01*
X145651292Y-70574020D01*
X145651292Y-70498720D01*
G37*
X145651292Y-70498720D02*
X145651292Y-70423420D01*
X145726592Y-70423420D01*
X145801892Y-70423420D01*
X145801892Y-70498720D01*
X145801892Y-70574020D01*
X145726592Y-70574020D01*
X145651292Y-70574020D01*
X145651292Y-70498720D01*
G36*
X144003553Y-70649320D02*
G01*
X144003553Y-70574020D01*
X144827423Y-70574020D01*
X145651292Y-70574020D01*
X145651292Y-70649320D01*
X145651292Y-70724620D01*
X144827423Y-70724620D01*
X144003553Y-70724620D01*
X144003553Y-70649320D01*
G37*
X144003553Y-70649320D02*
X144003553Y-70574020D01*
X144827423Y-70574020D01*
X145651292Y-70574020D01*
X145651292Y-70649320D01*
X145651292Y-70724620D01*
X144827423Y-70724620D01*
X144003553Y-70724620D01*
X144003553Y-70649320D01*
G36*
X146103092Y-70950520D02*
G01*
X146103092Y-70875220D01*
X146178392Y-70875220D01*
X146253692Y-70875220D01*
X146253692Y-70950520D01*
X146253692Y-71025820D01*
X146178392Y-71025820D01*
X146103092Y-71025820D01*
X146103092Y-70950520D01*
G37*
X146103092Y-70950520D02*
X146103092Y-70875220D01*
X146178392Y-70875220D01*
X146253692Y-70875220D01*
X146253692Y-70950520D01*
X146253692Y-71025820D01*
X146178392Y-71025820D01*
X146103092Y-71025820D01*
X146103092Y-70950520D01*
G36*
X145801892Y-71101120D02*
G01*
X145801892Y-71025820D01*
X145952492Y-71025820D01*
X146103092Y-71025820D01*
X146103092Y-71101120D01*
X146103092Y-71176420D01*
X145952492Y-71176420D01*
X145801892Y-71176420D01*
X145801892Y-71101120D01*
G37*
X145801892Y-71101120D02*
X145801892Y-71025820D01*
X145952492Y-71025820D01*
X146103092Y-71025820D01*
X146103092Y-71101120D01*
X146103092Y-71176420D01*
X145952492Y-71176420D01*
X145801892Y-71176420D01*
X145801892Y-71101120D01*
G36*
X143852953Y-71249500D02*
G01*
X143852953Y-71176400D01*
X144827423Y-71176400D01*
X145801892Y-71176400D01*
X145801892Y-71249500D01*
X145801892Y-71322500D01*
X144827423Y-71322500D01*
X143852953Y-71322500D01*
X143852953Y-71249500D01*
G37*
X143852953Y-71249500D02*
X143852953Y-71176400D01*
X144827423Y-71176400D01*
X145801892Y-71176400D01*
X145801892Y-71249500D01*
X145801892Y-71322500D01*
X144827423Y-71322500D01*
X143852953Y-71322500D01*
X143852953Y-71249500D01*
G36*
X143852953Y-70498720D02*
G01*
X143852953Y-70423420D01*
X143928253Y-70423420D01*
X144003553Y-70423420D01*
X144003553Y-70498720D01*
X144003553Y-70574020D01*
X143928253Y-70574020D01*
X143852953Y-70574020D01*
X143852953Y-70498720D01*
G37*
X143852953Y-70498720D02*
X143852953Y-70423420D01*
X143928253Y-70423420D01*
X144003553Y-70423420D01*
X144003553Y-70498720D01*
X144003553Y-70574020D01*
X143928253Y-70574020D01*
X143852953Y-70574020D01*
X143852953Y-70498720D01*
G36*
X146253692Y-68474470D02*
G01*
X146253692Y-68323870D01*
X146328992Y-68323870D01*
X146404292Y-68323870D01*
X146404292Y-68474470D01*
X146404292Y-68625070D01*
X146328992Y-68625070D01*
X146253692Y-68625070D01*
X146253692Y-68474470D01*
G37*
X146253692Y-68474470D02*
X146253692Y-68323870D01*
X146328992Y-68323870D01*
X146404292Y-68323870D01*
X146404292Y-68474470D01*
X146404292Y-68625070D01*
X146328992Y-68625070D01*
X146253692Y-68625070D01*
X146253692Y-68474470D01*
G36*
X146103092Y-68250790D02*
G01*
X146103092Y-68177790D01*
X146178392Y-68177790D01*
X146253692Y-68177790D01*
X146253692Y-68250790D01*
X146253692Y-68323790D01*
X146178392Y-68323790D01*
X146103092Y-68323790D01*
X146103092Y-68250790D01*
G37*
X146103092Y-68250790D02*
X146103092Y-68177790D01*
X146178392Y-68177790D01*
X146253692Y-68177790D01*
X146253692Y-68250790D01*
X146253692Y-68323790D01*
X146178392Y-68323790D01*
X146103092Y-68323790D01*
X146103092Y-68250790D01*
G36*
X145801892Y-68102410D02*
G01*
X145801892Y-68027110D01*
X145952492Y-68027110D01*
X146103092Y-68027110D01*
X146103092Y-68102410D01*
X146103092Y-68177710D01*
X145952492Y-68177710D01*
X145801892Y-68177710D01*
X145801892Y-68102410D01*
G37*
X145801892Y-68102410D02*
X145801892Y-68027110D01*
X145952492Y-68027110D01*
X146103092Y-68027110D01*
X146103092Y-68102410D01*
X146103092Y-68177710D01*
X145952492Y-68177710D01*
X145801892Y-68177710D01*
X145801892Y-68102410D01*
G36*
X143852953Y-68700370D02*
G01*
X143852953Y-68625070D01*
X143928253Y-68625070D01*
X144003553Y-68625070D01*
X144003553Y-68700370D01*
X144003553Y-68775670D01*
X143928253Y-68775670D01*
X143852953Y-68775670D01*
X143852953Y-68700370D01*
G37*
X143852953Y-68700370D02*
X143852953Y-68625070D01*
X143928253Y-68625070D01*
X144003553Y-68625070D01*
X144003553Y-68700370D01*
X144003553Y-68775670D01*
X143928253Y-68775670D01*
X143852953Y-68775670D01*
X143852953Y-68700370D01*
G36*
X144003553Y-68549770D02*
G01*
X144003553Y-68474470D01*
X144827423Y-68474470D01*
X145651292Y-68474470D01*
X145651292Y-68549770D01*
X145651292Y-68625070D01*
X144827423Y-68625070D01*
X144003553Y-68625070D01*
X144003553Y-68549770D01*
G37*
X144003553Y-68549770D02*
X144003553Y-68474470D01*
X144827423Y-68474470D01*
X145651292Y-68474470D01*
X145651292Y-68549770D01*
X145651292Y-68625070D01*
X144827423Y-68625070D01*
X144003553Y-68625070D01*
X144003553Y-68549770D01*
G36*
X145651292Y-68700370D02*
G01*
X145651292Y-68625070D01*
X145726592Y-68625070D01*
X145801892Y-68625070D01*
X145801892Y-68700370D01*
X145801892Y-68775670D01*
X145726592Y-68775670D01*
X145651292Y-68775670D01*
X145651292Y-68700370D01*
G37*
X145651292Y-68700370D02*
X145651292Y-68625070D01*
X145726592Y-68625070D01*
X145801892Y-68625070D01*
X145801892Y-68700370D01*
X145801892Y-68775670D01*
X145726592Y-68775670D01*
X145651292Y-68775670D01*
X145651292Y-68700370D01*
G36*
X143702353Y-69599550D02*
G01*
X143702353Y-68775670D01*
X143777653Y-68775670D01*
X143852953Y-68775670D01*
X143852953Y-69149960D01*
X143852953Y-69524250D01*
X144827423Y-69524250D01*
X145801892Y-69524250D01*
X145801892Y-69149960D01*
X145801892Y-68775670D01*
X145877192Y-68775670D01*
X145952492Y-68775670D01*
X145952492Y-69225260D01*
X145952492Y-69674850D01*
X144902723Y-69674850D01*
X143852953Y-69674850D01*
X143852953Y-70049130D01*
X143852953Y-70423420D01*
X143777653Y-70423420D01*
X143702353Y-70423420D01*
X143702353Y-69599550D01*
G37*
X143702353Y-69599550D02*
X143702353Y-68775670D01*
X143777653Y-68775670D01*
X143852953Y-68775670D01*
X143852953Y-69149960D01*
X143852953Y-69524250D01*
X144827423Y-69524250D01*
X145801892Y-69524250D01*
X145801892Y-69149960D01*
X145801892Y-68775670D01*
X145877192Y-68775670D01*
X145952492Y-68775670D01*
X145952492Y-69225260D01*
X145952492Y-69674850D01*
X144902723Y-69674850D01*
X143852953Y-69674850D01*
X143852953Y-70049130D01*
X143852953Y-70423420D01*
X143777653Y-70423420D01*
X143702353Y-70423420D01*
X143702353Y-69599550D01*
G36*
X143552457Y-71097580D02*
G01*
X143552457Y-71022280D01*
X143703057Y-71022280D01*
X143853657Y-71022280D01*
X143853657Y-71097580D01*
X143853657Y-71172880D01*
X143703057Y-71172880D01*
X143552457Y-71172880D01*
X143552457Y-71097580D01*
G37*
X143552457Y-71097580D02*
X143552457Y-71022280D01*
X143703057Y-71022280D01*
X143853657Y-71022280D01*
X143853657Y-71097580D01*
X143853657Y-71172880D01*
X143703057Y-71172880D01*
X143552457Y-71172880D01*
X143552457Y-71097580D01*
G36*
X143406287Y-70949200D02*
G01*
X143406287Y-70876200D01*
X143479377Y-70876200D01*
X143552467Y-70876200D01*
X143552467Y-70949200D01*
X143552467Y-71022300D01*
X143479377Y-71022300D01*
X143406287Y-71022300D01*
X143406287Y-70949200D01*
G37*
X143406287Y-70949200D02*
X143406287Y-70876200D01*
X143479377Y-70876200D01*
X143552467Y-70876200D01*
X143552467Y-70949200D01*
X143552467Y-71022300D01*
X143479377Y-71022300D01*
X143406287Y-71022300D01*
X143406287Y-70949200D01*
G36*
X144154857Y-69150860D02*
G01*
X144154857Y-69077860D01*
X144230157Y-69077860D01*
X144305457Y-69077860D01*
X144305457Y-69002560D01*
X144305457Y-68927260D01*
X144830343Y-68927260D01*
X145355227Y-68927260D01*
X145355227Y-69002560D01*
X145355227Y-69077860D01*
X145428317Y-69077860D01*
X145501407Y-69077860D01*
X145501407Y-69150860D01*
X145501407Y-69223860D01*
X144828137Y-69223860D01*
X144154868Y-69223860D01*
X144154868Y-69150860D01*
X144154857Y-69150860D01*
G37*
X144154857Y-69150860D02*
X144154857Y-69077860D01*
X144230157Y-69077860D01*
X144305457Y-69077860D01*
X144305457Y-69002560D01*
X144305457Y-68927260D01*
X144830343Y-68927260D01*
X145355227Y-68927260D01*
X145355227Y-69002560D01*
X145355227Y-69077860D01*
X145428317Y-69077860D01*
X145501407Y-69077860D01*
X145501407Y-69150860D01*
X145501407Y-69223860D01*
X144828137Y-69223860D01*
X144154868Y-69223860D01*
X144154868Y-69150860D01*
X144154857Y-69150860D01*
G36*
X143406287Y-68249470D02*
G01*
X143406287Y-68174170D01*
X143479377Y-68174170D01*
X143552467Y-68174170D01*
X143552467Y-68249470D01*
X143552467Y-68324770D01*
X143479377Y-68324770D01*
X143406287Y-68324770D01*
X143406287Y-68249470D01*
G37*
X143406287Y-68249470D02*
X143406287Y-68174170D01*
X143479377Y-68174170D01*
X143552467Y-68174170D01*
X143552467Y-68249470D01*
X143552467Y-68324770D01*
X143479377Y-68324770D01*
X143406287Y-68324770D01*
X143406287Y-68249470D01*
G36*
X143552457Y-68101090D02*
G01*
X143552457Y-68027990D01*
X143703057Y-68027990D01*
X143853657Y-68027990D01*
X143853657Y-68101090D01*
X143853657Y-68174090D01*
X143703057Y-68174090D01*
X143552457Y-68174090D01*
X143552457Y-68101090D01*
G37*
X143552457Y-68101090D02*
X143552457Y-68027990D01*
X143703057Y-68027990D01*
X143853657Y-68027990D01*
X143853657Y-68101090D01*
X143853657Y-68174090D01*
X143703057Y-68174090D01*
X143552457Y-68174090D01*
X143552457Y-68101090D01*
G36*
X143853657Y-67952710D02*
G01*
X143853657Y-67877410D01*
X144828126Y-67877410D01*
X145802597Y-67877410D01*
X145802597Y-67952710D01*
X145802597Y-68028010D01*
X144828126Y-68028010D01*
X143853657Y-68028010D01*
X143853657Y-67952710D01*
G37*
X143853657Y-67952710D02*
X143853657Y-67877410D01*
X144828126Y-67877410D01*
X145802597Y-67877410D01*
X145802597Y-67952710D01*
X145802597Y-68028010D01*
X144828126Y-68028010D01*
X143853657Y-68028010D01*
X143853657Y-67952710D01*
G36*
X143255687Y-68475370D02*
G01*
X143255687Y-68324770D01*
X143330987Y-68324770D01*
X143406287Y-68324770D01*
X143406287Y-68475370D01*
X143406287Y-68625970D01*
X143330987Y-68625970D01*
X143255687Y-68625970D01*
X143255687Y-68475370D01*
G37*
X143255687Y-68475370D02*
X143255687Y-68324770D01*
X143330987Y-68324770D01*
X143406287Y-68324770D01*
X143406287Y-68475370D01*
X143406287Y-68625970D01*
X143330987Y-68625970D01*
X143255687Y-68625970D01*
X143255687Y-68475370D01*
G36*
X142954487Y-68475370D02*
G01*
X142954487Y-68324770D01*
X143029787Y-68324770D01*
X143105087Y-68324770D01*
X143105087Y-68475370D01*
X143105087Y-68625970D01*
X143029787Y-68625970D01*
X142954487Y-68625970D01*
X142954487Y-68475370D01*
G37*
X142954487Y-68475370D02*
X142954487Y-68324770D01*
X143029787Y-68324770D01*
X143105087Y-68324770D01*
X143105087Y-68475370D01*
X143105087Y-68625970D01*
X143029787Y-68625970D01*
X142954487Y-68625970D01*
X142954487Y-68475370D01*
G36*
X142803887Y-68249470D02*
G01*
X142803887Y-68174170D01*
X142879187Y-68174170D01*
X142954487Y-68174170D01*
X142954487Y-68249470D01*
X142954487Y-68324770D01*
X142879187Y-68324770D01*
X142803887Y-68324770D01*
X142803887Y-68249470D01*
G37*
X142803887Y-68249470D02*
X142803887Y-68174170D01*
X142879187Y-68174170D01*
X142954487Y-68174170D01*
X142954487Y-68249470D01*
X142954487Y-68324770D01*
X142879187Y-68324770D01*
X142803887Y-68324770D01*
X142803887Y-68249470D01*
G36*
X142507117Y-68101090D02*
G01*
X142507117Y-68027990D01*
X142655502Y-68027990D01*
X142803887Y-68027990D01*
X142803887Y-68101090D01*
X142803887Y-68174090D01*
X142655502Y-68174090D01*
X142507117Y-68174090D01*
X142507117Y-68101090D01*
G37*
X142507117Y-68101090D02*
X142507117Y-68027990D01*
X142655502Y-68027990D01*
X142803887Y-68027990D01*
X142803887Y-68101090D01*
X142803887Y-68174090D01*
X142655502Y-68174090D01*
X142507117Y-68174090D01*
X142507117Y-68101090D01*
G36*
X142356517Y-68701270D02*
G01*
X142356517Y-68625970D01*
X142431817Y-68625970D01*
X142507117Y-68625970D01*
X142507117Y-68701270D01*
X142507117Y-68776570D01*
X142431817Y-68776570D01*
X142356517Y-68776570D01*
X142356517Y-68701270D01*
G37*
X142356517Y-68701270D02*
X142356517Y-68625970D01*
X142431817Y-68625970D01*
X142507117Y-68625970D01*
X142507117Y-68701270D01*
X142507117Y-68776570D01*
X142431817Y-68776570D01*
X142356517Y-68776570D01*
X142356517Y-68701270D01*
G36*
X141904717Y-70273720D02*
G01*
X141904717Y-69223940D01*
X141980018Y-69223940D01*
X142055317Y-69223940D01*
X142055317Y-70198420D01*
X142055317Y-71172880D01*
X142281217Y-71172880D01*
X142507117Y-71172880D01*
X142507117Y-69974730D01*
X142507117Y-68776570D01*
X142580207Y-68776570D01*
X142653297Y-68776570D01*
X142653297Y-69974730D01*
X142653297Y-71172880D01*
X142879197Y-71172880D01*
X143105096Y-71172880D01*
X143105096Y-69899430D01*
X143105096Y-68625970D01*
X143180396Y-68625970D01*
X143255696Y-68625970D01*
X143255696Y-69600440D01*
X143255696Y-70574920D01*
X143330996Y-70574920D01*
X143406296Y-70574920D01*
X143406296Y-70725520D01*
X143406296Y-70876110D01*
X143330996Y-70876110D01*
X143255696Y-70876110D01*
X143255696Y-71099800D01*
X143255696Y-71323480D01*
X142580206Y-71323480D01*
X141904722Y-71323480D01*
X141904722Y-70273720D01*
X141904717Y-70273720D01*
G37*
X141904717Y-70273720D02*
X141904717Y-69223940D01*
X141980018Y-69223940D01*
X142055317Y-69223940D01*
X142055317Y-70198420D01*
X142055317Y-71172880D01*
X142281217Y-71172880D01*
X142507117Y-71172880D01*
X142507117Y-69974730D01*
X142507117Y-68776570D01*
X142580207Y-68776570D01*
X142653297Y-68776570D01*
X142653297Y-69974730D01*
X142653297Y-71172880D01*
X142879197Y-71172880D01*
X143105096Y-71172880D01*
X143105096Y-69899430D01*
X143105096Y-68625970D01*
X143180396Y-68625970D01*
X143255696Y-68625970D01*
X143255696Y-69600440D01*
X143255696Y-70574920D01*
X143330996Y-70574920D01*
X143406296Y-70574920D01*
X143406296Y-70725520D01*
X143406296Y-70876110D01*
X143330996Y-70876110D01*
X143255696Y-70876110D01*
X143255696Y-71099800D01*
X143255696Y-71323480D01*
X142580206Y-71323480D01*
X141904722Y-71323480D01*
X141904722Y-70273720D01*
X141904717Y-70273720D01*
G36*
X139508492Y-70949200D02*
G01*
X139508492Y-70876200D01*
X139581582Y-70876200D01*
X139654672Y-70876200D01*
X139654672Y-70949200D01*
X139654672Y-71022300D01*
X139581582Y-71022300D01*
X139508492Y-71022300D01*
X139508492Y-70949200D01*
G37*
X139508492Y-70949200D02*
X139508492Y-70876200D01*
X139581582Y-70876200D01*
X139654672Y-70876200D01*
X139654672Y-70949200D01*
X139654672Y-71022300D01*
X139581582Y-71022300D01*
X139508492Y-71022300D01*
X139508492Y-70949200D01*
G36*
X139207293Y-71097580D02*
G01*
X139207293Y-71022280D01*
X139357892Y-71022280D01*
X139508492Y-71022280D01*
X139508492Y-71097580D01*
X139508492Y-71172880D01*
X139357892Y-71172880D01*
X139207293Y-71172880D01*
X139207293Y-71097580D01*
G37*
X139207293Y-71097580D02*
X139207293Y-71022280D01*
X139357892Y-71022280D01*
X139508492Y-71022280D01*
X139508492Y-71097580D01*
X139508492Y-71172880D01*
X139357892Y-71172880D01*
X139207293Y-71172880D01*
X139207293Y-71097580D01*
G36*
X139056693Y-70499620D02*
G01*
X139056693Y-70424320D01*
X139131993Y-70424320D01*
X139207293Y-70424320D01*
X139207293Y-70499620D01*
X139207293Y-70574920D01*
X139131993Y-70574920D01*
X139056693Y-70574920D01*
X139056693Y-70499620D01*
G37*
X139056693Y-70499620D02*
X139056693Y-70424320D01*
X139131993Y-70424320D01*
X139207293Y-70424320D01*
X139207293Y-70499620D01*
X139207293Y-70574920D01*
X139131993Y-70574920D01*
X139056693Y-70574920D01*
X139056693Y-70499620D01*
G36*
X139207293Y-69974730D02*
G01*
X139207293Y-69525140D01*
X139282593Y-69525140D01*
X139357893Y-69525140D01*
X139357893Y-69974730D01*
X139357893Y-70424320D01*
X139282593Y-70424320D01*
X139207293Y-70424320D01*
X139207293Y-69974730D01*
G37*
X139207293Y-69974730D02*
X139207293Y-69525140D01*
X139282593Y-69525140D01*
X139357893Y-69525140D01*
X139357893Y-69974730D01*
X139357893Y-70424320D01*
X139282593Y-70424320D01*
X139207293Y-70424320D01*
X139207293Y-69974730D01*
G36*
X139508492Y-69002470D02*
G01*
X139508492Y-68927170D01*
X139581582Y-68927170D01*
X139654672Y-68927170D01*
X139654672Y-69002470D01*
X139654672Y-69077770D01*
X139581582Y-69077770D01*
X139508492Y-69077770D01*
X139508492Y-69002470D01*
G37*
X139508492Y-69002470D02*
X139508492Y-68927170D01*
X139581582Y-68927170D01*
X139654672Y-68927170D01*
X139654672Y-69002470D01*
X139654672Y-69077770D01*
X139581582Y-69077770D01*
X139508492Y-69077770D01*
X139508492Y-69002470D01*
G36*
X139207293Y-68851870D02*
G01*
X139207293Y-68776570D01*
X139357892Y-68776570D01*
X139508492Y-68776570D01*
X139508492Y-68851870D01*
X139508492Y-68927170D01*
X139357892Y-68927170D01*
X139207293Y-68927170D01*
X139207293Y-68851870D01*
G37*
X139207293Y-68851870D02*
X139207293Y-68776570D01*
X139357892Y-68776570D01*
X139508492Y-68776570D01*
X139508492Y-68851870D01*
X139508492Y-68927170D01*
X139357892Y-68927170D01*
X139207293Y-68927170D01*
X139207293Y-68851870D01*
G36*
X139056693Y-69449840D02*
G01*
X139056693Y-69374540D01*
X139131993Y-69374540D01*
X139207293Y-69374540D01*
X139207293Y-69449840D01*
X139207293Y-69525140D01*
X139131993Y-69525140D01*
X139056693Y-69525140D01*
X139056693Y-69449840D01*
G37*
X139056693Y-69449840D02*
X139056693Y-69374540D01*
X139131993Y-69374540D01*
X139207293Y-69374540D01*
X139207293Y-69449840D01*
X139207293Y-69525140D01*
X139131993Y-69525140D01*
X139056693Y-69525140D01*
X139056693Y-69449840D01*
G36*
X136509783Y-70650220D02*
G01*
X136509783Y-69976940D01*
X136884068Y-69976940D01*
X137258354Y-69976940D01*
X137258354Y-69901640D01*
X137258354Y-69826340D01*
X138006923Y-69826340D01*
X138755493Y-69826340D01*
X138755493Y-69974730D01*
X138755493Y-70123120D01*
X137707938Y-70123120D01*
X136660383Y-70123120D01*
X136660383Y-70349020D01*
X136660383Y-70574920D01*
X137858538Y-70574920D01*
X139056693Y-70574920D01*
X139056693Y-70650220D01*
X139056693Y-70725520D01*
X137858538Y-70725520D01*
X136660383Y-70725520D01*
X136660383Y-70949200D01*
X136660383Y-71172880D01*
X137933838Y-71172880D01*
X139207293Y-71172880D01*
X139207293Y-71248180D01*
X139207293Y-71323480D01*
X137858538Y-71323480D01*
X136509783Y-71323480D01*
X136509783Y-70650220D01*
G37*
X136509783Y-70650220D02*
X136509783Y-69976940D01*
X136884068Y-69976940D01*
X137258354Y-69976940D01*
X137258354Y-69901640D01*
X137258354Y-69826340D01*
X138006923Y-69826340D01*
X138755493Y-69826340D01*
X138755493Y-69974730D01*
X138755493Y-70123120D01*
X137707938Y-70123120D01*
X136660383Y-70123120D01*
X136660383Y-70349020D01*
X136660383Y-70574920D01*
X137858538Y-70574920D01*
X139056693Y-70574920D01*
X139056693Y-70650220D01*
X139056693Y-70725520D01*
X137858538Y-70725520D01*
X136660383Y-70725520D01*
X136660383Y-70949200D01*
X136660383Y-71172880D01*
X137933838Y-71172880D01*
X139207293Y-71172880D01*
X139207293Y-71248180D01*
X139207293Y-71323480D01*
X137858538Y-71323480D01*
X136509783Y-71323480D01*
X136509783Y-70650220D01*
G36*
X137408953Y-69299240D02*
G01*
X137408953Y-69223940D01*
X138232823Y-69223940D01*
X139056693Y-69223940D01*
X139056693Y-69299240D01*
X139056693Y-69374540D01*
X138232823Y-69374540D01*
X137408953Y-69374540D01*
X137408953Y-69299240D01*
G37*
X137408953Y-69299240D02*
X137408953Y-69223940D01*
X138232823Y-69223940D01*
X139056693Y-69223940D01*
X139056693Y-69299240D01*
X139056693Y-69374540D01*
X138232823Y-69374540D01*
X137408953Y-69374540D01*
X137408953Y-69299240D01*
G36*
X136957154Y-69751040D02*
G01*
X136957154Y-69675740D01*
X137107753Y-69675740D01*
X137258354Y-69675740D01*
X137258354Y-69751040D01*
X137258354Y-69826340D01*
X137107753Y-69826340D01*
X136957154Y-69826340D01*
X136957154Y-69751040D01*
G37*
X136957154Y-69751040D02*
X136957154Y-69675740D01*
X137107753Y-69675740D01*
X137258354Y-69675740D01*
X137258354Y-69751040D01*
X137258354Y-69826340D01*
X137107753Y-69826340D01*
X136957154Y-69826340D01*
X136957154Y-69751040D01*
G36*
X136806554Y-69600440D02*
G01*
X136806554Y-69525140D01*
X136881854Y-69525140D01*
X136957154Y-69525140D01*
X136957154Y-69600440D01*
X136957154Y-69675740D01*
X136881854Y-69675740D01*
X136806554Y-69675740D01*
X136806554Y-69600440D01*
G37*
X136806554Y-69600440D02*
X136806554Y-69525140D01*
X136881854Y-69525140D01*
X136957154Y-69525140D01*
X136957154Y-69600440D01*
X136957154Y-69675740D01*
X136881854Y-69675740D01*
X136806554Y-69675740D01*
X136806554Y-69600440D01*
G36*
X136660383Y-69374540D02*
G01*
X136660383Y-69223940D01*
X136733473Y-69223940D01*
X136806563Y-69223940D01*
X136806563Y-69374540D01*
X136806563Y-69525140D01*
X136733473Y-69525140D01*
X136660383Y-69525140D01*
X136660383Y-69374540D01*
G37*
X136660383Y-69374540D02*
X136660383Y-69223940D01*
X136733473Y-69223940D01*
X136806563Y-69223940D01*
X136806563Y-69374540D01*
X136806563Y-69525140D01*
X136733473Y-69525140D01*
X136660383Y-69525140D01*
X136660383Y-69374540D01*
G36*
X137258354Y-69150860D02*
G01*
X137258354Y-69077860D01*
X137333654Y-69077860D01*
X137408954Y-69077860D01*
X137408954Y-69150860D01*
X137408954Y-69223860D01*
X137333654Y-69223860D01*
X137258354Y-69223860D01*
X137258354Y-69150860D01*
G37*
X137258354Y-69150860D02*
X137258354Y-69077860D01*
X137333654Y-69077860D01*
X137408954Y-69077860D01*
X137408954Y-69150860D01*
X137408954Y-69223860D01*
X137333654Y-69223860D01*
X137258354Y-69223860D01*
X137258354Y-69150860D01*
G36*
X137107753Y-68625970D02*
G01*
X137107753Y-68174170D01*
X137183053Y-68174170D01*
X137258353Y-68174170D01*
X137258353Y-68625970D01*
X137258353Y-69077770D01*
X137183053Y-69077770D01*
X137107753Y-69077770D01*
X137107753Y-68625970D01*
G37*
X137107753Y-68625970D02*
X137107753Y-68174170D01*
X137183053Y-68174170D01*
X137258353Y-68174170D01*
X137258353Y-68625970D01*
X137258353Y-69077770D01*
X137183053Y-69077770D01*
X137107753Y-69077770D01*
X137107753Y-68625970D01*
G36*
X137258354Y-68101090D02*
G01*
X137258354Y-68027990D01*
X137333654Y-68027990D01*
X137408954Y-68027990D01*
X137408954Y-68101090D01*
X137408954Y-68174090D01*
X137333654Y-68174090D01*
X137258354Y-68174090D01*
X137258354Y-68101090D01*
G37*
X137258354Y-68101090D02*
X137258354Y-68027990D01*
X137333654Y-68027990D01*
X137408954Y-68027990D01*
X137408954Y-68101090D01*
X137408954Y-68174090D01*
X137333654Y-68174090D01*
X137258354Y-68174090D01*
X137258354Y-68101090D01*
G36*
X139805263Y-71099800D02*
G01*
X139805263Y-70876110D01*
X139729963Y-70876110D01*
X139654663Y-70876110D01*
X139654663Y-70725520D01*
X139654663Y-70574920D01*
X139729963Y-70574920D01*
X139805263Y-70574920D01*
X139805263Y-69974730D01*
X139805263Y-69374540D01*
X139729963Y-69374540D01*
X139654663Y-69374540D01*
X139654663Y-69226160D01*
X139654663Y-69077770D01*
X139729963Y-69077770D01*
X139805263Y-69077770D01*
X139805263Y-68851870D01*
X139805263Y-68625970D01*
X139506278Y-68625970D01*
X139207293Y-68625970D01*
X139207293Y-68701270D01*
X139207293Y-68776570D01*
X138458723Y-68776570D01*
X137710153Y-68776570D01*
X137710153Y-68625970D01*
X137710153Y-68475370D01*
X138757708Y-68475370D01*
X139805263Y-68475370D01*
X139805263Y-68251690D01*
X139805263Y-68028010D01*
X138607108Y-68028010D01*
X137408953Y-68028010D01*
X137408953Y-67952710D01*
X137408953Y-67877410D01*
X138607108Y-67877410D01*
X139805263Y-67877410D01*
X139805263Y-67651510D01*
X139805263Y-67425610D01*
X138531808Y-67425610D01*
X137258354Y-67425610D01*
X137258354Y-67350310D01*
X137258354Y-67275010D01*
X138607108Y-67275010D01*
X139955863Y-67275010D01*
X139955863Y-67576210D01*
X139955863Y-67877410D01*
X141231533Y-67877410D01*
X142507202Y-67877410D01*
X142507202Y-67952710D01*
X142507202Y-68028010D01*
X141231533Y-68028010D01*
X139955863Y-68028010D01*
X139955863Y-69600440D01*
X139955863Y-71172880D01*
X140181763Y-71172880D01*
X140407662Y-71172880D01*
X140407662Y-69824130D01*
X140407662Y-68475370D01*
X141382133Y-68475370D01*
X142356602Y-68475370D01*
X142356602Y-68550670D01*
X142356602Y-68625970D01*
X141457432Y-68625970D01*
X140558262Y-68625970D01*
X140558262Y-69899430D01*
X140558262Y-71172880D01*
X140781947Y-71172880D01*
X141005633Y-71172880D01*
X141005633Y-70125330D01*
X141005633Y-69077770D01*
X141455217Y-69077770D01*
X141904803Y-69077770D01*
X141904803Y-69150770D01*
X141904803Y-69223770D01*
X141530518Y-69223770D01*
X141156232Y-69223770D01*
X141156232Y-70273550D01*
X141156232Y-71323320D01*
X140480747Y-71323320D01*
X139805263Y-71323320D01*
X139805263Y-71099630D01*
X139805263Y-71099800D01*
G37*
X139805263Y-71099800D02*
X139805263Y-70876110D01*
X139729963Y-70876110D01*
X139654663Y-70876110D01*
X139654663Y-70725520D01*
X139654663Y-70574920D01*
X139729963Y-70574920D01*
X139805263Y-70574920D01*
X139805263Y-69974730D01*
X139805263Y-69374540D01*
X139729963Y-69374540D01*
X139654663Y-69374540D01*
X139654663Y-69226160D01*
X139654663Y-69077770D01*
X139729963Y-69077770D01*
X139805263Y-69077770D01*
X139805263Y-68851870D01*
X139805263Y-68625970D01*
X139506278Y-68625970D01*
X139207293Y-68625970D01*
X139207293Y-68701270D01*
X139207293Y-68776570D01*
X138458723Y-68776570D01*
X137710153Y-68776570D01*
X137710153Y-68625970D01*
X137710153Y-68475370D01*
X138757708Y-68475370D01*
X139805263Y-68475370D01*
X139805263Y-68251690D01*
X139805263Y-68028010D01*
X138607108Y-68028010D01*
X137408953Y-68028010D01*
X137408953Y-67952710D01*
X137408953Y-67877410D01*
X138607108Y-67877410D01*
X139805263Y-67877410D01*
X139805263Y-67651510D01*
X139805263Y-67425610D01*
X138531808Y-67425610D01*
X137258354Y-67425610D01*
X137258354Y-67350310D01*
X137258354Y-67275010D01*
X138607108Y-67275010D01*
X139955863Y-67275010D01*
X139955863Y-67576210D01*
X139955863Y-67877410D01*
X141231533Y-67877410D01*
X142507202Y-67877410D01*
X142507202Y-67952710D01*
X142507202Y-68028010D01*
X141231533Y-68028010D01*
X139955863Y-68028010D01*
X139955863Y-69600440D01*
X139955863Y-71172880D01*
X140181763Y-71172880D01*
X140407662Y-71172880D01*
X140407662Y-69824130D01*
X140407662Y-68475370D01*
X141382133Y-68475370D01*
X142356602Y-68475370D01*
X142356602Y-68550670D01*
X142356602Y-68625970D01*
X141457432Y-68625970D01*
X140558262Y-68625970D01*
X140558262Y-69899430D01*
X140558262Y-71172880D01*
X140781947Y-71172880D01*
X141005633Y-71172880D01*
X141005633Y-70125330D01*
X141005633Y-69077770D01*
X141455217Y-69077770D01*
X141904803Y-69077770D01*
X141904803Y-69150770D01*
X141904803Y-69223770D01*
X141530518Y-69223770D01*
X141156232Y-69223770D01*
X141156232Y-70273550D01*
X141156232Y-71323320D01*
X140480747Y-71323320D01*
X139805263Y-71323320D01*
X139805263Y-71099630D01*
X139805263Y-71099800D01*
G36*
X136957154Y-67500910D02*
G01*
X136957154Y-67425610D01*
X137107753Y-67425610D01*
X137258354Y-67425610D01*
X137258354Y-67500910D01*
X137258354Y-67576210D01*
X137107753Y-67576210D01*
X136957154Y-67576210D01*
X136957154Y-67500910D01*
G37*
X136957154Y-67500910D02*
X136957154Y-67425610D01*
X137107753Y-67425610D01*
X137258354Y-67425610D01*
X137258354Y-67500910D01*
X137258354Y-67576210D01*
X137107753Y-67576210D01*
X136957154Y-67576210D01*
X136957154Y-67500910D01*
G36*
X136806554Y-67651510D02*
G01*
X136806554Y-67576210D01*
X136881854Y-67576210D01*
X136957154Y-67576210D01*
X136957154Y-67651510D01*
X136957154Y-67726810D01*
X136881854Y-67726810D01*
X136806554Y-67726810D01*
X136806554Y-67651510D01*
G37*
X136806554Y-67651510D02*
X136806554Y-67576210D01*
X136881854Y-67576210D01*
X136957154Y-67576210D01*
X136957154Y-67651510D01*
X136957154Y-67726810D01*
X136881854Y-67726810D01*
X136806554Y-67726810D01*
X136806554Y-67651510D01*
G36*
X136660383Y-67877410D02*
G01*
X136660383Y-67726810D01*
X136733473Y-67726810D01*
X136806563Y-67726810D01*
X136806563Y-67877410D01*
X136806563Y-68028010D01*
X136733473Y-68028010D01*
X136660383Y-68028010D01*
X136660383Y-67877410D01*
G37*
X136660383Y-67877410D02*
X136660383Y-67726810D01*
X136733473Y-67726810D01*
X136806563Y-67726810D01*
X136806563Y-67877410D01*
X136806563Y-68028010D01*
X136733473Y-68028010D01*
X136660383Y-68028010D01*
X136660383Y-67877410D01*
G36*
X136509783Y-68625970D02*
G01*
X136509783Y-68028010D01*
X136585083Y-68028010D01*
X136660383Y-68028010D01*
X136660383Y-68625970D01*
X136660383Y-69223940D01*
X136585083Y-69223940D01*
X136509783Y-69223940D01*
X136509783Y-68625970D01*
G37*
X136509783Y-68625970D02*
X136509783Y-68028010D01*
X136585083Y-68028010D01*
X136660383Y-68028010D01*
X136660383Y-68625970D01*
X136660383Y-69223940D01*
X136585083Y-69223940D01*
X136509783Y-69223940D01*
X136509783Y-68625970D01*
D12*
X163941250Y-129558600D02*
X168608650Y-129558600D01*
X162944450Y-131793800D02*
X162944450Y-133902000D01*
X169050450Y-131804800D02*
X169050450Y-133900000D01*
X168634050Y-136162600D02*
X163341250Y-136152800D01*
X162944450Y-131800400D02*
X162694450Y-131800400D01*
X148730700Y-131800400D02*
X148480700Y-131800400D01*
X154420300Y-136162600D02*
X149127500Y-136152800D01*
X154836700Y-131804800D02*
X154836700Y-133900000D01*
X148730700Y-131793800D02*
X148730700Y-133902000D01*
X149727500Y-129558600D02*
X154394900Y-129558600D01*
D13*
X132390000Y-93661252D02*
X132390000Y-93138748D01*
X133810000Y-93661252D02*
X133810000Y-93138748D01*
X155636152Y-122161252D02*
X155636152Y-121638748D01*
X157056152Y-122161252D02*
X157056152Y-121638748D01*
X140133076Y-122161252D02*
X140133076Y-121638748D01*
X138713076Y-122161252D02*
X138713076Y-121638748D01*
X120790000Y-71538748D02*
X120790000Y-72061252D01*
X122210000Y-71538748D02*
X122210000Y-72061252D01*
X125390000Y-72061252D02*
X125390000Y-71538748D01*
X126810000Y-72061252D02*
X126810000Y-71538748D01*
X152390000Y-79738748D02*
X152390000Y-80261252D01*
X153810000Y-79738748D02*
X153810000Y-80261252D01*
X152390000Y-93661252D02*
X152390000Y-93138748D01*
X153810000Y-93661252D02*
X153810000Y-93138748D01*
X173979228Y-122161252D02*
X173979228Y-121638748D01*
X172559228Y-122161252D02*
X172559228Y-121638748D01*
X133810000Y-79738748D02*
X133810000Y-80261252D01*
X132390000Y-79738748D02*
X132390000Y-80261252D01*
X176238748Y-91510000D02*
X176761252Y-91510000D01*
X176238748Y-90090000D02*
X176761252Y-90090000D01*
X176540000Y-111140000D02*
X176540000Y-114000000D01*
X178460000Y-111140000D02*
X176540000Y-111140000D01*
X178460000Y-114000000D02*
X178460000Y-111140000D01*
X178500000Y-69240000D02*
X175640000Y-69240000D01*
X175640000Y-69240000D02*
X175640000Y-71160000D01*
X175640000Y-71160000D02*
X178500000Y-71160000D01*
X178500000Y-63040000D02*
X175640000Y-63040000D01*
X175640000Y-63040000D02*
X175640000Y-64960000D01*
X175640000Y-64960000D02*
X178500000Y-64960000D01*
X178500000Y-131867500D02*
X175640000Y-131867500D01*
X175640000Y-131867500D02*
X175640000Y-133787500D01*
X175640000Y-133787500D02*
X178500000Y-133787500D01*
X120640000Y-133832500D02*
X123500000Y-133832500D01*
X120640000Y-131912500D02*
X120640000Y-133832500D01*
X123500000Y-131912500D02*
X120640000Y-131912500D01*
X120100000Y-89500000D02*
X120100000Y-89950000D01*
X118250000Y-89500000D02*
X120100000Y-89500000D01*
X115700000Y-97300000D02*
X115950000Y-97300000D01*
X115700000Y-89500000D02*
X115950000Y-89500000D01*
X118250000Y-97300000D02*
X120100000Y-97300000D01*
X120100000Y-97300000D02*
X120100000Y-96850000D01*
X120650000Y-91700000D02*
X120650000Y-92150000D01*
X120650000Y-91700000D02*
X120200000Y-91700000D01*
X128150000Y-107770000D02*
X128150000Y-112970000D01*
X168850000Y-107770000D02*
X128150000Y-107770000D01*
X171450000Y-112970000D02*
X128150000Y-112970000D01*
X168850000Y-107770000D02*
X168850000Y-110370000D01*
X168850000Y-110370000D02*
X171450000Y-110370000D01*
X171450000Y-110370000D02*
X171450000Y-112970000D01*
X170120000Y-107770000D02*
X171450000Y-107770000D01*
X171450000Y-107770000D02*
X171450000Y-109100000D01*
X141050000Y-62760000D02*
X158950000Y-62760000D01*
X158950000Y-62760000D02*
X158950000Y-60100000D01*
X158950000Y-60100000D02*
X141050000Y-60100000D01*
X141050000Y-60100000D02*
X141050000Y-62760000D01*
X142000000Y-60100000D02*
X142000000Y-54100000D01*
X142000000Y-54100000D02*
X142760000Y-54100000D01*
X142760000Y-54100000D02*
X142760000Y-60100000D01*
X142060000Y-60100000D02*
X142060000Y-54100000D01*
X142180000Y-60100000D02*
X142180000Y-54100000D01*
X142300000Y-60100000D02*
X142300000Y-54100000D01*
X142420000Y-60100000D02*
X142420000Y-54100000D01*
X142540000Y-60100000D02*
X142540000Y-54100000D01*
X142660000Y-60100000D02*
X142660000Y-54100000D01*
X142000000Y-63090000D02*
X142000000Y-62760000D01*
X142760000Y-63090000D02*
X142760000Y-62760000D01*
X143650000Y-62760000D02*
X143650000Y-60100000D01*
X144540000Y-60100000D02*
X144540000Y-54100000D01*
X144540000Y-54100000D02*
X145300000Y-54100000D01*
X145300000Y-54100000D02*
X145300000Y-60100000D01*
X144540000Y-63157071D02*
X144540000Y-62760000D01*
X145300000Y-63157071D02*
X145300000Y-62760000D01*
X146190000Y-62760000D02*
X146190000Y-60100000D01*
X147080000Y-60100000D02*
X147080000Y-54100000D01*
X147080000Y-54100000D02*
X147840000Y-54100000D01*
X147840000Y-54100000D02*
X147840000Y-60100000D01*
X147080000Y-63157071D02*
X147080000Y-62760000D01*
X147840000Y-63157071D02*
X147840000Y-62760000D01*
X148730000Y-62760000D02*
X148730000Y-60100000D01*
X149620000Y-60100000D02*
X149620000Y-54100000D01*
X149620000Y-54100000D02*
X150380000Y-54100000D01*
X150380000Y-54100000D02*
X150380000Y-60100000D01*
X149620000Y-63157071D02*
X149620000Y-62760000D01*
X150380000Y-63157071D02*
X150380000Y-62760000D01*
X151270000Y-62760000D02*
X151270000Y-60100000D01*
X152160000Y-60100000D02*
X152160000Y-54100000D01*
X152160000Y-54100000D02*
X152920000Y-54100000D01*
X152920000Y-54100000D02*
X152920000Y-60100000D01*
X152160000Y-63157071D02*
X152160000Y-62760000D01*
X152920000Y-63157071D02*
X152920000Y-62760000D01*
X153810000Y-62760000D02*
X153810000Y-60100000D01*
X154700000Y-60100000D02*
X154700000Y-54100000D01*
X154700000Y-54100000D02*
X155460000Y-54100000D01*
X155460000Y-54100000D02*
X155460000Y-60100000D01*
X154700000Y-63157071D02*
X154700000Y-62760000D01*
X155460000Y-63157071D02*
X155460000Y-62760000D01*
X156350000Y-62760000D02*
X156350000Y-60100000D01*
X157240000Y-60100000D02*
X157240000Y-54100000D01*
X157240000Y-54100000D02*
X158000000Y-54100000D01*
X158000000Y-54100000D02*
X158000000Y-60100000D01*
X157240000Y-63157071D02*
X157240000Y-62760000D01*
X158000000Y-63157071D02*
X158000000Y-62760000D01*
X142380000Y-65470000D02*
X141110000Y-65470000D01*
X141110000Y-65470000D02*
X141110000Y-64200000D01*
X144363845Y-121638748D02*
X144363845Y-122161252D01*
X142943845Y-121638748D02*
X142943845Y-122161252D01*
X126020769Y-121638748D02*
X126020769Y-122161252D01*
X127440769Y-121638748D02*
X127440769Y-122161252D01*
X148594614Y-122161252D02*
X148594614Y-121638748D01*
X147174614Y-122161252D02*
X147174614Y-121638748D01*
X130251538Y-122161252D02*
X130251538Y-121638748D01*
X131671538Y-122161252D02*
X131671538Y-121638748D01*
X152825383Y-122161252D02*
X152825383Y-121638748D01*
X151405383Y-122161252D02*
X151405383Y-121638748D01*
X134482307Y-122161252D02*
X134482307Y-121638748D01*
X135902307Y-122161252D02*
X135902307Y-121638748D01*
X176790000Y-108261252D02*
X176790000Y-107738748D01*
X178210000Y-108261252D02*
X178210000Y-107738748D01*
X172061252Y-69490000D02*
X171538748Y-69490000D01*
X172061252Y-70910000D02*
X171538748Y-70910000D01*
X172061252Y-63290000D02*
X171538748Y-63290000D01*
X172061252Y-64710000D02*
X171538748Y-64710000D01*
X164097690Y-121638748D02*
X164097690Y-122161252D01*
X165517690Y-121638748D02*
X165517690Y-122161252D01*
X159866921Y-122161252D02*
X159866921Y-121638748D01*
X161286921Y-122161252D02*
X161286921Y-121638748D01*
X168328459Y-122161252D02*
X168328459Y-121638748D01*
X169748459Y-122161252D02*
X169748459Y-121638748D01*
X176790000Y-122161252D02*
X176790000Y-121638748D01*
X178210000Y-122161252D02*
X178210000Y-121638748D01*
X123210000Y-122161252D02*
X123210000Y-121638748D01*
X121790000Y-122161252D02*
X121790000Y-121638748D01*
X147610000Y-79738748D02*
X147610000Y-80261252D01*
X146190000Y-79738748D02*
X146190000Y-80261252D01*
D14*
X129413750Y-129500000D02*
X129413750Y-136200000D01*
X129413750Y-136200000D02*
X142113750Y-136200000D01*
X142113750Y-129500000D02*
X142113750Y-136200000D01*
X129413750Y-129500000D02*
X142113750Y-129500000D01*
D13*
X135565000Y-80000000D02*
X135565000Y-83450000D01*
X135565000Y-80000000D02*
X135565000Y-78050000D01*
X144435000Y-80000000D02*
X144435000Y-81950000D01*
X144435000Y-80000000D02*
X144435000Y-78050000D01*
X155565000Y-93400000D02*
X155565000Y-95350000D01*
X155565000Y-93400000D02*
X155565000Y-91450000D01*
X164435000Y-93400000D02*
X164435000Y-95350000D01*
X164435000Y-93400000D02*
X164435000Y-89950000D01*
X155565000Y-80000000D02*
X155565000Y-83450000D01*
X155565000Y-80000000D02*
X155565000Y-78050000D01*
X164435000Y-80000000D02*
X164435000Y-81950000D01*
X164435000Y-80000000D02*
X164435000Y-78050000D01*
X135565000Y-93400000D02*
X135565000Y-95350000D01*
X135565000Y-93400000D02*
X135565000Y-91450000D01*
X144435000Y-93400000D02*
X144435000Y-95350000D01*
X144435000Y-93400000D02*
X144435000Y-89950000D01*
X120390000Y-81910000D02*
X121650000Y-81910000D01*
X127210000Y-81910000D02*
X125950000Y-81910000D01*
X120390000Y-78150000D02*
X120390000Y-81910000D01*
X127210000Y-75900000D02*
X127210000Y-81910000D01*
X174600000Y-93525000D02*
X174600000Y-96675000D01*
X174600000Y-96675000D02*
X178400000Y-96675000D01*
X129200000Y-63040000D02*
X126340000Y-63040000D01*
X126340000Y-63040000D02*
X126340000Y-64960000D01*
X126340000Y-64960000D02*
X129200000Y-64960000D01*
X122238748Y-63290000D02*
X122761252Y-63290000D01*
X122238748Y-64710000D02*
X122761252Y-64710000D01*
X123210000Y-112438748D02*
X123210000Y-112961252D01*
X121790000Y-112438748D02*
X121790000Y-112961252D01*
D14*
X164707916Y-128404761D02*
X164850773Y-128452380D01*
X165088869Y-128452380D01*
X165184107Y-128404761D01*
X165231726Y-128357142D01*
X165279345Y-128261904D01*
X165279345Y-128166666D01*
X165231726Y-128071428D01*
X165184107Y-128023809D01*
X165088869Y-127976190D01*
X164898392Y-127928571D01*
X164803154Y-127880952D01*
X164755535Y-127833333D01*
X164707916Y-127738095D01*
X164707916Y-127642857D01*
X164755535Y-127547619D01*
X164803154Y-127500000D01*
X164898392Y-127452380D01*
X165136488Y-127452380D01*
X165279345Y-127500000D01*
X165612678Y-127452380D02*
X165850773Y-128452380D01*
X166041250Y-127738095D01*
X166231726Y-128452380D01*
X166469821Y-127452380D01*
X166755535Y-127452380D02*
X167374583Y-127452380D01*
X167041250Y-127833333D01*
X167184107Y-127833333D01*
X167279345Y-127880952D01*
X167326964Y-127928571D01*
X167374583Y-128023809D01*
X167374583Y-128261904D01*
X167326964Y-128357142D01*
X167279345Y-128404761D01*
X167184107Y-128452380D01*
X166898392Y-128452380D01*
X166803154Y-128404761D01*
X166755535Y-128357142D01*
X164761904Y-138152380D02*
X164428571Y-137676190D01*
X164190476Y-138152380D02*
X164190476Y-137152380D01*
X164571428Y-137152380D01*
X164666666Y-137200000D01*
X164714285Y-137247619D01*
X164761904Y-137342857D01*
X164761904Y-137485714D01*
X164714285Y-137580952D01*
X164666666Y-137628571D01*
X164571428Y-137676190D01*
X164190476Y-137676190D01*
X165571428Y-138104761D02*
X165476190Y-138152380D01*
X165285714Y-138152380D01*
X165190476Y-138104761D01*
X165142857Y-138009523D01*
X165142857Y-137628571D01*
X165190476Y-137533333D01*
X165285714Y-137485714D01*
X165476190Y-137485714D01*
X165571428Y-137533333D01*
X165619047Y-137628571D01*
X165619047Y-137723809D01*
X165142857Y-137819047D01*
X166000000Y-138104761D02*
X166095238Y-138152380D01*
X166285714Y-138152380D01*
X166380952Y-138104761D01*
X166428571Y-138009523D01*
X166428571Y-137961904D01*
X166380952Y-137866666D01*
X166285714Y-137819047D01*
X166142857Y-137819047D01*
X166047619Y-137771428D01*
X166000000Y-137676190D01*
X166000000Y-137628571D01*
X166047619Y-137533333D01*
X166142857Y-137485714D01*
X166285714Y-137485714D01*
X166380952Y-137533333D01*
X167238095Y-138104761D02*
X167142857Y-138152380D01*
X166952380Y-138152380D01*
X166857142Y-138104761D01*
X166809523Y-138009523D01*
X166809523Y-137628571D01*
X166857142Y-137533333D01*
X166952380Y-137485714D01*
X167142857Y-137485714D01*
X167238095Y-137533333D01*
X167285714Y-137628571D01*
X167285714Y-137723809D01*
X166809523Y-137819047D01*
X167571428Y-137485714D02*
X167952380Y-137485714D01*
X167714285Y-137152380D02*
X167714285Y-138009523D01*
X167761904Y-138104761D01*
X167857142Y-138152380D01*
X167952380Y-138152380D01*
X151004166Y-128667961D02*
X151147023Y-128715580D01*
X151385119Y-128715580D01*
X151480357Y-128667961D01*
X151527976Y-128620342D01*
X151575595Y-128525104D01*
X151575595Y-128429866D01*
X151527976Y-128334628D01*
X151480357Y-128287009D01*
X151385119Y-128239390D01*
X151194642Y-128191771D01*
X151099404Y-128144152D01*
X151051785Y-128096533D01*
X151004166Y-128001295D01*
X151004166Y-127906057D01*
X151051785Y-127810819D01*
X151099404Y-127763200D01*
X151194642Y-127715580D01*
X151432738Y-127715580D01*
X151575595Y-127763200D01*
X151908928Y-127715580D02*
X152147023Y-128715580D01*
X152337500Y-128001295D01*
X152527976Y-128715580D01*
X152766071Y-127715580D01*
X153670833Y-128715580D02*
X153099404Y-128715580D01*
X153385119Y-128715580D02*
X153385119Y-127715580D01*
X153289880Y-127858438D01*
X153194642Y-127953676D01*
X153099404Y-128001295D01*
X147066666Y-138138980D02*
X147066666Y-137138980D01*
X147400000Y-137853266D01*
X147733333Y-137138980D01*
X147733333Y-138138980D01*
X148638095Y-138138980D02*
X148638095Y-137615171D01*
X148590476Y-137519933D01*
X148495238Y-137472314D01*
X148304761Y-137472314D01*
X148209523Y-137519933D01*
X148638095Y-138091361D02*
X148542857Y-138138980D01*
X148304761Y-138138980D01*
X148209523Y-138091361D01*
X148161904Y-137996123D01*
X148161904Y-137900885D01*
X148209523Y-137805647D01*
X148304761Y-137758028D01*
X148542857Y-137758028D01*
X148638095Y-137710409D01*
X149114285Y-137472314D02*
X149114285Y-138138980D01*
X149114285Y-137567552D02*
X149161904Y-137519933D01*
X149257142Y-137472314D01*
X149400000Y-137472314D01*
X149495238Y-137519933D01*
X149542857Y-137615171D01*
X149542857Y-138138980D01*
X150447619Y-137472314D02*
X150447619Y-138138980D01*
X150019047Y-137472314D02*
X150019047Y-137996123D01*
X150066666Y-138091361D01*
X150161904Y-138138980D01*
X150304761Y-138138980D01*
X150400000Y-138091361D01*
X150447619Y-138043742D01*
X151352380Y-138138980D02*
X151352380Y-137615171D01*
X151304761Y-137519933D01*
X151209523Y-137472314D01*
X151019047Y-137472314D01*
X150923809Y-137519933D01*
X151352380Y-138091361D02*
X151257142Y-138138980D01*
X151019047Y-138138980D01*
X150923809Y-138091361D01*
X150876190Y-137996123D01*
X150876190Y-137900885D01*
X150923809Y-137805647D01*
X151019047Y-137758028D01*
X151257142Y-137758028D01*
X151352380Y-137710409D01*
X151971428Y-138138980D02*
X151876190Y-138091361D01*
X151828571Y-137996123D01*
X151828571Y-137138980D01*
X153685714Y-138043742D02*
X153638095Y-138091361D01*
X153495238Y-138138980D01*
X153400000Y-138138980D01*
X153257142Y-138091361D01*
X153161904Y-137996123D01*
X153114285Y-137900885D01*
X153066666Y-137710409D01*
X153066666Y-137567552D01*
X153114285Y-137377076D01*
X153161904Y-137281838D01*
X153257142Y-137186600D01*
X153400000Y-137138980D01*
X153495238Y-137138980D01*
X153638095Y-137186600D01*
X153685714Y-137234219D01*
X154257142Y-138138980D02*
X154161904Y-138091361D01*
X154114285Y-137996123D01*
X154114285Y-137138980D01*
X154780952Y-138138980D02*
X154685714Y-138091361D01*
X154638095Y-138043742D01*
X154590476Y-137948504D01*
X154590476Y-137662790D01*
X154638095Y-137567552D01*
X154685714Y-137519933D01*
X154780952Y-137472314D01*
X154923809Y-137472314D01*
X155019047Y-137519933D01*
X155066666Y-137567552D01*
X155114285Y-137662790D01*
X155114285Y-137948504D01*
X155066666Y-138043742D01*
X155019047Y-138091361D01*
X154923809Y-138138980D01*
X154780952Y-138138980D01*
X155971428Y-138091361D02*
X155876190Y-138138980D01*
X155685714Y-138138980D01*
X155590476Y-138091361D01*
X155542857Y-138043742D01*
X155495238Y-137948504D01*
X155495238Y-137662790D01*
X155542857Y-137567552D01*
X155590476Y-137519933D01*
X155685714Y-137472314D01*
X155876190Y-137472314D01*
X155971428Y-137519933D01*
X156400000Y-138138980D02*
X156400000Y-137138980D01*
X156495238Y-137758028D02*
X156780952Y-138138980D01*
X156780952Y-137472314D02*
X156400000Y-137853266D01*
X131857142Y-93566666D02*
X131904761Y-93614285D01*
X131952380Y-93757142D01*
X131952380Y-93852380D01*
X131904761Y-93995238D01*
X131809523Y-94090476D01*
X131714285Y-94138095D01*
X131523809Y-94185714D01*
X131380952Y-94185714D01*
X131190476Y-94138095D01*
X131095238Y-94090476D01*
X131000000Y-93995238D01*
X130952380Y-93852380D01*
X130952380Y-93757142D01*
X131000000Y-93614285D01*
X131047619Y-93566666D01*
X131952380Y-92614285D02*
X131952380Y-93185714D01*
X131952380Y-92900000D02*
X130952380Y-92900000D01*
X131095238Y-92995238D01*
X131190476Y-93090476D01*
X131238095Y-93185714D01*
X155053294Y-122066666D02*
X155100913Y-122114285D01*
X155148532Y-122257142D01*
X155148532Y-122352380D01*
X155100913Y-122495238D01*
X155005675Y-122590476D01*
X154910437Y-122638095D01*
X154719961Y-122685714D01*
X154577104Y-122685714D01*
X154386628Y-122638095D01*
X154291390Y-122590476D01*
X154196152Y-122495238D01*
X154148532Y-122352380D01*
X154148532Y-122257142D01*
X154196152Y-122114285D01*
X154243771Y-122066666D01*
X154243771Y-121685714D02*
X154196152Y-121638095D01*
X154148532Y-121542857D01*
X154148532Y-121304761D01*
X154196152Y-121209523D01*
X154243771Y-121161904D01*
X154339009Y-121114285D01*
X154434247Y-121114285D01*
X154577104Y-121161904D01*
X155148532Y-121733333D01*
X155148532Y-121114285D01*
X138130218Y-122066666D02*
X138177837Y-122114285D01*
X138225456Y-122257142D01*
X138225456Y-122352380D01*
X138177837Y-122495238D01*
X138082599Y-122590476D01*
X137987361Y-122638095D01*
X137796885Y-122685714D01*
X137654028Y-122685714D01*
X137463552Y-122638095D01*
X137368314Y-122590476D01*
X137273076Y-122495238D01*
X137225456Y-122352380D01*
X137225456Y-122257142D01*
X137273076Y-122114285D01*
X137320695Y-122066666D01*
X137225456Y-121733333D02*
X137225456Y-121114285D01*
X137606409Y-121447619D01*
X137606409Y-121304761D01*
X137654028Y-121209523D01*
X137701647Y-121161904D01*
X137796885Y-121114285D01*
X138034980Y-121114285D01*
X138130218Y-121161904D01*
X138177837Y-121209523D01*
X138225456Y-121304761D01*
X138225456Y-121590476D01*
X138177837Y-121685714D01*
X138130218Y-121733333D01*
X120257142Y-71966666D02*
X120304761Y-72014285D01*
X120352380Y-72157142D01*
X120352380Y-72252380D01*
X120304761Y-72395238D01*
X120209523Y-72490476D01*
X120114285Y-72538095D01*
X119923809Y-72585714D01*
X119780952Y-72585714D01*
X119590476Y-72538095D01*
X119495238Y-72490476D01*
X119400000Y-72395238D01*
X119352380Y-72252380D01*
X119352380Y-72157142D01*
X119400000Y-72014285D01*
X119447619Y-71966666D01*
X119685714Y-71109523D02*
X120352380Y-71109523D01*
X119304761Y-71347619D02*
X120019047Y-71585714D01*
X120019047Y-70966666D01*
X124807142Y-71966666D02*
X124854761Y-72014285D01*
X124902380Y-72157142D01*
X124902380Y-72252380D01*
X124854761Y-72395238D01*
X124759523Y-72490476D01*
X124664285Y-72538095D01*
X124473809Y-72585714D01*
X124330952Y-72585714D01*
X124140476Y-72538095D01*
X124045238Y-72490476D01*
X123950000Y-72395238D01*
X123902380Y-72252380D01*
X123902380Y-72157142D01*
X123950000Y-72014285D01*
X123997619Y-71966666D01*
X123902380Y-71061904D02*
X123902380Y-71538095D01*
X124378571Y-71585714D01*
X124330952Y-71538095D01*
X124283333Y-71442857D01*
X124283333Y-71204761D01*
X124330952Y-71109523D01*
X124378571Y-71061904D01*
X124473809Y-71014285D01*
X124711904Y-71014285D01*
X124807142Y-71061904D01*
X124854761Y-71109523D01*
X124902380Y-71204761D01*
X124902380Y-71442857D01*
X124854761Y-71538095D01*
X124807142Y-71585714D01*
X151857142Y-80166666D02*
X151904761Y-80214285D01*
X151952380Y-80357142D01*
X151952380Y-80452380D01*
X151904761Y-80595238D01*
X151809523Y-80690476D01*
X151714285Y-80738095D01*
X151523809Y-80785714D01*
X151380952Y-80785714D01*
X151190476Y-80738095D01*
X151095238Y-80690476D01*
X151000000Y-80595238D01*
X150952380Y-80452380D01*
X150952380Y-80357142D01*
X151000000Y-80214285D01*
X151047619Y-80166666D01*
X150952380Y-79309523D02*
X150952380Y-79500000D01*
X151000000Y-79595238D01*
X151047619Y-79642857D01*
X151190476Y-79738095D01*
X151380952Y-79785714D01*
X151761904Y-79785714D01*
X151857142Y-79738095D01*
X151904761Y-79690476D01*
X151952380Y-79595238D01*
X151952380Y-79404761D01*
X151904761Y-79309523D01*
X151857142Y-79261904D01*
X151761904Y-79214285D01*
X151523809Y-79214285D01*
X151428571Y-79261904D01*
X151380952Y-79309523D01*
X151333333Y-79404761D01*
X151333333Y-79595238D01*
X151380952Y-79690476D01*
X151428571Y-79738095D01*
X151523809Y-79785714D01*
X151807142Y-93566666D02*
X151854761Y-93614285D01*
X151902380Y-93757142D01*
X151902380Y-93852380D01*
X151854761Y-93995238D01*
X151759523Y-94090476D01*
X151664285Y-94138095D01*
X151473809Y-94185714D01*
X151330952Y-94185714D01*
X151140476Y-94138095D01*
X151045238Y-94090476D01*
X150950000Y-93995238D01*
X150902380Y-93852380D01*
X150902380Y-93757142D01*
X150950000Y-93614285D01*
X150997619Y-93566666D01*
X150902380Y-93233333D02*
X150902380Y-92566666D01*
X151902380Y-92995238D01*
X171976370Y-122066666D02*
X172023989Y-122114285D01*
X172071608Y-122257142D01*
X172071608Y-122352380D01*
X172023989Y-122495238D01*
X171928751Y-122590476D01*
X171833513Y-122638095D01*
X171643037Y-122685714D01*
X171500180Y-122685714D01*
X171309704Y-122638095D01*
X171214466Y-122590476D01*
X171119228Y-122495238D01*
X171071608Y-122352380D01*
X171071608Y-122257142D01*
X171119228Y-122114285D01*
X171166847Y-122066666D01*
X171500180Y-121495238D02*
X171452561Y-121590476D01*
X171404942Y-121638095D01*
X171309704Y-121685714D01*
X171262085Y-121685714D01*
X171166847Y-121638095D01*
X171119228Y-121590476D01*
X171071608Y-121495238D01*
X171071608Y-121304761D01*
X171119228Y-121209523D01*
X171166847Y-121161904D01*
X171262085Y-121114285D01*
X171309704Y-121114285D01*
X171404942Y-121161904D01*
X171452561Y-121209523D01*
X171500180Y-121304761D01*
X171500180Y-121495238D01*
X171547799Y-121590476D01*
X171595418Y-121638095D01*
X171690656Y-121685714D01*
X171881132Y-121685714D01*
X171976370Y-121638095D01*
X172023989Y-121590476D01*
X172071608Y-121495238D01*
X172071608Y-121304761D01*
X172023989Y-121209523D01*
X171976370Y-121161904D01*
X171881132Y-121114285D01*
X171690656Y-121114285D01*
X171595418Y-121161904D01*
X171547799Y-121209523D01*
X171500180Y-121304761D01*
X131757142Y-80166666D02*
X131804761Y-80214285D01*
X131852380Y-80357142D01*
X131852380Y-80452380D01*
X131804761Y-80595238D01*
X131709523Y-80690476D01*
X131614285Y-80738095D01*
X131423809Y-80785714D01*
X131280952Y-80785714D01*
X131090476Y-80738095D01*
X130995238Y-80690476D01*
X130900000Y-80595238D01*
X130852380Y-80452380D01*
X130852380Y-80357142D01*
X130900000Y-80214285D01*
X130947619Y-80166666D01*
X131852380Y-79690476D02*
X131852380Y-79500000D01*
X131804761Y-79404761D01*
X131757142Y-79357142D01*
X131614285Y-79261904D01*
X131423809Y-79214285D01*
X131042857Y-79214285D01*
X130947619Y-79261904D01*
X130900000Y-79309523D01*
X130852380Y-79404761D01*
X130852380Y-79595238D01*
X130900000Y-79690476D01*
X130947619Y-79738095D01*
X131042857Y-79785714D01*
X131280952Y-79785714D01*
X131376190Y-79738095D01*
X131423809Y-79690476D01*
X131471428Y-79595238D01*
X131471428Y-79404761D01*
X131423809Y-79309523D01*
X131376190Y-79261904D01*
X131280952Y-79214285D01*
X175857142Y-89507142D02*
X175809523Y-89554761D01*
X175666666Y-89602380D01*
X175571428Y-89602380D01*
X175428571Y-89554761D01*
X175333333Y-89459523D01*
X175285714Y-89364285D01*
X175238095Y-89173809D01*
X175238095Y-89030952D01*
X175285714Y-88840476D01*
X175333333Y-88745238D01*
X175428571Y-88650000D01*
X175571428Y-88602380D01*
X175666666Y-88602380D01*
X175809523Y-88650000D01*
X175857142Y-88697619D01*
X176809523Y-89602380D02*
X176238095Y-89602380D01*
X176523809Y-89602380D02*
X176523809Y-88602380D01*
X176428571Y-88745238D01*
X176333333Y-88840476D01*
X176238095Y-88888095D01*
X177428571Y-88602380D02*
X177523809Y-88602380D01*
X177619047Y-88650000D01*
X177666666Y-88697619D01*
X177714285Y-88792857D01*
X177761904Y-88983333D01*
X177761904Y-89221428D01*
X177714285Y-89411904D01*
X177666666Y-89507142D01*
X177619047Y-89554761D01*
X177523809Y-89602380D01*
X177428571Y-89602380D01*
X177333333Y-89554761D01*
X177285714Y-89507142D01*
X177238095Y-89411904D01*
X177190476Y-89221428D01*
X177190476Y-88983333D01*
X177238095Y-88792857D01*
X177285714Y-88697619D01*
X177333333Y-88650000D01*
X177428571Y-88602380D01*
X176252380Y-113738095D02*
X175252380Y-113738095D01*
X175252380Y-113500000D01*
X175300000Y-113357142D01*
X175395238Y-113261904D01*
X175490476Y-113214285D01*
X175680952Y-113166666D01*
X175823809Y-113166666D01*
X176014285Y-113214285D01*
X176109523Y-113261904D01*
X176204761Y-113357142D01*
X176252380Y-113500000D01*
X176252380Y-113738095D01*
X176252380Y-112214285D02*
X176252380Y-112785714D01*
X176252380Y-112500000D02*
X175252380Y-112500000D01*
X175395238Y-112595238D01*
X175490476Y-112690476D01*
X175538095Y-112785714D01*
X176261904Y-116657142D02*
X176214285Y-116704761D01*
X176071428Y-116752380D01*
X175976190Y-116752380D01*
X175833333Y-116704761D01*
X175738095Y-116609523D01*
X175690476Y-116514285D01*
X175642857Y-116323809D01*
X175642857Y-116180952D01*
X175690476Y-115990476D01*
X175738095Y-115895238D01*
X175833333Y-115800000D01*
X175976190Y-115752380D01*
X176071428Y-115752380D01*
X176214285Y-115800000D01*
X176261904Y-115847619D01*
X176833333Y-116752380D02*
X176738095Y-116704761D01*
X176690476Y-116609523D01*
X176690476Y-115752380D01*
X177357142Y-116752380D02*
X177261904Y-116704761D01*
X177214285Y-116657142D01*
X177166666Y-116561904D01*
X177166666Y-116276190D01*
X177214285Y-116180952D01*
X177261904Y-116133333D01*
X177357142Y-116085714D01*
X177500000Y-116085714D01*
X177595238Y-116133333D01*
X177642857Y-116180952D01*
X177690476Y-116276190D01*
X177690476Y-116561904D01*
X177642857Y-116657142D01*
X177595238Y-116704761D01*
X177500000Y-116752380D01*
X177357142Y-116752380D01*
X178547619Y-116704761D02*
X178452380Y-116752380D01*
X178261904Y-116752380D01*
X178166666Y-116704761D01*
X178119047Y-116657142D01*
X178071428Y-116561904D01*
X178071428Y-116276190D01*
X178119047Y-116180952D01*
X178166666Y-116133333D01*
X178261904Y-116085714D01*
X178452380Y-116085714D01*
X178547619Y-116133333D01*
X178976190Y-116752380D02*
X178976190Y-115752380D01*
X179071428Y-116371428D02*
X179357142Y-116752380D01*
X179357142Y-116085714D02*
X178976190Y-116466666D01*
X176761904Y-69002380D02*
X176761904Y-68002380D01*
X177000000Y-68002380D01*
X177142857Y-68050000D01*
X177238095Y-68145238D01*
X177285714Y-68240476D01*
X177333333Y-68430952D01*
X177333333Y-68573809D01*
X177285714Y-68764285D01*
X177238095Y-68859523D01*
X177142857Y-68954761D01*
X177000000Y-69002380D01*
X176761904Y-69002380D01*
X177714285Y-68097619D02*
X177761904Y-68050000D01*
X177857142Y-68002380D01*
X178095238Y-68002380D01*
X178190476Y-68050000D01*
X178238095Y-68097619D01*
X178285714Y-68192857D01*
X178285714Y-68288095D01*
X178238095Y-68430952D01*
X177666666Y-69002380D01*
X178285714Y-69002380D01*
X176214285Y-72452380D02*
X176214285Y-71452380D01*
X176214285Y-71928571D02*
X176785714Y-71928571D01*
X176785714Y-72452380D02*
X176785714Y-71452380D01*
X177690476Y-72452380D02*
X177690476Y-71928571D01*
X177642857Y-71833333D01*
X177547619Y-71785714D01*
X177357142Y-71785714D01*
X177261904Y-71833333D01*
X177690476Y-72404761D02*
X177595238Y-72452380D01*
X177357142Y-72452380D01*
X177261904Y-72404761D01*
X177214285Y-72309523D01*
X177214285Y-72214285D01*
X177261904Y-72119047D01*
X177357142Y-72071428D01*
X177595238Y-72071428D01*
X177690476Y-72023809D01*
X178309523Y-72452380D02*
X178214285Y-72404761D01*
X178166666Y-72309523D01*
X178166666Y-71452380D01*
X178547619Y-71785714D02*
X178928571Y-71785714D01*
X178690476Y-71452380D02*
X178690476Y-72309523D01*
X178738095Y-72404761D01*
X178833333Y-72452380D01*
X178928571Y-72452380D01*
X176761904Y-62802380D02*
X176761904Y-61802380D01*
X177000000Y-61802380D01*
X177142857Y-61850000D01*
X177238095Y-61945238D01*
X177285714Y-62040476D01*
X177333333Y-62230952D01*
X177333333Y-62373809D01*
X177285714Y-62564285D01*
X177238095Y-62659523D01*
X177142857Y-62754761D01*
X177000000Y-62802380D01*
X176761904Y-62802380D01*
X177666666Y-61802380D02*
X178285714Y-61802380D01*
X177952380Y-62183333D01*
X178095238Y-62183333D01*
X178190476Y-62230952D01*
X178238095Y-62278571D01*
X178285714Y-62373809D01*
X178285714Y-62611904D01*
X178238095Y-62707142D01*
X178190476Y-62754761D01*
X178095238Y-62802380D01*
X177809523Y-62802380D01*
X177714285Y-62754761D01*
X177666666Y-62707142D01*
X173428571Y-66157142D02*
X173380952Y-66204761D01*
X173238095Y-66252380D01*
X173142857Y-66252380D01*
X173000000Y-66204761D01*
X172904761Y-66109523D01*
X172857142Y-66014285D01*
X172809523Y-65823809D01*
X172809523Y-65680952D01*
X172857142Y-65490476D01*
X172904761Y-65395238D01*
X173000000Y-65300000D01*
X173142857Y-65252380D01*
X173238095Y-65252380D01*
X173380952Y-65300000D01*
X173428571Y-65347619D01*
X174000000Y-66252380D02*
X173904761Y-66204761D01*
X173857142Y-66109523D01*
X173857142Y-65252380D01*
X174523809Y-66252380D02*
X174428571Y-66204761D01*
X174380952Y-66157142D01*
X174333333Y-66061904D01*
X174333333Y-65776190D01*
X174380952Y-65680952D01*
X174428571Y-65633333D01*
X174523809Y-65585714D01*
X174666666Y-65585714D01*
X174761904Y-65633333D01*
X174809523Y-65680952D01*
X174857142Y-65776190D01*
X174857142Y-66061904D01*
X174809523Y-66157142D01*
X174761904Y-66204761D01*
X174666666Y-66252380D01*
X174523809Y-66252380D01*
X175714285Y-66204761D02*
X175619047Y-66252380D01*
X175428571Y-66252380D01*
X175333333Y-66204761D01*
X175285714Y-66157142D01*
X175238095Y-66061904D01*
X175238095Y-65776190D01*
X175285714Y-65680952D01*
X175333333Y-65633333D01*
X175428571Y-65585714D01*
X175619047Y-65585714D01*
X175714285Y-65633333D01*
X176142857Y-66252380D02*
X176142857Y-65252380D01*
X176238095Y-65871428D02*
X176523809Y-66252380D01*
X176523809Y-65585714D02*
X176142857Y-65966666D01*
X177904761Y-65252380D02*
X178095238Y-65252380D01*
X178190476Y-65300000D01*
X178285714Y-65395238D01*
X178333333Y-65585714D01*
X178333333Y-65919047D01*
X178285714Y-66109523D01*
X178190476Y-66204761D01*
X178095238Y-66252380D01*
X177904761Y-66252380D01*
X177809523Y-66204761D01*
X177714285Y-66109523D01*
X177666666Y-65919047D01*
X177666666Y-65585714D01*
X177714285Y-65395238D01*
X177809523Y-65300000D01*
X177904761Y-65252380D01*
X179190476Y-65585714D02*
X179190476Y-66252380D01*
X178761904Y-65585714D02*
X178761904Y-66109523D01*
X178809523Y-66204761D01*
X178904761Y-66252380D01*
X179047619Y-66252380D01*
X179142857Y-66204761D01*
X179190476Y-66157142D01*
X179523809Y-65585714D02*
X179904761Y-65585714D01*
X179666666Y-65252380D02*
X179666666Y-66109523D01*
X179714285Y-66204761D01*
X179809523Y-66252380D01*
X179904761Y-66252380D01*
X180238095Y-65585714D02*
X180238095Y-66585714D01*
X180238095Y-65633333D02*
X180333333Y-65585714D01*
X180523809Y-65585714D01*
X180619047Y-65633333D01*
X180666666Y-65680952D01*
X180714285Y-65776190D01*
X180714285Y-66061904D01*
X180666666Y-66157142D01*
X180619047Y-66204761D01*
X180523809Y-66252380D01*
X180333333Y-66252380D01*
X180238095Y-66204761D01*
X181571428Y-65585714D02*
X181571428Y-66252380D01*
X181142857Y-65585714D02*
X181142857Y-66109523D01*
X181190476Y-66204761D01*
X181285714Y-66252380D01*
X181428571Y-66252380D01*
X181523809Y-66204761D01*
X181571428Y-66157142D01*
X181904761Y-65585714D02*
X182285714Y-65585714D01*
X182047619Y-65252380D02*
X182047619Y-66109523D01*
X182095238Y-66204761D01*
X182190476Y-66252380D01*
X182285714Y-66252380D01*
X176761904Y-131629880D02*
X176761904Y-130629880D01*
X177000000Y-130629880D01*
X177142857Y-130677500D01*
X177238095Y-130772738D01*
X177285714Y-130867976D01*
X177333333Y-131058452D01*
X177333333Y-131201309D01*
X177285714Y-131391785D01*
X177238095Y-131487023D01*
X177142857Y-131582261D01*
X177000000Y-131629880D01*
X176761904Y-131629880D01*
X178190476Y-130963214D02*
X178190476Y-131629880D01*
X177952380Y-130582261D02*
X177714285Y-131296547D01*
X178333333Y-131296547D01*
X176261904Y-135652380D02*
X175928571Y-135176190D01*
X175690476Y-135652380D02*
X175690476Y-134652380D01*
X176071428Y-134652380D01*
X176166666Y-134700000D01*
X176214285Y-134747619D01*
X176261904Y-134842857D01*
X176261904Y-134985714D01*
X176214285Y-135080952D01*
X176166666Y-135128571D01*
X176071428Y-135176190D01*
X175690476Y-135176190D01*
X177071428Y-135604761D02*
X176976190Y-135652380D01*
X176785714Y-135652380D01*
X176690476Y-135604761D01*
X176642857Y-135509523D01*
X176642857Y-135128571D01*
X176690476Y-135033333D01*
X176785714Y-134985714D01*
X176976190Y-134985714D01*
X177071428Y-135033333D01*
X177119047Y-135128571D01*
X177119047Y-135223809D01*
X176642857Y-135319047D01*
X177500000Y-135604761D02*
X177595238Y-135652380D01*
X177785714Y-135652380D01*
X177880952Y-135604761D01*
X177928571Y-135509523D01*
X177928571Y-135461904D01*
X177880952Y-135366666D01*
X177785714Y-135319047D01*
X177642857Y-135319047D01*
X177547619Y-135271428D01*
X177500000Y-135176190D01*
X177500000Y-135128571D01*
X177547619Y-135033333D01*
X177642857Y-134985714D01*
X177785714Y-134985714D01*
X177880952Y-135033333D01*
X178738095Y-135604761D02*
X178642857Y-135652380D01*
X178452380Y-135652380D01*
X178357142Y-135604761D01*
X178309523Y-135509523D01*
X178309523Y-135128571D01*
X178357142Y-135033333D01*
X178452380Y-134985714D01*
X178642857Y-134985714D01*
X178738095Y-135033333D01*
X178785714Y-135128571D01*
X178785714Y-135223809D01*
X178309523Y-135319047D01*
X179071428Y-134985714D02*
X179452380Y-134985714D01*
X179214285Y-134652380D02*
X179214285Y-135509523D01*
X179261904Y-135604761D01*
X179357142Y-135652380D01*
X179452380Y-135652380D01*
X121761904Y-131674880D02*
X121761904Y-130674880D01*
X122000000Y-130674880D01*
X122142857Y-130722500D01*
X122238095Y-130817738D01*
X122285714Y-130912976D01*
X122333333Y-131103452D01*
X122333333Y-131246309D01*
X122285714Y-131436785D01*
X122238095Y-131532023D01*
X122142857Y-131627261D01*
X122000000Y-131674880D01*
X121761904Y-131674880D01*
X123238095Y-130674880D02*
X122761904Y-130674880D01*
X122714285Y-131151071D01*
X122761904Y-131103452D01*
X122857142Y-131055833D01*
X123095238Y-131055833D01*
X123190476Y-131103452D01*
X123238095Y-131151071D01*
X123285714Y-131246309D01*
X123285714Y-131484404D01*
X123238095Y-131579642D01*
X123190476Y-131627261D01*
X123095238Y-131674880D01*
X122857142Y-131674880D01*
X122761904Y-131627261D01*
X122714285Y-131579642D01*
X118642857Y-135366666D02*
X119119047Y-135366666D01*
X118547619Y-135652380D02*
X118880952Y-134652380D01*
X119214285Y-135652380D01*
X119976190Y-134985714D02*
X119976190Y-135652380D01*
X119547619Y-134985714D02*
X119547619Y-135509523D01*
X119595238Y-135604761D01*
X119690476Y-135652380D01*
X119833333Y-135652380D01*
X119928571Y-135604761D01*
X119976190Y-135557142D01*
X120309523Y-134985714D02*
X120690476Y-134985714D01*
X120452380Y-134652380D02*
X120452380Y-135509523D01*
X120500000Y-135604761D01*
X120595238Y-135652380D01*
X120690476Y-135652380D01*
X121166666Y-135652380D02*
X121071428Y-135604761D01*
X121023809Y-135557142D01*
X120976190Y-135461904D01*
X120976190Y-135176190D01*
X121023809Y-135080952D01*
X121071428Y-135033333D01*
X121166666Y-134985714D01*
X121309523Y-134985714D01*
X121404761Y-135033333D01*
X121452380Y-135080952D01*
X121500000Y-135176190D01*
X121500000Y-135461904D01*
X121452380Y-135557142D01*
X121404761Y-135604761D01*
X121309523Y-135652380D01*
X121166666Y-135652380D01*
X123261904Y-135557142D02*
X123214285Y-135604761D01*
X123071428Y-135652380D01*
X122976190Y-135652380D01*
X122833333Y-135604761D01*
X122738095Y-135509523D01*
X122690476Y-135414285D01*
X122642857Y-135223809D01*
X122642857Y-135080952D01*
X122690476Y-134890476D01*
X122738095Y-134795238D01*
X122833333Y-134700000D01*
X122976190Y-134652380D01*
X123071428Y-134652380D01*
X123214285Y-134700000D01*
X123261904Y-134747619D01*
X123833333Y-135652380D02*
X123738095Y-135604761D01*
X123690476Y-135509523D01*
X123690476Y-134652380D01*
X124357142Y-135652380D02*
X124261904Y-135604761D01*
X124214285Y-135557142D01*
X124166666Y-135461904D01*
X124166666Y-135176190D01*
X124214285Y-135080952D01*
X124261904Y-135033333D01*
X124357142Y-134985714D01*
X124500000Y-134985714D01*
X124595238Y-135033333D01*
X124642857Y-135080952D01*
X124690476Y-135176190D01*
X124690476Y-135461904D01*
X124642857Y-135557142D01*
X124595238Y-135604761D01*
X124500000Y-135652380D01*
X124357142Y-135652380D01*
X125547619Y-135604761D02*
X125452380Y-135652380D01*
X125261904Y-135652380D01*
X125166666Y-135604761D01*
X125119047Y-135557142D01*
X125071428Y-135461904D01*
X125071428Y-135176190D01*
X125119047Y-135080952D01*
X125166666Y-135033333D01*
X125261904Y-134985714D01*
X125452380Y-134985714D01*
X125547619Y-135033333D01*
X125976190Y-135652380D02*
X125976190Y-134652380D01*
X126071428Y-135271428D02*
X126357142Y-135652380D01*
X126357142Y-134985714D02*
X125976190Y-135366666D01*
X120902380Y-93733333D02*
X121616666Y-93733333D01*
X121759523Y-93780952D01*
X121854761Y-93876190D01*
X121902380Y-94019047D01*
X121902380Y-94114285D01*
X121902380Y-92733333D02*
X121902380Y-93304761D01*
X121902380Y-93019047D02*
X120902380Y-93019047D01*
X121045238Y-93114285D01*
X121140476Y-93209523D01*
X121188095Y-93304761D01*
X126452380Y-110703333D02*
X127166666Y-110703333D01*
X127309523Y-110750952D01*
X127404761Y-110846190D01*
X127452380Y-110989047D01*
X127452380Y-111084285D01*
X126547619Y-110274761D02*
X126500000Y-110227142D01*
X126452380Y-110131904D01*
X126452380Y-109893809D01*
X126500000Y-109798571D01*
X126547619Y-109750952D01*
X126642857Y-109703333D01*
X126738095Y-109703333D01*
X126880952Y-109750952D01*
X127452380Y-110322380D01*
X127452380Y-109703333D01*
X141904761Y-114766666D02*
X142380952Y-114766666D01*
X141809523Y-115052380D02*
X142142857Y-114052380D01*
X142476190Y-115052380D01*
X143238095Y-114385714D02*
X143238095Y-115052380D01*
X142809523Y-114385714D02*
X142809523Y-114909523D01*
X142857142Y-115004761D01*
X142952380Y-115052380D01*
X143095238Y-115052380D01*
X143190476Y-115004761D01*
X143238095Y-114957142D01*
X143571428Y-114385714D02*
X143952380Y-114385714D01*
X143714285Y-114052380D02*
X143714285Y-114909523D01*
X143761904Y-115004761D01*
X143857142Y-115052380D01*
X143952380Y-115052380D01*
X144428571Y-115052380D02*
X144333333Y-115004761D01*
X144285714Y-114957142D01*
X144238095Y-114861904D01*
X144238095Y-114576190D01*
X144285714Y-114480952D01*
X144333333Y-114433333D01*
X144428571Y-114385714D01*
X144571428Y-114385714D01*
X144666666Y-114433333D01*
X144714285Y-114480952D01*
X144761904Y-114576190D01*
X144761904Y-114861904D01*
X144714285Y-114957142D01*
X144666666Y-115004761D01*
X144571428Y-115052380D01*
X144428571Y-115052380D01*
X146523809Y-114957142D02*
X146476190Y-115004761D01*
X146333333Y-115052380D01*
X146238095Y-115052380D01*
X146095238Y-115004761D01*
X146000000Y-114909523D01*
X145952380Y-114814285D01*
X145904761Y-114623809D01*
X145904761Y-114480952D01*
X145952380Y-114290476D01*
X146000000Y-114195238D01*
X146095238Y-114100000D01*
X146238095Y-114052380D01*
X146333333Y-114052380D01*
X146476190Y-114100000D01*
X146523809Y-114147619D01*
X147095238Y-115052380D02*
X147000000Y-115004761D01*
X146952380Y-114909523D01*
X146952380Y-114052380D01*
X147619047Y-115052380D02*
X147523809Y-115004761D01*
X147476190Y-114957142D01*
X147428571Y-114861904D01*
X147428571Y-114576190D01*
X147476190Y-114480952D01*
X147523809Y-114433333D01*
X147619047Y-114385714D01*
X147761904Y-114385714D01*
X147857142Y-114433333D01*
X147904761Y-114480952D01*
X147952380Y-114576190D01*
X147952380Y-114861904D01*
X147904761Y-114957142D01*
X147857142Y-115004761D01*
X147761904Y-115052380D01*
X147619047Y-115052380D01*
X148809523Y-115004761D02*
X148714285Y-115052380D01*
X148523809Y-115052380D01*
X148428571Y-115004761D01*
X148380952Y-114957142D01*
X148333333Y-114861904D01*
X148333333Y-114576190D01*
X148380952Y-114480952D01*
X148428571Y-114433333D01*
X148523809Y-114385714D01*
X148714285Y-114385714D01*
X148809523Y-114433333D01*
X149238095Y-115052380D02*
X149238095Y-114052380D01*
X149333333Y-114671428D02*
X149619047Y-115052380D01*
X149619047Y-114385714D02*
X149238095Y-114766666D01*
X151380952Y-115052380D02*
X151047619Y-114576190D01*
X150809523Y-115052380D02*
X150809523Y-114052380D01*
X151190476Y-114052380D01*
X151285714Y-114100000D01*
X151333333Y-114147619D01*
X151380952Y-114242857D01*
X151380952Y-114385714D01*
X151333333Y-114480952D01*
X151285714Y-114528571D01*
X151190476Y-114576190D01*
X150809523Y-114576190D01*
X152238095Y-115052380D02*
X152238095Y-114528571D01*
X152190476Y-114433333D01*
X152095238Y-114385714D01*
X151904761Y-114385714D01*
X151809523Y-114433333D01*
X152238095Y-115004761D02*
X152142857Y-115052380D01*
X151904761Y-115052380D01*
X151809523Y-115004761D01*
X151761904Y-114909523D01*
X151761904Y-114814285D01*
X151809523Y-114719047D01*
X151904761Y-114671428D01*
X152142857Y-114671428D01*
X152238095Y-114623809D01*
X152571428Y-114385714D02*
X152952380Y-114385714D01*
X152714285Y-114052380D02*
X152714285Y-114909523D01*
X152761904Y-115004761D01*
X152857142Y-115052380D01*
X152952380Y-115052380D01*
X153666666Y-115004761D02*
X153571428Y-115052380D01*
X153380952Y-115052380D01*
X153285714Y-115004761D01*
X153238095Y-114909523D01*
X153238095Y-114528571D01*
X153285714Y-114433333D01*
X153380952Y-114385714D01*
X153571428Y-114385714D01*
X153666666Y-114433333D01*
X153714285Y-114528571D01*
X153714285Y-114623809D01*
X153238095Y-114719047D01*
X154857142Y-115004761D02*
X155000000Y-115052380D01*
X155238095Y-115052380D01*
X155333333Y-115004761D01*
X155380952Y-114957142D01*
X155428571Y-114861904D01*
X155428571Y-114766666D01*
X155380952Y-114671428D01*
X155333333Y-114623809D01*
X155238095Y-114576190D01*
X155047619Y-114528571D01*
X154952380Y-114480952D01*
X154904761Y-114433333D01*
X154857142Y-114338095D01*
X154857142Y-114242857D01*
X154904761Y-114147619D01*
X154952380Y-114100000D01*
X155047619Y-114052380D01*
X155285714Y-114052380D01*
X155428571Y-114100000D01*
X156238095Y-115004761D02*
X156142857Y-115052380D01*
X155952380Y-115052380D01*
X155857142Y-115004761D01*
X155809523Y-114909523D01*
X155809523Y-114528571D01*
X155857142Y-114433333D01*
X155952380Y-114385714D01*
X156142857Y-114385714D01*
X156238095Y-114433333D01*
X156285714Y-114528571D01*
X156285714Y-114623809D01*
X155809523Y-114719047D01*
X156857142Y-115052380D02*
X156761904Y-115004761D01*
X156714285Y-114909523D01*
X156714285Y-114052380D01*
X157619047Y-115004761D02*
X157523809Y-115052380D01*
X157333333Y-115052380D01*
X157238095Y-115004761D01*
X157190476Y-114909523D01*
X157190476Y-114528571D01*
X157238095Y-114433333D01*
X157333333Y-114385714D01*
X157523809Y-114385714D01*
X157619047Y-114433333D01*
X157666666Y-114528571D01*
X157666666Y-114623809D01*
X157190476Y-114719047D01*
X158523809Y-115004761D02*
X158428571Y-115052380D01*
X158238095Y-115052380D01*
X158142857Y-115004761D01*
X158095238Y-114957142D01*
X158047619Y-114861904D01*
X158047619Y-114576190D01*
X158095238Y-114480952D01*
X158142857Y-114433333D01*
X158238095Y-114385714D01*
X158428571Y-114385714D01*
X158523809Y-114433333D01*
X158809523Y-114385714D02*
X159190476Y-114385714D01*
X158952380Y-114052380D02*
X158952380Y-114909523D01*
X159000000Y-115004761D01*
X159095238Y-115052380D01*
X159190476Y-115052380D01*
X139252380Y-61333333D02*
X139966666Y-61333333D01*
X140109523Y-61380952D01*
X140204761Y-61476190D01*
X140252380Y-61619047D01*
X140252380Y-61714285D01*
X139252380Y-60952380D02*
X139252380Y-60333333D01*
X139633333Y-60666666D01*
X139633333Y-60523809D01*
X139680952Y-60428571D01*
X139728571Y-60380952D01*
X139823809Y-60333333D01*
X140061904Y-60333333D01*
X140157142Y-60380952D01*
X140204761Y-60428571D01*
X140252380Y-60523809D01*
X140252380Y-60809523D01*
X140204761Y-60904761D01*
X140157142Y-60952380D01*
X142506225Y-122066666D02*
X142030035Y-122400000D01*
X142506225Y-122638095D02*
X141506225Y-122638095D01*
X141506225Y-122257142D01*
X141553845Y-122161904D01*
X141601464Y-122114285D01*
X141696702Y-122066666D01*
X141839559Y-122066666D01*
X141934797Y-122114285D01*
X141982416Y-122161904D01*
X142030035Y-122257142D01*
X142030035Y-122638095D01*
X142506225Y-121114285D02*
X142506225Y-121685714D01*
X142506225Y-121400000D02*
X141506225Y-121400000D01*
X141649083Y-121495238D01*
X141744321Y-121590476D01*
X141791940Y-121685714D01*
X125583149Y-122166666D02*
X125106959Y-122500000D01*
X125583149Y-122738095D02*
X124583149Y-122738095D01*
X124583149Y-122357142D01*
X124630769Y-122261904D01*
X124678388Y-122214285D01*
X124773626Y-122166666D01*
X124916483Y-122166666D01*
X125011721Y-122214285D01*
X125059340Y-122261904D01*
X125106959Y-122357142D01*
X125106959Y-122738095D01*
X124678388Y-121785714D02*
X124630769Y-121738095D01*
X124583149Y-121642857D01*
X124583149Y-121404761D01*
X124630769Y-121309523D01*
X124678388Y-121261904D01*
X124773626Y-121214285D01*
X124868864Y-121214285D01*
X125011721Y-121261904D01*
X125583149Y-121833333D01*
X125583149Y-121214285D01*
X146686994Y-122066666D02*
X146210804Y-122400000D01*
X146686994Y-122638095D02*
X145686994Y-122638095D01*
X145686994Y-122257142D01*
X145734614Y-122161904D01*
X145782233Y-122114285D01*
X145877471Y-122066666D01*
X146020328Y-122066666D01*
X146115566Y-122114285D01*
X146163185Y-122161904D01*
X146210804Y-122257142D01*
X146210804Y-122638095D01*
X145686994Y-121733333D02*
X145686994Y-121114285D01*
X146067947Y-121447619D01*
X146067947Y-121304761D01*
X146115566Y-121209523D01*
X146163185Y-121161904D01*
X146258423Y-121114285D01*
X146496518Y-121114285D01*
X146591756Y-121161904D01*
X146639375Y-121209523D01*
X146686994Y-121304761D01*
X146686994Y-121590476D01*
X146639375Y-121685714D01*
X146591756Y-121733333D01*
X129763918Y-122066666D02*
X129287728Y-122400000D01*
X129763918Y-122638095D02*
X128763918Y-122638095D01*
X128763918Y-122257142D01*
X128811538Y-122161904D01*
X128859157Y-122114285D01*
X128954395Y-122066666D01*
X129097252Y-122066666D01*
X129192490Y-122114285D01*
X129240109Y-122161904D01*
X129287728Y-122257142D01*
X129287728Y-122638095D01*
X129097252Y-121209523D02*
X129763918Y-121209523D01*
X128716299Y-121447619D02*
X129430585Y-121685714D01*
X129430585Y-121066666D01*
X150917763Y-122066666D02*
X150441573Y-122400000D01*
X150917763Y-122638095D02*
X149917763Y-122638095D01*
X149917763Y-122257142D01*
X149965383Y-122161904D01*
X150013002Y-122114285D01*
X150108240Y-122066666D01*
X150251097Y-122066666D01*
X150346335Y-122114285D01*
X150393954Y-122161904D01*
X150441573Y-122257142D01*
X150441573Y-122638095D01*
X149917763Y-121161904D02*
X149917763Y-121638095D01*
X150393954Y-121685714D01*
X150346335Y-121638095D01*
X150298716Y-121542857D01*
X150298716Y-121304761D01*
X150346335Y-121209523D01*
X150393954Y-121161904D01*
X150489192Y-121114285D01*
X150727287Y-121114285D01*
X150822525Y-121161904D01*
X150870144Y-121209523D01*
X150917763Y-121304761D01*
X150917763Y-121542857D01*
X150870144Y-121638095D01*
X150822525Y-121685714D01*
X133994687Y-122066666D02*
X133518497Y-122400000D01*
X133994687Y-122638095D02*
X132994687Y-122638095D01*
X132994687Y-122257142D01*
X133042307Y-122161904D01*
X133089926Y-122114285D01*
X133185164Y-122066666D01*
X133328021Y-122066666D01*
X133423259Y-122114285D01*
X133470878Y-122161904D01*
X133518497Y-122257142D01*
X133518497Y-122638095D01*
X132994687Y-121209523D02*
X132994687Y-121400000D01*
X133042307Y-121495238D01*
X133089926Y-121542857D01*
X133232783Y-121638095D01*
X133423259Y-121685714D01*
X133804211Y-121685714D01*
X133899449Y-121638095D01*
X133947068Y-121590476D01*
X133994687Y-121495238D01*
X133994687Y-121304761D01*
X133947068Y-121209523D01*
X133899449Y-121161904D01*
X133804211Y-121114285D01*
X133566116Y-121114285D01*
X133470878Y-121161904D01*
X133423259Y-121209523D01*
X133375640Y-121304761D01*
X133375640Y-121495238D01*
X133423259Y-121590476D01*
X133470878Y-121638095D01*
X133566116Y-121685714D01*
X176302380Y-108166666D02*
X175826190Y-108500000D01*
X176302380Y-108738095D02*
X175302380Y-108738095D01*
X175302380Y-108357142D01*
X175350000Y-108261904D01*
X175397619Y-108214285D01*
X175492857Y-108166666D01*
X175635714Y-108166666D01*
X175730952Y-108214285D01*
X175778571Y-108261904D01*
X175826190Y-108357142D01*
X175826190Y-108738095D01*
X175302380Y-107833333D02*
X175302380Y-107166666D01*
X176302380Y-107595238D01*
X171633333Y-69052380D02*
X171300000Y-68576190D01*
X171061904Y-69052380D02*
X171061904Y-68052380D01*
X171442857Y-68052380D01*
X171538095Y-68100000D01*
X171585714Y-68147619D01*
X171633333Y-68242857D01*
X171633333Y-68385714D01*
X171585714Y-68480952D01*
X171538095Y-68528571D01*
X171442857Y-68576190D01*
X171061904Y-68576190D01*
X172204761Y-68480952D02*
X172109523Y-68433333D01*
X172061904Y-68385714D01*
X172014285Y-68290476D01*
X172014285Y-68242857D01*
X172061904Y-68147619D01*
X172109523Y-68100000D01*
X172204761Y-68052380D01*
X172395238Y-68052380D01*
X172490476Y-68100000D01*
X172538095Y-68147619D01*
X172585714Y-68242857D01*
X172585714Y-68290476D01*
X172538095Y-68385714D01*
X172490476Y-68433333D01*
X172395238Y-68480952D01*
X172204761Y-68480952D01*
X172109523Y-68528571D01*
X172061904Y-68576190D01*
X172014285Y-68671428D01*
X172014285Y-68861904D01*
X172061904Y-68957142D01*
X172109523Y-69004761D01*
X172204761Y-69052380D01*
X172395238Y-69052380D01*
X172490476Y-69004761D01*
X172538095Y-68957142D01*
X172585714Y-68861904D01*
X172585714Y-68671428D01*
X172538095Y-68576190D01*
X172490476Y-68528571D01*
X172395238Y-68480952D01*
X171633333Y-62852380D02*
X171300000Y-62376190D01*
X171061904Y-62852380D02*
X171061904Y-61852380D01*
X171442857Y-61852380D01*
X171538095Y-61900000D01*
X171585714Y-61947619D01*
X171633333Y-62042857D01*
X171633333Y-62185714D01*
X171585714Y-62280952D01*
X171538095Y-62328571D01*
X171442857Y-62376190D01*
X171061904Y-62376190D01*
X172109523Y-62852380D02*
X172300000Y-62852380D01*
X172395238Y-62804761D01*
X172442857Y-62757142D01*
X172538095Y-62614285D01*
X172585714Y-62423809D01*
X172585714Y-62042857D01*
X172538095Y-61947619D01*
X172490476Y-61900000D01*
X172395238Y-61852380D01*
X172204761Y-61852380D01*
X172109523Y-61900000D01*
X172061904Y-61947619D01*
X172014285Y-62042857D01*
X172014285Y-62280952D01*
X172061904Y-62376190D01*
X172109523Y-62423809D01*
X172204761Y-62471428D01*
X172395238Y-62471428D01*
X172490476Y-62423809D01*
X172538095Y-62376190D01*
X172585714Y-62280952D01*
X163660070Y-122542857D02*
X163183880Y-122876190D01*
X163660070Y-123114285D02*
X162660070Y-123114285D01*
X162660070Y-122733333D01*
X162707690Y-122638095D01*
X162755309Y-122590476D01*
X162850547Y-122542857D01*
X162993404Y-122542857D01*
X163088642Y-122590476D01*
X163136261Y-122638095D01*
X163183880Y-122733333D01*
X163183880Y-123114285D01*
X163660070Y-121590476D02*
X163660070Y-122161904D01*
X163660070Y-121876190D02*
X162660070Y-121876190D01*
X162802928Y-121971428D01*
X162898166Y-122066666D01*
X162945785Y-122161904D01*
X162660070Y-120971428D02*
X162660070Y-120876190D01*
X162707690Y-120780952D01*
X162755309Y-120733333D01*
X162850547Y-120685714D01*
X163041023Y-120638095D01*
X163279118Y-120638095D01*
X163469594Y-120685714D01*
X163564832Y-120733333D01*
X163612451Y-120780952D01*
X163660070Y-120876190D01*
X163660070Y-120971428D01*
X163612451Y-121066666D01*
X163564832Y-121114285D01*
X163469594Y-121161904D01*
X163279118Y-121209523D01*
X163041023Y-121209523D01*
X162850547Y-121161904D01*
X162755309Y-121114285D01*
X162707690Y-121066666D01*
X162660070Y-120971428D01*
X159379301Y-122542857D02*
X158903111Y-122876190D01*
X159379301Y-123114285D02*
X158379301Y-123114285D01*
X158379301Y-122733333D01*
X158426921Y-122638095D01*
X158474540Y-122590476D01*
X158569778Y-122542857D01*
X158712635Y-122542857D01*
X158807873Y-122590476D01*
X158855492Y-122638095D01*
X158903111Y-122733333D01*
X158903111Y-123114285D01*
X159379301Y-121590476D02*
X159379301Y-122161904D01*
X159379301Y-121876190D02*
X158379301Y-121876190D01*
X158522159Y-121971428D01*
X158617397Y-122066666D01*
X158665016Y-122161904D01*
X159379301Y-120638095D02*
X159379301Y-121209523D01*
X159379301Y-120923809D02*
X158379301Y-120923809D01*
X158522159Y-121019047D01*
X158617397Y-121114285D01*
X158665016Y-121209523D01*
X167840839Y-122542857D02*
X167364649Y-122876190D01*
X167840839Y-123114285D02*
X166840839Y-123114285D01*
X166840839Y-122733333D01*
X166888459Y-122638095D01*
X166936078Y-122590476D01*
X167031316Y-122542857D01*
X167174173Y-122542857D01*
X167269411Y-122590476D01*
X167317030Y-122638095D01*
X167364649Y-122733333D01*
X167364649Y-123114285D01*
X167840839Y-121590476D02*
X167840839Y-122161904D01*
X167840839Y-121876190D02*
X166840839Y-121876190D01*
X166983697Y-121971428D01*
X167078935Y-122066666D01*
X167126554Y-122161904D01*
X166936078Y-121209523D02*
X166888459Y-121161904D01*
X166840839Y-121066666D01*
X166840839Y-120828571D01*
X166888459Y-120733333D01*
X166936078Y-120685714D01*
X167031316Y-120638095D01*
X167126554Y-120638095D01*
X167269411Y-120685714D01*
X167840839Y-121257142D01*
X167840839Y-120638095D01*
X176302380Y-122542857D02*
X175826190Y-122876190D01*
X176302380Y-123114285D02*
X175302380Y-123114285D01*
X175302380Y-122733333D01*
X175350000Y-122638095D01*
X175397619Y-122590476D01*
X175492857Y-122542857D01*
X175635714Y-122542857D01*
X175730952Y-122590476D01*
X175778571Y-122638095D01*
X175826190Y-122733333D01*
X175826190Y-123114285D01*
X176302380Y-121590476D02*
X176302380Y-122161904D01*
X176302380Y-121876190D02*
X175302380Y-121876190D01*
X175445238Y-121971428D01*
X175540476Y-122066666D01*
X175588095Y-122161904D01*
X175302380Y-121257142D02*
X175302380Y-120638095D01*
X175683333Y-120971428D01*
X175683333Y-120828571D01*
X175730952Y-120733333D01*
X175778571Y-120685714D01*
X175873809Y-120638095D01*
X176111904Y-120638095D01*
X176207142Y-120685714D01*
X176254761Y-120733333D01*
X176302380Y-120828571D01*
X176302380Y-121114285D01*
X176254761Y-121209523D01*
X176207142Y-121257142D01*
X121302380Y-122542857D02*
X120826190Y-122876190D01*
X121302380Y-123114285D02*
X120302380Y-123114285D01*
X120302380Y-122733333D01*
X120350000Y-122638095D01*
X120397619Y-122590476D01*
X120492857Y-122542857D01*
X120635714Y-122542857D01*
X120730952Y-122590476D01*
X120778571Y-122638095D01*
X120826190Y-122733333D01*
X120826190Y-123114285D01*
X121302380Y-121590476D02*
X121302380Y-122161904D01*
X121302380Y-121876190D02*
X120302380Y-121876190D01*
X120445238Y-121971428D01*
X120540476Y-122066666D01*
X120588095Y-122161904D01*
X120635714Y-120733333D02*
X121302380Y-120733333D01*
X120254761Y-120971428D02*
X120969047Y-121209523D01*
X120969047Y-120590476D01*
X145752380Y-80642857D02*
X145276190Y-80976190D01*
X145752380Y-81214285D02*
X144752380Y-81214285D01*
X144752380Y-80833333D01*
X144800000Y-80738095D01*
X144847619Y-80690476D01*
X144942857Y-80642857D01*
X145085714Y-80642857D01*
X145180952Y-80690476D01*
X145228571Y-80738095D01*
X145276190Y-80833333D01*
X145276190Y-81214285D01*
X145752380Y-79690476D02*
X145752380Y-80261904D01*
X145752380Y-79976190D02*
X144752380Y-79976190D01*
X144895238Y-80071428D01*
X144990476Y-80166666D01*
X145038095Y-80261904D01*
X144752380Y-78785714D02*
X144752380Y-79261904D01*
X145228571Y-79309523D01*
X145180952Y-79261904D01*
X145133333Y-79166666D01*
X145133333Y-78928571D01*
X145180952Y-78833333D01*
X145228571Y-78785714D01*
X145323809Y-78738095D01*
X145561904Y-78738095D01*
X145657142Y-78785714D01*
X145704761Y-78833333D01*
X145752380Y-78928571D01*
X145752380Y-79166666D01*
X145704761Y-79261904D01*
X145657142Y-79309523D01*
X134430416Y-128654761D02*
X134573273Y-128702380D01*
X134811369Y-128702380D01*
X134906607Y-128654761D01*
X134954226Y-128607142D01*
X135001845Y-128511904D01*
X135001845Y-128416666D01*
X134954226Y-128321428D01*
X134906607Y-128273809D01*
X134811369Y-128226190D01*
X134620892Y-128178571D01*
X134525654Y-128130952D01*
X134478035Y-128083333D01*
X134430416Y-127988095D01*
X134430416Y-127892857D01*
X134478035Y-127797619D01*
X134525654Y-127750000D01*
X134620892Y-127702380D01*
X134858988Y-127702380D01*
X135001845Y-127750000D01*
X135335178Y-127702380D02*
X135573273Y-128702380D01*
X135763750Y-127988095D01*
X135954226Y-128702380D01*
X136192321Y-127702380D01*
X136525654Y-127797619D02*
X136573273Y-127750000D01*
X136668511Y-127702380D01*
X136906607Y-127702380D01*
X137001845Y-127750000D01*
X137049464Y-127797619D01*
X137097083Y-127892857D01*
X137097083Y-127988095D01*
X137049464Y-128130952D01*
X136478035Y-128702380D01*
X137097083Y-128702380D01*
X130442857Y-137866666D02*
X130919047Y-137866666D01*
X130347619Y-138152380D02*
X130680952Y-137152380D01*
X131014285Y-138152380D01*
X131776190Y-137485714D02*
X131776190Y-138152380D01*
X131347619Y-137485714D02*
X131347619Y-138009523D01*
X131395238Y-138104761D01*
X131490476Y-138152380D01*
X131633333Y-138152380D01*
X131728571Y-138104761D01*
X131776190Y-138057142D01*
X132109523Y-137485714D02*
X132490476Y-137485714D01*
X132252380Y-137152380D02*
X132252380Y-138009523D01*
X132300000Y-138104761D01*
X132395238Y-138152380D01*
X132490476Y-138152380D01*
X132966666Y-138152380D02*
X132871428Y-138104761D01*
X132823809Y-138057142D01*
X132776190Y-137961904D01*
X132776190Y-137676190D01*
X132823809Y-137580952D01*
X132871428Y-137533333D01*
X132966666Y-137485714D01*
X133109523Y-137485714D01*
X133204761Y-137533333D01*
X133252380Y-137580952D01*
X133300000Y-137676190D01*
X133300000Y-137961904D01*
X133252380Y-138057142D01*
X133204761Y-138104761D01*
X133109523Y-138152380D01*
X132966666Y-138152380D01*
X135204761Y-137104761D02*
X134347619Y-138390476D01*
X136300000Y-138152380D02*
X136300000Y-137152380D01*
X136633333Y-137866666D01*
X136966666Y-137152380D01*
X136966666Y-138152380D01*
X137871428Y-138152380D02*
X137871428Y-137628571D01*
X137823809Y-137533333D01*
X137728571Y-137485714D01*
X137538095Y-137485714D01*
X137442857Y-137533333D01*
X137871428Y-138104761D02*
X137776190Y-138152380D01*
X137538095Y-138152380D01*
X137442857Y-138104761D01*
X137395238Y-138009523D01*
X137395238Y-137914285D01*
X137442857Y-137819047D01*
X137538095Y-137771428D01*
X137776190Y-137771428D01*
X137871428Y-137723809D01*
X138347619Y-137485714D02*
X138347619Y-138152380D01*
X138347619Y-137580952D02*
X138395238Y-137533333D01*
X138490476Y-137485714D01*
X138633333Y-137485714D01*
X138728571Y-137533333D01*
X138776190Y-137628571D01*
X138776190Y-138152380D01*
X139680952Y-137485714D02*
X139680952Y-138152380D01*
X139252380Y-137485714D02*
X139252380Y-138009523D01*
X139300000Y-138104761D01*
X139395238Y-138152380D01*
X139538095Y-138152380D01*
X139633333Y-138104761D01*
X139680952Y-138057142D01*
X140585714Y-138152380D02*
X140585714Y-137628571D01*
X140538095Y-137533333D01*
X140442857Y-137485714D01*
X140252380Y-137485714D01*
X140157142Y-137533333D01*
X140585714Y-138104761D02*
X140490476Y-138152380D01*
X140252380Y-138152380D01*
X140157142Y-138104761D01*
X140109523Y-138009523D01*
X140109523Y-137914285D01*
X140157142Y-137819047D01*
X140252380Y-137771428D01*
X140490476Y-137771428D01*
X140585714Y-137723809D01*
X141204761Y-138152380D02*
X141109523Y-138104761D01*
X141061904Y-138009523D01*
X141061904Y-137152380D01*
X134172380Y-80761904D02*
X134981904Y-80761904D01*
X135077142Y-80714285D01*
X135124761Y-80666666D01*
X135172380Y-80571428D01*
X135172380Y-80380952D01*
X135124761Y-80285714D01*
X135077142Y-80238095D01*
X134981904Y-80190476D01*
X134172380Y-80190476D01*
X135172380Y-79190476D02*
X135172380Y-79761904D01*
X135172380Y-79476190D02*
X134172380Y-79476190D01*
X134315238Y-79571428D01*
X134410476Y-79666666D01*
X134458095Y-79761904D01*
X154252380Y-94161904D02*
X155061904Y-94161904D01*
X155157142Y-94114285D01*
X155204761Y-94066666D01*
X155252380Y-93971428D01*
X155252380Y-93780952D01*
X155204761Y-93685714D01*
X155157142Y-93638095D01*
X155061904Y-93590476D01*
X154252380Y-93590476D01*
X154347619Y-93161904D02*
X154300000Y-93114285D01*
X154252380Y-93019047D01*
X154252380Y-92780952D01*
X154300000Y-92685714D01*
X154347619Y-92638095D01*
X154442857Y-92590476D01*
X154538095Y-92590476D01*
X154680952Y-92638095D01*
X155252380Y-93209523D01*
X155252380Y-92590476D01*
X154172380Y-80761904D02*
X154981904Y-80761904D01*
X155077142Y-80714285D01*
X155124761Y-80666666D01*
X155172380Y-80571428D01*
X155172380Y-80380952D01*
X155124761Y-80285714D01*
X155077142Y-80238095D01*
X154981904Y-80190476D01*
X154172380Y-80190476D01*
X154172380Y-79809523D02*
X154172380Y-79190476D01*
X154553333Y-79523809D01*
X154553333Y-79380952D01*
X154600952Y-79285714D01*
X154648571Y-79238095D01*
X154743809Y-79190476D01*
X154981904Y-79190476D01*
X155077142Y-79238095D01*
X155124761Y-79285714D01*
X155172380Y-79380952D01*
X155172380Y-79666666D01*
X155124761Y-79761904D01*
X155077142Y-79809523D01*
X134252380Y-94161904D02*
X135061904Y-94161904D01*
X135157142Y-94114285D01*
X135204761Y-94066666D01*
X135252380Y-93971428D01*
X135252380Y-93780952D01*
X135204761Y-93685714D01*
X135157142Y-93638095D01*
X135061904Y-93590476D01*
X134252380Y-93590476D01*
X134585714Y-92685714D02*
X135252380Y-92685714D01*
X134204761Y-92923809D02*
X134919047Y-93161904D01*
X134919047Y-92542857D01*
X118752380Y-80761904D02*
X119561904Y-80761904D01*
X119657142Y-80714285D01*
X119704761Y-80666666D01*
X119752380Y-80571428D01*
X119752380Y-80380952D01*
X119704761Y-80285714D01*
X119657142Y-80238095D01*
X119561904Y-80190476D01*
X118752380Y-80190476D01*
X118752380Y-79238095D02*
X118752380Y-79714285D01*
X119228571Y-79761904D01*
X119180952Y-79714285D01*
X119133333Y-79619047D01*
X119133333Y-79380952D01*
X119180952Y-79285714D01*
X119228571Y-79238095D01*
X119323809Y-79190476D01*
X119561904Y-79190476D01*
X119657142Y-79238095D01*
X119704761Y-79285714D01*
X119752380Y-79380952D01*
X119752380Y-79619047D01*
X119704761Y-79714285D01*
X119657142Y-79761904D01*
X175690476Y-92102380D02*
X176357142Y-93102380D01*
X176357142Y-92102380D02*
X175690476Y-93102380D01*
X177261904Y-93102380D02*
X176690476Y-93102380D01*
X176976190Y-93102380D02*
X176976190Y-92102380D01*
X176880952Y-92245238D01*
X176785714Y-92340476D01*
X176690476Y-92388095D01*
X127461904Y-62802380D02*
X127461904Y-61802380D01*
X127700000Y-61802380D01*
X127842857Y-61850000D01*
X127938095Y-61945238D01*
X127985714Y-62040476D01*
X128033333Y-62230952D01*
X128033333Y-62373809D01*
X127985714Y-62564285D01*
X127938095Y-62659523D01*
X127842857Y-62754761D01*
X127700000Y-62802380D01*
X127461904Y-62802380D01*
X128890476Y-61802380D02*
X128700000Y-61802380D01*
X128604761Y-61850000D01*
X128557142Y-61897619D01*
X128461904Y-62040476D01*
X128414285Y-62230952D01*
X128414285Y-62611904D01*
X128461904Y-62707142D01*
X128509523Y-62754761D01*
X128604761Y-62802380D01*
X128795238Y-62802380D01*
X128890476Y-62754761D01*
X128938095Y-62707142D01*
X128985714Y-62611904D01*
X128985714Y-62373809D01*
X128938095Y-62278571D01*
X128890476Y-62230952D01*
X128795238Y-62183333D01*
X128604761Y-62183333D01*
X128509523Y-62230952D01*
X128461904Y-62278571D01*
X128414285Y-62373809D01*
X126223809Y-66252380D02*
X126223809Y-65252380D01*
X126604761Y-65252380D01*
X126700000Y-65300000D01*
X126747619Y-65347619D01*
X126795238Y-65442857D01*
X126795238Y-65585714D01*
X126747619Y-65680952D01*
X126700000Y-65728571D01*
X126604761Y-65776190D01*
X126223809Y-65776190D01*
X127366666Y-66252380D02*
X127271428Y-66204761D01*
X127223809Y-66157142D01*
X127176190Y-66061904D01*
X127176190Y-65776190D01*
X127223809Y-65680952D01*
X127271428Y-65633333D01*
X127366666Y-65585714D01*
X127509523Y-65585714D01*
X127604761Y-65633333D01*
X127652380Y-65680952D01*
X127700000Y-65776190D01*
X127700000Y-66061904D01*
X127652380Y-66157142D01*
X127604761Y-66204761D01*
X127509523Y-66252380D01*
X127366666Y-66252380D01*
X128033333Y-65585714D02*
X128223809Y-66252380D01*
X128414285Y-65776190D01*
X128604761Y-66252380D01*
X128795238Y-65585714D01*
X129557142Y-66204761D02*
X129461904Y-66252380D01*
X129271428Y-66252380D01*
X129176190Y-66204761D01*
X129128571Y-66109523D01*
X129128571Y-65728571D01*
X129176190Y-65633333D01*
X129271428Y-65585714D01*
X129461904Y-65585714D01*
X129557142Y-65633333D01*
X129604761Y-65728571D01*
X129604761Y-65823809D01*
X129128571Y-65919047D01*
X130033333Y-66252380D02*
X130033333Y-65585714D01*
X130033333Y-65776190D02*
X130080952Y-65680952D01*
X130128571Y-65633333D01*
X130223809Y-65585714D01*
X130319047Y-65585714D01*
X121857142Y-62802380D02*
X121523809Y-62326190D01*
X121285714Y-62802380D02*
X121285714Y-61802380D01*
X121666666Y-61802380D01*
X121761904Y-61850000D01*
X121809523Y-61897619D01*
X121857142Y-61992857D01*
X121857142Y-62135714D01*
X121809523Y-62230952D01*
X121761904Y-62278571D01*
X121666666Y-62326190D01*
X121285714Y-62326190D01*
X122809523Y-62802380D02*
X122238095Y-62802380D01*
X122523809Y-62802380D02*
X122523809Y-61802380D01*
X122428571Y-61945238D01*
X122333333Y-62040476D01*
X122238095Y-62088095D01*
X123666666Y-61802380D02*
X123476190Y-61802380D01*
X123380952Y-61850000D01*
X123333333Y-61897619D01*
X123238095Y-62040476D01*
X123190476Y-62230952D01*
X123190476Y-62611904D01*
X123238095Y-62707142D01*
X123285714Y-62754761D01*
X123380952Y-62802380D01*
X123571428Y-62802380D01*
X123666666Y-62754761D01*
X123714285Y-62707142D01*
X123761904Y-62611904D01*
X123761904Y-62373809D01*
X123714285Y-62278571D01*
X123666666Y-62230952D01*
X123571428Y-62183333D01*
X123380952Y-62183333D01*
X123285714Y-62230952D01*
X123238095Y-62278571D01*
X123190476Y-62373809D01*
X124602380Y-113342857D02*
X124126190Y-113676190D01*
X124602380Y-113914285D02*
X123602380Y-113914285D01*
X123602380Y-113533333D01*
X123650000Y-113438095D01*
X123697619Y-113390476D01*
X123792857Y-113342857D01*
X123935714Y-113342857D01*
X124030952Y-113390476D01*
X124078571Y-113438095D01*
X124126190Y-113533333D01*
X124126190Y-113914285D01*
X124602380Y-112390476D02*
X124602380Y-112961904D01*
X124602380Y-112676190D02*
X123602380Y-112676190D01*
X123745238Y-112771428D01*
X123840476Y-112866666D01*
X123888095Y-112961904D01*
X123602380Y-112057142D02*
X123602380Y-111390476D01*
X124602380Y-111819047D01*
M02*
